<?xml version="1.0" encoding="UTF-8" standalone="no"?>
<!-- Created with Inkscape (http://www.inkscape.org/) -->

<svg
   xmlns:dc="http://purl.org/dc/elements/1.1/"
   xmlns:cc="http://creativecommons.org/ns#"
   xmlns:rdf="http://www.w3.org/1999/02/22-rdf-syntax-ns#"
   xmlns:svg="http://www.w3.org/2000/svg"
   xmlns="http://www.w3.org/2000/svg"
   xmlns:sodipodi="http://sodipodi.sourceforge.net/DTD/sodipodi-0.dtd"
   xmlns:inkscape="http://www.inkscape.org/namespaces/inkscape"
   width="300"
   height="300"
   id="svg2"
   version="1.1"
   inkscape:version="0.48.4 r9939"
   sodipodi:docname="notcloud.svg">
  <defs
     id="defs4" />
  <sodipodi:namedview
     id="base"
     pagecolor="#ffffff"
     bordercolor="#666666"
     borderopacity="1.0"
     inkscape:pageopacity="0.0"
     inkscape:pageshadow="2"
     inkscape:zoom="1.4"
     inkscape:cx="195.389"
     inkscape:cy="156.68606"
     inkscape:document-units="px"
     inkscape:current-layer="g5399"
     showgrid="false"
     inkscape:window-width="1024"
     inkscape:window-height="768"
     inkscape:window-x="0"
     inkscape:window-y="0"
     inkscape:window-maximized="1"
     showguides="true"
     inkscape:guide-bbox="true" />
  <metadata
     id="metadata7">
    <rdf:RDF>
      <cc:Work
         rdf:about="">
        <dc:format>image/svg+xml</dc:format>
        <dc:type
           rdf:resource="http://purl.org/dc/dcmitype/StillImage" />
        <dc:title></dc:title>
      </cc:Work>
    </rdf:RDF>
  </metadata>
  <g
     inkscape:label="Layer 1"
     inkscape:groupmode="layer"
     id="layer1"
     transform="translate(0,-752.36218)">
    <text
       xml:space="preserve"
       style="font-size:12px;font-style:normal;font-variant:normal;font-weight:normal;font-stretch:normal;text-align:center;line-height:125%;letter-spacing:0px;word-spacing:0px;text-anchor:middle;fill:#000000;fill-opacity:1;stroke:none;font-family:DejaVu Sans;-inkscape-font-specification:DejaVu Sans"
       x="150.71428"
       y="779.2193"
       id="text2985"
       sodipodi:linespacing="125%"><tspan
         sodipodi:role="line"
         x="150.71428"
         y="779.2193"
         id="tspan4037">Humphrey The Rabbit  is proudly <tspan
   style="font-weight:bold;-inkscape-font-specification:DejaVu Sans Bold Oblique;font-style:oblique"
   id="tspan4370">not</tspan> hosted</tspan><tspan
         sodipodi:role="line"
         x="150.71428"
         y="794.2193"
         id="tspan4368">in <tspan
   style="font-weight:bold;-inkscape-font-specification:DejaVu Sans Bold Oblique;font-style:oblique"
   id="tspan4374">The Cloud</tspan></tspan></text>
    <flowRoot
       xml:space="preserve"
       id="flowRoot3398"
       style="fill:black;stroke:none;stroke-opacity:1;stroke-width:1px;stroke-linejoin:miter;stroke-linecap:butt;fill-opacity:1;font-family:ComicSans;font-style:normal;font-weight:normal;font-size:12px;line-height:125%;letter-spacing:0px;word-spacing:0px;-inkscape-font-specification:ComicSans;font-stretch:normal;font-variant:normal;text-anchor:middle;text-align:center"><flowRegion
         id="flowRegion3400"><rect
           id="rect3402"
           width="76.771591"
           height="42.426407"
           x="42.931484"
           y="127.76899" /></flowRegion><flowPara
         id="flowPara3404" /></flowRoot>    <path
       sodipodi:type="arc"
       style="opacity:0;fill:#999999;stroke:#999999;stroke-width:10"
       id="path5315"
       sodipodi:cx="144.95689"
       sodipodi:cy="148.47711"
       sodipodi:rx="29.7995"
       sodipodi:ry="30.304577"
       d="m 174.75639,148.47711 a 29.7995,30.304577 0 1 1 -59.599,0 29.7995,30.304577 0 1 1 59.599,0 z"
       transform="translate(0,752.36218)" />
    <g
       style="font-size:12px;font-style:normal;font-weight:normal;fill:#000000;fill-opacity:1;stroke:#000000;stroke-width:1;stroke-linecap:square;stroke-linejoin:miter;stroke-miterlimit:10;stroke-opacity:1;stroke-dasharray:none;stroke-dashoffset:0;font-family:Dialog"
       id="g5407"
       transform="matrix(0.56507321,0,0,0.56507321,66.111729,762.70139)">
      <g
         id="g5399">
        <path
           style="stroke:none"
           inkscape:connector-curvature="0"
           d="m 231.28765,237.37911 q -1.6875,6.3282 -1.8281,12.7969 -0.2813,8.8594 -0.7031,10.4063 -1.5469,5.3437 -7.5938,5.3437 -8.2969,0 -8.2969,-7.875 0,-12.7969 18.4219,-20.6719 z m 58.5,-56.5312 q 0,10.9688 -33.8906,27.8438 -9.7032,13.0781 -34.7344,13.0781 -10.2656,0 -23.3438,1.9687 -21.5156,3.375 -22.6406,3.5156 l -28.9687,62.5782 -11.25,-13.5 -44.015701,48.7968 -5.4843,0 47.671901,-98.1562 9.9843,12.2344 8.5781,-17.0156 q -8.2968,-2.6719 -13.7812,-2.6719 -3.375,0 -10.125,0.914 -6.75,0.9141 -10.125,0.9141 -15.3281,0 -25.734401,-8.2969 -7.4531,-5.9062 -8.8594,-6.6093 -3.7968,-1.9688 -11.5312,-1.9688 -6.8906,0 -20.3906,3.1641 -13.5,3.164 -20.3906,3.164 -28.9688,0 -28.9688,-17.1562 0,-11.9531 45,-18.5625 0.2812,-8.0156 3.375,-13.2188 1.8281,-3.0937 8.8594,-10.2656 13.7812,-34.3125 28.2656,-34.3125 3.7969,0 7.0312,1.4063 2.1094,-11.5313 13.781301,-23.343797 12.2344,-12.5156 23.4844,-12.5156 8.2969,0 14.0625,8.2968 11.9531,-20.812399 30.5156,-20.812399 13.2188,0 23.2734,8.718699 10.0547,8.7187 10.0547,21.656297 0,5.4843 -1.5469,10.4062 5.3438,-1.5469 12.0938,-1.5469 11.8125,0 19.9688,8.1563 8.1562,8.1562 8.1562,19.8281 0,7.5937 -3.6562,15.4687 2.6718,-0.5624 5.2031,-0.5624 12.375,0 25.4531,7.875 14.625,9 14.625,20.5312 z m -100.6875,56.5312 q -1.6875,6.3282 -1.8281,12.7969 -0.2813,8.8594 -0.7032,10.4063 -1.5468,5.3437 -7.5937,5.3437 -8.2969,0 -8.2969,-7.875 0,-12.7969 18.4219,-20.6719 z m 21.0937,42.1876 q -1.6874,6.3281 -1.8281,12.7968 -0.2812,8.8594 -0.7031,10.4063 -1.5469,5.3437 -7.5938,5.3437 -8.2968,0 -8.2968,-7.875 0,-12.7968 18.4218,-20.6718 z m -42.1874,0 q -1.6876,6.3281 -1.8282,12.7968 -0.2812,8.8594 -0.7031,10.4063 -1.5469,5.3437 -7.5937,5.3437 -8.2969,0 -8.2969,-7.875 0,-12.7968 18.4219,-20.6718 z m -63.2813,-42.1876 q -1.6875,6.3282 -1.8281,12.7969 -0.2813,8.8594 -0.7032,10.4063 -1.5468,5.3437 -7.593701,5.3437 -8.2969,0 -8.2969,-7.875 0,-12.7969 18.421901,-20.6719 z m -42.187501,0 q -1.6875,6.3282 -1.8281,12.7969 -0.2813,8.8594 -0.7031,10.4063 -1.5469,5.3437 -7.5938,5.3437 -8.2969,0 -8.2969,-7.875 0,-12.7969 18.4219,-20.6719 z m 21.0938,42.1876 q -1.6876,6.3281 -1.8282,12.7968 -0.2812,8.8594 -0.7031,10.4063 -1.5469,5.3437 -7.5937,5.3437 -8.2969,0 -8.2969,-7.875 0,-12.7968 18.4219,-20.6718 z m -42.1876,0 q -1.6874,6.3281 -1.8281,12.7968 -0.2812,8.8594 -0.7031,10.4063 -1.5469,5.3437 -7.5938,5.3437 -8.2968,0 -8.2968,-7.875 0,-12.7968 18.4218,-20.6718 z M 275.02205,179.01981 q 0,-7.5938 -10.9688,-11.5313 -7.875,-2.8125 -17.1562,-2.8125 -12.0938,0 -19.6875,8.2969 3.375,5.0625 3.375,8.1562 0,14.3438 -20.25,14.3438 -12.2344,0 -20.3907,-4.6406 -3.6562,-2.1094 -3.6562,-5.625 0,-3.5156 3.6562,-4.6406 15.8907,5.3437 20.6719,5.3437 9.2813,0 9.2813,-5.0625 0,-2.3906 -8.1563,-8.2969 7.4531,-11.5312 7.4531,-22.2187 0,-4.9219 -5.0624,-7.875 -4.3594,-2.3906 -9.7032,-2.3906 -11.8125,0 -20.3906,7.875 -1.9688,0.5624 -3.9375,0.5624 -4.7813,0 -4.7813,-3.5156 0,-1.6875 1.5469,-3.5156 9.9844,-11.8125 29.1094,-11.8125 9.2813,0 16.4531,5.3437 7.875,5.7657 7.875,14.7657 0,3.2343 -0.4218,6.6093 6.3281,-8.4374 6.3281,-15.3281 0,-7.3125 -4.9922,-13.289 -4.9922,-5.9766 -12.1641,-5.9766 -16.5937,0 -23.0625,8.0156 -8.0156,-0.2812 -10.2656,-4.5 6.8906,-7.4531 8.5781,-10.125 3.2344,-5.3437 3.2344,-12.7969 0,-7.874997 -6.8203,-13.218697 -6.8203,-5.3437 -14.8359,-5.3437 -16.7344,0 -31.2188,33.609297 -4.3594,-19.546897 -14.7656,-19.546897 -7.875,0 -17.5782,9.562597 -10.125,9.9843 -10.125,24.3281 l -6.609301,8.7187 q -4.6407,-12.9375 -8.4375,-12.9375 -7.0313,0 -13.5,13.9219 -8.5782,18.8438 -9.4219,19.8281 -2.5313,2.6719 -5.0625,5.4844 -1.6875,2.3906 -2.1094,7.3125 l 23.9063,-1.9688 q 0.5625,1.125 0.5625,2.3907 0,4.2187 -3.9375,8.1562 -17.2969,0 -43.7344,4.7813 -5.9063,0.8437 -11.8125,1.8281 -9.2812,1.8281 -9.2812,4.3594 0,6.8906 18,6.8906 7.0312,0 20.5312,-3.2344 13.5,-3.2343 20.5312,-3.2343 13.2188,0 24.6797,8.2265 11.461001,8.2266 21.164101,8.2266 30.0938,0 30.0938,-16.5938 1.8281,-2.5312 4.7812,-2.5312 2.9531,0 5.2031,2.5312 0,10.4063 -7.5937,16.7344 17.7187,6.3281 23.4844,6.3281 8.2968,0 39.7968,-5.3437 4.9219,-0.8438 8.1563,-0.8438 17.5781,0 23.4843,-9.7031 8.5782,-4.7812 17.2969,-9.7031 12.6563,-7.875 12.6563,-12.375 z m -107.4375,47.9531 -9.2813,-2.5312 -13.6406,27.7031 -9.9844,-12.2344 -27.5625,56.8125 28.125,-31.2188 9.2813,11.25 23.0625,-49.7812 z m -33.4688,-91.6875 q -1.6875,4.5 -5.7656,4.5 -0.8437,0 -1.6875,-0.2813 -0.8438,-8.8593 -1.8281,-8.8593 -5.625,0 -8.1563,8.4375 -1.4062,6.4687 -2.6718,12.9375 -1.2657,4.7812 -5.9063,5.0625 -2.6719,-5.4844 -3.5156,-5.4844 -3.7969,0 -6.046899,6.0469 -1.125002,4.5 -2.390602,9.1406 -3.5156,11.8125 -12.7969,20.8125 8.8594,-46.5469 21.515601,-46.5469 1.125,0 2.25,0.4219 1.8281,-7.3125 5.9063,-13.5 5.3437,-7.875 11.25,-7.875 9.9844,0 9.8437,15.1875 z"
           id="path5401" />
        <path
           style="opacity:0;fill:#666666;stroke:#999999;stroke-width:3.57142854"
           d="m 160.19741,146.51659 c -3.36359,-0.98076 -9.48176,-2.92324 -9.61682,-3.05329 -0.0839,-0.0808 0.26332,-0.58716 0.77157,-1.12529 1.40009,-1.48237 2.40267,-3.68067 2.79788,-6.13473 0.33577,-2.08492 0.30967,-2.24928 -0.45902,-2.89028 -1.56659,-1.30636 -5.27602,-0.59467 -5.28131,1.01327 -0.006,1.73126 -0.89168,3.56675 -2.45282,5.08153 -2.05043,1.98955 -4.95566,3.03208 -10.07031,3.61367 -6.23556,0.70906 -9.19515,-0.13068 -16.79041,-4.76399 -5.39406,-3.29053 -7.93172,-4.04479 -13.54161,-4.02498 -3.91904,0.0139 -5.3367,0.20754 -11.607146,1.58585 -6.564599,1.44296 -7.547638,1.56974 -12.142858,1.5661 -5.161826,-0.004 -6.881278,-0.37118 -8.469072,-1.80812 -0.986794,-0.89304 -0.807121,-2.14669 0.396895,-2.76931 1.457242,-0.75357 3.001035,-1.06045 13.465607,-2.67671 9.857664,-1.52253 15.628814,-2.16279 19.499114,-2.16328 2.31991,-2.9e-4 2.42182,-0.0387 3.35744,-1.26535 0.99772,-1.30808 1.62304,-4.51161 0.96058,-4.92103 -0.18463,-0.11411 -3.19602,0.0328 -6.69198,0.32641 -3.49596,0.29363 -6.436204,0.45396 -6.533878,0.35628 -0.556957,-0.55695 0.506435,-2.90748 2.327748,-5.14526 1.52242,-1.87054 2.79778,-4.13828 4.99303,-8.87822 3.92667,-8.478349 6.33471,-11.544555 9.06652,-11.544555 1.24884,0 2.72835,1.884762 3.94743,5.028695 0.45088,1.16279 0.90512,2.11416 1.00942,2.11416 0.1043,0 1.02923,-1.12193 2.05539,-2.49317 1.35274,-1.807632 1.86721,-2.814209 1.87104,-3.660715 0.008,-1.722797 0.95407,-5.438369 1.82376,-7.160928 1.30131,-2.577496 3.20265,-4.909906 5.64408,-6.923711 7.27939,-6.004378 12.39663,-4.677772 15.20012,3.940513 0.55172,1.69605 1.10005,3.079407 1.21851,3.074126 0.11846,-0.0053 0.69409,-1.080477 1.27916,-2.389324 1.70707,-3.818831 4.95847,-9.036484 7.07346,-11.351075 4.58508,-5.017794 9.66977,-6.221018 14.96023,-3.540141 4.79289,2.428743 6.91804,6.379849 6.0579,11.262941 -0.51229,2.908333 -1.52235,4.793657 -4.19575,7.83156 -1.87312,2.128521 -2.19871,2.682135 -1.9027,3.235241 0.47001,0.87823 2.04189,1.667808 3.91725,1.96769 l 1.51343,0.242007 -1.92237,0.601784 c -3.13709,0.982046 -5.67101,2.458132 -7.69607,4.483182 -1.564,1.564 -1.90486,2.12489 -1.90486,3.13443 0,1.67081 0.74281,2.18584 3.07386,2.13126 1.55706,-0.0365 2.19259,-0.24937 3.26878,-1.0951 2.92368,-2.29759 6.18439,-3.37914 10.14187,-3.36397 3.17711,0.0122 5.24421,0.77617 6.90834,2.55329 1.01046,1.07906 1.06861,1.3002 1.02179,3.88572 -0.0551,3.04173 -1.16206,6.61228 -3.03466,9.78822 l -1.0636,1.80387 1.35967,1.1035 c 3.64506,2.95834 4.04045,3.95162 2.13651,5.36726 -1.68411,1.25219 -5.47455,0.99195 -11.00345,-0.75548 -4.65628,-1.47162 -5.23843,-1.48712 -6.29126,-0.16746 -0.66535,0.83399 -0.53978,2.70805 0.24863,3.71034 0.38228,0.48599 1.66732,1.31995 2.85566,1.85324 6.43717,2.88883 16.63509,2.49317 19.75736,-0.76656 2.16801,-2.26344 2.63737,-5.59595 1.17507,-8.34288 l -0.874,-1.64181 1.14185,-1.10387 c 1.58956,-1.53669 4.816,-2.9268 7.7305,-3.33068 6.21966,-0.86191 14.73651,1.73677 16.80364,5.12717 2.08652,3.42221 -0.16981,5.96833 -10.38683,11.72086 -3.17828,1.78948 -5.89238,3.61142 -7.11011,4.77294 -2.65674,2.5341 -4.92991,3.3529 -10.49326,3.77969 -2.38186,0.18271 -8.50922,0.98262 -13.61636,1.77756 -9.92723,1.5452 -15.66218,2.00485 -17.67858,1.41691 l 0,0 z M 114.5988,128.1187 c 2.21156,-2.71661 4.63632,-7.71936 5.60458,-11.56332 0.84026,-3.33583 1.16496,-4.10063 2.24378,-5.28508 1.09089,-1.19769 1.91605,-1.01017 2.75025,0.625 0.84335,1.65311 1.8845,1.87653 3.16883,0.67999 1.0122,-0.943 1.25195,-1.58461 1.99123,-5.32885 0.32902,-1.66634 0.84258,-3.79393 1.14125,-4.72798 0.63547,-1.98735 2.32967,-3.837441 3.51408,-3.837441 0.73522,0 0.85951,0.217848 1.06979,1.875001 0.37248,2.93548 0.47354,3.125 1.66636,3.125 0.71179,0 1.42746,-0.35262 2.11879,-1.04396 0.9357,-0.93569 1.04396,-1.28027 1.04396,-3.322731 0,-2.958203 -1.25323,-5.656385 -3.01568,-6.492725 -4.3179,-2.048974 -9.06854,1.73272 -11.6229,9.252276 -0.56605,1.66634 -0.69987,1.79896 -2.00187,1.98384 -0.76739,0.10898 -1.73483,0.38409 -2.14986,0.61136 -1.98177,1.08523 -4.18659,4.64611 -5.99535,9.68274 -0.87319,2.43146 -3.06067,10.69059 -3.60599,13.61491 -0.12821,0.6875 -0.31833,1.55027 -0.42249,1.91726 -0.33554,1.18216 0.6923,0.45675 2.50124,-1.76529 l 0,0 z"
           id="path5414"
           inkscape:connector-curvature="0"
           transform="matrix(1.7696822,0,0,1.7696822,-116.99675,-18.297116)" />
        <path
           style="opacity:0;fill:#666666;stroke:#999999;stroke-width:3.57142854"
           d="m 160.19741,146.51659 c -3.36359,-0.98076 -9.48176,-2.92324 -9.61682,-3.05329 -0.0839,-0.0808 0.26332,-0.58716 0.77157,-1.12529 1.40009,-1.48237 2.40267,-3.68067 2.79788,-6.13473 0.33577,-2.08492 0.30967,-2.24928 -0.45902,-2.89028 -1.56659,-1.30636 -5.27602,-0.59467 -5.28131,1.01327 -0.006,1.73126 -0.89168,3.56675 -2.45282,5.08153 -2.05043,1.98955 -4.95566,3.03208 -10.07031,3.61367 -6.23556,0.70906 -9.19515,-0.13068 -16.79041,-4.76399 -5.39406,-3.29053 -7.93172,-4.04479 -13.54161,-4.02498 -3.91904,0.0139 -5.3367,0.20754 -11.607146,1.58585 -6.564599,1.44296 -7.547638,1.56974 -12.142858,1.5661 -5.161826,-0.004 -6.881278,-0.37118 -8.469072,-1.80812 -0.986794,-0.89304 -0.807121,-2.14669 0.396895,-2.76931 1.457242,-0.75357 3.001035,-1.06045 13.465607,-2.67671 9.857664,-1.52253 15.628814,-2.16279 19.499114,-2.16328 2.31991,-2.9e-4 2.42182,-0.0387 3.35744,-1.26535 0.99772,-1.30808 1.62304,-4.51161 0.96058,-4.92103 -0.18463,-0.11411 -3.19602,0.0328 -6.69198,0.32641 -3.49596,0.29363 -6.436204,0.45396 -6.533878,0.35628 -0.556957,-0.55695 0.506435,-2.90748 2.327748,-5.14526 1.52242,-1.87054 2.79778,-4.13828 4.99303,-8.87822 3.92667,-8.478349 6.33471,-11.544555 9.06652,-11.544555 1.24884,0 2.72835,1.884762 3.94743,5.028695 0.45088,1.16279 0.90512,2.11416 1.00942,2.11416 0.1043,0 1.02923,-1.12193 2.05539,-2.49317 1.35274,-1.807632 1.86721,-2.814209 1.87104,-3.660715 0.008,-1.722797 0.95407,-5.438369 1.82376,-7.160928 1.30131,-2.577496 3.20265,-4.909906 5.64408,-6.923711 7.27939,-6.004378 12.39663,-4.677772 15.20012,3.940513 0.55172,1.69605 1.10005,3.079407 1.21851,3.074126 0.11846,-0.0053 0.69409,-1.080477 1.27916,-2.389324 1.70707,-3.818831 4.95847,-9.036484 7.07346,-11.351075 4.58508,-5.017794 9.66977,-6.221018 14.96023,-3.540141 4.79289,2.428743 6.91804,6.379849 6.0579,11.262941 -0.51229,2.908333 -1.52235,4.793657 -4.19575,7.83156 -1.87312,2.128521 -2.19871,2.682135 -1.9027,3.235241 0.47001,0.87823 2.04189,1.667808 3.91725,1.96769 l 1.51343,0.242007 -1.92237,0.601784 c -3.13709,0.982046 -5.67101,2.458132 -7.69607,4.483182 -1.564,1.564 -1.90486,2.12489 -1.90486,3.13443 0,1.67081 0.74281,2.18584 3.07386,2.13126 1.55706,-0.0365 2.19259,-0.24937 3.26878,-1.0951 2.92368,-2.29759 6.18439,-3.37914 10.14187,-3.36397 3.17711,0.0122 5.24421,0.77617 6.90834,2.55329 1.01046,1.07906 1.06861,1.3002 1.02179,3.88572 -0.0551,3.04173 -1.16206,6.61228 -3.03466,9.78822 l -1.0636,1.80387 1.35967,1.1035 c 3.64506,2.95834 4.04045,3.95162 2.13651,5.36726 -1.68411,1.25219 -5.47455,0.99195 -11.00345,-0.75548 -4.65628,-1.47162 -5.23843,-1.48712 -6.29126,-0.16746 -0.66535,0.83399 -0.53978,2.70805 0.24863,3.71034 0.38228,0.48599 1.66732,1.31995 2.85566,1.85324 6.43717,2.88883 16.63509,2.49317 19.75736,-0.76656 2.16801,-2.26344 2.63737,-5.59595 1.17507,-8.34288 l -0.874,-1.64181 1.14185,-1.10387 c 1.58956,-1.53669 4.816,-2.9268 7.7305,-3.33068 6.21966,-0.86191 14.73651,1.73677 16.80364,5.12717 2.08652,3.42221 -0.16981,5.96833 -10.38683,11.72086 -3.17828,1.78948 -5.89238,3.61142 -7.11011,4.77294 -2.65674,2.5341 -4.92991,3.3529 -10.49326,3.77969 -2.38186,0.18271 -8.50922,0.98262 -13.61636,1.77756 -9.92723,1.5452 -15.66218,2.00485 -17.67858,1.41691 l 0,0 z M 114.5988,128.1187 c 2.21156,-2.71661 4.63632,-7.71936 5.60458,-11.56332 0.84026,-3.33583 1.16496,-4.10063 2.24378,-5.28508 1.09089,-1.19769 1.91605,-1.01017 2.75025,0.625 0.84335,1.65311 1.8845,1.87653 3.16883,0.67999 1.0122,-0.943 1.25195,-1.58461 1.99123,-5.32885 0.32902,-1.66634 0.84258,-3.79393 1.14125,-4.72798 0.63547,-1.98735 2.32967,-3.837441 3.51408,-3.837441 0.73522,0 0.85951,0.217848 1.06979,1.875001 0.37248,2.93548 0.47354,3.125 1.66636,3.125 0.71179,0 1.42746,-0.35262 2.11879,-1.04396 0.9357,-0.93569 1.04396,-1.28027 1.04396,-3.322731 0,-2.958203 -1.25323,-5.656385 -3.01568,-6.492725 -4.3179,-2.048974 -9.06854,1.73272 -11.6229,9.252276 -0.56605,1.66634 -0.69987,1.79896 -2.00187,1.98384 -0.76739,0.10898 -1.73483,0.38409 -2.14986,0.61136 -1.98177,1.08523 -4.18659,4.64611 -5.99535,9.68274 -0.87319,2.43146 -3.06067,10.69059 -3.60599,13.61491 -0.12821,0.6875 -0.31833,1.55027 -0.42249,1.91726 -0.33554,1.18216 0.6923,0.45675 2.50124,-1.76529 l 0,0 z"
           id="path5416"
           inkscape:connector-curvature="0"
           transform="matrix(1.7696822,0,0,1.7696822,-116.99675,-18.297116)" />
        <path
           style="opacity:0;fill:#666666;stroke:#999999;stroke-width:3.57142854"
           d="m 160.19741,146.51659 c -3.36359,-0.98076 -9.48176,-2.92324 -9.61682,-3.05329 -0.0839,-0.0808 0.26332,-0.58716 0.77157,-1.12529 1.40009,-1.48237 2.40267,-3.68067 2.79788,-6.13473 0.33577,-2.08492 0.30967,-2.24928 -0.45902,-2.89028 -1.56659,-1.30636 -5.27602,-0.59467 -5.28131,1.01327 -0.006,1.73126 -0.89168,3.56675 -2.45282,5.08153 -2.05043,1.98955 -4.95566,3.03208 -10.07031,3.61367 -6.23556,0.70906 -9.19515,-0.13068 -16.79041,-4.76399 -5.39406,-3.29053 -7.93172,-4.04479 -13.54161,-4.02498 -3.91904,0.0139 -5.3367,0.20754 -11.607146,1.58585 -6.564599,1.44296 -7.547638,1.56974 -12.142858,1.5661 -5.161826,-0.004 -6.881278,-0.37118 -8.469072,-1.80812 -0.986794,-0.89304 -0.807121,-2.14669 0.396895,-2.76931 1.457242,-0.75357 3.001035,-1.06045 13.465607,-2.67671 9.857664,-1.52253 15.628814,-2.16279 19.499114,-2.16328 2.31991,-2.9e-4 2.42182,-0.0387 3.35744,-1.26535 0.99772,-1.30808 1.62304,-4.51161 0.96058,-4.92103 -0.18463,-0.11411 -3.19602,0.0328 -6.69198,0.32641 -3.49596,0.29363 -6.436204,0.45396 -6.533878,0.35628 -0.556957,-0.55695 0.506435,-2.90748 2.327748,-5.14526 1.52242,-1.87054 2.79778,-4.13828 4.99303,-8.87822 3.92667,-8.478349 6.33471,-11.544555 9.06652,-11.544555 1.24884,0 2.72835,1.884762 3.94743,5.028695 0.45088,1.16279 0.90512,2.11416 1.00942,2.11416 0.1043,0 1.02923,-1.12193 2.05539,-2.49317 1.35274,-1.807632 1.86721,-2.814209 1.87104,-3.660715 0.008,-1.722797 0.95407,-5.438369 1.82376,-7.160928 1.30131,-2.577496 3.20265,-4.909906 5.64408,-6.923711 7.27939,-6.004378 12.39663,-4.677772 15.20012,3.940513 0.55172,1.69605 1.10005,3.079407 1.21851,3.074126 0.11846,-0.0053 0.69409,-1.080477 1.27916,-2.389324 1.70707,-3.818831 4.95847,-9.036484 7.07346,-11.351075 4.58508,-5.017794 9.66977,-6.221018 14.96023,-3.540141 4.79289,2.428743 6.91804,6.379849 6.0579,11.262941 -0.51229,2.908333 -1.52235,4.793657 -4.19575,7.83156 -1.87312,2.128521 -2.19871,2.682135 -1.9027,3.235241 0.47001,0.87823 2.04189,1.667808 3.91725,1.96769 l 1.51343,0.242007 -1.92237,0.601784 c -3.13709,0.982046 -5.67101,2.458132 -7.69607,4.483182 -1.564,1.564 -1.90486,2.12489 -1.90486,3.13443 0,1.67081 0.74281,2.18584 3.07386,2.13126 1.55706,-0.0365 2.19259,-0.24937 3.26878,-1.0951 2.92368,-2.29759 6.18439,-3.37914 10.14187,-3.36397 3.17711,0.0122 5.24421,0.77617 6.90834,2.55329 1.01046,1.07906 1.06861,1.3002 1.02179,3.88572 -0.0551,3.04173 -1.16206,6.61228 -3.03466,9.78822 l -1.0636,1.80387 1.35967,1.1035 c 3.64506,2.95834 4.04045,3.95162 2.13651,5.36726 -1.68411,1.25219 -5.47455,0.99195 -11.00345,-0.75548 -4.65628,-1.47162 -5.23843,-1.48712 -6.29126,-0.16746 -0.66535,0.83399 -0.53978,2.70805 0.24863,3.71034 0.38228,0.48599 1.66732,1.31995 2.85566,1.85324 6.43717,2.88883 16.63509,2.49317 19.75736,-0.76656 2.16801,-2.26344 2.63737,-5.59595 1.17507,-8.34288 l -0.874,-1.64181 1.14185,-1.10387 c 1.58956,-1.53669 4.816,-2.9268 7.7305,-3.33068 6.21966,-0.86191 14.73651,1.73677 16.80364,5.12717 2.08652,3.42221 -0.16981,5.96833 -10.38683,11.72086 -3.17828,1.78948 -5.89238,3.61142 -7.11011,4.77294 -2.65674,2.5341 -4.92991,3.3529 -10.49326,3.77969 -2.38186,0.18271 -8.50922,0.98262 -13.61636,1.77756 -9.92723,1.5452 -15.66218,2.00485 -17.67858,1.41691 l 0,0 z M 114.5988,128.1187 c 2.21156,-2.71661 4.63632,-7.71936 5.60458,-11.56332 0.84026,-3.33583 1.16496,-4.10063 2.24378,-5.28508 1.09089,-1.19769 1.91605,-1.01017 2.75025,0.625 0.84335,1.65311 1.8845,1.87653 3.16883,0.67999 1.0122,-0.943 1.25195,-1.58461 1.99123,-5.32885 0.32902,-1.66634 0.84258,-3.79393 1.14125,-4.72798 0.63547,-1.98735 2.32967,-3.837441 3.51408,-3.837441 0.73522,0 0.85951,0.217848 1.06979,1.875001 0.37248,2.93548 0.47354,3.125 1.66636,3.125 0.71179,0 1.42746,-0.35262 2.11879,-1.04396 0.9357,-0.93569 1.04396,-1.28027 1.04396,-3.322731 0,-2.958203 -1.25323,-5.656385 -3.01568,-6.492725 -4.3179,-2.048974 -9.06854,1.73272 -11.6229,9.252276 -0.56605,1.66634 -0.69987,1.79896 -2.00187,1.98384 -0.76739,0.10898 -1.73483,0.38409 -2.14986,0.61136 -1.98177,1.08523 -4.18659,4.64611 -5.99535,9.68274 -0.87319,2.43146 -3.06067,10.69059 -3.60599,13.61491 -0.12821,0.6875 -0.31833,1.55027 -0.42249,1.91726 -0.33554,1.18216 0.6923,0.45675 2.50124,-1.76529 l 0,0 z"
           id="path5418"
           inkscape:connector-curvature="0"
           transform="matrix(1.7696822,0,0,1.7696822,-116.99675,-18.297116)" />
        <path
           style="opacity:0;fill:#666666;stroke:#999999;stroke-width:3.57142854"
           d="m 160.19741,146.51659 c -3.36359,-0.98076 -9.48176,-2.92324 -9.61682,-3.05329 -0.0839,-0.0808 0.26332,-0.58716 0.77157,-1.12529 1.40009,-1.48237 2.40267,-3.68067 2.79788,-6.13473 0.33577,-2.08492 0.30967,-2.24928 -0.45902,-2.89028 -1.56659,-1.30636 -5.27602,-0.59467 -5.28131,1.01327 -0.006,1.73126 -0.89168,3.56675 -2.45282,5.08153 -2.05043,1.98955 -4.95566,3.03208 -10.07031,3.61367 -6.23556,0.70906 -9.19515,-0.13068 -16.79041,-4.76399 -5.39406,-3.29053 -7.93172,-4.04479 -13.54161,-4.02498 -3.91904,0.0139 -5.3367,0.20754 -11.607146,1.58585 -6.564599,1.44296 -7.547638,1.56974 -12.142858,1.5661 -5.161826,-0.004 -6.881278,-0.37118 -8.469072,-1.80812 -0.986794,-0.89304 -0.807121,-2.14669 0.396895,-2.76931 1.457242,-0.75357 3.001035,-1.06045 13.465607,-2.67671 9.857664,-1.52253 15.628814,-2.16279 19.499114,-2.16328 2.31991,-2.9e-4 2.42182,-0.0387 3.35744,-1.26535 0.99772,-1.30808 1.62304,-4.51161 0.96058,-4.92103 -0.18463,-0.11411 -3.19602,0.0328 -6.69198,0.32641 -3.49596,0.29363 -6.436204,0.45396 -6.533878,0.35628 -0.556957,-0.55695 0.506435,-2.90748 2.327748,-5.14526 1.52242,-1.87054 2.79778,-4.13828 4.99303,-8.87822 3.92667,-8.478349 6.33471,-11.544555 9.06652,-11.544555 1.24884,0 2.72835,1.884762 3.94743,5.028695 0.45088,1.16279 0.90512,2.11416 1.00942,2.11416 0.1043,0 1.02923,-1.12193 2.05539,-2.49317 1.35274,-1.807632 1.86721,-2.814209 1.87104,-3.660715 0.008,-1.722797 0.95407,-5.438369 1.82376,-7.160928 1.30131,-2.577496 3.20265,-4.909906 5.64408,-6.923711 7.27939,-6.004378 12.39663,-4.677772 15.20012,3.940513 0.55172,1.69605 1.10005,3.079407 1.21851,3.074126 0.11846,-0.0053 0.69409,-1.080477 1.27916,-2.389324 1.70707,-3.818831 4.95847,-9.036484 7.07346,-11.351075 4.58508,-5.017794 9.66977,-6.221018 14.96023,-3.540141 4.79289,2.428743 6.91804,6.379849 6.0579,11.262941 -0.51229,2.908333 -1.52235,4.793657 -4.19575,7.83156 -1.87312,2.128521 -2.19871,2.682135 -1.9027,3.235241 0.47001,0.87823 2.04189,1.667808 3.91725,1.96769 l 1.51343,0.242007 -1.92237,0.601784 c -3.13709,0.982046 -5.67101,2.458132 -7.69607,4.483182 -1.564,1.564 -1.90486,2.12489 -1.90486,3.13443 0,1.67081 0.74281,2.18584 3.07386,2.13126 1.55706,-0.0365 2.19259,-0.24937 3.26878,-1.0951 2.92368,-2.29759 6.18439,-3.37914 10.14187,-3.36397 3.17711,0.0122 5.24421,0.77617 6.90834,2.55329 1.01046,1.07906 1.06861,1.3002 1.02179,3.88572 -0.0551,3.04173 -1.16206,6.61228 -3.03466,9.78822 l -1.0636,1.80387 1.35967,1.1035 c 3.64506,2.95834 4.04045,3.95162 2.13651,5.36726 -1.68411,1.25219 -5.47455,0.99195 -11.00345,-0.75548 -4.65628,-1.47162 -5.23843,-1.48712 -6.29126,-0.16746 -0.66535,0.83399 -0.53978,2.70805 0.24863,3.71034 0.38228,0.48599 1.66732,1.31995 2.85566,1.85324 6.43717,2.88883 16.63509,2.49317 19.75736,-0.76656 2.16801,-2.26344 2.63737,-5.59595 1.17507,-8.34288 l -0.874,-1.64181 1.14185,-1.10387 c 1.58956,-1.53669 4.816,-2.9268 7.7305,-3.33068 6.21966,-0.86191 14.73651,1.73677 16.80364,5.12717 2.08652,3.42221 -0.16981,5.96833 -10.38683,11.72086 -3.17828,1.78948 -5.89238,3.61142 -7.11011,4.77294 -2.65674,2.5341 -4.92991,3.3529 -10.49326,3.77969 -2.38186,0.18271 -8.50922,0.98262 -13.61636,1.77756 -9.92723,1.5452 -15.66218,2.00485 -17.67858,1.41691 l 0,0 z M 114.5988,128.1187 c 2.21156,-2.71661 4.63632,-7.71936 5.60458,-11.56332 0.84026,-3.33583 1.16496,-4.10063 2.24378,-5.28508 1.09089,-1.19769 1.91605,-1.01017 2.75025,0.625 0.84335,1.65311 1.8845,1.87653 3.16883,0.67999 1.0122,-0.943 1.25195,-1.58461 1.99123,-5.32885 0.32902,-1.66634 0.84258,-3.79393 1.14125,-4.72798 0.63547,-1.98735 2.32967,-3.837441 3.51408,-3.837441 0.73522,0 0.85951,0.217848 1.06979,1.875001 0.37248,2.93548 0.47354,3.125 1.66636,3.125 0.71179,0 1.42746,-0.35262 2.11879,-1.04396 0.9357,-0.93569 1.04396,-1.28027 1.04396,-3.322731 0,-2.958203 -1.25323,-5.656385 -3.01568,-6.492725 -4.3179,-2.048974 -9.06854,1.73272 -11.6229,9.252276 -0.56605,1.66634 -0.69987,1.79896 -2.00187,1.98384 -0.76739,0.10898 -1.73483,0.38409 -2.14986,0.61136 -1.98177,1.08523 -4.18659,4.64611 -5.99535,9.68274 -0.87319,2.43146 -3.06067,10.69059 -3.60599,13.61491 -0.12821,0.6875 -0.31833,1.55027 -0.42249,1.91726 -0.33554,1.18216 0.6923,0.45675 2.50124,-1.76529 l 0,0 z"
           id="path5420"
           inkscape:connector-curvature="0"
           transform="matrix(1.7696822,0,0,1.7696822,-116.99675,-18.297116)" />
        <path
           style="opacity:0;fill:#666666;stroke:#999999;stroke-width:3.57142854"
           d="m 160.19741,146.51659 c -3.36359,-0.98076 -9.48176,-2.92324 -9.61682,-3.05329 -0.0839,-0.0808 0.26332,-0.58716 0.77157,-1.12529 1.40009,-1.48237 2.40267,-3.68067 2.79788,-6.13473 0.33577,-2.08492 0.30967,-2.24928 -0.45902,-2.89028 -1.56659,-1.30636 -5.27602,-0.59467 -5.28131,1.01327 -0.006,1.73126 -0.89168,3.56675 -2.45282,5.08153 -2.05043,1.98955 -4.95566,3.03208 -10.07031,3.61367 -6.23556,0.70906 -9.19515,-0.13068 -16.79041,-4.76399 -5.39406,-3.29053 -7.93172,-4.04479 -13.54161,-4.02498 -3.91904,0.0139 -5.3367,0.20754 -11.607146,1.58585 -6.564599,1.44296 -7.547638,1.56974 -12.142858,1.5661 -5.161826,-0.004 -6.881278,-0.37118 -8.469072,-1.80812 -0.986794,-0.89304 -0.807121,-2.14669 0.396895,-2.76931 1.457242,-0.75357 3.001035,-1.06045 13.465607,-2.67671 9.857664,-1.52253 15.628814,-2.16279 19.499114,-2.16328 2.31991,-2.9e-4 2.42182,-0.0387 3.35744,-1.26535 0.99772,-1.30808 1.62304,-4.51161 0.96058,-4.92103 -0.18463,-0.11411 -3.19602,0.0328 -6.69198,0.32641 -3.49596,0.29363 -6.436204,0.45396 -6.533878,0.35628 -0.556957,-0.55695 0.506435,-2.90748 2.327748,-5.14526 1.52242,-1.87054 2.79778,-4.13828 4.99303,-8.87822 3.92667,-8.478349 6.33471,-11.544555 9.06652,-11.544555 1.24884,0 2.72835,1.884762 3.94743,5.028695 0.45088,1.16279 0.90512,2.11416 1.00942,2.11416 0.1043,0 1.02923,-1.12193 2.05539,-2.49317 1.35274,-1.807632 1.86721,-2.814209 1.87104,-3.660715 0.008,-1.722797 0.95407,-5.438369 1.82376,-7.160928 1.30131,-2.577496 3.20265,-4.909906 5.64408,-6.923711 7.27939,-6.004378 12.39663,-4.677772 15.20012,3.940513 0.55172,1.69605 1.10005,3.079407 1.21851,3.074126 0.11846,-0.0053 0.69409,-1.080477 1.27916,-2.389324 1.70707,-3.818831 4.95847,-9.036484 7.07346,-11.351075 4.58508,-5.017794 9.66977,-6.221018 14.96023,-3.540141 4.79289,2.428743 6.91804,6.379849 6.0579,11.262941 -0.51229,2.908333 -1.52235,4.793657 -4.19575,7.83156 -1.87312,2.128521 -2.19871,2.682135 -1.9027,3.235241 0.47001,0.87823 2.04189,1.667808 3.91725,1.96769 l 1.51343,0.242007 -1.92237,0.601784 c -3.13709,0.982046 -5.67101,2.458132 -7.69607,4.483182 -1.564,1.564 -1.90486,2.12489 -1.90486,3.13443 0,1.67081 0.74281,2.18584 3.07386,2.13126 1.55706,-0.0365 2.19259,-0.24937 3.26878,-1.0951 2.92368,-2.29759 6.18439,-3.37914 10.14187,-3.36397 3.17711,0.0122 5.24421,0.77617 6.90834,2.55329 1.01046,1.07906 1.06861,1.3002 1.02179,3.88572 -0.0551,3.04173 -1.16206,6.61228 -3.03466,9.78822 l -1.0636,1.80387 1.35967,1.1035 c 3.64506,2.95834 4.04045,3.95162 2.13651,5.36726 -1.68411,1.25219 -5.47455,0.99195 -11.00345,-0.75548 -4.65628,-1.47162 -5.23843,-1.48712 -6.29126,-0.16746 -0.66535,0.83399 -0.53978,2.70805 0.24863,3.71034 0.38228,0.48599 1.66732,1.31995 2.85566,1.85324 6.43717,2.88883 16.63509,2.49317 19.75736,-0.76656 2.16801,-2.26344 2.63737,-5.59595 1.17507,-8.34288 l -0.874,-1.64181 1.14185,-1.10387 c 1.58956,-1.53669 4.816,-2.9268 7.7305,-3.33068 6.21966,-0.86191 14.73651,1.73677 16.80364,5.12717 2.08652,3.42221 -0.16981,5.96833 -10.38683,11.72086 -3.17828,1.78948 -5.89238,3.61142 -7.11011,4.77294 -2.65674,2.5341 -4.92991,3.3529 -10.49326,3.77969 -2.38186,0.18271 -8.50922,0.98262 -13.61636,1.77756 -9.92723,1.5452 -15.66218,2.00485 -17.67858,1.41691 l 0,0 z M 114.5988,128.1187 c 2.21156,-2.71661 4.63632,-7.71936 5.60458,-11.56332 0.84026,-3.33583 1.16496,-4.10063 2.24378,-5.28508 1.09089,-1.19769 1.91605,-1.01017 2.75025,0.625 0.84335,1.65311 1.8845,1.87653 3.16883,0.67999 1.0122,-0.943 1.25195,-1.58461 1.99123,-5.32885 0.32902,-1.66634 0.84258,-3.79393 1.14125,-4.72798 0.63547,-1.98735 2.32967,-3.837441 3.51408,-3.837441 0.73522,0 0.85951,0.217848 1.06979,1.875001 0.37248,2.93548 0.47354,3.125 1.66636,3.125 0.71179,0 1.42746,-0.35262 2.11879,-1.04396 0.9357,-0.93569 1.04396,-1.28027 1.04396,-3.322731 0,-2.958203 -1.25323,-5.656385 -3.01568,-6.492725 -4.3179,-2.048974 -9.06854,1.73272 -11.6229,9.252276 -0.56605,1.66634 -0.69987,1.79896 -2.00187,1.98384 -0.76739,0.10898 -1.73483,0.38409 -2.14986,0.61136 -1.98177,1.08523 -4.18659,4.64611 -5.99535,9.68274 -0.87319,2.43146 -3.06067,10.69059 -3.60599,13.61491 -0.12821,0.6875 -0.31833,1.55027 -0.42249,1.91726 -0.33554,1.18216 0.6923,0.45675 2.50124,-1.76529 l 0,0 z"
           id="path5422"
           inkscape:connector-curvature="0"
           transform="matrix(1.7696822,0,0,1.7696822,-116.99675,-18.297116)" />
        <path
           style="opacity:0;fill:#666666;stroke:#999999;stroke-width:3.57142854"
           d="m 160.19741,146.51659 c -3.36359,-0.98076 -9.48176,-2.92324 -9.61682,-3.05329 -0.0839,-0.0808 0.26332,-0.58716 0.77157,-1.12529 1.40009,-1.48237 2.40267,-3.68067 2.79788,-6.13473 0.33577,-2.08492 0.30967,-2.24928 -0.45902,-2.89028 -1.56659,-1.30636 -5.27602,-0.59467 -5.28131,1.01327 -0.006,1.73126 -0.89168,3.56675 -2.45282,5.08153 -2.05043,1.98955 -4.95566,3.03208 -10.07031,3.61367 -6.23556,0.70906 -9.19515,-0.13068 -16.79041,-4.76399 -5.39406,-3.29053 -7.93172,-4.04479 -13.54161,-4.02498 -3.91904,0.0139 -5.3367,0.20754 -11.607146,1.58585 -6.564599,1.44296 -7.547638,1.56974 -12.142858,1.5661 -5.161826,-0.004 -6.881278,-0.37118 -8.469072,-1.80812 -0.986794,-0.89304 -0.807121,-2.14669 0.396895,-2.76931 1.457242,-0.75357 3.001035,-1.06045 13.465607,-2.67671 9.857664,-1.52253 15.628814,-2.16279 19.499114,-2.16328 2.31991,-2.9e-4 2.42182,-0.0387 3.35744,-1.26535 0.99772,-1.30808 1.62304,-4.51161 0.96058,-4.92103 -0.18463,-0.11411 -3.19602,0.0328 -6.69198,0.32641 -3.49596,0.29363 -6.436204,0.45396 -6.533878,0.35628 -0.556957,-0.55695 0.506435,-2.90748 2.327748,-5.14526 1.52242,-1.87054 2.79778,-4.13828 4.99303,-8.87822 3.92667,-8.478349 6.33471,-11.544555 9.06652,-11.544555 1.24884,0 2.72835,1.884762 3.94743,5.028695 0.45088,1.16279 0.90512,2.11416 1.00942,2.11416 0.1043,0 1.02923,-1.12193 2.05539,-2.49317 1.35274,-1.807632 1.86721,-2.814209 1.87104,-3.660715 0.008,-1.722797 0.95407,-5.438369 1.82376,-7.160928 1.30131,-2.577496 3.20265,-4.909906 5.64408,-6.923711 7.27939,-6.004378 12.39663,-4.677772 15.20012,3.940513 0.55172,1.69605 1.10005,3.079407 1.21851,3.074126 0.11846,-0.0053 0.69409,-1.080477 1.27916,-2.389324 1.70707,-3.818831 4.95847,-9.036484 7.07346,-11.351075 4.58508,-5.017794 9.66977,-6.221018 14.96023,-3.540141 4.79289,2.428743 6.91804,6.379849 6.0579,11.262941 -0.51229,2.908333 -1.52235,4.793657 -4.19575,7.83156 -1.87312,2.128521 -2.19871,2.682135 -1.9027,3.235241 0.47001,0.87823 2.04189,1.667808 3.91725,1.96769 l 1.51343,0.242007 -1.92237,0.601784 c -3.13709,0.982046 -5.67101,2.458132 -7.69607,4.483182 -1.564,1.564 -1.90486,2.12489 -1.90486,3.13443 0,1.67081 0.74281,2.18584 3.07386,2.13126 1.55706,-0.0365 2.19259,-0.24937 3.26878,-1.0951 2.92368,-2.29759 6.18439,-3.37914 10.14187,-3.36397 3.17711,0.0122 5.24421,0.77617 6.90834,2.55329 1.01046,1.07906 1.06861,1.3002 1.02179,3.88572 -0.0551,3.04173 -1.16206,6.61228 -3.03466,9.78822 l -1.0636,1.80387 1.35967,1.1035 c 3.64506,2.95834 4.04045,3.95162 2.13651,5.36726 -1.68411,1.25219 -5.47455,0.99195 -11.00345,-0.75548 -4.65628,-1.47162 -5.23843,-1.48712 -6.29126,-0.16746 -0.66535,0.83399 -0.53978,2.70805 0.24863,3.71034 0.38228,0.48599 1.66732,1.31995 2.85566,1.85324 6.43717,2.88883 16.63509,2.49317 19.75736,-0.76656 2.16801,-2.26344 2.63737,-5.59595 1.17507,-8.34288 l -0.874,-1.64181 1.14185,-1.10387 c 1.58956,-1.53669 4.816,-2.9268 7.7305,-3.33068 6.21966,-0.86191 14.73651,1.73677 16.80364,5.12717 2.08652,3.42221 -0.16981,5.96833 -10.38683,11.72086 -3.17828,1.78948 -5.89238,3.61142 -7.11011,4.77294 -2.65674,2.5341 -4.92991,3.3529 -10.49326,3.77969 -2.38186,0.18271 -8.50922,0.98262 -13.61636,1.77756 -9.92723,1.5452 -15.66218,2.00485 -17.67858,1.41691 l 0,0 z M 114.5988,128.1187 c 2.21156,-2.71661 4.63632,-7.71936 5.60458,-11.56332 0.84026,-3.33583 1.16496,-4.10063 2.24378,-5.28508 1.09089,-1.19769 1.91605,-1.01017 2.75025,0.625 0.84335,1.65311 1.8845,1.87653 3.16883,0.67999 1.0122,-0.943 1.25195,-1.58461 1.99123,-5.32885 0.32902,-1.66634 0.84258,-3.79393 1.14125,-4.72798 0.63547,-1.98735 2.32967,-3.837441 3.51408,-3.837441 0.73522,0 0.85951,0.217848 1.06979,1.875001 0.37248,2.93548 0.47354,3.125 1.66636,3.125 0.71179,0 1.42746,-0.35262 2.11879,-1.04396 0.9357,-0.93569 1.04396,-1.28027 1.04396,-3.322731 0,-2.958203 -1.25323,-5.656385 -3.01568,-6.492725 -4.3179,-2.048974 -9.06854,1.73272 -11.6229,9.252276 -0.56605,1.66634 -0.69987,1.79896 -2.00187,1.98384 -0.76739,0.10898 -1.73483,0.38409 -2.14986,0.61136 -1.98177,1.08523 -4.18659,4.64611 -5.99535,9.68274 -0.87319,2.43146 -3.06067,10.69059 -3.60599,13.61491 -0.12821,0.6875 -0.31833,1.55027 -0.42249,1.91726 -0.33554,1.18216 0.6923,0.45675 2.50124,-1.76529 l 0,0 z"
           id="path5424"
           inkscape:connector-curvature="0"
           transform="matrix(1.7696822,0,0,1.7696822,-116.99675,-18.297116)" />
        <path
           style="opacity:0;fill:#666666;stroke:#999999;stroke-width:3.57142854"
           d="m 160.19741,146.51659 c -3.36359,-0.98076 -9.48176,-2.92324 -9.61682,-3.05329 -0.0839,-0.0808 0.26332,-0.58716 0.77157,-1.12529 1.40009,-1.48237 2.40267,-3.68067 2.79788,-6.13473 0.33577,-2.08492 0.30967,-2.24928 -0.45902,-2.89028 -1.56659,-1.30636 -5.27602,-0.59467 -5.28131,1.01327 -0.006,1.73126 -0.89168,3.56675 -2.45282,5.08153 -2.05043,1.98955 -4.95566,3.03208 -10.07031,3.61367 -6.23556,0.70906 -9.19515,-0.13068 -16.79041,-4.76399 -5.39406,-3.29053 -7.93172,-4.04479 -13.54161,-4.02498 -3.91904,0.0139 -5.3367,0.20754 -11.607146,1.58585 -6.564599,1.44296 -7.547638,1.56974 -12.142858,1.5661 -5.161826,-0.004 -6.881278,-0.37118 -8.469072,-1.80812 -0.986794,-0.89304 -0.807121,-2.14669 0.396895,-2.76931 1.457242,-0.75357 3.001035,-1.06045 13.465607,-2.67671 9.857664,-1.52253 15.628814,-2.16279 19.499114,-2.16328 2.31991,-2.9e-4 2.42182,-0.0387 3.35744,-1.26535 0.99772,-1.30808 1.62304,-4.51161 0.96058,-4.92103 -0.18463,-0.11411 -3.19602,0.0328 -6.69198,0.32641 -3.49596,0.29363 -6.436204,0.45396 -6.533878,0.35628 -0.556957,-0.55695 0.506435,-2.90748 2.327748,-5.14526 1.52242,-1.87054 2.79778,-4.13828 4.99303,-8.87822 3.92667,-8.478349 6.33471,-11.544555 9.06652,-11.544555 1.24884,0 2.72835,1.884762 3.94743,5.028695 0.45088,1.16279 0.90512,2.11416 1.00942,2.11416 0.1043,0 1.02923,-1.12193 2.05539,-2.49317 1.35274,-1.807632 1.86721,-2.814209 1.87104,-3.660715 0.008,-1.722797 0.95407,-5.438369 1.82376,-7.160928 1.30131,-2.577496 3.20265,-4.909906 5.64408,-6.923711 7.27939,-6.004378 12.39663,-4.677772 15.20012,3.940513 0.55172,1.69605 1.10005,3.079407 1.21851,3.074126 0.11846,-0.0053 0.69409,-1.080477 1.27916,-2.389324 1.70707,-3.818831 4.95847,-9.036484 7.07346,-11.351075 4.58508,-5.017794 9.66977,-6.221018 14.96023,-3.540141 4.79289,2.428743 6.91804,6.379849 6.0579,11.262941 -0.51229,2.908333 -1.52235,4.793657 -4.19575,7.83156 -1.87312,2.128521 -2.19871,2.682135 -1.9027,3.235241 0.47001,0.87823 2.04189,1.667808 3.91725,1.96769 l 1.51343,0.242007 -1.92237,0.601784 c -3.13709,0.982046 -5.67101,2.458132 -7.69607,4.483182 -1.564,1.564 -1.90486,2.12489 -1.90486,3.13443 0,1.67081 0.74281,2.18584 3.07386,2.13126 1.55706,-0.0365 2.19259,-0.24937 3.26878,-1.0951 2.92368,-2.29759 6.18439,-3.37914 10.14187,-3.36397 3.17711,0.0122 5.24421,0.77617 6.90834,2.55329 1.01046,1.07906 1.06861,1.3002 1.02179,3.88572 -0.0551,3.04173 -1.16206,6.61228 -3.03466,9.78822 l -1.0636,1.80387 1.35967,1.1035 c 3.64506,2.95834 4.04045,3.95162 2.13651,5.36726 -1.68411,1.25219 -5.47455,0.99195 -11.00345,-0.75548 -4.65628,-1.47162 -5.23843,-1.48712 -6.29126,-0.16746 -0.66535,0.83399 -0.53978,2.70805 0.24863,3.71034 0.38228,0.48599 1.66732,1.31995 2.85566,1.85324 6.43717,2.88883 16.63509,2.49317 19.75736,-0.76656 2.16801,-2.26344 2.63737,-5.59595 1.17507,-8.34288 l -0.874,-1.64181 1.14185,-1.10387 c 1.58956,-1.53669 4.816,-2.9268 7.7305,-3.33068 6.21966,-0.86191 14.73651,1.73677 16.80364,5.12717 2.08652,3.42221 -0.16981,5.96833 -10.38683,11.72086 -3.17828,1.78948 -5.89238,3.61142 -7.11011,4.77294 -2.65674,2.5341 -4.92991,3.3529 -10.49326,3.77969 -2.38186,0.18271 -8.50922,0.98262 -13.61636,1.77756 -9.92723,1.5452 -15.66218,2.00485 -17.67858,1.41691 l 0,0 z M 114.5988,128.1187 c 2.21156,-2.71661 4.63632,-7.71936 5.60458,-11.56332 0.84026,-3.33583 1.16496,-4.10063 2.24378,-5.28508 1.09089,-1.19769 1.91605,-1.01017 2.75025,0.625 0.84335,1.65311 1.8845,1.87653 3.16883,0.67999 1.0122,-0.943 1.25195,-1.58461 1.99123,-5.32885 0.32902,-1.66634 0.84258,-3.79393 1.14125,-4.72798 0.63547,-1.98735 2.32967,-3.837441 3.51408,-3.837441 0.73522,0 0.85951,0.217848 1.06979,1.875001 0.37248,2.93548 0.47354,3.125 1.66636,3.125 0.71179,0 1.42746,-0.35262 2.11879,-1.04396 0.9357,-0.93569 1.04396,-1.28027 1.04396,-3.322731 0,-2.958203 -1.25323,-5.656385 -3.01568,-6.492725 -4.3179,-2.048974 -9.06854,1.73272 -11.6229,9.252276 -0.56605,1.66634 -0.69987,1.79896 -2.00187,1.98384 -0.76739,0.10898 -1.73483,0.38409 -2.14986,0.61136 -1.98177,1.08523 -4.18659,4.64611 -5.99535,9.68274 -0.87319,2.43146 -3.06067,10.69059 -3.60599,13.61491 -0.12821,0.6875 -0.31833,1.55027 -0.42249,1.91726 -0.33554,1.18216 0.6923,0.45675 2.50124,-1.76529 l 0,0 z"
           id="path5426"
           inkscape:connector-curvature="0"
           transform="matrix(1.7696822,0,0,1.7696822,-116.99675,-18.297116)" />
        <path
           style="fill:none;stroke:#000000;stroke-width:1.76968217px;stroke-linecap:butt;stroke-linejoin:miter;stroke-opacity:1"
           d="m -36.552545,357.08208 0,94.74539"
           id="path5436"
           inkscape:connector-curvature="0" />
        <path
           style="fill:none;stroke:#000000;stroke-width:1.76968217px;stroke-linecap:butt;stroke-linejoin:miter;stroke-opacity:1"
           d="m -63.367281,398.19801 53.62947,0"
           id="path5438"
           inkscape:connector-curvature="0" />
        <path
           style="fill:none;stroke:#000000;stroke-width:1.76968217px;stroke-linecap:butt;stroke-linejoin:miter;stroke-opacity:1"
           d="m -56.216683,484.00516 18.402466,-31.87401 19.480216,33.74073"
           id="path5440"
           inkscape:connector-curvature="0" />
        <path
           sodipodi:type="arc"
           style="opacity:0;fill:#1a1a1a;stroke:#999999;stroke-width:10"
           id="path5442"
           sodipodi:cx="30.809652"
           sodipodi:cy="207.06596"
           sodipodi:rx="19.697975"
           sodipodi:ry="18.182745"
           d="m 50.507627,207.06596 a 19.697975,18.182745 0 1 1 -39.39595,0 19.697975,18.182745 0 1 1 39.39595,0 z"
           transform="matrix(1.7696822,0,0,1.7696822,-100.90791,-32.598308)" />
        <path
           sodipodi:type="arc"
           style="opacity:0;fill:#1a1a1a;stroke:#000000;stroke-width:10"
           id="path5446"
           sodipodi:cx="19.697975"
           sodipodi:cy="178.78169"
           sodipodi:rx="54.043159"
           sodipodi:ry="94.954338"
           d="m 73.741135,178.78169 a 54.043159,94.954338 0 1 1 -108.086319,0 54.043159,94.954338 0 1 1 108.086319,0 z"
           transform="matrix(1.7696822,0,0,1.7696822,-116.99675,-18.297116)" />
        <path
           sodipodi:type="arc"
           style="fill:none;stroke:#000000;stroke-width:10"
           id="path5448"
           sodipodi:cx="-156.06857"
           sodipodi:cy="142.92128"
           sodipodi:rx="65.154839"
           sodipodi:ry="43.941635"
           d="m -90.913734,142.92128 a 65.154839,43.941635 0 1 1 -130.309676,0 65.154839,43.941635 0 1 1 130.309676,0 z"
           transform="matrix(0.49774629,0,0,0.83974348,42.917644,202.20572)" />
        <path
           style="fill:none;stroke:#000000;stroke-width:1.76968217px;stroke-linecap:butt;stroke-linejoin:miter;stroke-opacity:1"
           d="m -49.382103,299.4803 27.485102,0"
           id="path5456"
           inkscape:connector-curvature="0" />
        <path
           style="fill:#b3b3b3;stroke:#000000;stroke-width:2.2345612"
           d="m -40.612443,340.31812 6.253792,-6.25679 6.202391,6.19943 c 3.411315,3.40968 6.202391,6.22523 6.202391,6.25678 0,0.0315 -5.605283,0.0573 -12.456183,0.0573 l -12.456182,0 6.253791,-6.25678 z"
           id="path5460"
           inkscape:connector-curvature="0" />
        <path
           sodipodi:type="spiral"
           style="fill:none;stroke:#000000;stroke-width:1px;stroke-linecap:butt;stroke-linejoin:miter;stroke-opacity:1"
           id="path5462"
           sodipodi:cx="30.535715"
           sodipodi:cy="196.96428"
           sodipodi:expansion="1"
           sodipodi:revolution="3"
           sodipodi:radius="5.404552"
           sodipodi:argument="-20.552904"
           sodipodi:t0="0"
           d="m 30.535715,196.96428 c -0.03581,-0.2686 0.344397,-0.18079 0.446429,-0.0595 0.2765,0.32863 0.0038,0.79616 -0.327381,0.95238 -0.592444,0.27943 -1.254479,-0.14102 -1.458334,-0.71429 -0.299164,-0.84129 0.285741,-1.7206 1.10119,-1.96428 1.086866,-0.32479 2.189714,0.43014 2.470239,1.48809 0.353012,1.33132 -0.574332,2.66029 -1.874999,2.97619 -1.575282,0.38259 -3.131715,-0.71838 -3.482144,-2.2619 -0.412968,-1.81899 0.862348,-3.60366 2.648808,-3.9881 2.06254,-0.44385 4.075956,1.00625 4.494049,3.03571 0.475064,2.306 -1.15012,4.5485 -3.422617,5 -2.549398,0.50652 -5.021217,-1.29395 -5.505954,-3.80952 -0.53815,-2.79275 1.437775,-5.49407 4.196427,-6.0119"
           transform="matrix(1.7696822,0,0,1.7696822,-100.90791,-32.598308)" />
        <path
           sodipodi:type="spiral"
           style="fill:none;stroke:#000000;stroke-width:1px;stroke-linecap:butt;stroke-linejoin:miter;stroke-opacity:1"
           id="path5464"
           sodipodi:cx="44.642857"
           sodipodi:cy="196.78572"
           sodipodi:expansion="1"
           sodipodi:revolution="3"
           sodipodi:radius="5.383862"
           sodipodi:argument="-20.520021"
           sodipodi:t0="0"
           d="m 44.642857,196.78572 c -0.02686,-0.2686 0.348813,-0.16872 0.446428,-0.0446 0.26453,0.33625 -0.02227,0.79281 -0.357142,0.9375 -0.599009,0.25881 -1.244383,-0.18149 -1.428572,-0.75893 -0.270305,-0.84741 0.340844,-1.70373 1.160713,-1.91964 1.092757,-0.28778 2.166064,0.49998 2.410715,1.5625 0.307869,1.33707 -0.65895,2.62986 -1.964284,2.90178 -1.580934,0.32933 -3.094511,-0.81781 -3.392858,-2.36607 -0.351592,-1.82457 0.976604,-3.55968 2.767855,-3.88393 2.068069,-0.37436 4.025201,1.13535 4.375002,3.16964 0.397466,2.31149 -1.294066,4.49097 -3.571426,4.86608 -2.554855,0.42081 -4.956912,-1.45276 -5.357145,-3.97322 -0.444335,-2.79818 1.611432,-5.42299 4.374996,-5.84821"
           transform="matrix(1.7696822,0,0,1.7696822,-100.90791,-32.598308)" />
        <path
           style="font-size:12px;font-style:normal;font-weight:normal;fill:none;stroke:#000000;stroke-width:1.76968217px;stroke-linecap:butt;stroke-linejoin:miter;stroke-miterlimit:10;stroke-opacity:1;stroke-dasharray:none;stroke-dashoffset:0;font-family:Dialog"
           d="m 300.41929,352.9799 0,94.74539"
           id="path5436-4"
           inkscape:connector-curvature="0" />
        <path
           style="font-size:12px;font-style:normal;font-weight:normal;fill:none;stroke:#000000;stroke-width:1.76968217px;stroke-linecap:butt;stroke-linejoin:miter;stroke-miterlimit:10;stroke-opacity:1;stroke-dasharray:none;stroke-dashoffset:0;font-family:Dialog"
           d="m 273.60456,394.09583 53.62947,0"
           id="path5438-4"
           inkscape:connector-curvature="0" />
        <path
           style="font-size:12px;font-style:normal;font-weight:normal;fill:none;stroke:#000000;stroke-width:1.76968217px;stroke-linecap:butt;stroke-linejoin:miter;stroke-miterlimit:10;stroke-opacity:1;stroke-dasharray:none;stroke-dashoffset:0;font-family:Dialog"
           d="m 280.75516,479.90299 18.40246,-31.87402 19.48022,33.74073"
           id="path5440-5"
           inkscape:connector-curvature="0" />
        <path
           sodipodi:type="arc"
           style="font-size:12px;font-style:normal;font-weight:normal;opacity:0;fill:#1a1a1a;fill-opacity:1;stroke:#999999;stroke-width:10;stroke-linecap:square;stroke-linejoin:miter;stroke-miterlimit:10;stroke-opacity:1;stroke-dasharray:none;stroke-dashoffset:0;font-family:Dialog"
           id="path5442-4"
           sodipodi:cx="30.809652"
           sodipodi:cy="207.06596"
           sodipodi:rx="19.697975"
           sodipodi:ry="18.182745"
           d="m 50.507627,207.06596 a 19.697975,18.182745 0 1 1 -39.39595,0 19.697975,18.182745 0 1 1 39.39595,0 z"
           transform="matrix(1.7696822,0,0,1.7696822,236.06393,-36.700478)" />
        <path
           sodipodi:type="arc"
           style="font-size:12px;font-style:normal;font-weight:normal;fill:none;stroke:#000000;stroke-width:10;stroke-linecap:square;stroke-linejoin:miter;stroke-miterlimit:10;stroke-opacity:1;stroke-dasharray:none;stroke-dashoffset:0;font-family:Dialog"
           id="path5448-9"
           sodipodi:cx="-156.06857"
           sodipodi:cy="142.92128"
           sodipodi:rx="65.154839"
           sodipodi:ry="43.941635"
           d="m -90.913734,142.92128 a 65.154839,43.941635 0 1 1 -130.309676,0 65.154839,43.941635 0 1 1 130.309676,0 z"
           transform="matrix(0.49774628,0,0,0.83974347,379.88948,198.10355)" />
        <path
           style="font-size:12px;font-style:normal;font-weight:normal;fill:none;stroke:#000000;stroke-width:1.76968217px;stroke-linecap:butt;stroke-linejoin:miter;stroke-miterlimit:10;stroke-opacity:1;stroke-dasharray:none;stroke-dashoffset:0;font-family:Dialog"
           d="m 287.58974,295.37812 27.4851,0"
           id="path5456-7"
           inkscape:connector-curvature="0" />
        <path
           style="font-size:12px;font-style:normal;font-weight:normal;fill:#b3b3b3;fill-opacity:1;stroke:#000000;stroke-width:2.2345612;stroke-linecap:square;stroke-linejoin:miter;stroke-miterlimit:10;stroke-opacity:1;stroke-dasharray:none;stroke-dashoffset:0;font-family:Dialog"
           d="m 296.3594,336.21594 6.25379,-6.25679 6.20239,6.19943 c 3.41131,3.40968 6.20239,6.22523 6.20239,6.25678 0,0.0315 -5.60528,0.0573 -12.45618,0.0573 l -12.45618,0 6.25379,-6.25678 z"
           id="path5460-7"
           inkscape:connector-curvature="0" />
        <path
           sodipodi:type="spiral"
           style="font-size:12px;font-style:normal;font-weight:normal;fill:none;stroke:#000000;stroke-width:1px;stroke-linecap:butt;stroke-linejoin:miter;stroke-miterlimit:10;stroke-opacity:1;stroke-dasharray:none;stroke-dashoffset:0;font-family:Dialog"
           id="path5462-4"
           sodipodi:cx="30.535715"
           sodipodi:cy="196.96428"
           sodipodi:expansion="1"
           sodipodi:revolution="3"
           sodipodi:radius="5.404552"
           sodipodi:argument="-20.552904"
           sodipodi:t0="0"
           d="m 30.535715,196.96428 c -0.03581,-0.2686 0.344397,-0.18079 0.446429,-0.0595 0.2765,0.32863 0.0038,0.79616 -0.327381,0.95238 -0.592444,0.27943 -1.254479,-0.14102 -1.458334,-0.71429 -0.299164,-0.84129 0.285741,-1.7206 1.10119,-1.96428 1.086866,-0.32479 2.189714,0.43014 2.470239,1.48809 0.353012,1.33132 -0.574332,2.66029 -1.874999,2.97619 -1.575282,0.38259 -3.131715,-0.71838 -3.482144,-2.2619 -0.412968,-1.81899 0.862348,-3.60366 2.648808,-3.9881 2.06254,-0.44385 4.075956,1.00625 4.494049,3.03571 0.475064,2.306 -1.15012,4.5485 -3.422617,5 -2.549398,0.50652 -5.021217,-1.29395 -5.505954,-3.80952 -0.53815,-2.79275 1.437775,-5.49407 4.196427,-6.0119"
           transform="matrix(1.7696822,0,0,1.7696822,236.06393,-36.700478)" />
        <path
           sodipodi:type="spiral"
           style="font-size:12px;font-style:normal;font-weight:normal;fill:none;stroke:#000000;stroke-width:1px;stroke-linecap:butt;stroke-linejoin:miter;stroke-miterlimit:10;stroke-opacity:1;stroke-dasharray:none;stroke-dashoffset:0;font-family:Dialog"
           id="path5464-3"
           sodipodi:cx="44.642857"
           sodipodi:cy="196.78572"
           sodipodi:expansion="1"
           sodipodi:revolution="3"
           sodipodi:radius="5.383862"
           sodipodi:argument="-20.520021"
           sodipodi:t0="0"
           d="m 44.642857,196.78572 c -0.02686,-0.2686 0.348813,-0.16872 0.446428,-0.0446 0.26453,0.33625 -0.02227,0.79281 -0.357142,0.9375 -0.599009,0.25881 -1.244383,-0.18149 -1.428572,-0.75893 -0.270305,-0.84741 0.340844,-1.70373 1.160713,-1.91964 1.092757,-0.28778 2.166064,0.49998 2.410715,1.5625 0.307869,1.33707 -0.65895,2.62986 -1.964284,2.90178 -1.580934,0.32933 -3.094511,-0.81781 -3.392858,-2.36607 -0.351592,-1.82457 0.976604,-3.55968 2.767855,-3.88393 2.068069,-0.37436 4.025201,1.13535 4.375002,3.16964 0.397466,2.31149 -1.294066,4.49097 -3.571426,4.86608 -2.554855,0.42081 -4.956912,-1.45276 -5.357145,-3.97322 -0.444335,-2.79818 1.611432,-5.42299 4.374996,-5.84821"
           transform="matrix(1.7696822,0,0,1.7696822,236.06393,-36.700478)" />
        <text
           xml:space="preserve"
           style="font-size:17.69682121px;font-style:normal;font-variant:normal;font-weight:normal;font-stretch:normal;line-height:125%;letter-spacing:0px;word-spacing:0px;fill:#000000;fill-opacity:1;stroke:none;font-family:Courier;-inkscape-font-specification:Courier"
           x="15.524763"
           y="391.42856"
           id="text5508"
           sodipodi:linespacing="125%"><tspan
             sodipodi:role="line"
             id="tspan5510"
             x="15.524763"
             y="391.42856"
             style="font-size:7.07872868px;font-style:normal;font-variant:normal;font-weight:normal;font-stretch:normal;font-family:DejaVu Sans;-inkscape-font-specification:DejaVu Sans">An open source banking system in the CLOUD!</tspan><tspan
             sodipodi:role="line"
             x="15.524763"
             y="400.27698"
             id="tspan5512"
             style="font-size:7.07872868px;font-style:normal;font-variant:normal;font-weight:normal;font-stretch:normal;font-family:DejaVu Sans;-inkscape-font-specification:DejaVu Sans">WHAT COULD POSSIBLY GO WRONG!</tspan></text>
        <path
           style="fill:none;stroke:#000000;stroke-width:1px;stroke-linecap:butt;stroke-linejoin:miter;stroke-opacity:1"
           d="m 64.642857,208.57143 15.535715,15.53571"
           id="path5514"
           inkscape:connector-curvature="0"
           transform="matrix(1.7696822,0,0,1.7696822,-116.99675,-18.297116)" />
        <path
           style="fill:none;stroke:#000000;stroke-width:1px;stroke-linecap:butt;stroke-linejoin:miter;stroke-opacity:1"
           d="m 240.35714,160 8.75172,-32.66186"
           id="path5516"
           inkscape:connector-curvature="0"
           transform="matrix(1.7696822,0,0,1.7696822,-116.99675,-18.297116)" />
        <text
           xml:space="preserve"
           style="font-size:17.69682121px;font-style:normal;font-variant:normal;font-weight:normal;font-stretch:normal;line-height:125%;letter-spacing:0px;word-spacing:0px;fill:#000000;fill-opacity:1;stroke:none;font-family:Courier;-inkscape-font-specification:Courier"
           x="304.56683"
           y="197.2249"
           id="text5518"
           sodipodi:linespacing="125%"><tspan
             sodipodi:role="line"
             id="tspan5520"
             x="304.56683"
             y="197.2249">Big Data!</tspan></text>
      </g>
    </g>
  </g>
</svg>
