<?xml version="1.0" encoding="UTF-8" standalone="no"?>
<!-- Created with Inkscape (http://www.inkscape.org/) -->

<svg
   xmlns:dc="http://purl.org/dc/elements/1.1/"
   xmlns:cc="http://creativecommons.org/ns#"
   xmlns:rdf="http://www.w3.org/1999/02/22-rdf-syntax-ns#"
   xmlns:svg="http://www.w3.org/2000/svg"
   xmlns="http://www.w3.org/2000/svg"
   xmlns:sodipodi="http://sodipodi.sourceforge.net/DTD/sodipodi-0.dtd"
   xmlns:inkscape="http://www.inkscape.org/namespaces/inkscape"
   width="160"
   height="600"
   id="svg2"
   version="1.1"
   inkscape:version="0.48.4 r9939"
   sodipodi:docname="New document 1">
  <defs
     id="defs4" />
  <sodipodi:namedview
     id="base"
     pagecolor="#ffffff"
     bordercolor="#666666"
     borderopacity="1.0"
     inkscape:pageopacity="0.0"
     inkscape:pageshadow="2"
     inkscape:zoom="0.7"
     inkscape:cx="-28.002844"
     inkscape:cy="284.10512"
     inkscape:document-units="px"
     inkscape:current-layer="layer1"
     showgrid="false"
     inkscape:window-width="1366"
     inkscape:window-height="692"
     inkscape:window-x="1280"
     inkscape:window-y="280"
     inkscape:window-maximized="1" />
  <metadata
     id="metadata7">
    <rdf:RDF>
      <cc:Work
         rdf:about="">
        <dc:format>image/svg+xml</dc:format>
        <dc:type
           rdf:resource="http://purl.org/dc/dcmitype/StillImage" />
        <dc:title></dc:title>
      </cc:Work>
    </rdf:RDF>
  </metadata>
  <g
     inkscape:label="Layer 1"
     inkscape:groupmode="layer"
     id="layer1"
     transform="translate(0,-452.36218)">
    <rect
       style="fill:#00ff00;fill-opacity:0.56074769;stroke:#008000;stroke-width:1;stroke-miterlimit:4;stroke-opacity:1;stroke-dasharray:none"
       id="rect4208"
       width="160"
       height="600"
       x="-160.5"
       y="-1051.8622"
       transform="scale(-1,-1)" />
    <g
       transform="matrix(0.59181713,0,0,0.59181713,-73.168376,589.13711)"
       id="layer1-9"
       inkscape:label="Layer 1">
      <g
         transform="matrix(0,720,1029.6,0,-548.10403,247.51922)"
         id="g3823">
        <g
           id="g3798">
          <path
             transform="matrix(0,9.7125097e-4,0.00138889,0,0,0)"
             inkscape:connector-curvature="0"
             id="path3156"
             d="m 883.20158,173.50528 c -0.4391,-0.82046 -0.79836,-2.14265 -0.79836,-2.93819 0,-0.79555 -1.60933,-3.33182 -3.57629,-5.63617 -5.76944,-6.75908 -12.52487,-17.32031 -16.9504,-26.49974 -2.26737,-4.70297 -5.99951,-11.57517 -8.29363,-15.27154 -3.9433,-6.35356 -8.58133,-16.67597 -7.83026,-17.42703 0.71152,-0.71153 13.30649,12.83142 16.73977,17.99972 4.51684,6.79942 17.9937,32.38274 20.36043,38.65049 2.13797,5.66193 3.23506,12.61421 1.99055,12.61421 -0.4639,0 -1.20271,-0.67129 -1.64181,-1.49175 z"
             style="fill:#ff8080;stroke:none" />
          <g
             id="g3785">
            <path
               style="fill:#000000"
               d="m 0.2230609,0.66292378 c -9.1677e-4,2.538e-4 -0.003729,6.458e-4 -0.00625,8.708e-4 -0.005132,4.581e-4 -0.0108441,0.00218 -0.0198096,0.00597 -0.004996,0.00211 -0.0125322,0.00431 -0.0220745,0.00643 -0.002082,4.628e-4 -0.002538,0.00243 -0.001192,0.00514 0.001671,0.00337 0.007494,0.00615 0.0145508,0.00696 0.005158,5.919e-4 0.00563,7.861e-4 0.009578,0.00395 0.001384,0.00111 0.004036,0.00186 0.004153,0.00333 1.4702e-4,0.00185 -0.002328,0.00333 -0.003492,0.005 -0.003393,0.00486 -0.004071,0.00625 -0.00754,0.015443 -0.003083,0.00817 -0.00203,0.013099 0.00492,0.023019 0.003826,0.00546 0.00638,0.00818 0.0116528,0.012412 0.003714,0.00298 0.006753,0.00562 0.006753,0.00586 0,2.418e-4 0.001447,0.00147 0.003215,0.00274 0.001768,0.00127 0.004835,0.00401 0.006815,0.00609 0.00198,0.00208 0.004658,0.00454 0.005951,0.00546 0.001293,9.192e-4 0.004133,0.00324 0.00631,0.00516 0.002177,0.00192 0.005737,0.00497 0.00791,0.00678 0.002173,0.00181 0.003954,0.00348 0.003958,0.00371 4.16e-6,2.334e-4 0.00132,0.00239 0.002924,0.00478 0.001604,0.0024 0.002917,0.00484 0.002917,0.00544 0,5.955e-4 7.7177e-4,0.00314 0.001715,0.00566 0.003718,0.00993 0.004237,0.015658 0.002476,0.027336 -9.3332e-4,0.00619 -8.5203e-4,0.00609 -0.007524,0.0096 -0.003817,0.00201 -0.008669,0.00714 -0.008693,0.00806 -3.778e-5,0.00143 0.001972,-0.00103 0.003355,-0.00307 9.977e-4,-0.00147 0.001666,-0.00189 0.002297,-0.00145 6.3086e-4,4.416e-4 0.001142,3.049e-4 0.001757,-4.691e-4 8.582e-4,-0.00108 0.009405,-0.00624 0.0142102,-0.00858 0.00137,-6.67e-4 0.004513,-0.0022 0.006986,-0.00341 0.004193,-0.00205 0.004459,-0.00211 0.003947,-8.27e-4 -9.5923e-4,0.0024 -0.001607,0.00633 -0.001044,0.00633 2.9848e-4,0 0.003121,-0.00131 0.006271,-0.00291 0.003151,-0.0016 0.005945,-0.00291 0.006209,-0.00291 2.6394e-4,0 7.2969e-4,0.00132 0.001035,0.00293 3.0532e-4,0.00161 8.685e-4,0.00306 0.001252,0.00323 3.8295e-4,1.657e-4 0.002677,-6.524e-4 0.005099,-0.00182 0.001467,-7.062e-4 0.002625,-0.00203 0.004402,-0.00212 9.1945e-4,-4.64e-5 5.1152e-4,0.00124 7.6727e-4,0.00186 6.6898e-4,0.00162 0.001053,0.00182 0.003,0.00155 0.002738,-3.827e-4 0.008317,-0.00263 0.008317,-0.00335 0,-8.267e-4 -0.0014,-6.216e-4 -0.004355,6.381e-4 -0.003626,0.00155 -0.004522,0.00147 -0.005204,-4.29e-4 -8.8564e-4,-0.00247 -0.002016,-0.00253 -0.006389,-3.295e-4 -0.004351,0.00219 -0.004347,0.00219 -0.005274,-0.00172 -2.9922e-4,-0.00126 -9.9322e-4,-0.00218 -0.001638,-0.00218 -6.1531e-4,0 -0.002942,8.693e-4 -0.005171,0.00193 -0.006274,0.00299 -0.006372,0.00302 -0.00587,0.00178 0.001405,-0.00346 0.001495,-0.00489 3.2598e-4,-0.00521 -0.00104,-2.792e-4 -0.003476,7.781e-4 -0.0140268,0.00609 -8.8506e-4,4.454e-4 -0.001751,7.077e-4 -0.001924,5.828e-4 -1.7295e-4,-1.25e-4 6.055e-5,-0.00272 5.1905e-4,-0.00576 0.001051,-0.00698 3.1034e-4,-0.015749 -0.00187,-0.022145 -9.2861e-4,-0.00272 -0.001891,-0.006 -0.002139,-0.00728 -0.001364,-0.00706 -0.009378,-0.016532 -0.0237478,-0.02808 -0.002467,-0.00198 -0.006272,-0.00526 -0.008455,-0.00728 -0.009601,-0.0089 -0.015145,-0.013767 -0.0184665,-0.016209 -0.005151,-0.00379 -0.009335,-0.00955 -0.0134571,-0.018545 -0.002926,-0.00638 1.208e-5,-0.016208 0.008485,-0.028367 0.005932,-0.00851 0.0113899,-0.013352 0.0199072,-0.01765 0.007749,-0.00391 0.0134195,-0.00514 0.0258789,-0.0056 0.0116787,-4.323e-4 0.0207241,2.846e-4 0.0291837,0.00231 0.006661,0.0016 0.007021,0.00164 0.007021,8.311e-4 0,-3.205e-4 -5.4386e-4,-5.827e-4 -0.001209,-5.827e-4 -6.6472e-4,0 -0.001508,-3.352e-4 -0.001875,-7.451e-4 -0.001391,-0.00156 -0.016876,-0.00326 -0.0300414,-0.0033 -0.002847,-9.9e-6 -0.005814,5.402e-4 -0.008542,-2.99e-5 -8.0154e-4,-1.675e-4 0,-0.00117 0,-0.00175 0,-0.00238 -0.003052,-0.00675 -0.006303,-0.00903 -0.003366,-0.00235 -0.008424,-0.0032 -0.012447,-0.00209 -2.5e-7,0 6e-8,-7e-7 -2e-7,-6e-7 z m 0.00669,0.00143 c 0.001643,8.049e-4 0.002186,9.432e-4 0.003701,9.432e-4 4.4394e-4,0 6.0263e-4,3.728e-4 3.5249e-4,8.285e-4 -6.5156e-4,0.00119 0.001252,0.0034 0.002612,0.00303 0.001544,-4.144e-4 0.002038,0.00113 0.001368,0.00428 -4.7939e-4,0.00225 -8.9668e-4,0.00268 -0.003055,0.00313 -0.01159,0.00243 -0.0216179,0.00758 -0.0276596,0.014217 -0.001241,0.00136 -0.002631,0.00248 -0.003089,0.00248 -4.5817e-4,0 -0.002654,-0.00136 -0.00488,-0.00301 -0.003744,-0.00279 -0.004433,-0.00305 -0.00919,-0.00351 -0.007627,-7.288e-4 -0.0129426,-0.00351 -0.0143482,-0.00752 -5.0985e-4,-0.00145 -2.407e-4,-0.00158 0.007235,-0.00343 0.008927,-0.00221 0.0167988,-0.00485 0.019255,-0.00645 9.3418e-4,-6.085e-4 0.003044,-0.00141 0.004688,-0.00178 0.001644,-3.699e-4 0.003364,-8.707e-4 0.003822,-0.00111 0.001179,-6.238e-4 0.00768,-0.00133 0.0119297,-0.00129 0.002359,2.01e-5 0.003751,-2.519e-4 0.004047,-7.91e-4 5.6358e-4,-0.00103 0.001142,-0.00103 0.003212,-1.69e-5 1.1e-7,0 -4.9e-7,-1e-7 -3.9e-7,-1e-7 z m 0.0862945,0.015313 c -0.002315,4.139e-4 -0.006184,0.00146 -0.008597,0.00232 -0.005916,0.00211 -0.00789,0.00218 -0.0105321,4.053e-4 -0.004113,-0.00277 -0.0126051,-0.00428 -0.0126051,-0.00225 0,0.00121 0.00284,0.00212 0.006136,0.00196 0.002358,-1.11e-4 0.003512,3.339e-4 0.00713,0.00275 0.002374,0.00158 0.005634,0.00412 0.007245,0.00563 0.002074,0.00195 0.003825,0.00293 0.006001,0.00335 0.004496,8.735e-4 0.0174904,6.986e-4 0.0214054,-2.878e-4 0.005298,-0.00133 0.006822,-0.00111 0.009095,0.00133 0.003436,0.00369 0.004646,0.00786 0.004433,0.015297 -2.0529e-4,0.00716 0.001305,0.011959 0.005151,0.016371 9.5203e-4,0.00109 0.001732,0.00246 0.001734,0.00303 4.17e-6,0.00133 0.002828,0.00523 0.006106,0.00844 0.001923,0.00188 0.002558,0.00315 0.002597,0.00519 2.931e-5,0.00154 -3.6006e-4,0.0028 -9.0901e-4,0.00293 -0.001634,3.973e-4 -0.00599,-0.00339 -0.00968,-0.00842 -0.003491,-0.00476 -0.005467,-0.00623 -0.004411,-0.00329 0.001645,0.00458 0.008959,0.012634 0.0121145,0.013335 0.002369,5.258e-4 0.002113,0.00104 -0.001136,0.00226 -0.002612,9.835e-4 -0.002975,9.933e-4 -0.004862,1.287e-4 -0.001122,-5.14e-4 -0.002562,-0.00162 -0.003201,-0.00245 -6.39e-4,-8.35e-4 -0.001984,-0.00174 -0.002988,-0.002 -0.001318,-3.505e-4 -0.001702,-8.189e-4 -0.001379,-0.00168 2.7176e-4,-7.269e-4 4.653e-5,-0.0012 -5.7307e-4,-0.0012 -6.728e-4,0 -8.426e-4,-4.967e-4 -4.9798e-4,-0.00146 2.8756e-4,-8.013e-4 2.1545e-4,-0.00146 -1.6027e-4,-0.00146 -7.9636e-4,0 -0.004349,-0.00492 -0.004349,-0.00603 0,-4.12e-4 -7.0064e-4,-0.00178 -0.001557,-0.00304 -8.5635e-4,-0.00126 -0.002209,-0.00327 -0.003005,-0.00447 -7.9636e-4,-0.0012 -0.002736,-0.00273 -0.004309,-0.00341 -0.002554,-0.0011 -0.00311,-0.00115 -0.005185,-4.463e-4 -0.001278,4.347e-4 -0.006262,0.00381 -0.0110758,0.00749 -0.009844,0.00754 -0.0169243,0.012218 -0.0199269,0.013172 -0.008144,0.00259 -0.0104207,0.0032 -0.014946,0.00402 -0.002811,5.094e-4 -0.005835,7.655e-4 -0.00672,5.69e-4 -0.001899,-4.215e-4 -0.002308,0.00116 -4.304e-4,0.00166 0.001635,4.389e-4 0.0133012,-0.00162 0.0156215,-0.00276 0.001047,-5.127e-4 0.002597,-9.327e-4 0.003444,-9.327e-4 0.003488,0 0.0154496,-0.00744 0.0293397,-0.01825 0.002292,-0.00178 0.004678,-0.00339 0.005302,-0.00358 0.001915,-5.612e-4 0.006438,0.00186 0.007815,0.00419 0.003887,0.00656 0.006682,0.011775 0.007392,0.013785 0.001082,0.00306 0.004566,0.00812 0.006386,0.00927 8.1481e-4,5.154e-4 0.003008,0.00111 0.004873,0.00132 0.00314,3.514e-4 0.003706,1.911e-4 0.007625,-0.00216 0.006735,-0.00404 0.006755,-0.00706 9.389e-5,-0.014105 -0.001772,-0.00188 -0.003751,-0.00465 -0.004396,-0.00617 -6.452e-4,-0.00152 -0.00191,-0.00379 -0.002809,-0.00504 -0.003961,-0.00551 -0.005188,-0.00955 -0.005037,-0.016555 1.0473e-4,-0.00485 -2.2034e-4,-0.00743 -0.001179,-0.00932 -0.001897,-0.00376 -0.003325,-0.00583 -0.004019,-0.00583 -3.3132e-4,0 -8.0732e-4,-5.479e-4 -0.001058,-0.00122 -3.958e-4,-0.00106 -9.7484e-4,-0.00119 -0.004426,-0.00102 -0.003877,1.932e-4 -0.003984,1.537e-4 -0.004529,-0.00167 -7.2845e-4,-0.00244 -0.003003,-0.00583 -0.005438,-0.00812 -0.002346,-0.0022 -0.005302,-0.00262 -0.0111121,-0.00158 -7.3e-7,10e-8 -5.3e-7,-1e-6 -1.25e-6,-1e-6 z m 0.007945,0.00162 c 0.00184,9.013e-4 0.005628,0.00639 0.006555,0.0095 1.8818e-4,6.314e-4 0.001309,0.00151 5.6445e-4,0.00189 -0.001196,6.109e-4 -0.002961,5.75e-5 -0.004441,8.63e-5 -0.00878,1.706e-4 -0.015245,-2.367e-4 -0.0170764,-0.00108 -0.001025,-4.698e-4 -0.002621,-0.00168 -0.003546,-0.0027 -9.2516e-4,-0.00101 -0.00235,-0.00249 -0.003167,-0.00328 -8.1698e-4,-7.875e-4 -0.001097,-0.00127 -6.2373e-4,-0.00106 4.7345e-4,2.028e-4 0.002724,-2.983e-4 0.005,-0.00111 0.00423,-0.00151 0.0103044,-0.00289 0.0133285,-0.00302 9.2925e-4,-3.99e-5 0.002462,3.063e-4 0.003407,7.687e-4 4.5e-7,2e-7 -1.27e-6,-10e-7 -8.4e-7,-10e-7 z m -0.005495,0.048839 c 3.68e-5,0.00152 0.004529,0.00749 0.0117371,0.015589 4.2771e-4,4.808e-4 0.002456,0.00323 0.004507,0.00612 0.002051,0.00289 0.005513,0.00761 0.007692,0.010502 0.005108,0.00678 0.007127,0.010088 0.009306,0.015266 9.7356e-4,0.00231 0.00197,0.00457 0.002214,0.00501 3.2575e-4,5.933e-4 -9.4847e-4,0.00101 -0.004807,0.00156 -0.002888,4.162e-4 -0.006293,0.00112 -0.007567,0.00157 -0.002726,9.538e-4 -0.003932,5.968e-4 -0.003939,-0.00117 -5.55e-6,-0.00144 -8.1683e-4,-0.00258 -0.005657,-0.00798 -0.001869,-0.00208 -0.004323,-0.0051 -0.005452,-0.0067 -0.007021,-0.00996 -0.0106019,-0.015765 -0.0110651,-0.017927 -2.9098e-4,-0.00136 -0.001431,-0.00375 -0.002533,-0.00532 -0.001102,-0.00157 -0.002234,-0.00439 -0.002514,-0.00626 -2.8024e-4,-0.00188 -8.7686e-4,-0.00341 -0.001325,-0.00341 -0.001398,0 -1.8261e-4,0.00653 0.001762,0.00947 0.001009,0.00152 0.002207,0.00415 0.002662,0.00583 0.001074,0.00397 0.0152085,0.024942 0.0187485,0.027824 5.9057e-4,4.808e-4 0.001808,0.00223 0.002705,0.00389 5.4377e-4,0.001 0.002626,0.00219 0.001631,0.00301 -0.001624,0.00134 -0.004791,0.00104 -0.007187,0.00156 -0.0120801,0.00262 -0.0126736,0.0028 -0.0124128,0.00375 3.3492e-4,0.00122 0.003142,0.00154 0.003142,3.626e-4 0,-5.183e-4 7.0144e-4,-9.168e-4 0.001614,-9.168e-4 8.875e-4,0 0.007169,-0.00131 0.0139583,-0.00291 0.007056,-0.00167 0.015201,-0.00316 0.0190114,-0.0035 0.003667,-3.197e-4 0.007977,-8.447e-4 0.009578,-0.00117 0.00479,-9.614e-4 0.0114074,-7.075e-4 0.0148304,5.682e-4 0.004578,0.00171 0.005894,0.00257 0.005735,0.00378 -1.1347e-4,8.622e-4 0.001636,0.00159 0.008462,0.00351 0.012118,0.00341 0.0129404,0.00383 0.0157554,0.00801 0.004494,0.00667 0.00463,0.0071 0.00422,0.01342 -4.3956e-4,0.00678 -0.001757,0.00921 -0.005773,0.010663 -0.002798,0.00101 -0.00237,0.00118 -0.009811,-0.00385 -7.3131e-4,-4.947e-4 -0.001386,-0.00175 -0.001455,-0.00278 -1.4095e-4,-0.00212 -0.003876,-0.00593 -0.00581,-0.00593 -6.9693e-4,0 -0.001788,-3.643e-4 -0.002425,-8.096e-4 -0.001309,-9.155e-4 -0.0162353,-0.00187 -0.0201002,-0.00128 -0.001305,1.979e-4 -0.003214,4.713e-4 -0.004242,6.073e-4 -0.001028,1.36e-4 -0.005716,0.00154 -0.0104167,0.00312 -0.004701,0.00158 -0.009384,0.00305 -0.010406,0.00327 -0.001022,2.217e-4 -0.004015,0.00131 -0.00665,0.00242 -0.002635,0.00111 -0.006189,0.00228 -0.007898,0.0026 -0.003477,6.548e-4 -0.004744,0.00156 -0.002885,0.00206 0.001352,3.628e-4 0.0126722,-0.00291 0.0145106,-0.0042 0.001954,-0.00137 0.002698,-9.04e-4 0.002692,0.00167 -2.78e-6,0.00136 6.4417e-4,0.00517 0.001438,0.00847 0.001125,0.00467 0.001227,0.00621 4.5992e-4,0.00699 -5.4105e-4,5.509e-4 -0.002156,0.00241 -0.00359,0.00414 -0.001433,0.00172 -0.00432,0.00442 -0.006414,0.00598 -0.001269,9.486e-4 -0.002043,0.00244 -0.003807,0.00285 -8.672e-4,2.004e-4 -9.4941e-4,-0.00109 -0.001424,-0.00164 -0.001481,-0.0017 -0.0124056,-0.00887 -0.0135205,-0.00887 -0.00184,0 -1.556e-5,0.00181 0.005327,0.00529 0.006094,0.00397 0.007078,0.00578 0.003136,0.00578 -0.002495,0 -0.008954,0.00394 -0.0125578,0.00766 -0.002874,0.00297 -0.00353,0.00407 -0.005673,0.00953 -0.001656,0.00422 -0.003023,0.0392488 -0.001772,0.0406628 9.0625e-4,0.00103 8.1164e-4,-0.004798 9.3164e-4,-0.007209 0.001551,-0.031066 0.002586,-0.036469 0.008107,-0.042304 0.002854,-0.00302 0.00816,-0.00601 0.0106457,-0.00601 7.9337e-4,0 0.001077,-2.712e-4 7.1448e-4,-6.818e-4 -4.0006e-4,-4.53e-4 -1.5506e-4,-5.617e-4 7.3032e-4,-3.241e-4 7.3309e-4,1.967e-4 0.001498,4.45e-5 0.001699,-3.38e-4 2.4537e-4,-4.665e-4 6.5446e-4,-5.038e-4 0.00124,-1.13e-4 0.001597,0.00107 0.00752,0.012185 0.008381,0.015734 0.002993,0.012338 0.002923,0.011519 0.001386,0.016378 -0.001884,0.00595 -0.003428,0.00814 -0.005067,0.00719 -6.59e-4,-3.824e-4 -0.001198,-0.00132 -0.001198,-0.00208 0,-7.62e-4 -7.639e-4,-0.00192 -0.001697,-0.00257 -9.3362e-4,-6.525e-4 -0.001481,-0.00143 -0.001218,-0.00173 2.6387e-4,-2.977e-4 -4.8113e-4,-0.0013 -0.001655,-0.00222 -0.001174,-9.215e-4 -0.002667,-0.00218 -0.003319,-0.00279 -0.001149,-0.00108 -0.001254,-0.00107 -0.003457,4.572e-4 -0.002212,0.00153 -0.002246,0.00165 -0.001283,0.00466 5.443e-4,0.0017 0.001347,0.00528 0.001783,0.00796 9.3171e-4,0.00572 -5.55e-6,0.00797 -0.004578,0.010982 -0.004623,0.00305 -0.0120755,0.00531 -0.0120755,0.00366 0,-3.274e-4 -8.7919e-4,-8.755e-4 -0.001954,-0.00122 -0.003039,-9.684e-4 -0.00793,-0.00736 -0.009202,-0.012029 -6.0961e-4,-0.00224 -0.001371,-0.00436 -0.001692,-0.00473 -9.4548e-4,-0.00107 -0.002395,-7.698e-4 -0.001731,3.591e-4 3.2982e-4,5.609e-4 0.001298,0.00293 0.002153,0.00526 8.5462e-4,0.00233 0.002534,0.00541 0.003734,0.00684 0.001835,0.00219 0.001979,0.00266 9.1143e-4,0.00294 -0.001501,4.025e-4 -0.003052,0.00324 -0.003052,0.00558 0,9.137e-4 -3.4313e-4,0.00166 -7.625e-4,0.00166 -0.001143,0 -0.007216,-0.005 -0.008682,-0.00715 -7.0527e-4,-0.00103 -0.002986,-0.00306 -0.005068,-0.0045 -0.002083,-0.00144 -0.003794,-0.00285 -0.003803,-0.00312 -9.72e-6,-2.758e-4 0.001658,-0.00218 0.003705,-0.00423 0.002047,-0.00205 0.003453,-0.00372 0.003125,-0.00371 -0.001286,1.93e-5 -0.00253,9.62e-4 -0.004216,0.0032 -0.003608,0.00478 -0.003344,0.0047 -0.0107225,0.0033 -0.00357,-6.754e-4 -0.007452,-0.00136 -0.008627,-0.00152 -0.002876,-3.939e-4 -0.008276,-0.0042 -0.0126015,-0.00887 -0.004241,-0.00459 -0.005574,-0.00691 -0.006597,-0.011515 -0.001043,-0.00469 -5.667e-4,-0.00547 0.003473,-0.00569 0.004302,-2.312e-4 0.004273,-0.00129 -4.152e-5,-0.00152 -0.001841,-9.83e-5 -0.003348,-4.555e-4 -0.003348,-7.933e-4 0,-3.774e-4 -0.001045,-4.77e-4 -0.002712,-2.583e-4 -0.004279,5.613e-4 -0.0175609,-0.00178 -0.0277048,-0.00489 -0.001833,-5.617e-4 -0.0045,-0.00117 -0.005926,-0.00135 -0.001426,-1.82e-4 -0.004613,-9.775e-4 -0.007083,-0.00177 -0.00247,-7.905e-4 -0.006553,-0.00189 -0.009074,-0.00244 -0.002521,-5.509e-4 -0.004958,-0.00119 -0.005417,-0.00143 -4.5834e-4,-2.357e-4 -0.002892,-8.988e-4 -0.005407,-0.00147 -0.00573,-0.00131 -0.0145137,-0.00523 -0.0183425,-0.0082 -0.006455,-0.005 -0.0175,-0.015107 -0.0175,-0.016021 0,-5.353e-4 -5.4e-4,-0.00129 -0.0012,-0.00167 -6.5999e-4,-3.83e-4 -0.001316,-0.00127 -0.001458,-0.00196 -2.0475e-4,-0.00101 -8.195e-4,-0.00127 -0.002966,-0.00127 -0.002505,0 -0.002894,-2.745e-4 -0.005194,-0.00367 -0.001367,-0.00202 -0.002448,-0.00386 -0.002402,-0.00408 4.618e-5,-2.235e-4 1.25e-5,-5.375e-4 -7.503e-5,-6.978e-4 -8.75e-5,-1.602e-4 -2.1561e-4,-0.00224 -2.847e-4,-0.00462 -8.597e-5,-0.00296 1.9624e-4,-0.0044 8.943e-4,-0.00456 6.3901e-4,-1.49e-4 8.3083e-4,1.069e-4 5.1353e-4,6.851e-4 -3.8035e-4,6.931e-4 2.21e-5,9.228e-4 0.001617,9.228e-4 0.001168,0 0.002323,-2.258e-4 0.002567,-5.019e-4 5.8167e-4,-6.582e-4 0.008821,4.854e-4 0.008821,0.00122 0,3.123e-4 5.5005e-4,4.201e-4 0.001222,2.398e-4 0.001597,-4.286e-4 0.009792,0.00128 0.009224,0.00192 -2.4024e-4,2.716e-4 1.2376e-4,6.444e-4 8.0863e-4,8.281e-4 6.8487e-4,1.838e-4 0.001245,9.39e-5 0.001245,-2e-4 0,-3.116e-4 9.5463e-4,-3.324e-4 0.002292,-4.97e-5 0.00126,2.664e-4 0.003979,8.23e-4 0.006042,0.00124 0.002062,4.138e-4 0.004403,0.0013 0.005202,0.00196 0.001157,9.632e-4 0.001601,0.00105 0.002181,4.26e-4 6.0122e-4,-6.464e-4 0.001193,-6.156e-4 0.003382,1.762e-4 0.001459,5.277e-4 0.002862,0.00134 0.003116,0.0018 2.5436e-4,4.641e-4 8.5226e-4,8.436e-4 0.001328,8.436e-4 0.001525,0 0.00812,0.00318 0.008122,0.00391 9.9e-7,3.906e-4 4.7754e-4,5.824e-4 0.001059,4.263e-4 0.001209,-3.245e-4 0.008109,0.00382 0.008109,0.00487 0,3.814e-4 3.75e-4,6.935e-4 8.3333e-4,6.935e-4 4.5834e-4,0 8.3334e-4,3.742e-4 8.3334e-4,8.317e-4 0,0.00148 0.005826,0.00433 0.015,0.00733 0.0114602,0.00374 0.0183354,0.00687 0.0231925,0.010562 0.002902,0.00221 0.005777,0.00401 0.006389,0.00401 6.1216e-4,0 0.001238,1.966e-4 0.001391,4.37e-4 1.5287e-4,2.404e-4 0.002247,0.00157 0.004653,0.00295 0.003649,0.00209 0.004375,0.00232 0.004375,0.00138 0,-7.277e-4 -0.002292,-0.00234 -0.006442,-0.00452 -0.003543,-0.00187 -0.007383,-0.00419 -0.008532,-0.00517 -0.004312,-0.00367 -0.006928,-0.00493 -0.0193564,-0.00928 -0.0138667,-0.00486 -0.0160884,-0.00586 -0.0170908,-0.00771 -8.3964e-4,-0.00155 -0.009262,-0.00676 -0.0152453,-0.00942 -0.002521,-0.00112 -0.005521,-0.00264 -0.006667,-0.00338 -0.004476,-0.00288 -0.0504352,-0.01223 -0.0546002,-0.011112 -0.001707,4.581e-4 -0.00155,0.00153 2.2525e-4,0.00154 9.4789e-4,5.9e-6 0.00112,1.596e-4 4.91e-4,4.394e-4 -7.1777e-4,3.193e-4 -7.5521e-4,0.00178 -1.4521e-4,0.00566 6.8545e-4,0.00436 0.0014,0.00601 0.004301,0.0099 0.001914,0.00257 0.003947,0.0047 0.00452,0.00474 5.7293e-4,4e-5 0.001386,1.056e-4 0.001807,1.457e-4 4.2096e-4,4e-5 0.001589,0.001 0.002594,0.00214 0.003915,0.00443 0.0222833,0.020076 0.0235682,0.020076 9.488e-4,0 0.006529,0.00302 0.006115,0.00331 -1.8504e-4,1.292e-4 -0.004005,-3.006e-4 -0.008489,-9.554e-4 -0.0088,-0.00129 -0.0256117,-0.00164 -0.0311237,-6.519e-4 -0.001657,2.962e-4 -0.005048,8.268e-4 -0.007535,0.00118 -0.005179,7.334e-4 -0.0142279,0.00342 -0.0142279,0.00423 0,0.00155 0.002617,0.00323 0.0110875,0.00712 0.005131,0.00236 0.0123021,0.00537 0.0159351,0.00669 0.003633,0.00133 0.007008,0.00264 0.0075,0.00291 4.92e-4,2.754e-4 0.002207,6.941e-4 0.003811,9.3e-4 0.001604,2.358e-4 0.003859,7.649e-4 0.005011,0.00118 0.004331,0.00155 0.0249869,0.00488 0.0358228,0.00578 0.006187,5.15e-4 0.013125,0.00109 0.0154167,0.00128 0.002292,1.892e-4 0.004917,4.433e-4 0.005833,5.642e-4 9.1666e-4,1.209e-4 0.006172,3.891e-4 0.0116778,5.96e-4 0.009617,3.614e-4 0.0137669,-1.37e-5 0.0206813,-0.00187 7.2843e-4,-1.955e-4 0.001921,5.145e-4 0.003156,0.00188 0.001092,0.00121 0.002735,0.00303 0.003652,0.00405 0.006268,0.00697 0.009355,0.00847 0.0216533,0.010501 0.005824,9.624e-4 0.0072,0.00145 0.0110417,0.00395 0.002414,0.00157 0.004388,0.00316 0.004388,0.00354 0,0.00113 0.004905,0.00595 0.007069,0.00695 0.001109,5.081e-4 0.003663,0.00123 0.005676,0.00161 0.003273,6.118e-4 0.004071,5.453e-4 0.007541,-6.293e-4 0.002135,-7.227e-4 0.003881,-0.00163 0.003881,-0.00202 0,-3.883e-4 0.001727,-0.00129 0.003838,-0.00201 0.006015,-0.00204 0.0108835,-0.00522 0.0128145,-0.00836 0.001488,-0.00242 0.001664,-0.00355 0.001237,-0.00791 -2.741e-4,-0.0028 -8.4898e-4,-0.00518 -0.001277,-0.00529 -0.001039,-2.594e-4 -0.001002,-0.00518 4.222e-5,-0.00563 0.00166,-7.176e-4 0.004013,0.0032 0.004013,0.00668 0,0.00388 0.001272,0.00602 0.003342,0.00563 7.7418e-4,-1.458e-4 0.002367,-4.131e-4 0.003539,-5.938e-4 0.001465,-2.258e-4 0.002707,-0.00113 0.003969,-0.0029 0.005418,-0.00759 0.004134,-0.021492 -0.003097,-0.033527 -0.003057,-0.00509 -0.003063,-0.00513 -9.2011e-4,-0.0056 9.1661e-4,-2.035e-4 0.001667,-7.804e-4 0.001667,-0.00128 0,-5.017e-4 6.8416e-4,-0.00134 0.001521,-0.00185 0.001725,-0.00107 0.009596,-0.00938 0.0130344,-0.013763 0.001257,-0.0016 0.0026,-0.00318 0.002985,-0.00352 0.001492,-0.00129 0.005793,-0.00958 0.005793,-0.011178 0,-9.242e-4 4.4986e-4,-0.00199 0.001,-0.00238 7.399e-4,-5.176e-4 7.5645e-4,-8.694e-4 6.361e-5,-0.00135 -0.001349,-9.435e-4 0.001073,-0.00248 0.005186,-0.00328 0.005216,-0.00102 0.019113,-4.041e-4 0.02338,0.00104 0.003351,0.00113 0.003634,0.00144 0.005693,0.00605 0.001766,0.00396 0.002697,0.00514 0.005033,0.00639 0.003517,0.00188 0.00685,0.00194 0.0105174,2.156e-4 0.00431,-0.00203 0.005726,-0.00429 0.006559,-0.010443 7.9287e-4,-0.00586 1.6778e-4,-0.00977 -0.002042,-0.012754 -8.1511e-4,-0.0011 -0.001132,-0.00243 -8.1913e-4,-0.00343 7.6828e-4,-0.00245 -0.003361,-0.00929 -0.006034,-0.01 -0.001137,-3.024e-4 -0.002924,-0.00102 -0.003971,-0.0016 -0.001047,-5.759e-4 -0.004097,-0.00138 -0.006777,-0.00179 -0.00268,-4.09e-4 -0.006576,-0.00126 -0.008657,-0.0019 -0.004243,-0.00129 -0.0171369,-0.0017 -0.0263015,-8.248e-4 -0.001695,1.615e-4 -0.003562,0.00103 -0.005085,4.847e-4 -0.001101,-3.939e-4 -4.5977e-4,-0.0017 -6.8975e-4,-0.00255 -3.793e-4,-0.0014 -7.3463e-4,-0.00281 -7.8969e-4,-0.00313 -2.7612e-4,-0.00161 -0.008751,-0.015476 -0.0102283,-0.016735 -4.8256e-4,-4.112e-4 -0.004329,-0.00532 -0.008548,-0.010916 -0.004219,-0.00559 -0.008942,-0.011489 -0.0104973,-0.013104 -0.001555,-0.00162 -0.002827,-0.00328 -0.002827,-0.00369 0,-9.963e-4 -0.003813,-0.00456 -0.004754,-0.00456 -4.0562e-4,0 5.9768e-4,0.00126 6.0628e-4,0.00165 6e-8,2.9e-6 -4.17e-6,3.9e-6 -4.17e-6,6.8e-6 z m 0.074039,0.056436 c 0.007981,0.00176 0.012755,0.00363 0.0149479,0.00585 0.002363,0.00239 0.001142,0.00283 -0.002522,9.098e-4 -0.001503,-7.877e-4 -0.00367,-0.00162 -0.004816,-0.00185 -0.002378,-4.748e-4 -0.0131348,-0.00485 -0.013815,-0.00562 -6.4517e-4,-7.302e-4 2.93e-5,-6.532e-4 0.006206,7.114e-4 5e-7,10e-8 -1.39e-6,7e-7 -9e-7,8e-7 z m -0.0357446,0.028829 c -4.4713e-4,8.222e-4 -8.1271e-4,0.00235 -8.1271e-4,0.0034 0,0.00294 -0.006376,0.013174 -0.008211,0.013174 -8.8283e-4,0 -0.002622,-0.00715 -0.002622,-0.010778 0,-0.00108 -9.2907e-4,-0.00237 0,-0.00323 0.001265,-0.00117 0.00375,-0.00131 0.005625,-0.00197 0.006918,-0.00242 0.007024,-0.00243 0.006021,-5.896e-4 -5e-8,10e-8 -2.4e-7,-4e-7 -2.9e-7,-3e-7 z m -0.20087264,0.035821 c 0.004649,6.515e-4 0.010209,0.00128 0.0123546,0.0014 0.002146,1.182e-4 0.004038,5.028e-4 0.004206,8.546e-4 1.6783e-4,3.517e-4 0.001541,6.396e-4 0.003053,6.396e-4 0.003448,0 0.0120761,0.00225 0.0212798,0.00554 0.010721,0.00384 0.0181539,0.00597 0.0243765,0.00697 0.0061,9.872e-4 0.00979,0.00199 0.00979,0.00266 0,2.334e-4 4.6875e-4,4.123e-4 0.001042,3.974e-4 0.00335,-8.71e-5 0.003789,2.495e-4 0.005107,0.00392 0.001734,0.00483 0.001717,0.00498 -5.6536e-4,0.00498 -0.001054,0 -0.002386,3.277e-4 -0.00296,7.284e-4 -0.001381,9.643e-4 -0.0207963,9.253e-4 -0.0326235,-6.57e-5 -0.0161806,-0.00136 -0.0270584,-0.00243 -0.0308333,-0.00305 -0.0118331,-0.00193 -0.0117146,-0.00191 -0.0245833,-0.00497 -0.002292,-5.461e-4 -0.005104,-0.00144 -0.00625,-0.00199 -0.001146,-5.488e-4 -0.003958,-0.00159 -0.00625,-0.00231 -0.005086,-0.00161 -0.0254167,-0.010873 -0.0254167,-0.011586 0,-2.819e-4 6.5624e-4,-6.649e-4 0.001458,-8.51e-4 8.0207e-4,-1.862e-4 0.002958,-7.66e-4 0.004792,-0.00129 0.0108591,-0.0031 0.0282365,-0.00392 0.0420234,-0.00198 5.3e-7,1e-7 -6.7e-7,-10e-7 -1.4e-7,-10e-7 z m 0.0596433,0.012218 c 2.8318e-4,3.206e-4 -4.75e-5,5.828e-4 -7.3497e-4,5.828e-4 -6.8751e-4,0 -0.001482,-2.623e-4 -0.001765,-5.828e-4 -2.8317e-4,-3.205e-4 4.75e-5,-5.827e-4 7.3497e-4,-5.827e-4 6.875e-4,0 0.001482,2.623e-4 0.001765,5.827e-4 z m 0.003524,9.349e-4 c -2.7699e-4,1.936e-4 -9.9564e-4,2.143e-4 -0.001597,4.59e-5 -6.6474e-4,-1.861e-4 -4.6731e-4,-3.241e-4 5.0348e-4,-3.521e-4 8.7847e-4,-2.52e-5 0.001371,1.125e-4 0.001094,3.061e-4 -1.1e-7,10e-8 -3.6e-7,-1e-7 -4.8e-7,0 z m 0.016059,0.00292 c -5.1582e-4,6.391e-4 -0.003426,3.932e-4 -0.004537,-3.835e-4 -5.4051e-4,-3.779e-4 1.671e-4,-4.991e-4 0.002066,-3.538e-4 0.001588,1.216e-4 0.0027,4.534e-4 0.002471,7.373e-4 z m 0.0659131,0.039103 c 0.001331,5.501e-4 0.00242,0.00118 0.00242,0.00141 0,2.252e-4 2.11e-4,7.939e-4 4.6893e-4,0.00126 3.3611e-4,6.125e-4 -6.374e-4,0.00112 -0.003437,0.00179 -0.005541,0.00132 -0.006139,8.841e-4 -0.004488,-0.00327 9.7734e-4,-0.00246 0.001596,-0.00261 0.005036,-0.00119 4.2e-7,10e-8 -3.4e-7,8e-7 7e-8,9e-7 z m -0.16091233,-0.088704 c 4.9e-7,1.56e-4 0.001594,0.00216 0.003542,0.00445 0.002187,0.00257 0.005577,0.00542 0.008863,0.00744 0.002927,0.0018 0.007831,0.00484 0.0108999,0.00677 0.003068,0.00192 0.008174,0.00439 0.0113457,0.00548 0.003172,0.00109 0.007598,0.00287 0.009836,0.00394 0.002238,0.00107 0.005051,0.00212 0.00625,0.00232 0.001199,2.034e-4 0.004618,0.00132 0.007597,0.00249 0.002979,0.00116 0.008345,0.00316 0.0119247,0.00443 0.003579,0.00127 0.007892,0.00281 0.009583,0.00343 0.001691,6.12e-4 0.005138,0.00148 0.007659,0.00193 0.002521,4.506e-4 0.005896,0.00106 0.0075,0.00135 0.001604,2.92e-4 0.004441,5.372e-4 0.006304,5.449e-4 0.003079,1.26e-5 0.003518,-1.778e-4 0.004824,-0.00209 0.001311,-0.00192 0.001323,-0.00223 1.3513e-4,-0.0035 -9.2034e-4,-9.824e-4 -0.00209,-0.00139 -0.003991,-0.0014 -0.003728,-1.77e-5 -0.0091,-0.00184 -0.0142057,-0.00481 -0.003965,-0.00231 -0.0119202,-0.00629 -0.0153787,-0.0077 -7.8729e-4,-3.206e-4 -0.00283,-0.00132 -0.00454,-0.00222 -0.001709,-9.02e-4 -0.005425,-0.00228 -0.008257,-0.00305 -0.002832,-7.761e-4 -0.005935,-0.00177 -0.006895,-0.0022 -9.602e-4,-4.368e-4 -0.003246,-0.00113 -0.00508,-0.00154 -0.001833,-4.087e-4 -0.004083,-0.00119 -0.005,-0.00174 -9.1675e-4,-5.51e-4 -0.003354,-0.00166 -0.005417,-0.00247 -0.002062,-8.089e-4 -0.006755,-0.00275 -0.0104278,-0.00432 -0.003673,-0.00157 -0.00836,-0.00323 -0.0104167,-0.00368 -0.002056,-4.549e-4 -0.005884,-0.00157 -0.008507,-0.00247 -0.00428,-0.00148 -0.008149,-0.00212 -0.008149,-0.00136 0,3e-7 1.53e-6,-3e-7 1.53e-6,10e-8 z m 0.012267,0.00438 c 5.5935e-4,9e-7 0.003067,6.577e-4 0.005572,0.00146 0.002505,8.012e-4 0.004759,0.00146 0.005009,0.00146 2.4963e-4,0 0.002571,9.832e-4 0.005158,0.00218 0.002587,0.0012 0.006368,0.00278 0.008403,0.00351 0.002035,7.278e-4 0.004496,0.00184 0.00547,0.00248 9.7361e-4,6.345e-4 0.002169,0.00116 0.002655,0.00116 4.8649e-4,9e-7 0.003739,0.00101 0.007228,0.00225 0.003489,0.00124 0.007239,0.0024 0.008333,0.0026 0.001094,1.958e-4 0.00499,0.00181 0.008656,0.00358 0.003667,0.00177 0.007741,0.00368 0.009055,0.00424 0.001313,5.597e-4 0.00388,0.00187 0.005704,0.00291 0.001824,0.00104 0.003592,0.00189 0.003929,0.00189 3.3752e-4,0 0.001115,6.544e-4 0.001727,0.00145 6.1215e-4,7.998e-4 0.002363,0.00177 0.003891,0.00216 0.001528,3.866e-4 0.002778,9.404e-4 0.002778,0.00123 0,2.908e-4 9.1624e-4,3.68e-4 0.002036,1.715e-4 0.002371,-4.162e-4 0.006864,0.00203 0.005844,0.00319 -0.001597,0.00181 -0.0194875,-0.00137 -0.028352,-0.00504 -0.003434,-0.00142 -0.006555,-0.00258 -0.006936,-0.00258 -3.8118e-4,0 -0.001964,-5.95e-4 -0.003518,-0.00132 -0.001554,-7.272e-4 -0.006387,-0.00245 -0.0107413,-0.00384 -0.004354,-0.00138 -0.009042,-0.00311 -0.0104167,-0.00383 -0.001375,-7.211e-4 -0.004938,-0.00215 -0.007917,-0.00317 -0.002979,-0.00102 -0.007479,-0.00321 -0.01,-0.00486 -0.002521,-0.00165 -0.005911,-0.00368 -0.007535,-0.00451 -0.003229,-0.00165 -0.0110001,-0.00746 -0.0123759,-0.00926 -0.001282,-0.00167 -2.654e-4,-0.00192 0.002698,-6.598e-4 0.001446,6.165e-4 0.003087,0.00112 0.003647,0.00112 5.1e-7,0 -1.67e-6,-7e-7 -1.1e-6,-7e-7 z m 0.10537097,0.043271 c -0.002213,0.00252 -0.002956,0.0056 -0.001842,0.00765 6.6868e-4,0.00123 6.5206e-4,0.00188 -6.347e-5,0.00249 -0.0012,0.00101 -4.3592e-4,0.00164 0.001396,0.00115 0.001148,-3.083e-4 0.001276,-9.178e-4 7.9635e-4,-0.00381 -4.6703e-4,-0.00281 -2.5391e-4,-0.00394 0.001169,-0.00619 0.001992,-0.00315 0.002003,-0.00318 9.7423e-4,-0.00318 -4.2096e-4,0 -0.001514,8.523e-4 -0.00243,0.00189 -2.5e-7,3e-7 1.7e-7,-1e-6 -8e-8,-1e-6 z m 0.0186121,-4.199e-4 c -0.00275,4.297e-4 -0.00544,7.989e-4 -0.005978,8.195e-4 -0.002441,9.34e-5 -0.005901,0.00299 -0.006452,0.0054 -3.1076e-4,0.00136 -0.00101,0.00266 -0.001553,0.0029 -0.001674,7.238e-4 0.003429,0.00385 0.008076,0.00495 0.005007,0.00118 0.0173747,0.00143 0.0188847,3.82e-4 5.4259e-4,-3.776e-4 0.001177,-0.00255 0.00141,-0.00483 8.4405e-4,-0.00825 -0.003705,-0.011291 -0.0143876,-0.00962 -7e-7,1e-7 6.1e-7,-1.9e-6 -1e-7,-1.9e-6 z m 0.0104534,0.00304 c 6.6204e-4,0.0012 0.001332,0.00238 0.001487,0.00262 1.5514e-4,2.404e-4 -6.2003e-4,4.371e-4 -0.001722,4.371e-4 -0.004133,0 -0.00991,0.00185 -0.0115002,0.00367 -8.5126e-4,9.79e-4 -0.001358,0.002 -0.001125,0.00226 6.9095e-4,7.813e-4 -0.002075,5.446e-4 -0.004692,-4.02e-4 -0.003326,-0.0012 -0.004188,-0.00254 -0.003337,-0.00517 7.6143e-4,-0.00236 0.002549,-0.00364 0.005854,-0.00419 0.001146,-1.906e-4 0.003021,-5.651e-4 0.004167,-8.323e-4 0.001146,-2.671e-4 0.003789,-5.064e-4 0.005874,-5.317e-4 0.003632,-4.41e-5 0.003842,4.53e-5 0.004996,0.00214 2.8e-7,5e-7 -1.39e-6,4e-7 -1.39e-6,9e-7 z m 0.00163,0.00537 c -3e-8,3.092e-4 -8.4372e-4,8.658e-4 -0.001875,0.00124 -0.001031,3.71e-4 -0.002647,0.00128 -0.003591,0.00202 -0.001977,0.00155 -0.005261,0.00226 -0.006941,0.00149 -8.8616e-4,-4.036e-4 -9.3123e-4,-7.118e-4 -1.9289e-4,-0.00132 5.3013e-4,-4.345e-4 0.001613,-0.00134 0.002407,-0.00201 7.9371e-4,-6.709e-4 0.002005,-0.00137 0.002693,-0.00156 0.002088,-5.628e-4 0.0075,-4.659e-4 0.0075,1.337e-4 0,10e-8 -1.1e-7,2e-7 -1.1e-7,3e-7 z m -9.8908e-4,0.00395 c -1.5258e-4,5.609e-4 -0.001139,0.0011 -0.002192,0.00121 -0.001744,1.731e-4 -0.001818,8.35e-5 -8.327e-4,-0.00102 0.001314,-0.00147 0.003409,-0.0016 0.003024,-1.905e-4 -7e-8,2e-7 7.7e-7,3e-7 7e-7,5e-7 z"
               id="path2992-4"
               inkscape:connector-curvature="0"
               sodipodi:nodetypes="sssssssssssssssssssssssssssssssssssssssssssssssssssssssssssssssssssssssssssssssssssssssssssssssssssssssssssssssssssssssssssssssssssssssssssssssssssssssssssssssssssssssssssssssssssssssssssssssssssssssssssssssssssssssssssssssssssssssssssssssssssssssssssssssssssssssssssssssssssssssssssssssssssssssssssssssssssssssssssssssssssssssssssssssssssssssssssssssssssssssssssssssssssssssssssssssssssssssssssssssssssssssssssssssssssssssssssssssssssssssssssssssssscsssssssssssssssssssssssssssscccsccccscccssccscccscccsscccsccccccccscccccccccccccccsccccccccccczcccccsscccccc" />
            <path
               style="fill:#ac9d93;stroke:none"
               d="m 824.98177,294.58934 -4.91537,-2.3834 -3.43701,-7.46651 c -2.19631,-4.77126 -4.03507,-7.73175 -5.09379,-8.20126 -0.91523,-0.40587 -2.34085,-2.3951 -3.18511,-4.44432 -1.50019,-3.64136 -1.50299,-3.85919 -0.15234,-11.84236 1.53412,-9.06748 7.14331,-28.90343 8.39281,-29.67973 1.08967,-0.67698 0.0565,-3.18071 -1.14701,-2.77955 -0.52576,0.17525 -1.94702,3.46646 -3.15836,7.31379 l -2.20242,6.99516 -14.00101,-7.13149 c -13.50705,-6.8799 -28.74381,-12.76642 -33.04477,-12.76642 -1.14065,0 -2.26973,-0.31683 -2.50906,-0.70407 -0.23933,-0.38725 1.22229,-2.64638 3.24803,-5.0203 4.1748,-4.89235 8.17161,-14.71735 7.75549,-19.06464 -0.29499,-3.08188 -1.69321,-3.15592 -2.02068,-0.107 -0.33296,3.10013 -2.40735,9.31669 -4.44726,13.32762 -1.02562,2.0166 -5.98888,7.66606 -11.84736,13.48533 -5.54526,5.50814 -10.0823,10.62168 -10.0823,11.36341 0,3.55845 9.99341,9.6161 20.43749,12.38847 4.20897,1.11727 9.34257,6.71059 8.16997,8.90161 -0.76855,1.43605 -0.93473,1.38749 -3.48581,-1.01848 -4.24582,-4.00433 -13.65394,-8.16696 -13.51704,-5.98063 0.0199,0.31813 2.85828,2.31368 6.30748,4.43455 3.4492,2.12087 6.19332,4.20318 6.09804,4.62735 -0.31824,1.41682 -4.49315,0.5892 -8.29521,-1.64442 -3.64063,-2.13878 -8.94342,-4.53865 -15.3293,-6.93754 -1.6967,-0.63738 -7.42305,-1.43501 -12.72523,-1.77252 -9.67906,-0.61612 -14.09501,-1.76489 -16.10609,-4.18985 -0.89138,-1.07483 -0.906,-2.04634 -0.0887,-5.89747 0.55681,-2.62385 0.80889,-6.98045 0.58497,-10.11007 l -0.39348,-5.4994 -5.63139,-5.58378 -5.63139,-5.58378 -2.65924,-9.55329 c -2.38919,-8.5831 -2.66814,-10.61065 -2.74676,-19.96484 -0.0692,-8.2362 0.20553,-11.25727 1.31499,-14.4593 3.15951,-9.11872 11.77291,-17.3836 23.8546,-22.8894 20.40509,-9.2989 31.1154,-7.69993 49.93881,7.4555 38.36663,30.89042 39.54311,31.60652 57.43745,34.96146 4.40773,0.82638 10.67321,1.28754 17.16693,1.26351 7.60498,-0.0281 10.08859,0.19334 9.69016,0.86414 -0.29467,0.49607 -1.6861,2.5894 -3.09206,4.65182 -3.37471,4.95036 -3.34482,6.15127 0.14297,5.74409 1.4846,-0.17332 2.69929,-0.2044 2.69929,-0.069 0,0.13534 -0.89237,1.65968 -1.98304,3.38741 -2.34716,3.71814 -2.08759,4.92154 1.20351,5.57977 l 2.43795,0.48759 -1.60044,2.24761 c -2.03788,2.86195 -2.03639,4.73919 0.004,5.27281 1.22253,0.3197 1.48317,0.80753 1.09457,2.04866 -1.9206,6.1342 -0.7009,7.05996 1.98678,1.50797 l 1.73866,-3.59161 -1.73442,-1.40445 -1.73443,-1.40445 1.67902,-2.35797 c 1.83692,-2.57971 1.59053,-4.61019 -0.56167,-4.62869 -3.29074,-0.0283 -3.59521,-1.20981 -1.21658,-4.72108 3.94744,-5.82712 3.9489,-5.56529 -0.0285,-5.11699 l -3.57282,0.40271 1.3364,-2.26997 c 1.98876,-3.37807 13.81446,-17.77542 15.26895,-18.58939 0.95354,-0.53364 1.95327,-0.0285 4.10791,2.07541 1.56622,1.52936 3.09333,2.78067 3.39357,2.78067 1.92679,0 -0.89355,-4.11744 -8.86876,-12.94765 -2.42094,-2.68048 -5.40508,-6.67693 -6.63143,-8.88101 -1.22634,-2.20407 -3.8847,-7.00599 -5.90747,-10.67092 -2.67447,-4.8457 -4.58937,-7.30607 -7.01941,-9.01892 -1.8379,-1.29548 -4.1398,-3.54296 -5.11533,-4.9944 -6.11929,-9.1051 -7.55757,-11.47953 -7.55757,-12.47713 0,-0.61497 -0.70994,-2.48018 -1.57766,-4.14492 -0.8677,-1.66474 -1.78732,-4.36507 -2.04358,-6.00075 -0.25627,-1.63567 -0.93453,-3.65851 -1.50726,-4.49519 -0.57272,-0.83669 -1.0413,-2.63823 -1.0413,-4.00342 0,-1.3652 -0.34706,-2.69666 -0.77123,-2.95882 -0.42417,-0.26215 -0.77123,-2.364943 -0.77123,-4.672868 l 0,-4.196226 4.50606,0 c 5.44511,0 11.16086,2.61049 11.55216,5.276095 0.15698,1.069375 1.39582,2.275522 3.37346,3.284439 7.21755,3.68212 18.63006,13.24804 22.22106,18.62562 4.94527,7.4056 17.70782,42.22536 17.73793,48.39397 0.0183,3.74023 1.62072,9.2453 2.76241,9.48994 0.38601,0.0827 0.8088,-0.77463 0.93956,-1.90522 0.13076,-1.13058 0.75017,-2.25224 1.37649,-2.49258 2.16989,-0.83266 9.20629,1.23337 14.1959,4.1682 7.51236,4.41868 9.85648,7.23726 11.61407,13.96477 l 1.48807,5.69586 -1.86786,1.54245 c -1.02732,0.84835 -2.76062,2.16599 -3.85178,2.9281 -1.09115,0.76211 -1.98392,1.75078 -1.98392,2.19705 0,0.73 1.7563,-0.11225 6.65865,-3.19321 1.44218,-0.90636 1.91903,-0.82317 3.85613,0.67273 1.21574,0.93884 4.58161,3.47514 7.47971,5.63622 5.31079,3.96019 5.67777,5.21462 1.53405,5.24375 -0.9241,0.006 -2.16286,0.4945 -2.75281,1.08445 -0.75361,0.75361 -1.46847,0.85112 -2.40349,0.32786 -2.19261,-1.22705 -12.21769,-4.4854 -13.80037,-4.4854 -3.18743,0 -0.57843,1.92544 4.26545,3.14789 5.01135,1.26471 12.12965,4.79561 12.12965,6.01668 0,0.33884 -7.20132,0.84953 -16.00294,1.13486 -18.5563,0.60156 -24.43399,1.31719 -29.00907,3.53195 -4.58773,2.22088 -9.30052,6.42536 -10.84102,9.67174 -1.52215,3.20767 -2.25496,3.01328 -6.96558,-1.84775 -2.68021,-2.76579 -5.04926,-4.03134 -5.04926,-2.69733 0,1.02338 5.90663,7.55325 8.30894,9.18567 l 2.59392,1.76261 -4.4874,3.39409 c -8.26771,6.25337 -8.35988,6.28964 -14.63269,5.7594 -3.10512,-0.26248 -6.99466,-0.69294 -8.64342,-0.95659 l -2.99774,-0.47936 2.20717,-4.35145 c 2.22178,-4.38025 2.8698,-7.82196 1.47276,-7.82196 -0.72864,0 -5.73546,10.00438 -11.38613,22.75116 -2.50649,5.65417 -2.72977,6.75479 -2.67162,13.16938 0.0842,9.28698 1.47001,12.81521 5.8702,14.9453 1.79227,0.86763 3.64442,1.57751 4.11588,1.57751 0.47145,0 1.90535,1.2716 3.18645,2.82579 1.87583,2.27571 2.17494,3.11414 1.53652,4.30704 -1.27654,2.38524 -5.50039,3.66603 -12.01939,3.64462 -5.10931,-0.0167 -6.73269,-0.37412 -10.91715,-2.4031 l 0,0 z m 80.73151,-85.86555 c 0.87136,-0.878 0.50181,-11.35357 -0.50673,-14.36407 -0.51198,-1.52827 -1.72472,-3.52447 -2.69498,-4.43597 -1.69855,-1.59571 -1.89542,-1.61255 -5.29823,-0.4531 -4.79034,1.63224 -5.96778,3.17947 -6.99844,9.19642 -0.99524,5.8102 -0.15241,8.4057 3.33169,10.25987 1.94296,1.034 11.09048,0.88126 12.16669,-0.20315 z m -13.34684,-21.58907 c 1.69669,-0.61126 4.7334,-1.12661 6.74822,-1.14523 2.70825,-0.0251 3.66333,-0.33204 3.66333,-1.17757 0,-1.81326 -10.13124,-1.24045 -12.26839,0.69365 -0.88752,0.80319 -1.61368,1.75362 -1.61368,2.11205 0,0.81227 -0.20295,0.84051 3.47052,-0.4829 l 0,0 z m -5.48194,-10.04495 c 1.24975,-0.94608 1.38594,-1.72688 0.94929,-5.44213 -0.28039,-2.38567 -1.2301,-6.47601 -2.11047,-9.08966 -1.81417,-5.3859 -16.68075,-34.25928 -20.95639,-40.70082 -5.84737,-8.80944 -21.64514,-23.035293 -23.50986,-21.17058 -1.07673,1.07674 6.25748,17.45034 11.80373,26.35181 1.87797,3.01406 5.14428,9.18449 7.25846,13.71208 3.41903,7.32196 6.3906,12.07921 15.87562,25.41561 1.46016,2.05306 3.06721,5.17652 3.57123,6.94103 0.50401,1.76452 1.24517,3.64202 1.64702,4.17224 0.968,1.27724 3.6568,1.18408 5.47137,-0.18958 l 0,0 z"
               id="path3093"
               inkscape:connector-curvature="0"
               transform="matrix(0,9.7125097e-4,0.00138889,0,0,0)" />
            <path
               style="fill:#ac9d93;stroke:none"
               d="m 899.84085,170.39424 c -1.97684,-0.442 -3.4835,-1.26763 -3.71962,-2.03828 -0.21828,-0.71244 -0.72703,-1.9115 -1.13056,-2.66457 -0.40353,-0.75307 -1.5921,-4.08656 -2.64126,-7.40776 -1.04916,-3.32119 -4.01323,-10.67019 -6.58682,-16.33111 -5.39052,-11.85712 -6.52174,-15.51664 -8.56899,-27.72088 -1.8597,-11.08615 -1.53244,-21.312659 0.94958,-29.673361 0.96156,-3.239019 2.1101,-5.727537 2.57235,-5.573454 1.34505,0.448351 7.8085,10.350895 11.93136,18.279851 5.33731,10.264544 8.30581,20.268814 10.49214,35.360044 2.49556,17.22571 3.16002,28.63585 1.99412,34.24308 -0.50714,2.439 -1.15775,4.39738 -1.44581,4.35196 -0.28806,-0.0454 -2.01898,-0.41691 -3.84649,-0.82552 l 0,0 z"
               id="path3095"
               inkscape:connector-curvature="0"
               transform="matrix(0,9.7125097e-4,0.00138889,0,0,0)" />
            <path
               style="fill:#ac9d93;stroke:none"
               d="m 708.16719,236.36566 c -2.477,-0.96174 -5.03002,-2.18547 -5.67337,-2.71941 -1.58097,-1.31209 -0.98762,-6.15971 1.39154,-11.36881 l 1.84444,-4.03835 3.23384,2.77585 c 3.56515,3.06024 4.41202,5.88674 3.95276,13.19275 l -0.24557,3.90658 -4.50364,-1.74861 z"
               id="path3097"
               inkscape:connector-curvature="0"
               transform="matrix(0,9.7125097e-4,0.00138889,0,0,0)" />
            <path
               style="fill:#ac9d93;stroke:none"
               d="m 817.27144,294.09698 c -1.21432,-0.43827 -2.83682,-1.90556 -3.89488,-3.52229 -0.77757,-1.18813 -1.74827,-3.18546 -2.48822,-5.11982 -0.94842,-2.47932 -2.32939,-7.12228 -2.16677,-7.2849 0.24582,-0.24581 0.87036,0.50904 2.20427,2.66418 1.73822,2.80837 3.35251,5.80254 3.89541,7.22519 0.46859,1.22792 0.80739,1.85437 1.82202,3.36905 1.06015,1.58262 1.33574,2.11142 1.29315,2.48126 -0.0362,0.31422 -0.19188,0.35808 -0.66498,0.18733 l 0,0 z"
               id="path3099"
               inkscape:connector-curvature="0"
               transform="matrix(0,9.7125097e-4,0.00138889,0,0,0)" />
            <path
               style="fill:#ff5555;stroke:none"
               d="m 875.52196,159.09554 c -8.80222,-12.9444 -28.13574,-48.16665 -27.04012,-49.26228 3.13791,-3.13791 36.62743,52.49045 34.83596,57.86488 -0.35209,1.05625 -3.86021,-2.81492 -7.79584,-8.6026 z"
               id="path3164"
               inkscape:connector-curvature="0"
               transform="matrix(0,9.7125097e-4,0.00138889,0,0,0)" />
            <path
               style="fill:#e3dbdb;stroke:none"
               d="m 800.4977,252.97006 c -2.75713,-0.90018 -6.28532,-2.20054 -7.84042,-2.88968 -4.49099,-1.99018 -25.31856,-12.8071 -29.62814,-15.38754 -4.77524,-2.85927 -8.33233,-4.68728 -10.22809,-5.25626 l -1.4231,-0.42713 4.87524,-4.81283 c 2.68138,-2.64706 4.7405,-4.46579 4.57584,-4.04161 -0.16467,0.42417 -0.32993,0.94475 -0.36723,1.15683 -0.0373,0.21209 -0.40202,0.47717 -0.81047,0.58906 -1.54006,0.42189 -1.01594,1.08649 1.20312,1.52559 4.18634,0.82838 8.03659,2.00681 16.69929,5.11109 4.49181,1.60965 16.88011,7.70465 22.86807,11.25102 2.7154,1.60819 5.7235,3.12201 6.68467,3.36403 0.96117,0.24203 1.83385,0.66487 1.9393,0.93965 0.10544,0.27478 -0.16434,1.59528 -0.59953,2.93445 -0.43518,1.33917 -1.10601,3.55025 -1.49074,4.91352 -0.38472,1.36326 -0.8672,2.52092 -1.07217,2.57258 -0.20497,0.0516 -2.62851,-0.64259 -5.38564,-1.54277 z"
               id="path3174"
               inkscape:connector-curvature="0"
               transform="matrix(0,9.7125097e-4,0.00138889,0,0,0)" />
            <path
               style="fill:#e3dbdb;stroke:none"
               d="m 838.58774,256.54352 c 2.41198,-5.67367 3.10594,-7.1664 3.5341,-7.60194 0.41952,-0.42676 1.34697,-0.44373 5.1724,-0.0946 5.09204,0.46467 8.4167,1.06897 8.73758,1.58816 0.58501,0.94657 -8.40796,4.80873 -13.1167,5.63316 -1.6967,0.29706 -3.41482,0.64399 -3.81806,0.77094 -0.52375,0.1649 -0.66922,0.0804 -0.50932,-0.29568 z"
               id="path3176"
               inkscape:connector-curvature="0"
               transform="matrix(0,9.7125097e-4,0.00138889,0,0,0)" />
            <path
               style="fill:#e3dbdb;stroke:none"
               d="m 896.3225,242.90425 c -2.86317,-0.49903 -6.68074,-1.37299 -8.48348,-1.94214 -4.00796,-1.26536 -10.43955,-3.90205 -11.05859,-4.53358 -0.58416,-0.59594 -0.20008,-2.58427 0.49919,-2.58427 0.29341,0 0.53347,-0.30598 0.53347,-0.67997 0,-1.14619 2.60691,-4.62765 4.70992,-6.28999 5.84561,-4.62069 11.1168,-5.59676 35.20101,-6.51824 5.72635,-0.21909 11.66961,-0.45804 13.20724,-0.531 1.8564,-0.0881 2.79559,0.01 2.79539,0.29146 -7.7e-4,1.34456 -2.50943,5.43635 -4.68883,7.64836 -3.69203,3.74728 -5.15562,3.98068 -15.14433,2.41506 -3.37932,-0.52967 -6.3666,-0.96303 -6.63841,-0.96303 -0.77675,0 -3.22032,2.32075 -3.22032,3.05846 0,0.79626 4.03275,4.18167 5.39858,4.532 0.53022,0.136 1.57137,0.63992 2.31368,1.11982 0.7423,0.4799 2.08713,1.0657 2.9885,1.30177 3.31547,0.86833 1.41846,2.27149 -5.15848,3.81557 -4.38404,1.02925 -6.68401,1.00491 -13.25454,-0.14028 z"
               id="path3178"
               inkscape:connector-curvature="0"
               transform="matrix(0,9.7125097e-4,0.00138889,0,0,0)" />
            <path
               style="fill:#000000;stroke:none"
               d="m 898.96196,207.16539 c -0.0762,-0.18558 -0.13633,-1.20759 -0.1336,-2.27114 0.005,-1.75679 0.0535,-2.01651 0.53508,-2.83834 0.56794,-0.96911 3.53786,-3.61501 4.05771,-3.61501 0.1699,0 0.45028,0.27337 0.62307,0.6075 0.61183,1.18316 -0.0346,2.96164 -1.73842,4.78248 -0.55017,0.58797 -1.41132,1.65468 -1.91368,2.37048 -0.95415,1.35954 -1.19977,1.5251 -1.43016,0.96403 l 0,0 z"
               id="path3222"
               inkscape:connector-curvature="0"
               transform="matrix(0,9.7125097e-4,0.00138889,0,0,0)" />
            <path
               style="fill:#ffb380;stroke:none"
               d="m 934.185,217.79137 c -0.92763,-0.99304 -1.7851,-2.86578 -1.56945,-3.42776 0.0903,-0.23526 0.50472,-0.56403 0.92098,-0.7306 1.17561,-0.47041 3.93674,-1.01824 4.34414,-0.8619 0.67605,0.25942 0.22848,2.88422 -0.84617,4.96236 -0.5931,1.14694 -1.8091,1.17164 -2.8495,0.0579 z"
               id="path3240"
               inkscape:connector-curvature="0"
               transform="matrix(0,9.7125097e-4,0.00138889,0,0,0)" />
          </g>
        </g>
        <path
           style="fill:#ffffff;stroke:#000000;stroke-width:0.00545339;stroke-miterlimit:4;stroke-opacity:1;stroke-dasharray:none;stroke-dashoffset:0"
           d="m 689.0145,169.27703 c -0.34529,-0.89981 -1.3269,-1.63602 -2.18136,-1.63602 -0.85446,0 -1.80727,-0.66116 -2.11736,-1.46925 -1.10282,-2.8739 2.4577,-15.56129 6.62755,-23.61634 2.32902,-4.49905 4.78424,-9.7752 5.45606,-11.72479 0.67181,-1.94958 1.94759,-3.5447 2.83507,-3.5447 2.23195,0 5.83368,4.8473 6.72399,9.04931 0.4071,1.92142 1.94986,5.10359 3.42835,7.0715 l 2.68818,3.57801 -5.47938,4.92643 c -3.25105,2.92297 -6.70057,7.45582 -8.48227,11.14614 -1.65159,3.42084 -3.51683,6.5803 -4.14497,7.02102 -1.91489,1.34353 -4.69021,0.92815 -5.35386,-0.80131 z"
           id="path3813"
           inkscape:connector-curvature="0"
           transform="matrix(0,9.7125097e-4,0.00138889,0,0,0)" />
      </g>
      <path
         transform="translate(133.98107,323.22471)"
         inkscape:connector-curvature="0"
         id="path3268"
         d="m 212.30664,131.07573 c -0.99017,-0.40501 -1.96338,-0.8443 -2.16269,-0.9762 -0.64515,-0.42694 -0.68017,-0.56626 -0.67769,-2.69594 0.002,-2.14058 0.1426,-3.22438 0.62331,-4.82143 0.16259,-0.54018 0.44301,-1.52455 0.62315,-2.1875 0.42674,-1.57051 0.81983,-2.36787 1.5123,-3.06769 1.0192,-1.03 2.70633,-1.66273 4.47337,-1.67765 1.66345,-0.014 2.67133,0.70435 3.6512,2.60249 0.53623,1.03874 0.87361,2.15463 0.83849,2.77327 l -0.0276,0.48565 -0.49107,0.008 c -0.54766,0.009 -1.31788,0.28756 -2.11034,0.76413 -0.55838,0.33581 -1.20564,1.00212 -1.74503,1.79642 -0.46806,0.68925 -1.24827,2.32707 -1.54117,3.23525 -0.30204,0.93652 -0.58379,2.41331 -0.59279,3.10721 -0.0103,0.79283 -0.17115,1.35286 -0.3946,1.37384 -0.0982,0.009 -0.98871,-0.31461 -1.97887,-0.71963 z"
         style="fill:#ffffff;fill-opacity:1;stroke:#cccccc;stroke-width:0.04401786;stroke-miterlimit:4;stroke-dasharray:none" />
      <path
         transform="translate(133.98107,323.22471)"
         inkscape:connector-curvature="0"
         id="path3270"
         d="m 220.49086,131.17256 c -0.321,-0.16153 -0.34152,-0.59187 -0.0518,-1.08624 0.25297,-0.43165 0.66246,-0.78194 1.3711,-1.17286 0.40328,-0.22247 0.48318,-0.24059 0.5552,-0.12594 0.17778,0.28302 -0.0819,1.35837 -0.4512,1.86811 -0.39926,0.55116 -0.95452,0.75283 -1.4233,0.51693 z"
         style="fill:#ffffff;fill-opacity:1;stroke:#cccccc;stroke-width:0.04401786;stroke-miterlimit:4;stroke-dasharray:none" />
    </g>
    <text
       xml:space="preserve"
       style="font-size:20.72967529px;font-style:normal;font-variant:normal;font-weight:normal;font-stretch:normal;text-align:center;line-height:125%;letter-spacing:0px;word-spacing:0px;text-anchor:middle;fill:#000000;fill-opacity:1;stroke:none;font-family:ComicSans;-inkscape-font-specification:ComicSans"
       x="80.671593"
       y="492.41992"
       id="text4144"
       sodipodi:linespacing="125%"
       transform="scale(0.9893193,1.010796)"><tspan
         sodipodi:role="line"
         id="tspan4146"
         x="84.274994"
         y="492.41992"
         style="font-weight:bold;font-family:DejaVu Sans;-inkscape-font-specification:DejaVu Sans Bold">Humphrey </tspan><tspan
         sodipodi:role="line"
         x="80.671593"
         y="518.33203"
         id="tspan4164"
         style="font-weight:bold;font-family:DejaVu Sans;-inkscape-font-specification:DejaVu Sans Bold">The</tspan><tspan
         sodipodi:role="line"
         x="80.671593"
         y="544.24414"
         id="tspan4166"
         style="font-weight:bold;font-family:DejaVu Sans;-inkscape-font-specification:DejaVu Sans Bold"> Rabbit</tspan><tspan
         sodipodi:role="line"
         x="80.671593"
         y="570.15619"
         id="tspan4148"
         style="font-weight:bold;font-family:DejaVu Sans;-inkscape-font-specification:DejaVu Sans Bold" /><tspan
         sodipodi:role="line"
         x="80.671593"
         y="596.0683"
         id="tspan4150"
         style="font-weight:bold;font-family:DejaVu Sans;-inkscape-font-specification:DejaVu Sans Bold">Strongly</tspan><tspan
         sodipodi:role="line"
         x="80.671593"
         y="621.98041"
         id="tspan4152"
         style="font-weight:bold;font-family:DejaVu Sans;-inkscape-font-specification:DejaVu Sans Bold" /><tspan
         sodipodi:role="line"
         x="80.671593"
         y="647.89246"
         id="tspan4154"
         style="font-weight:bold;font-family:DejaVu Sans;-inkscape-font-specification:DejaVu Sans Bold">Endorses</tspan><tspan
         sodipodi:role="line"
         x="80.671593"
         y="673.80457"
         id="tspan4156"
         style="font-weight:bold;font-family:DejaVu Sans;-inkscape-font-specification:DejaVu Sans Bold" /><tspan
         sodipodi:role="line"
         x="80.671593"
         y="699.71667"
         id="tspan4158"
         style="font-weight:bold;font-family:DejaVu Sans;-inkscape-font-specification:DejaVu Sans Bold">This</tspan><tspan
         sodipodi:role="line"
         x="80.671593"
         y="725.62878"
         id="tspan4160"
         style="font-weight:bold;font-family:DejaVu Sans;-inkscape-font-specification:DejaVu Sans Bold" /><tspan
         sodipodi:role="line"
         x="80.671593"
         y="751.54089"
         id="tspan4162"
         style="font-weight:bold;font-family:DejaVu Sans;-inkscape-font-specification:DejaVu Sans Bold">Site</tspan></text>
    <text
       xml:space="preserve"
       style="font-size:12px;font-style:normal;font-variant:normal;font-weight:normal;font-stretch:normal;text-align:center;line-height:125%;letter-spacing:0px;word-spacing:0px;text-anchor:middle;fill:#000000;fill-opacity:1;stroke:none;font-family:ComicSans;-inkscape-font-specification:ComicSans"
       x="78.571426"
       y="1040.9336"
       id="text4168"
       sodipodi:linespacing="125%"><tspan
         sodipodi:role="line"
         id="tspan4170"
         x="78.571426"
         y="1040.9336">http://rabbitgame.net</tspan></text>
    <path
       style="fill:none;stroke:#008000;stroke-width:20;stroke-linecap:butt;stroke-linejoin:miter;stroke-opacity:1;stroke-miterlimit:4;stroke-dasharray:none"
       d="m 25.714286,502.85714 22.059061,38.20742 96.931773,-55.96359"
       id="path4227"
       inkscape:connector-curvature="0"
       transform="translate(0,452.36218)" />
  </g>
</svg>
