<?xml version="1.0" encoding="UTF-8" standalone="no"?>
<!-- Created with Inkscape (http://www.inkscape.org/) -->

<svg
   xmlns:dc="http://purl.org/dc/elements/1.1/"
   xmlns:cc="http://creativecommons.org/ns#"
   xmlns:rdf="http://www.w3.org/1999/02/22-rdf-syntax-ns#"
   xmlns:svg="http://www.w3.org/2000/svg"
   xmlns="http://www.w3.org/2000/svg"
   xmlns:sodipodi="http://sodipodi.sourceforge.net/DTD/sodipodi-0.dtd"
   xmlns:inkscape="http://www.inkscape.org/namespaces/inkscape"
   width="258.16379"
   height="224.61035"
   id="svg4158"
   version="1.1"
   inkscape:version="0.48.3.1 r9886"
   sodipodi:docname="New document 16">
  <defs
     id="defs4160" />
  <sodipodi:namedview
     id="base"
     pagecolor="#ffffff"
     bordercolor="#666666"
     borderopacity="1.0"
     inkscape:pageopacity="0.0"
     inkscape:pageshadow="2"
     inkscape:zoom="0.35"
     inkscape:cx="386.93903"
     inkscape:cy="-159.1234"
     inkscape:document-units="px"
     inkscape:current-layer="layer1"
     showgrid="false"
     fit-margin-top="0"
     fit-margin-left="0"
     fit-margin-right="0"
     fit-margin-bottom="0"
     inkscape:window-width="513"
     inkscape:window-height="418"
     inkscape:window-x="459"
     inkscape:window-y="86"
     inkscape:window-maximized="0" />
  <metadata
     id="metadata4163">
    <rdf:RDF>
      <cc:Work
         rdf:about="">
        <dc:format>image/svg+xml</dc:format>
        <dc:type
           rdf:resource="http://purl.org/dc/dcmitype/StillImage" />
        <dc:title></dc:title>
      </cc:Work>
    </rdf:RDF>
  </metadata>
  <g
     inkscape:label="Layer 1"
     inkscape:groupmode="layer"
     id="layer1"
     transform="translate(11.939033,-148.62843)">
    <g
       transform="matrix(0,720,1029.6,0,-671.3998,-193.20891)"
       id="g4140">
      <g
         transform="matrix(0.9947339,-0.07167222,0.14656253,0.9947339,-1.1522227,-0.5249538)"
         id="g3063">
        <path
           style="fill:#000000"
           d="m 1.598987,1.2897704 c -0.00448,5.558e-4 -0.010113,0.00318 -0.010772,0.00501 -0.00111,0.00308 0.00556,0.00788 0.010965,0.00788 0.00321,3e-6 0.0054,0.00159 0.0081,0.00589 0.00196,0.00312 0.00689,0.00754 0.00748,0.0063 1.525e-4,-3.209e-4 -0.0018,-0.00313 -0.00287,-0.00417 -0.00107,-0.00105 -0.00272,-0.00308 -0.00368,-0.00452 -0.00221,-0.00333 -0.0036,-0.00411 -0.00843,-0.00474 -0.00422,-5.511e-4 -0.00708,-0.00207 -0.00902,-0.00479 -0.0014,-0.00197 -9.17e-4,-0.00263 0.00324,-0.00438 0.00395,-0.00167 0.010925,-0.00204 0.01882,-9.889e-4 0.0056,7.425e-4 0.00786,7.827e-4 0.012797,2.281e-4 0.010368,-0.00116 0.017828,-5.564e-4 0.018245,0.00149 1.39e-4,6.812e-4 0.00107,0.00149 0.00207,0.0018 0.00112,3.446e-4 0.00201,0.00129 0.00233,0.00248 3.025e-4,0.00113 0.00102,0.00192 0.00173,0.00192 7.438e-4,0 0.00121,5.741e-4 0.00121,0.00149 0,8.172e-4 5.851e-4,0.00228 0.0013,0.00324 8.647e-4,0.00117 0.00122,0.00293 0.00105,0.00526 -2.454e-4,0.00342 -2.95e-4,0.00349 -0.00234,0.00311 -0.00115,-2.12e-4 -0.00659,-5.104e-4 -0.012092,-6.631e-4 -0.00916,-2.543e-4 -0.010842,-1.272e-4 -0.019996,0.00151 -0.0055,9.812e-4 -0.011015,0.00231 -0.012258,0.00295 -0.00124,6.424e-4 -0.00261,0.00117 -0.00304,0.00117 -0.00223,0 -0.010144,0.00409 -0.015019,0.00776 -0.0012,9.045e-4 -0.00546,0.00396 -0.00948,0.00678 -0.00401,0.00283 -0.00729,0.00555 -0.00729,0.00605 0,5.032e-4 -0.00174,0.00243 -0.00388,0.00429 -0.00213,0.00185 -0.00429,0.00374 -0.00479,0.00419 -5.039e-4,4.499e-4 -9.506e-4,0.00202 -9.926e-4,0.0035 -4.19e-5,0.00147 -7.878e-4,0.00438 -0.00166,0.00647 -0.00228,0.00547 -0.00231,0.021234 -5.01e-5,0.025058 0.00399,0.00675 0.00678,0.014613 0.00983,0.027681 0.00164,0.00705 0.0017,0.00833 8.288e-4,0.018357 -0.00123,0.014227 -0.00159,0.016856 -0.00305,0.022727 -6.784e-4,0.00272 -0.00124,0.00676 -0.00124,0.00896 -4.2e-6,0.00665 -0.00199,0.00961 -0.00758,0.011264 -0.00188,5.571e-4 -0.00267,3.847e-4 -0.00625,-0.00136 -0.00225,-0.0011 -0.00503,-0.00245 -0.00618,-0.003 -0.00517,-0.00247 -0.018548,-0.010353 -0.022609,-0.013313 -0.00831,-0.00606 -0.01237,-0.00857 -0.016529,-0.010229 -0.00228,-9.101e-4 -0.00706,-0.00363 -0.010627,-0.00604 -0.00357,-0.00241 -0.00815,-0.00507 -0.010187,-0.00592 -0.00204,-8.433e-4 -0.00621,-0.003 -0.00926,-0.00479 -0.00672,-0.00394 -0.025826,-0.010763 -0.033439,-0.011942 -0.0086,-0.00133 -0.014844,-0.00158 -0.014844,-6.003e-4 0,4.576e-4 5.625e-4,8.32e-4 0.00125,8.32e-4 8.972e-4,0 0.00125,6.408e-4 0.00125,0.00227 0,0.00125 0.00116,0.0042 0.00259,0.00656 0.00142,0.00236 0.00353,0.00586 0.00467,0.00778 0.00115,0.00192 0.00291,0.00415 0.00392,0.00495 0.00101,8.012e-4 0.00285,0.00258 0.0041,0.00395 0.00242,0.00266 0.00243,0.00266 0.00869,0.008 0.0048,0.00409 0.018728,0.012257 0.023838,0.013979 0.00195,6.582e-4 0.00503,0.00201 0.00683,0.00301 0.0018,9.985e-4 0.0059,0.00266 0.00911,0.0037 0.00639,0.00206 0.00802,0.00264 0.016667,0.00592 0.00554,0.0021 0.00864,0.00317 0.022708,0.00785 0.00564,0.00187 0.00694,0.00267 0.00542,0.00333 -8.931e-4,3.822e-4 -0.010259,-4.594e-4 -0.018542,-0.00167 -0.00575,-8.382e-4 -0.011464,-0.00104 -0.030417,-0.00107 -0.029026,-4.58e-5 -0.035486,5.822e-4 -0.056512,0.00549 -0.016245,0.0038 -0.020004,0.00493 -0.01954,0.00591 1.671e-4,3.505e-4 0.00291,0.00114 0.00609,0.00175 0.00318,6.119e-4 0.00748,0.00147 0.00954,0.00191 0.00386,8.182e-4 0.022079,0.00333 0.031667,0.00437 0.00298,3.22e-4 0.00983,5.878e-4 0.015217,5.902e-4 0.00539,1.9e-6 0.013453,4.217e-4 0.017917,9.318e-4 0.00524,5.986e-4 0.010332,8.056e-4 0.014366,5.839e-4 0.0087,-4.782e-4 0.032514,-0.00471 0.032514,-0.00568 0,-9.651e-4 -0.00431,-1.085e-4 -0.00952,9.317e-4 -0.013307,0.00265 -0.024573,0.00352 -0.03424,0.00263 -0.00367,-3.377e-4 -0.011917,-7.352e-4 -0.018333,-8.833e-4 -0.00642,-1.48e-4 -0.014292,-5.448e-4 -0.0175,-8.816e-4 -0.010299,-0.00108 -0.024057,-0.00298 -0.027917,-0.00385 -0.00206,-4.67e-4 -0.00469,-9.767e-4 -0.00583,-0.00113 -0.00545,-7.396e-4 -0.0091,-0.00157 -0.00872,-0.002 2.274e-4,-2.568e-4 0.00425,-0.00128 0.00894,-0.00228 0.00469,-9.971e-4 0.00984,-0.00219 0.011447,-0.00264 0.00974,-0.00277 0.026725,-0.00436 0.047917,-0.00447 0.0211,-1.086e-4 0.024942,1.559e-4 0.048411,0.00333 0.00155,2.099e-4 0.00186,8.984e-4 0.00276,0.00622 0.00117,0.0069 0.00376,0.013602 0.00552,0.014291 6.676e-4,2.612e-4 0.00215,0.00214 0.00328,0.00417 0.00264,0.00472 0.00592,0.00779 0.00785,0.00736 7.878e-4,-1.748e-4 0.0041,6.022e-4 0.00737,0.00173 0.00506,0.00174 0.00653,0.00262 0.010008,0.00598 0.00224,0.00216 0.00501,0.00503 0.00614,0.00638 0.00303,0.00357 0.00605,0.00503 0.010328,0.00498 0.00374,-3.94e-5 0.00637,-7.537e-4 0.00917,-0.00249 9.167e-4,-5.687e-4 0.00389,-0.00135 0.00661,-0.00174 0.00649,-9.254e-4 0.010069,-0.00262 0.011971,-0.00568 5.137e-4,-8.262e-4 3.508e-4,-0.00213 0.00154,-0.00248 8.807e-4,-2.567e-4 0.00131,9.729e-4 0.00196,0.00146 0.00254,0.00189 0.00324,0.00184 0.00681,-4.415e-4 0.00469,-0.00301 0.011138,-0.011116 0.013078,-0.016456 0.00432,-0.011893 0.00449,-0.012677 0.00393,-0.017952 -5.054e-4,-0.00475 -9.745e-4,-0.00588 -0.00494,-0.011948 -7.598e-4,-0.00116 -5.082e-4,-0.00159 0.00185,-0.00313 0.0015,-9.794e-4 0.00561,-0.00327 0.00913,-0.0051 0.00638,-0.00331 0.01827,-0.011437 0.022247,-0.015206 6.992e-4,-6.627e-4 9.686e-4,-0.00176 0.0021,-0.00199 0.0022,-4.445e-4 0.00457,1.169e-4 0.00686,1.753e-4 0.00825,2.108e-4 0.01392,9.016e-4 0.017235,0.0021 0.00356,0.00129 0.00787,0.0055 0.011786,0.011529 0.00223,0.00344 0.00666,0.00626 0.00981,0.00626 0.00268,0 0.00683,-0.00467 0.00524,-0.00536 -5.432e-4,-2.345e-4 -0.00163,0.00227 -0.00232,0.00297 -6.755e-4,6.764e-4 -0.00189,0.00123 -0.00269,0.00123 -0.00203,0 -0.00642,-0.00333 -0.00809,-0.00612 -0.00171,-0.00287 -0.00788,-0.00956 -0.010028,-0.010877 -0.00255,-0.00156 -0.01121,-0.00282 -0.019414,-0.00282 -0.00817,0 -0.00866,-2.254e-4 -0.00602,-0.00282 8.638e-4,-8.505e-4 0.00171,-0.00205 0.00188,-0.00267 4.128e-4,-0.00151 0.00426,-0.00218 0.00985,-0.00171 0.00492,4.113e-4 0.00849,0.0014 0.013967,0.00387 0.00355,0.0016 0.00701,0.00575 0.01055,0.012666 0.00236,0.0046 0.007,0.00737 0.011273,0.00671 0.00255,-3.916e-4 0.00591,-0.00314 0.00591,-0.00482 0,-5.899e-4 4.683e-4,-0.0014 0.00104,-0.0018 7.111e-4,-4.972e-4 0.00113,-0.00347 0.00132,-0.00937 3.013e-4,-0.00927 -1.109e-4,-0.010576 -0.00418,-0.013266 -0.00106,-7.013e-4 -0.00401,-0.00267 -0.00655,-0.00437 -0.00584,-0.00392 -0.013798,-0.00835 -0.018449,-0.010274 -0.00198,-8.21e-4 -0.00506,-0.00223 -0.00685,-0.00313 -0.00179,-9.005e-4 -0.00413,-0.00164 -0.00521,-0.00164 -0.00237,0 -0.00238,-5.46e-5 -3.15e-4,-0.00288 9.044e-4,-0.00124 0.00201,-0.00405 0.00245,-0.00624 4.413e-4,-0.00219 0.0012,-0.00517 0.00169,-0.00661 0.00242,-0.00718 0.00373,-0.024239 0.00197,-0.025721 -8.097e-4,-6.818e-4 -2.29e-4,-0.00135 0.00313,-0.00362 0.00227,-0.00153 0.00412,-0.00303 0.00412,-0.00334 0,-5.513e-4 0.00501,-0.00581 0.00726,-0.00763 0.00105,-8.455e-4 0.00154,-8.733e-4 0.00379,-2.109e-4 0.00142,4.182e-4 0.00294,0.00138 0.00336,0.00214 4.225e-4,7.576e-4 9.371e-4,0.00777 0.00114,0.015579 3.528e-4,0.013587 4.704e-4,0.014409 0.00266,0.018959 0.0013,0.0027 0.00334,0.00558 0.00474,0.00668 0.0021,0.00164 0.0029,0.00189 0.00558,0.00171 0.00271,-1.81e-4 0.00313,-4.64e-5 0.00313,10e-4 0,0.00309 -0.00358,0.00288 -0.00958,-5.61e-4 -0.00258,-0.00148 -0.00384,-0.00285 -0.00533,-0.00579 -0.00227,-0.00449 -0.00429,-0.013228 -0.00367,-0.015881 4.84e-4,-0.00208 -9.999e-4,-0.00583 -0.00291,-0.00736 -7.005e-4,-5.61e-4 -0.00224,-0.00102 -0.00342,-0.00102 -0.00293,0 -0.013963,0.00345 -0.014535,0.0045 -3.605e-4,6.565e-4 0.00317,-3.753e-4 0.00463,-7.146e-4 0.00104,-2.417e-4 0.00301,-4.426e-4 0.00439,-4.478e-4 0.00138,-4.8e-6 0.00203,-1.234e-4 0.00145,-2.641e-4 -0.00194,-4.71e-4 -1.317e-4,-0.00132 0.0028,-0.00132 0.00253,0 0.00307,2.62e-4 0.00412,0.00202 6.636e-4,0.00111 0.00121,0.0038 0.00121,0.00597 9.7e-6,0.00808 0.00331,0.017092 0.00738,0.02019 0.00443,0.00337 0.010769,0.00545 0.013492,0.00443 0.00173,-6.479e-4 0.0036,-0.00408 0.0026,-0.00477 -6.643e-4,-4.64e-4 4.912e-4,-0.00471 0.00163,-0.00599 4.819e-4,-5.43e-4 7.039e-4,-0.00348 0.00121,-0.016026 1.098e-4,-0.00272 4.592e-4,-0.00744 7.771e-4,-0.010489 3.179e-4,-0.00305 7.223e-4,-0.00921 8.988e-4,-0.013695 1.764e-4,-0.00449 4.372e-4,-0.010746 5.796e-4,-0.013909 2.272e-4,-0.00505 5.39e-5,-0.00594 -0.00143,-0.00728 -0.00311,-0.00282 -0.00391,-0.00306 -0.00923,-0.00271 -0.00562,3.605e-4 -0.012518,-8.433e-4 -0.015331,-0.00268 -0.00682,-0.00445 -0.023547,-0.013787 -0.028836,-0.016107 -9.166e-4,-4.022e-4 -0.00335,-0.00151 -0.00542,-0.00246 -0.00449,-0.00207 -0.020627,-0.00584 -0.025015,-0.00584 -0.00104,0 -0.00253,6.009e-4 -0.00312,0 -0.00102,-0.00105 -3.877e-4,-0.00253 -5.815e-4,-0.0038 -5.775e-4,-0.00377 -0.00209,-0.00736 -0.00535,-0.012665 -0.00387,-0.00631 -0.010095,-0.00808 -0.023602,-0.00673 -0.00444,4.435e-4 -0.00952,5.996e-4 -0.011907,3.672e-4 -0.00833,-8.111e-4 -0.013404,-9.795e-4 -0.016796,-5.587e-4 -4.2e-6,6e-7 1.66e-5,-1.9e-6 1.25e-5,-1.9e-6 z m 0.05138,0.024023 c 0.00252,3.268e-4 0.00665,6.778e-4 0.00917,7.728e-4 0.00252,9.5e-5 0.00552,4.501e-4 0.00667,7.891e-4 0.00115,3.39e-4 0.00396,9.42e-4 0.00625,0.00134 0.00509,8.848e-4 0.010992,0.00289 0.014377,0.00488 0.00139,8.185e-4 0.00286,0.00149 0.00327,0.00149 0.00143,0 0.011938,0.00587 0.02191,0.01225 0.00126,8.067e-4 0.00254,0.00199 0.00284,0.00262 8.521e-4,0.00182 0.011206,0.00392 0.018203,0.00369 0.00523,-1.688e-4 0.00576,-6.75e-5 0.0082,0.00155 8.699e-4,5.781e-4 0.00245,9.028e-4 0.00261,0.00173 5.731e-4,0.00289 -3.545e-4,0.00583 -5.316e-4,0.00874 -2.924e-4,0.00481 -7.387e-4,0.011101 -9.918e-4,0.013986 -2.532e-4,0.00289 -4.105e-4,0.00616 -3.494e-4,0.00728 1.593e-4,0.00293 -0.00166,0.012414 -0.00252,0.013157 -4.167e-4,3.598e-4 -4.035e-4,0.00142 3.21e-5,0.00248 6.669e-4,0.00163 0.00112,0.00703 9.352e-4,0.011061 -9.18e-5,0.00199 -0.00334,0.00145 -0.00528,-8.804e-4 -0.00172,-0.00206 -0.00187,-0.00289 -0.00114,-0.0063 2.743e-4,-0.00128 2.9e-4,-0.00279 3.58e-5,-0.00335 -9.752e-4,-0.00215 -0.00187,-8.442e-4 -0.00242,0.00356 -5.027e-4,0.004 -3.599e-4,0.00489 0.00117,0.00698 0.00112,0.00153 0.0025,0.00253 0.00383,0.00277 0.00161,2.819e-4 0.00207,7.398e-4 0.00207,0.00205 0,0.00188 -0.00129,0.00216 -0.0038,8.295e-4 -8.894e-4,-4.707e-4 -0.00228,-8.639e-4 -0.0031,-8.741e-4 -8.134e-4,-1.01e-5 -0.00182,-6.485e-4 -0.00224,-0.00142 -4.192e-4,-7.7e-4 -0.00116,-0.00157 -0.00165,-0.00178 -4.868e-4,-2.1e-4 -8.847e-4,-0.00129 -8.847e-4,-0.0024 0,-0.00116 -9.028e-4,-0.00302 -0.00211,-0.00436 -0.00116,-0.00129 -0.0019,-0.00258 -0.00164,-0.00288 4.467e-4,-5.054e-4 5.228e-4,-0.018603 9.93e-5,-0.023606 -2.957e-4,-0.00349 -0.00121,-0.00487 -0.00386,-0.00583 -0.00458,-0.00166 -0.00625,-0.0012 -0.00972,0.00267 -0.00496,0.00553 -0.00869,0.00849 -0.016057,0.012756 -0.00999,0.00579 -0.018019,0.00824 -0.030569,0.00936 -0.00785,6.96e-4 -0.023713,1.505e-4 -0.027457,-9.43e-4 -0.00323,-9.433e-4 -0.00618,-0.00107 -0.00618,-2.562e-4 0,0.00135 0.010794,0.00289 0.021028,0.003 0.012316,1.337e-4 0.018151,-3.578e-4 0.025476,-0.00215 0.00304,-7.43e-4 0.00559,-0.0013 0.00567,-0.00124 7.65e-5,6.19e-5 -6.998e-4,0.00247 -0.00172,0.00536 -0.00102,0.00288 -0.00233,0.00721 -0.00292,0.00961 -5.856e-4,0.0024 -0.002,0.00673 -0.00315,0.00961 -0.00115,0.00289 -0.00205,0.00656 -0.002,0.00816 3.04e-5,9.714e-4 0.00107,0.00222 9.22e-5,0.00291 -0.00149,0.00106 -0.00405,8.964e-4 -0.00608,0.00134 -0.00334,7.394e-4 -0.00718,0.00185 -0.00853,0.00247 -0.00231,0.00107 -0.00234,0.00113 -5.389e-4,0.00113 0.00105,2e-6 0.0033,-4.826e-4 0.005,-0.00108 0.0032,-0.00112 0.013511,-0.00318 0.020419,-0.00408 0.00563,-7.353e-4 0.013748,6.754e-4 0.016423,0.00286 2.291e-4,1.867e-4 0.00224,0.00104 0.00446,0.0019 0.00836,0.00323 0.025772,0.014155 0.027853,0.017483 0.00143,0.00229 0.00132,0.014618 -1.627e-4,0.017601 -0.00142,0.00286 -0.00345,0.00331 -0.00475,0.00106 -0.00169,-0.00294 -0.00225,-0.00396 -0.00272,-0.005 -9.678e-4,-0.00212 -0.00219,-9.202e-4 -0.00219,0.00216 0,0.00355 0.00201,0.00556 0.00557,0.00556 0.00213,0 0.00245,5.668e-4 9.262e-4,0.00163 -0.00166,0.00116 -0.00479,7.914e-4 -0.00691,-8.087e-4 -0.0011,-8.297e-4 -0.00316,-0.00365 -0.00459,-0.00626 -0.00374,-0.00686 -0.0067,-0.00979 -0.012305,-0.012181 -0.011233,-0.0048 -0.016367,-0.00468 -0.038524,8.53e-4 -0.0039,9.743e-4 -0.00812,0.0019 -0.00939,0.00205 -0.00127,1.557e-4 -0.00251,5.171e-4 -0.00276,8.024e-4 -6.765e-4,7.676e-4 0.002,0.00132 0.0032,6.586e-4 0.00138,-7.583e-4 0.00645,-0.0014 0.00645,-8.216e-4 0,2.54e-4 -0.00131,0.00303 -0.00292,0.00617 -0.0016,0.00314 -0.00292,0.00648 -0.00292,0.00742 0,0.00189 -0.00187,0.00328 -0.0089,0.00661 -0.00237,0.00112 -0.00544,0.00283 -0.00681,0.00379 -8.301e-4,5.806e-4 -0.00134,0.0019 -0.00249,0.00174 -0.0018,-2.426e-4 -0.00268,-0.00175 -0.00402,-0.00262 -0.00221,-0.00144 -0.00476,-0.00262 -0.00567,-0.00262 -0.00127,0 -5.642e-4,7.617e-4 0.00315,0.00339 0.00289,0.00204 0.00497,0.00406 0.00523,0.00509 2.397e-4,9.354e-4 7.187e-4,0.00184 0.00106,0.002 0.0023,0.00114 0.00418,0.00428 0.0049,0.00817 6.972e-4,0.00377 5.442e-4,0.00521 -0.00111,0.010489 -0.0037,0.011813 -0.00433,0.013464 -0.00553,0.014449 -6.667e-4,5.47e-4 -0.00256,0.00257 -0.0042,0.00449 -0.00164,0.00192 -0.00397,0.00414 -0.00518,0.00494 -0.00184,0.00121 -0.00231,0.00131 -0.00297,5.813e-4 -6.855e-4,-7.544e-4 -0.0012,-0.00352 -8.917e-4,-0.00481 0.00225,-0.00952 0.00208,-0.012073 -8.022e-4,-0.012073 -0.00259,0 -0.004,0.00315 -0.00462,0.010333 -3.35e-4,0.00387 -0.00108,0.00714 -0.00189,0.00835 -0.00159,0.00237 -0.00691,0.00438 -0.012651,0.00477 -0.00127,8.75e-5 -0.00285,8.489e-4 -0.00381,2.625e-4 -0.00131,-7.975e-4 -9.874e-4,-0.00233 -0.00148,-0.00349 -0.00123,-0.00289 -0.00129,-0.00357 -3.576e-4,-0.00399 8.321e-4,-3.687e-4 8.533e-4,-5.003e-4 8.18e-5,-5.069e-4 -0.00156,-1.34e-5 -0.00129,-0.00408 6.174e-4,-0.00931 9.125e-4,-0.0025 0.00183,-0.0055 0.00205,-0.00667 3.744e-4,-0.00204 0.00418,-0.00878 0.0056,-0.00993 3.785e-4,-3.045e-4 6.881e-4,-0.00104 6.881e-4,-0.00164 0,-0.00117 0.00364,-0.00513 0.00765,-0.00833 0.00328,-0.00261 0.01365,-0.00608 0.018172,-0.00608 0.00311,0 0.00624,5.51e-5 0.006,-0.00112 -2.193e-4,-0.00108 -0.00352,-0.00146 -0.00558,-0.00131 -0.00437,3.264e-4 -0.017294,0.00507 -0.020005,0.00734 -0.00137,0.00115 -0.00352,0.00294 -0.00477,0.00398 -0.00125,0.00104 -0.003,0.00334 -0.0039,0.0051 -8.948e-4,0.00176 -0.00272,0.00504 -0.00405,0.00728 -0.00134,0.00224 -0.00266,0.00529 -0.00295,0.00678 -2.852e-4,0.00148 -0.00109,0.00385 -0.00179,0.00524 -6.967e-4,0.0014 -0.00127,0.00328 -0.00128,0.00418 -1.63e-5,0.00226 -8.386e-4,0.00171 -0.0042,-0.00283 -0.00275,-0.00372 -0.00441,-0.00494 -0.00558,-0.00412 -2.905e-4,2.032e-4 8.76e-5,6.946e-4 8.404e-4,0.00109 0.00182,9.607e-4 0.00599,0.00653 0.00732,0.00978 5.866e-4,0.00143 0.00139,0.0029 0.00178,0.00326 4.639e-4,4.325e-4 4.99e-5,7.772e-4 -0.0012,9.959e-4 -0.00241,4.229e-4 -0.00518,0.00365 -0.00496,0.00576 9.66e-5,8.865e-4 -1.351e-4,0.00161 -5.15e-4,0.00161 -0.00111,0 -0.00466,-0.00296 -0.00769,-0.00641 -0.00155,-0.00176 -0.00386,-0.00407 -0.00515,-0.00512 -0.00128,-0.00105 -0.00233,-0.00244 -0.00233,-0.00309 0,-0.00182 0.00208,-0.00419 0.005,-0.00569 0.00177,-9.102e-4 0.00238,-0.00157 0.00183,-0.00195 -0.00121,-8.47e-4 -0.00562,0.00211 -0.00716,0.00479 -4.237e-4,7.406e-4 -1.811e-4,0.00199 -0.00127,0.00222 -0.00136,2.946e-4 -0.00266,-7.234e-4 -0.00399,-0.00109 -0.0022,-5.969e-4 -0.00601,-0.00183 -0.00848,-0.00273 -0.00446,-0.00164 -0.00451,-0.00169 -0.0072,-0.00703 -0.00149,-0.00296 -0.00374,-0.00633 -0.005,-0.00748 -0.00187,-0.00172 -0.00249,-0.00318 -0.00341,-0.00801 -6.141e-4,-0.00325 -9.01e-4,-0.00674 -6.384e-4,-0.00775 1.591e-4,-6.15e-4 -3.718e-4,-0.00165 4.773e-4,-0.00184 0.0012,-2.754e-4 0.00237,6.134e-4 0.00355,9.201e-4 0.00372,9.633e-4 0.00786,6.15e-4 0.00543,-4.57e-4 -6.746e-4,-2.983e-4 -0.00207,-5.466e-4 -0.0031,-5.514e-4 -0.00103,-4.8e-6 -0.00187,-2.711e-4 -0.00187,-5.916e-4 0,-3.205e-4 -3.995e-4,-5.828e-4 -8.878e-4,-5.828e-4 -4.883e-4,0 -0.00429,-0.00131 -0.00844,-0.00291 -0.00415,-0.0016 -0.00797,-0.00292 -0.00849,-0.00293 -5.14e-4,-10e-6 -0.003,-7.633e-4 -0.00552,-0.00167 -0.00918,-0.00332 -0.017936,-0.00662 -0.01875,-0.00707 -4.585e-4,-2.536e-4 -0.0028,-9.84e-4 -0.00521,-0.00162 -0.00241,-6.389e-4 -0.00648,-0.00217 -0.00905,-0.0034 -0.0082,-0.00393 -0.011555,-0.00542 -0.012232,-0.00544 -3.629e-4,-5.8e-6 -0.00149,-5.573e-4 -0.0025,-0.00123 -0.00101,-6.677e-4 -0.00407,-0.00244 -0.0068,-0.00393 -0.00833,-0.00457 -0.012546,-0.00788 -0.020165,-0.015831 -0.00169,-0.00176 -0.00341,-0.0033 -0.00383,-0.00341 -0.00177,-4.894e-4 -0.011932,-0.017565 -0.010451,-0.017565 4.654e-4,0 6.649e-4,-6.63e-4 4.435e-4,-0.00147 -3.893e-4,-0.00142 -2.869e-4,-0.00146 0.00303,-0.00113 0.00646,6.429e-4 0.010091,0.00156 0.020506,0.00519 0.010186,0.00355 0.021675,0.00867 0.021675,0.00965 0,2.722e-4 0.00197,0.00129 0.00438,0.00225 0.00241,9.675e-4 0.00625,0.00309 0.00854,0.00472 0.00419,0.00298 0.014798,0.00876 0.016082,0.00876 3.798e-4,0 0.00445,0.0027 0.00904,0.00599 0.00983,0.00705 0.03167,0.019648 0.034073,0.019648 4.995e-4,0 0.00195,7.634e-4 0.00323,0.0017 0.00249,0.00182 0.00519,0.00261 0.00596,0.00174 2.586e-4,-2.927e-4 -1.16e-4,-6.895e-4 -8.325e-4,-8.817e-4 -0.00197,-5.292e-4 -0.0016,-0.00101 0.00175,-0.00228 0.00442,-0.00167 0.00626,-0.00495 0.00665,-0.011904 1.708e-4,-0.00306 8.48e-4,-0.00793 0.00151,-0.010812 0.00326,-0.014315 0.00404,-0.030753 0.00189,-0.039918 -0.00324,-0.013837 -0.00445,-0.017331 -0.00856,-0.02487 -0.00341,-0.00625 -0.00406,-0.01022 -0.00301,-0.018616 0.00115,-0.00919 0.00457,-0.017217 0.00691,-0.016205 0.00137,5.898e-4 7.552e-4,-4.866e-4 -6.954e-4,-0.00123 -0.00131,-6.691e-4 -0.00113,-9.633e-4 0.00202,-0.00336 0.0019,-0.00144 0.00421,-0.00378 0.00513,-0.00519 9.187e-4,-0.00141 0.00423,-0.00432 0.00735,-0.00647 0.00312,-0.00215 0.00793,-0.00549 0.01068,-0.00743 0.013086,-0.00922 0.036919,-0.013733 0.057917,-0.010988 7e-6,8e-7 9.8e-6,-8.8e-6 1.63e-5,-7.8e-6 z M 1.450154,1.4248041 c -5.668e-4,3.957e-4 0.0028,0.00487 0.00574,0.00763 0.00109,0.00102 0.00198,0.00221 0.00198,0.00265 0,6.914e-4 0.00445,0.00545 0.00587,0.00627 2.757e-4,1.603e-4 0.00201,0.00173 0.00386,0.0035 0.00457,0.00435 0.015685,0.011311 0.02222,0.013906 0.00191,7.571e-4 0.00564,0.00226 0.0083,0.00335 0.00266,0.00109 0.00504,0.00197 0.00529,0.00197 2.485e-4,0 0.00145,4.698e-4 0.00266,0.00104 0.00122,5.742e-4 0.00427,0.00168 0.00679,0.00246 0.00487,0.00151 0.010173,0.00367 0.012917,0.00527 9.168e-4,5.339e-4 0.0041,0.00186 0.00708,0.00294 0.00298,0.00109 0.00729,0.00283 0.00958,0.00388 0.00229,0.00105 0.00617,0.00235 0.00863,0.00289 0.00433,9.574e-4 0.0045,9.526e-4 0.00566,-1.586e-4 6.594e-4,-6.301e-4 0.00109,-0.00193 9.537e-4,-0.00289 -2.007e-4,-0.00143 -0.00122,-0.00219 -0.00566,-0.00422 -0.00298,-0.00136 -0.00748,-0.00386 -0.01,-0.00555 -0.00252,-0.00169 -0.0059,-0.00371 -0.0075,-0.00448 -0.0016,-7.715e-4 -0.00573,-0.00313 -0.00917,-0.00525 -0.00344,-0.00211 -0.0085,-0.005 -0.01125,-0.00642 -0.00275,-0.00141 -0.00519,-0.00275 -0.00542,-0.00297 -2.289e-4,-2.165e-4 -0.00319,-0.00149 -0.00658,-0.00283 -0.00339,-0.00134 -0.00752,-0.00318 -0.00917,-0.00408 -0.00165,-9.082e-4 -0.00469,-0.00225 -0.00675,-0.00298 -0.00206,-7.29e-4 -0.00525,-0.00237 -0.00708,-0.00365 -0.00392,-0.00273 -0.010694,-0.00587 -0.017091,-0.0079 -0.00252,-8.011e-4 -0.00581,-0.0022 -0.00732,-0.00311 -0.00277,-0.00168 -0.00367,-0.00194 -0.00456,-0.00131 -7e-7,5e-7 7e-7,-2.9e-6 0,-2e-6 z m 0.020184,0.00952 c 0.00201,0.00109 0.00194,0.00109 -0.00448,1.86e-5 -0.00359,-5.979e-4 -0.00657,-0.00116 -0.00664,-0.00126 -6.17e-5,-9.51e-5 -9.54e-4,-0.00101 -0.00198,-0.00204 -0.00103,-0.00103 -0.00187,-0.00202 -0.00187,-0.00221 0,-4.532e-4 0.01233,0.00408 0.014966,0.0055 2e-7,1e-7 4e-7,3e-7 6e-7,4e-7 z m 0.00295,0.00328 c 9.168e-4,2.567e-4 0.00317,0.00113 0.005,0.00193 0.00183,8.061e-4 0.00502,0.00207 0.00708,0.00282 0.00206,7.431e-4 0.00544,0.00222 0.0075,0.00328 0.00206,0.00106 0.00544,0.00256 0.0075,0.00334 0.00386,0.00145 0.01681,0.00821 0.02125,0.011087 0.00399,0.00258 0.00896,0.00547 0.011739,0.00682 0.00141,6.845e-4 0.00467,0.00263 0.00723,0.00433 0.00256,0.0017 0.00694,0.00407 0.00972,0.00528 0.00461,0.00199 0.00615,0.00355 0.0046,0.00464 -0.00106,7.384e-4 -0.00786,-9.493e-4 -0.013292,-0.0033 -0.00321,-0.00139 -0.00733,-0.00308 -0.00917,-0.00377 -0.00183,-6.846e-4 -0.00502,-0.00211 -0.00708,-0.00318 -0.00206,-0.00106 -0.00619,-0.00268 -0.00917,-0.0036 -0.00298,-9.178e-4 -0.00631,-0.00214 -0.0074,-0.00272 -0.00109,-5.782e-4 -0.00232,-0.00105 -0.00274,-0.00105 -0.00132,0 -0.018962,-0.0076 -0.022785,-0.00982 -0.00202,-0.00117 -0.00462,-0.00265 -0.00576,-0.0033 -0.00115,-6.412e-4 -0.0035,-0.00246 -0.00524,-0.00403 -0.00173,-0.00158 -0.00455,-0.00396 -0.00625,-0.00529 -0.00334,-0.00261 -0.00578,-0.00549 -0.0052,-0.00615 3.035e-4,-3.431e-4 0.00621,9.283e-4 0.012473,0.00268 4e-7,1e-7 1e-7,-9e-7 5e-7,-8e-7 z m 0.083339,0.053728 c -0.00236,0.00223 -0.00289,0.00322 -0.00272,0.00509 1.52e-4,0.00168 6.156e-4,0.00238 0.00167,0.00252 0.00122,1.616e-4 0.00146,-2.519e-4 0.00146,-0.00255 0,-0.00239 3.836e-4,-0.003 0.00297,-0.0047 0.00288,-0.0019 0.00318,-0.00313 7.393e-4,-0.00313 -6.56e-4,0 -0.00251,0.00125 -0.00412,0.00277 0,1e-7 -2e-7,0 -3e-7,0 z m 0.015246,-0.00164 c -0.00316,4.352e-4 -0.00439,9.449e-4 -0.00838,0.00347 -0.00409,0.00259 -0.00228,0.0074 0.00384,0.010215 0.00322,0.00148 0.00395,0.00157 0.011127,0.0014 0.010201,-2.441e-4 0.010667,-5.665e-4 0.010613,-0.00735 -2.22e-5,-0.00279 -2.943e-4,-0.00575 -6.047e-4,-0.00658 -5.438e-4,-0.00145 -8.023e-4,-0.0015 -0.00704,-0.00154 -0.00356,-2.17e-5 -0.00787,1.519e-4 -0.00956,3.854e-4 l -1e-7,0 z m 0.015189,0.00452 c 7.34e-4,0.00338 4.228e-4,0.00406 -0.00206,0.00449 -0.00196,3.435e-4 -0.00597,0.00486 -0.00441,0.00486 4.689e-4,0 0.00145,-0.00184 0.00145,-0.00213 0,-8.879e-4 0.00342,-0.00138 0.00446,-6.407e-4 0.0018,0.00128 -0.00182,0.00235 -0.00795,0.00235 -0.00457,0 -0.00567,-1.759e-4 -0.00567,-9.03e-4 0,-0.0016 0.00525,-0.00471 0.00938,-0.00554 0.00218,-4.406e-4 0.00623,-0.00128 0.00623,-0.00153 0,-8.183e-4 -0.00654,-9.239e-4 -0.00854,-2.864e-4 -0.00365,0.00116 -0.00873,0.00482 -0.00873,0.00629 0,0.00166 -0.0014,0.00175 -0.00398,2.468e-4 -0.00155,-9.069e-4 -0.00436,-0.00445 -0.00436,-0.0055 0,-1.491e-4 0.00167,-0.00123 0.00371,-0.0024 0.00344,-0.00197 0.00424,-0.00216 0.011042,-0.00254 0.00403,-2.298e-4 0.00767,-2.22e-4 0.00808,1.78e-5 4.13e-4,2.399e-4 0.00102,0.00169 0.00136,0.00323 10e-8,4e-7 1.2e-6,-9e-7 1.3e-6,-5e-7 z m 0.1104812,-0.112543 c 3.001e-4,8.213e-4 3.019e-4,0.00351 1.44e-5,0.00597 -0.00133,0.011396 -0.00211,0.016311 -0.00294,0.018465 -4.946e-4,0.00128 -0.00125,0.00398 -0.00168,0.006 -4.291e-4,0.00202 -0.00159,0.00483 -0.00258,0.00626 -0.00166,0.00239 -0.00205,0.0026 -0.00493,0.0026 -0.00172,0 -0.00495,3.838e-4 -0.00718,8.528e-4 -0.00223,4.69e-4 -0.00422,7.337e-4 -0.00444,5.834e-4 -6.609e-4,-4.579e-4 0.00542,-0.022166 0.00824,-0.029408 5.614e-4,-0.00144 0.0011,-0.00347 0.00121,-0.0045 1.645e-4,-0.00159 9.579e-4,-0.00224 0.00521,-0.00423 0.00276,-0.00129 0.00549,-0.00274 0.00606,-0.00322 0.0015,-0.00126 0.00239,-0.00108 0.003,6.219e-4 1.3e-6,3.9e-6 1.42e-5,-4.8e-6 1.56e-5,-10e-7 z m -0.02333,0.072134 c -0.00211,0.00294 -0.00488,0.0055 -0.00926,0.00854 -0.00407,0.00283 -0.00625,0.00399 -0.00625,0.00334 0,-5.527e-4 0.00159,-0.00402 0.00354,-0.00771 0.00323,-0.00612 0.0038,-0.00679 0.00646,-0.00768 0.00378,-0.00126 0.00784,-0.00186 0.00822,-0.0012 1.645e-4,2.832e-4 -0.00105,0.0024 -0.00271,0.00471 z m -0.052123,0.064775 c -9.96e-4,0.00419 -0.0016,0.0057 -0.00175,0.00437 -1.259e-4,-0.00112 -1.875e-4,-0.00243 -1.388e-4,-0.00291 4.88e-5,-4.807e-4 1.687e-4,-0.00205 2.666e-4,-0.0035 2.218e-4,-0.00327 0.00137,-0.00562 0.00239,-0.0049 4.542e-4,3.195e-4 1.472e-4,0.0031 -7.681e-4,0.00694 0,4e-7 3e-7,7e-7 2e-7,10e-7 z m -0.025769,0.015403 c 6.557e-4,3.753e-4 0.0023,5.799e-4 0.00197,0.00113 -4.511e-4,7.497e-4 -0.00214,6.32e-4 -0.00321,9.479e-4 -0.00351,0.00104 -0.00469,8.205e-4 -0.00306,-5.558e-4 5.75e-4,-4.844e-4 8.277e-4,-0.00128 5.615e-4,-0.00176 -6.827e-4,-0.00124 0.00138,-0.00111 0.00375,2.444e-4 3e-7,1e-7 -7e-7,-6e-7 -5e-7,-5e-7 z"
           id="path2992-10"
           inkscape:connector-curvature="0"
           sodipodi:nodetypes="sssssssssssssssssssssssssssssssssssssssssssssssssssssssssssssssssssssssssssssssssssssssssssssssssssssssssssssssssssssssssssssssssssssssssssssssssssssssssssssssssssssssssssssssssssssssssssssssssssssssssssssssssssssssssssssssssssssssssssssssssssssssssssssssssssssssssssssssssssssssssssssssssssssssssssssssssssssssssssssssssssssssssssssssssssssssssssssssssssssssssssssssssssssssssssssssssssssssssssssssssssssssssssssssssssssssssssssssssssssssssssssssssssssssssssssssssssssssssssssssssssssss" />
        <path
           style="fill:none;stroke:#000000;stroke-width:0.00116145px;stroke-linecap:butt;stroke-linejoin:miter;stroke-opacity:1"
           d="m 1.5657023,1.4682618 c 0.00176,-3.686e-4 0.00256,-0.00104 0.00375,-0.00187 1.785e-4,-1.248e-4 3.57e-4,-2.497e-4 5.355e-4,-3.745e-4 1.786e-4,-1.248e-4 4.227e-4,-2.166e-4 5.356e-4,-3.745e-4 7.88e-4,-0.0011 -0.00124,4.931e-4 5.356e-4,-7.491e-4 1.785e-4,-1.248e-4 3.097e-4,-2.955e-4 5.355e-4,-3.745e-4 7.388e-4,-2.583e-4 4.791e-4,4.536e-4 0.00107,-3.745e-4 7.99e-5,-1.117e-4 -7.98e-5,-2.629e-4 0,-3.746e-4 9.53e-5,-1.332e-4 9.76e-4,-6.158e-4 0.00107,-7.49e-4 7.99e-5,-1.117e-4 -1.262e-4,-2.863e-4 0,-3.745e-4 1.263e-4,-8.83e-5 4.094e-4,8.82e-5 5.356e-4,0 1.263e-4,-8.83e-5 -7.98e-5,-2.629e-4 0,-3.746e-4 1.129e-4,-1.579e-4 4.227e-4,-2.166e-4 5.356e-4,-3.745e-4 7.98e-5,-1.116e-4 -1.263e-4,-2.862e-4 0,-3.745e-4 1.262e-4,-8.83e-5 3.759e-4,5.58e-5 5.356e-4,0 2.258e-4,-7.9e-5 3.57e-4,-2.497e-4 5.355e-4,-3.745e-4 1.786e-4,-1.249e-4 4.227e-4,-2.167e-4 5.356e-4,-3.746e-4 7.99e-5,-1.116e-4 -1.262e-4,-2.862e-4 0,-3.745e-4 1.263e-4,-8.83e-5 3.759e-4,5.58e-5 5.356e-4,0 2.48e-4,-8.67e-5 0.00183,-0.00128 0.00214,-0.0015 1.785e-4,-1.249e-4 3.57e-4,-2.497e-4 5.356e-4,-3.745e-4 1.785e-4,-1.249e-4 3.097e-4,-2.956e-4 5.355e-4,-3.746e-4 1.597e-4,-5.58e-5 3.759e-4,5.59e-5 5.356e-4,0 6.427e-4,-2.247e-4 9.64e-4,-8.988e-4 0.00161,-0.00112 1.597e-4,-5.58e-5 3.759e-4,5.59e-5 5.356e-4,0 2.258e-4,-7.89e-5 3.57e-4,-4.993e-4 5.356e-4,-3.745e-4 6.484e-4,4.535e-4 5.355e-4,0.0013 5.355e-4,0.00187 0,5.416e-4 1.131e-4,0.00223 0,0.00262 -7.83e-5,2.737e-4 -4.387e-4,4.782e-4 -5.355e-4,7.49e-4 -8.66e-5,2.423e-4 8.65e-5,5.069e-4 0,7.491e-4 -9.69e-5,2.708e-4 -4.094e-4,4.842e-4 -5.356e-4,7.491e-4 -1.121e-4,2.35e-4 0,0.0012 0,0.0015 0,1.686e-4 -8.15e-5,0.00101 0,0.00112 1.129e-4,1.579e-4 4.226e-4,2.166e-4 5.356e-4,3.745e-4 1.596e-4,2.233e-4 -3.194e-4,6.374e-4 0,7.49e-4 3.193e-4,1.117e-4 7.14e-4,0 0.00107,0 5.355e-4,0 0.00108,7.35e-5 0.00161,0 6.221e-4,-8.7e-5 0.00207,-4.637e-4 0.00268,-7.49e-4 2.1e-4,-9.79e-5 3.255e-4,-2.766e-4 5.355e-4,-3.745e-4 6.643e-4,-3.097e-4 0.00148,-4.394e-4 0.00214,-7.491e-4 4.622e-4,-2.154e-4 0.00119,-8.31e-4 0.00161,-0.00112 1.785e-4,-1.248e-4 3.098e-4,-2.956e-4 5.356e-4,-3.745e-4 1.597e-4,-5.59e-5 4.093e-4,8.83e-5 5.356e-4,0 1.262e-4,-8.83e-5 -1.263e-4,-2.863e-4 0,-3.745e-4 1.262e-4,-8.83e-5 3.759e-4,5.58e-5 5.355e-4,0 2.481e-4,-8.68e-5 0.00183,-0.00128 0.00214,-0.0015 4.184e-4,-2.926e-4 0.00114,-9.082e-4 0.00161,-0.00112 3.322e-4,-1.549e-4 7.39e-4,-2.197e-4 0.00107,-3.746e-4 4.622e-4,-2.154e-4 0.00119,-8.31e-4 0.00161,-0.00112 1.786e-4,-1.248e-4 3.098e-4,-2.955e-4 5.356e-4,-3.745e-4 1.597e-4,-5.58e-5 3.759e-4,5.59e-5 5.356e-4,0 2.258e-4,-7.89e-5 3.57e-4,-2.497e-4 5.356e-4,-3.745e-4 1.785e-4,-1.249e-4 4.226e-4,-2.166e-4 5.355e-4,-3.745e-4 7.99e-5,-1.117e-4 -1.785e-4,-3.746e-4 0,-3.746e-4 7.361e-4,0 5.356e-4,9.834e-4 5.356e-4,0.0015 0,0.00175 0,0.0035 0,0.00524 0,4.994e-4 0,9.988e-4 0,0.0015 0,1.249e-4 -1.785e-4,3.746e-4 0,3.746e-4 2.525e-4,0 3.571e-4,-2.497e-4 5.356e-4,-3.746e-4 1.785e-4,-1.248e-4 3.57e-4,-2.496e-4 5.356e-4,-3.745e-4 4.208e-4,-2.943e-4 0.00234,-0.00175 0.00268,-0.00187 1.596e-4,-5.58e-5 4.093e-4,8.83e-5 5.355e-4,0 1.263e-4,-8.83e-5 -7.98e-5,-2.629e-4 0,-3.745e-4 2.259e-4,-3.158e-4 8.454e-4,-4.332e-4 0.00107,-7.491e-4 7.99e-5,-1.116e-4 -7.98e-5,-2.628e-4 0,-3.745e-4 0.00111,-0.00156 -3.69e-5,4.004e-4 0.00107,-3.745e-4 1.263e-4,-8.83e-5 0,-2.497e-4 0,-3.745e-4 1.786e-4,0 3.759e-4,5.58e-5 5.356e-4,0 4.516e-4,-1.58e-4 6.195e-4,-5.912e-4 0.00107,-7.491e-4 1.597e-4,-5.59e-5 3.571e-4,0 5.356e-4,0 1.785e-4,-1.248e-4 3.097e-4,-2.956e-4 5.356e-4,-3.745e-4 1.596e-4,-5.59e-5 4.557e-4,-1.117e-4 5.355e-4,0 1.597e-4,2.233e-4 0,4.993e-4 0,7.49e-4 0,3.746e-4 1.05e-4,7.563e-4 0,0.00112 -7.83e-5,2.738e-4 -4.573e-4,4.753e-4 -5.355e-4,7.491e-4 -1.05e-4,3.672e-4 8.8e-5,7.541e-4 0,0.00112 -9.28e-5,3.894e-4 -4.428e-4,7.341e-4 -5.356e-4,0.00112 -8.81e-5,3.694e-4 1.05e-4,7.563e-4 0,0.00112 -1.566e-4,5.474e-4 -8.187e-4,9.684e-4 -0.00107,0.0015 -5.66e-5,1.184e-4 7.98e-5,2.628e-4 0,3.745e-4 -6.618e-4,9.256e-4 -5.356e-4,-1.293e-4 -5.356e-4,7.491e-4"
           id="path3158-00"
           inkscape:connector-curvature="0"
           sodipodi:nodetypes="ccccccccccccccccccccccccccsccccscccscccccccccccccccccsssssccccccccccccccscccccccc" />
      </g>
      <path
         transform="matrix(0,9.7125097e-4,0.00138889,0,0,0)"
         inkscape:connector-curvature="0"
         id="path3138"
         d="m 763.28833,564.22253 c -0.74985,-0.10948 -2.71307,-0.48035 -4.36272,-0.82415 -1.64965,-0.3438 -7.90741,-0.66084 -13.90614,-0.70453 -5.99873,-0.0437 -16.7498,-0.41837 -23.89128,-0.83262 l -12.98449,-0.75318 -1.26677,-2.22267 c -1.13124,-1.98486 -1.23776,-2.72099 -0.9956,-6.88011 0.37664,-6.46871 -0.55714,-10.65016 -2.85361,-12.77833 -2.94251,-2.72688 -10.43832,-13.98433 -13.88158,-20.84781 -4.48283,-8.93567 -5.43437,-13.6346 -5.51398,-27.22951 -0.063,-10.7478 0.41585,-14.4592 2.72284,-21.10603 1.92914,-5.55818 5.58612,-11.72005 9.29894,-15.66832 4.98035,-5.29619 13.61877,-12.0515 19.09922,-14.93573 2.54946,-1.34172 5.3629,-2.9295 6.2521,-3.5284 1.50393,-1.01294 1.68574,-1.02644 2.60614,-0.19349 0.92228,0.83465 1.04291,0.81907 1.77745,-0.22963 1.18427,-1.69078 6.87176,-2.62205 15.81325,-2.58925 9.42242,0.0346 11.7712,0.5518 20.71315,4.56141 12.06916,5.41186 24.04772,8.7854 36.0021,10.13932 4.94033,0.55952 13.20601,0.80954 27.26695,0.82475 15.32938,0.0166 19.91548,0.17044 19.08686,0.64032 -0.59987,0.34017 -1.21338,0.78927 -1.36334,0.998 -0.14997,0.20874 -1.06315,0.78451 -2.02929,1.27949 -1.94168,0.99478 -7.24148,5.99259 -7.24148,6.82886 0,0.91084 2.30314,1.36803 6.38194,1.26686 2.16035,-0.0536 4.07946,0.1478 4.2647,0.44753 0.4418,0.71485 -1.45419,3.74604 -3.46227,5.53523 -6.35257,5.66018 -7.56373,6.91881 -7.20946,7.49203 0.21495,0.34781 1.96501,0.80664 3.889,1.01962 l 3.49817,0.38723 -1.56478,1.08923 c -2.22124,1.54618 -4.16128,3.58693 -4.16128,4.37729 0,1.02927 1.81354,1.2872 5.67949,0.80775 3.71895,-0.46121 4.68195,-0.81538 4.68195,-1.7219 0,-0.34275 -0.79581,-0.43428 -2.04502,-0.23521 -1.12476,0.17923 -3.02663,0.43586 -4.22638,0.5703 l -2.18135,0.24441 1.36334,-1.06991 c 0.74984,-0.58844 2.19539,-1.74377 3.21232,-2.56738 1.01693,-0.82361 2.05989,-1.57928 2.31769,-1.67926 1.4004,-0.5431 0.004,-1.09694 -3.62132,-1.43669 -2.24952,-0.2108 -4.09004,-0.49675 -4.09004,-0.63545 0,-0.1387 0.67485,-0.86119 1.49968,-1.60552 5.06782,-4.57328 7.29089,-7.17274 7.82249,-9.14695 0.80417,-2.98644 0.20842,-3.37445 -4.99124,-3.25073 -2.38201,0.0567 -4.33093,-0.0815 -4.33093,-0.30698 0,-0.64671 2.72739,-3.02063 5.99873,-5.22127 1.64965,-1.10974 4.55925,-3.65598 6.46578,-5.65833 2.0763,-2.18065 3.5707,-3.36725 3.72648,-2.95895 0.14303,0.37492 0.60772,0.68168 1.03263,0.68168 1.12775,0 0.94354,-2.19124 -0.34383,-4.09005 -0.61006,-0.8998 -1.74361,-2.95192 -2.51899,-4.56026 -1.98851,-4.12465 -10.49067,-16.64919 -16.5375,-24.36141 -2.81394,-3.58894 -6.04954,-8.16984 -7.19022,-10.17975 -1.14068,-2.00992 -3.76363,-6.05906 -5.82878,-8.9981 -2.06516,-2.93903 -4.40868,-6.57071 -5.20784,-8.07039 -0.79917,-1.49968 -2.21333,-3.79579 -3.14258,-5.10246 -3.82978,-5.3852 -10.04615,-21.83649 -10.63532,-28.14582 l -0.31078,-3.32807 2.2033,0.12316 c 4.01857,0.22464 13.78602,5.80731 20.29146,11.59776 7.71673,6.86861 11.03991,10.49727 15.062,16.4465 4.18777,6.19431 10.39362,18.09691 11.91908,22.86041 0.52828,1.64965 2.49723,6.80311 4.37543,11.45212 1.87821,4.64902 4.70168,12.01109 6.27439,16.36017 1.57272,4.34908 3.04244,8.15282 3.26607,8.45275 0.22362,0.29994 0.5724,1.4656 0.77506,2.59037 0.20267,1.12476 0.5981,2.04502 0.87873,2.04502 0.89874,0 1.23916,-2.75954 0.60254,-4.88439 -0.85335,-2.8482 -0.88704,-2.79964 1.70083,-2.45104 6.25134,0.84208 11.98715,2.61812 15.23521,4.71744 1.83815,1.18806 5.35328,3.24754 7.8114,4.57661 4.86618,2.6311 4.87879,2.64817 7.58746,10.27697 0.73872,2.08056 1.23697,3.95461 1.10722,4.16455 -0.12976,0.20995 -1.04262,0.53306 -2.02858,0.71802 -2.03839,0.38241 -5.85413,3.29103 -5.85413,4.46243 0,1.19469 1.30701,0.92614 2.69783,-0.55432 1.36049,-1.44817 4.32373,-3.03009 5.67594,-3.03009 0.78204,0 11.66775,9.03033 13.37023,11.09138 0.66922,0.81018 0.57197,0.90608 -0.91885,0.90608 -2.32855,0 -4.28278,0.83788 -5.81812,2.49455 l -1.31136,1.41498 -3.98481,-2.08924 c -2.19164,-1.14909 -5.2697,-3.13304 -6.84012,-4.40879 -1.57043,-1.27576 -2.9815,-2.31955 -3.1357,-2.31955 -0.15421,0 -0.28038,0.49214 -0.28038,1.09365 0,0.72078 1.20692,1.96189 3.54002,3.64028 1.94701,1.40064 3.46505,2.62159 3.37343,2.71322 -0.0916,0.0916 -3.4638,0.65686 -7.49373,1.2561 -8.87331,1.31942 -18.92101,3.95624 -22.5171,5.90917 -5.10324,2.7714 -9.59603,7.61806 -12.59295,13.58478 -0.76599,1.52506 -1.39272,3.41206 -1.39272,4.19333 0,0.78127 -0.21897,1.42048 -0.4866,1.42048 -0.26762,0 -1.84979,-1.47241 -3.51592,-3.27203 -1.66613,-1.79962 -3.30422,-3.27203 -3.6402,-3.27203 -0.97472,0 -0.0685,2.18634 2.12052,5.11579 l 1.98897,2.66178 -5.55203,5.63335 c -3.07194,3.11694 -6.11954,5.73367 -6.82247,5.85792 -0.69875,0.12351 -4.39933,0.82919 -8.22352,1.56818 -4.54074,0.87746 -6.9519,1.13804 -6.94971,0.75108 0.002,-0.3259 0.36995,-1.29546 0.81801,-2.15457 0.99856,-1.91465 1.0848,-4.34499 0.14305,-4.03107 -0.70039,0.23347 -7.89159,15.9968 -9.48171,20.78422 -1.26858,3.81933 -1.1574,9.20684 0.26317,12.75278 2.54714,6.35804 4.27429,8.08954 13.43484,13.46857 2.97205,1.74519 5.28005,3.51552 5.85112,4.48808 0.89387,1.5223 0.89387,1.6756 0,2.93836 l -0.94307,1.33226 -0.27267,-1.8531 c -0.38753,-2.63375 -2.54506,-4.09402 -6.09146,-4.12285 -1.54024,-0.0126 -2.88817,0.23008 -2.9954,0.53913 -0.10722,0.30904 1.40266,1.34971 3.35528,2.3126 1.95262,0.96288 3.55023,1.98975 3.55023,2.28194 0,1.19228 -2.59875,1.8098 -7.3982,1.75798 -6.46414,-0.0698 -12.54765,-1.32668 -14.27912,-2.95013 -4.88714,-4.58229 -15.4884,-21.36089 -17.40423,-27.54566 -1.39169,-4.49272 0.0137,-10.43811 4.94931,-20.93719 1.98268,-4.21759 2.39277,-5.9253 1.42293,-5.9253 -0.72767,0 -3.62234,5.1377 -4.68561,8.31642 l -0.86646,2.59036 -4.51229,0 c -3.68286,0 -19.09319,1.54638 -30.1392,3.02439 l -2.29146,0.3066 1.40213,-3.43785 c 3.03242,-7.43509 4.13183,-13.79529 4.08208,-23.61539 -0.0358,-7.05784 -0.52989,-9.8161 -1.75853,-9.8161 -0.538,0 -0.72832,0.5058 -0.6156,1.63602 0.0897,0.89981 0.17871,4.94895 0.19769,8.99809 0.0525,11.20138 -2.25324,20.01551 -7.10505,27.16012 -2.88068,4.24199 -11.10049,11.94391 -15.24624,14.28564 -6.58,3.71673 -8.54455,5.16297 -8.72405,6.42234 -0.3016,2.116 0.9811,4.99535 2.59775,5.83136 1.58541,0.81985 10.36456,2.04266 21.76274,3.03124 5.42283,0.47033 7.12191,0.82797 8.72543,1.83661 1.0952,0.68889 2.97288,1.57436 4.17263,1.96771 3.3467,1.09723 5.01459,2.61267 5.92897,5.38704 1.25656,3.8126 -0.44786,4.47724 -2.65694,1.03608 -1.95415,-3.04404 -3.51439,-3.78718 -8.52166,-4.05886 -4.3332,-0.2351 -6.72,0.29698 -5.73786,1.27911 0.23817,0.23817 2.39235,0.57702 4.78708,0.75297 3.92423,0.28836 4.51917,0.48507 6.02686,1.99276 2.44639,2.44639 1.62571,3.18164 -2.82581,2.53168 z M 882.3714,466.2576 c 1.06234,-0.77679 1.71324,-3.25767 2.26816,-8.64501 0.43951,-4.26695 -0.41485,-6.60619 -3.35591,-9.18847 -3.2504,-2.85389 -5.88648,-2.84754 -9.1548,0.0221 -1.03581,0.90945 -2.26654,2.68507 -2.73496,3.94582 -0.96477,2.59669 -1.92715,11.52889 -1.34384,12.47271 0.95495,1.54514 12.56842,2.67464 14.32135,1.39286 l 0,0 z m -10.00044,-20.94022 c 1.27341,-1.0715 2.51683,-1.52438 4.67722,-1.70354 2.04354,-0.16947 2.94269,-0.47747 2.94269,-1.00801 0,-0.85072 -2.14524,-1.82766 -4.01334,-1.82766 -1.96255,0 -7.14005,3.36791 -7.34038,4.77484 -0.24564,1.72518 1.53723,1.61268 3.73381,-0.23563 l 0,0 z m -9.05771,-3.62102 c 0.8903,-0.65101 0.92018,-1.01422 0.32083,-3.90124 -0.57762,-2.78239 -7.97789,-20.24537 -9.23798,-21.79959 -0.25668,-0.31659 -2.24273,-4.99286 -4.41345,-10.39172 -4.99937,-12.43411 -7.73703,-17.87804 -11.98905,-23.84066 -3.75634,-5.26753 -11.44295,-12.98094 -15.90963,-15.96509 -1.59412,-1.06503 -4.4479,-3.03538 -6.34174,-4.37857 -5.29751,-3.75722 -5.58317,-3.3136 -2.3442,3.64053 1.16593,2.50328 3.02245,6.51246 4.1256,8.90928 1.10315,2.39682 2.66458,5.21251 3.46985,6.25708 0.80527,1.04457 4.29201,7.42722 7.74833,14.18367 4.77548,9.33517 8.37593,15.39841 14.99682,25.25491 4.79194,7.13376 9.81718,14.76518 11.16721,16.95871 1.35002,2.19353 2.79114,4.39375 3.20247,4.88938 0.89631,1.07999 3.83702,1.18356 5.20494,0.18331 l 0,0 z"
         style="fill:#ac9d93;stroke:none" />
      <path
         transform="matrix(0,9.7125097e-4,0.00138889,0,0,0)"
         inkscape:connector-curvature="0"
         id="path3140"
         d="m 874.62414,430.69174 c -2.50179,-0.70579 -4.68884,-1.42337 -4.8601,-1.59463 -0.54514,-0.54514 -1.14664,-9.59217 -1.18129,-17.76724 -0.0537,-12.663 2.36404,-31.10654 5.4309,-41.43 1.2936,-4.35441 7.62289,-19.56536 9.64372,-23.17638 0.39444,-0.70482 0.75155,0.55398 1.41094,4.97341 0.48556,3.25439 1.19564,8.003 1.57796,10.55246 0.46862,3.12498 0.66539,10.23278 0.60387,21.81356 -0.0945,17.78659 -0.64629,26.07469 -2.11876,31.82351 -1.06124,4.14328 -5.30106,16.1805 -5.6805,16.12743 -0.15291,-0.0214 -2.32495,-0.61635 -4.82674,-1.32212 z"
         style="fill:#ac9d93;stroke:none" />
      <path
         transform="matrix(0,9.7125097e-4,0.00138889,0,0,0)"
         inkscape:connector-curvature="0"
         id="path3142"
         d="m 838.36317,559.70675 c -0.49479,-2.47394 -3.33442,-5.25807 -7.90636,-7.75182 -7.21269,-3.93415 -9.13096,-5.59474 -11.11242,-9.61964 -1.40302,-2.84994 -1.82823,-4.47714 -1.98591,-7.59968 -0.29686,-5.87859 -0.004,-6.5562 3.49882,-8.10547 1.64711,-0.72844 3.10575,-1.32443 3.24142,-1.32443 0.13567,0 0.22511,3.38087 0.19877,7.51304 -0.0629,9.86096 0.42565,11.4687 4.52028,14.87629 1.73068,1.44029 4.32058,3.40794 5.75534,4.37256 3.06988,2.06395 6.02218,4.73491 6.78691,6.14015 0.40581,0.74568 0.30367,1.26532 -0.40195,2.04502 -1.34196,1.48286 -2.22634,1.29677 -2.5949,-0.54602 l 0,0 z"
         style="fill:#ac9d93;stroke:none" />
      <path
         transform="matrix(0,9.7125097e-4,0.00138889,0,0,0)"
         inkscape:connector-curvature="0"
         id="path3144"
         d="m 776.37646,561.33993 c 0,-3.01533 -1.91297,-5.0394 -7.27076,-7.69302 -4.30702,-2.1332 -4.958,-2.27825 -19.72352,-4.39485 -8.98124,-1.28744 -15.77123,-2.51701 -16.48784,-2.98572 -1.34194,-0.87771 -2.1974,-3.31153 -1.43273,-4.07619 0.26761,-0.26761 2.67321,-1.62108 5.34579,-3.00771 2.67258,-1.38664 5.96061,-3.36211 7.30672,-4.38994 1.34612,-1.02784 2.83671,-1.75398 3.31243,-1.61364 0.47573,0.14033 1.50785,0.40808 2.2936,0.595 l 1.42865,0.33986 -2.11032,4.0781 c -2.35716,4.5551 -2.50016,5.40151 -1.22104,7.2277 1.19813,1.71057 3.80854,2.72141 8.59504,3.32828 5.17005,0.65549 13.55428,3.35381 16.78267,5.40119 4.13817,2.62435 7.20858,9.33045 4.27199,9.33045 -0.90534,0 -1.09068,-0.36356 -1.09068,-2.13951 z"
         style="fill:#ac9d93;stroke:none" />
      <path
         transform="matrix(0,9.7125097e-4,0.00138889,0,0,0)"
         inkscape:connector-curvature="0"
         id="path3150"
         d="m 848.25447,420.81837 c -12.94466,-20.00292 -23.01595,-38.98061 -24.74425,-46.62646 l -1.04598,-4.62736 6.50419,6.16981 c 3.5773,3.39339 8.44634,9.98737 10.82009,14.65329 6.66344,13.09791 21.91875,48.04681 21.26009,48.70547 -0.32317,0.32317 -6.08054,-7.90046 -12.79414,-18.27475 z"
         style="fill:#ff8080;stroke:none" />
      <path
         transform="matrix(0,9.7125097e-4,0.00138889,0,0,0)"
         inkscape:connector-curvature="0"
         id="path3154"
         d="m 819.00698,372.12593 c -1.72077,-3.73325 -3.15269,-7.45536 -2.94719,-7.66086 0.39774,-0.39774 3.25237,2.33184 3.45577,3.3044 0.40187,1.92146 1.00971,6.75487 0.86738,6.89721 -0.0771,0.0771 -0.6963,-1.06622 -1.37596,-2.54075 z"
         style="fill:#ff8080;stroke:none" />
      <path
         transform="matrix(0,9.7125097e-4,0.00138889,0,0,0)"
         inkscape:connector-curvature="0"
         id="path3166"
         d="m 851.68839,424.26674 c -6.94123,-9.51563 -23.94357,-39.8616 -25.91565,-46.25458 -1.72318,-5.58607 1.17093,-4.02187 7.13466,3.85613 5.14104,6.79124 23.6471,44.83544 22.41089,46.07164 -0.30226,0.30227 -1.93572,-1.35067 -3.6299,-3.67319 l 0,0 z"
         style="fill:#ff5555;stroke:none" />
      <path
         transform="matrix(0,9.7125097e-4,0.00138889,0,0,0)"
         inkscape:connector-curvature="0"
         id="path3204"
         d="m 757.27575,532.45115 c -6.04224,-0.17157 -8.39037,-0.49278 -9.00357,-1.23164 -0.22403,-0.26994 -0.0231,-0.60575 0.8386,-1.40122 0.62328,-0.57541 2.18156,-2.24887 3.46284,-3.7188 2.58986,-2.97117 3.30742,-3.46247 5.05715,-3.46247 0.66006,0 4.07111,-0.36308 7.58012,-0.80685 10.38299,-1.31309 24.7948,-2.62647 26.61526,-2.42552 l 0.87572,0.0967 -0.93296,2.67271 c -0.51312,1.46999 -1.06975,3.43321 -1.23696,4.36271 -0.1672,0.92951 -0.4181,1.97314 -0.55757,2.31919 -0.55909,1.38732 -4.62343,2.53047 -10.88507,3.06158 -1.8746,0.159 -4.75808,0.40391 -6.40773,0.54425 -3.17908,0.27045 -5.56514,0.2688 -15.40583,-0.0106 l 0,0 z"
         style="fill:#e3dbdb;stroke:none" />
      <path
         transform="matrix(0,9.7125097e-4,0.00138889,0,0,0)"
         inkscape:connector-curvature="0"
         id="path3206"
         d="m 819.87971,524.04295 c -0.47171,-0.76324 1.91164,-5.72391 3.23499,-6.73328 1.30473,-0.99517 12.8657,-4.11583 14.41158,-3.89014 0.4943,0.0722 0.39141,0.25083 -0.78453,1.36231 -4.66417,4.40847 -9.15398,7.17549 -14.2439,8.77837 -2.58414,0.81377 -2.431,0.78554 -2.61814,0.48274 z"
         style="fill:#e3dbdb;stroke:none" />
      <path
         transform="matrix(0,9.7125097e-4,0.00138889,0,0,0)"
         inkscape:connector-curvature="0"
         id="path3208"
         d="m 866.88888,504.95015 c -4.07873,-0.89582 -7.80455,-2.68778 -8.82431,-4.24414 -0.32192,-0.49132 -0.30702,-0.96235 0.10428,-3.29543 0.26395,-1.4972 0.79548,-3.43238 1.18118,-4.30041 0.86783,-1.95304 3.32399,-5.75131 4.71407,-7.28996 2.10822,-2.33354 8.25357,-5.87915 10.82939,-6.2481 0.77137,-0.11049 1.89329,-0.41501 2.49317,-0.67673 4.11646,-1.79594 9.67129,-2.81692 20.13663,-3.70111 3.25601,-0.27509 5.50162,-0.01 6.02974,0.71251 0.27647,0.3781 0.40608,0.38906 0.9063,0.0767 0.50642,-0.31626 0.90091,-0.26368 2.97935,0.39705 4.01838,1.27745 4.24774,1.41399 4.08935,2.43421 -0.43764,2.81877 -2.03224,6.51937 -3.56924,8.28315 -0.54392,0.62418 -1.57145,1.41835 -2.2834,1.76482 -1.23431,0.60067 -1.66816,0.63769 -9.3382,0.7969 -8.11226,0.16839 -9.06862,0.28823 -10.15644,1.2727 -0.26272,0.23775 -0.4758,0.75069 -0.4735,1.13986 0.0108,1.82313 0.78651,2.00766 8.58491,2.04206 5.96475,0.0263 6.64062,0.0772 7.63475,0.57421 0.59987,0.29994 1.09068,0.72424 1.09068,0.9429 0,0.21866 -0.61351,0.86289 -1.36335,1.43162 -1.75272,1.32938 -10.56848,5.89398 -12.00564,6.21625 -2.13908,0.47967 -14.48599,1.93573 -17.44266,2.057 -2.28303,0.0936 -3.5529,0.001 -5.31706,-0.38602 l 0,0 z"
         style="fill:#e3dbdb;stroke:none" />
      <path
         transform="matrix(0,9.7125097e-4,0.00138889,0,0,0)"
         inkscape:connector-curvature="0"
         id="path3226"
         d="m 875.14694,463.75032 c 1.1587,-4.61664 7.41381,-10.23126 7.39198,-6.63509 -0.0127,2.09211 -0.63068,3.68104 -1.43169,3.68104 -0.42162,0 -1.83151,0.98161 -3.13308,2.18135 -2.7653,2.54897 -3.31042,2.69796 -2.82721,0.7727 l 0,0 z"
         style="fill:#000000;stroke:none" />
      <path
         transform="matrix(0,9.7125097e-4,0.00138889,0,0,0)"
         inkscape:connector-curvature="0"
         id="path3238"
         d="m 912.77246,475.26479 c -0.95376,-2.08328 -0.92102,-2.28474 0.37126,-2.28474 0.59011,0 1.38767,-0.11967 1.77235,-0.26592 0.88396,-0.33608 0.89486,-0.0796 0.0808,1.90194 -1.11504,2.71412 -1.25954,2.75626 -2.2244,0.64872 z"
         style="fill:#ffb380;stroke:none" />
      <path
         transform="matrix(0,9.7125097e-4,0.00138889,0,0,0)"
         inkscape:connector-curvature="0"
         id="path3819"
         d="m 674.01407,491.15832 c -4.99298,-1.7843 -10.44306,-5.64119 -11.94982,-8.4566 -0.82502,-1.54155 -0.82437,-3.75836 0.002,-7.61258 0.6414,-2.99074 1.16618,-8.61955 1.16618,-12.50846 0,-7.02627 1.88877,-13.6518 4.32016,-15.15447 1.92716,-1.19106 5.36738,2.54194 6.14051,6.6631 0.51294,2.73418 2.03974,4.65608 6.02006,7.5779 2.93306,2.15307 5.33283,4.05656 5.33283,4.22998 0,0.17343 -0.73621,2.40196 -1.63601,4.95229 -0.89981,2.55033 -1.64142,6.66118 -1.64803,9.13522 -0.0182,6.81561 -1.21911,12.68402 -2.58472,12.63047 -0.67136,-0.0263 -2.99487,-0.68192 -5.16337,-1.45685 z"
         style="fill:#ffffff;stroke:#000000;stroke-width:0.00545339;stroke-miterlimit:4;stroke-opacity:1;stroke-dasharray:none;stroke-dashoffset:0" />
    </g>
  </g>
</svg>
