<?xml version="1.0" encoding="UTF-8" standalone="no"?>
<!-- Created with Inkscape (http://www.inkscape.org/) -->

<svg
   xmlns:dc="http://purl.org/dc/elements/1.1/"
   xmlns:cc="http://creativecommons.org/ns#"
   xmlns:rdf="http://www.w3.org/1999/02/22-rdf-syntax-ns#"
   xmlns:svg="http://www.w3.org/2000/svg"
   xmlns="http://www.w3.org/2000/svg"
   xmlns:sodipodi="http://sodipodi.sourceforge.net/DTD/sodipodi-0.dtd"
   xmlns:inkscape="http://www.inkscape.org/namespaces/inkscape"
   id="svg2"
   version="1.1"
   inkscape:version="0.48.3.1 r9886"
   width="232.18359"
   height="223.30609"
   xml:space="preserve"
   sodipodi:docname="rabbit7.svg"><metadata
     id="metadata8"><rdf:RDF><cc:Work
         rdf:about=""><dc:format>image/svg+xml</dc:format><dc:type
           rdf:resource="http://purl.org/dc/dcmitype/StillImage" /><dc:title></dc:title></cc:Work></rdf:RDF></metadata><defs
     id="defs6" /><sodipodi:namedview
     pagecolor="#ffffff"
     bordercolor="#666666"
     borderopacity="1"
     objecttolerance="10"
     gridtolerance="10"
     guidetolerance="10"
     inkscape:pageopacity="0"
     inkscape:pageshadow="2"
     inkscape:window-width="1366"
     inkscape:window-height="690"
     id="namedview4"
     showgrid="false"
     fit-margin-top="0"
     fit-margin-left="0"
     fit-margin-right="0"
     fit-margin-bottom="0"
     inkscape:zoom="1.2966372"
     inkscape:cx="239.83938"
     inkscape:cy="123.57845"
     inkscape:window-x="0"
     inkscape:window-y="26"
     inkscape:window-maximized="1"
     inkscape:current-layer="g12" /><g
     id="g10"
     inkscape:groupmode="layer"
     inkscape:label="23011101"
     transform="matrix(1.25,0,0,-1.25,-197.90906,611.59853)"><g
       id="g12"
       transform="matrix(0,-576,823.68,0,-150.88881,720.78102)"><path
         style="fill:#000000;stroke:none;stroke-width:0.10000031000000000;stroke-miterlimit:4;stroke-opacity:1;stroke-dasharray:none"
         d="M 113.9375 0.0625 C 113.93705 0.070590006 113.96005 0.11268689 113.96875 0.125 C 113.92155 0.16966754 113.9038 0.22692356 113.875 0.3125 C 113.23087 2.2247891 117.01003 13.882033 118.65625 14.3125 C 119.71772 14.59042 120.28013 17.09375 119.28125 17.09375 C 117.79245 17.09375 111.55592 15.10437 110.75 14.375 C 109.76261 13.482219 101.96086 12.69157 101.5 13.4375 C 101.36062 13.66286 101.72714 14.94247 102.3125 16.25 C 102.89834 17.55753 103.72347 19.68239 104.15625 21 C 104.58868 22.31761 105.58043 24.41179 106.34375 25.625 C 107.10668 26.83893 108.77962 29.80241 110.0625 32.21875 C 111.34538 34.635018 113.65443 37.9507 115.1875 39.59375 C 116.7216 41.2368 117.96875 42.903828 117.96875 43.3125 C 117.96875 43.72146 119.12893 45.36746 120.53125 46.96875 C 121.93357 48.57004 124.1488 51.22014 125.46875 52.84375 C 126.7887 54.46736 128.84412 56.86341 130.03125 58.1875 C 131.21838 59.51159 132.92923 61.88762 133.84375 63.46875 C 134.96601 65.40845 136.3269 66.77395 138 67.625 C 139.36319 68.31837 141.4145 69.65054 142.5625 70.59375 C 143.7105 71.53696 144.94997 72.3125 145.34375 72.3125 C 145.73706 72.3125 147.22717 73.48136 148.65625 74.90625 C 153.69244 79.929298 159.90698 84.90625 161.125 84.90625 C 163.17184 84.90625 162.58414 85.9798 158.03125 90.34375 C 153.93241 94.271992 151.81431 95.55591 152.53125 93.6875 C 152.89223 92.74645 153.02354 92.77091 136.5625 90.65625 C 130.45759 89.87216 124.77876 88.954645 123.9375 88.625 C 123.09632 88.29596 120.54395 87.815134 118.25 87.5625 C 115.95605 87.309859 113.65125 87.056578 113.15625 87 C 112.66101 86.94384 110.78393 86.598255 108.96875 86.21875 C 107.15357 85.839022 103.36713 85.418799 100.5625 85.28125 C 97.477818 85.13005 94.714622 84.624105 93.5625 84.03125 C 92.514367 83.492172 90.752774 83.12005 89.65625 83.1875 C 87.133833 83.34302 85.969 82.95719 78.96875 79.625 L 73.28125 76.90625 L 63.65625 77.03125 C 46.535135 77.26597 44.176218 77.49204 39.125 79.4375 C 36.586006 80.41527 33.474862 82.1458 32.21875 83.28125 C 30.961608 84.4167 29.563134 85.585812 29.09375 85.875 C 27.837638 86.648866 24.191496 91.46026 22.84375 94.125 C 22.19922 95.39869 21.347169 96.567752 20.96875 96.71875 C 20.590887 96.86995 18.974998 96.3584 17.375 95.59375 C 14.245016 94.097508 11.799845 90.70966 11.78125 87.875 C 11.76478 85.38234 10.163439 83.71875 7.84375 83.71875 C 5.8545628 83.71875 3.4013458 85.48914 3.34375 86.96875 C 2.9298508 97.605544 2.8607128 98.09418 1.375 100.625 C 0.10666665 102.78428 -0.09172916 103.72872 0.15625 106.5 C 0.3186694 108.31512 0.7476619 110.60375 1.125 111.59375 C 2.2688856 114.59428 6.815118 120.12519 10.59375 123.09375 C 12.556168 124.63527 14.15625 126.12492 14.15625 126.40625 C 14.15625 126.68757 16.446269 127.125 16.96875 127.125 C 17.184009 128.70606 17.519872 130.32131 18.0625 132.53125 C 18.920157 136.02318 20.314336 140.43935 21.15625 142.34375 C 23.348268 147.29951 29.517545 158.19944 31.28125 160.25 C 32.304932 161.43969 32.274806 163.95101 32.125 165.625 C 31.320356 166.53508 29.662684 170.81493 27.03125 178.71875 C 24.79894 185.42318 23.594156 190.01832 23.6875 191.5 C 23.66944 192.31216 24.504466 195.06268 26.03125 197.8125 C 29.244632 203.6008 33.534649 210.52082 34.34375 211.21875 C 34.726761 211.54923 36.063595 213.27863 37.3125 215.09375 C 40.103746 219.14879 40.698355 219.63919 44.46875 220.84375 C 48.40244 222.10087 63.430602 223.62236 67.375 223.15625 C 71.530466 222.66528 75.031961 219.36049 75.625 215.40625 C 76.325128 210.73338 73.852383 208.13775 67.65625 207.09375 C 65.319058 206.69991 62.729094 205.84495 61.875 205.1875 C 60.189545 203.89042 52.568503 190.25421 52.5625 188.53125 C 52.5604 187.94517 53.309212 187.14799 54.21875 186.75 C 58.350122 184.94202 71.704909 177.55793 73.8125 175.90625 C 75.10053 174.89753 76.914412 172.87145 77.84375 171.40625 L 79.53125 168.71875 L 86.3125 168.59375 C 90.035534 168.52035 94.251208 168.14561 95.6875 167.75 C 97.123792 167.35437 98.456271 167.20622 98.65625 167.40625 C 99.178257 167.92825 97.653778 170.18799 94.6875 173.34375 C 88.735382 179.67675 89.349395 187.87696 95.875 189.25 C 97.728774 189.63952 97.85289 189.84864 97.78125 192 C 97.72444 193.70785 97.86952 194.04834 98.28125 193.3125 C 98.586928 192.76579 99.069899 192.3125 99.375 192.3125 C 100.05762 192.3125 101.96675 195.67668 102.375 197.625 C 102.84759 199.87788 104.86792 200.26602 107.375 198.5625 C 108.55183 197.76245 109.91473 197.09375 110.40625 197.09375 C 112.31461 197.09375 123.84188 184.46109 126.4375 179.53125 C 126.82507 178.79613 127.32233 178.07125 127.53125 177.90625 C 128.23653 177.34983 131.58404 171.63366 132.34375 169.6875 C 132.75868 168.6255 133.48731 167.43079 133.96875 167.03125 C 134.4506 166.63165 136.04723 164.46371 137.5 162.21875 C 139.27812 159.46979 140.41896 158.24579 141 158.46875 C 141.47465 158.65091 143.78508 157.68727 146.15625 156.34375 C 148.52742 155.00095 150.67836 153.90625 150.9375 153.90625 C 151.19696 153.90625 154.22871 151.92856 157.65625 149.5 C 161.08379 147.07144 164.99945 144.51444 166.375 143.8125 C 168.11649 142.92435 169.20693 142.11211 170.125 141 C 172.54239 141.74163 174.46286 142.6194 178 143.9375 C 182.22671 145.51286 186.04447 146.4865 189.75 146.90625 C 194.87463 147.48657 195.66206 147.41854 201.3125 145.9375 C 207.4345 144.33334 209.06853 143.34642 211.09375 140.0625 C 211.61706 139.21506 212.13605 137.71696 212.25 136.75 C 212.42812 135.24088 212.1658 134.84398 210.3125 133.9375 C 208.34185 132.97345 207.91756 132.96117 205.59375 133.78125 C 203.72091 134.44206 202.74524 134.52826 201.875 134.0625 C 200.15145 133.14018 200.77203 132.21423 203.71875 131.34375 C 205.84899 130.715 207.14518 130.72853 211 131.40625 C 218.27145 132.68447 220.10895 131.84588 224.25 125.3125 C 225.537 123.28138 227.00968 121.46941 227.5 121.28125 C 227.99076 121.09333 228.65812 120.31346 229 119.5625 C 229.34183 118.81154 230.28136 117.00826 231.0625 115.5625 C 232.53847 112.83082 232.48396 111.3125 230.9375 111.3125 C 230.28008 111.3125 230.1359 110.92087 230.40625 109.84375 C 230.68326 108.74071 230.46345 108.20093 229.5625 107.71875 C 228.8993 107.36379 228.375 106.65602 228.375 106.15625 C 228.375 104.27849 226.51567 101.77986 224.03125 100.3125 C 220.68711 98.338024 218.29742 95.71445 215.5 90.90625 C 210.07277 81.577644 205.77474 77.94764 198.375 76.46875 C 196.00833 75.995683 192.06381 75.813387 188.3125 75.875 C 188.19635 75.8769 188.08446 75.8726 187.96875 75.875 C 187.95835 74.564478 186.30107 71.195682 185.59375 69.9375 C 184.69574 68.33981 183.96875 66.558331 183.96875 66 C 183.96875 65.44128 182.6278 62.37569 181 59.1875 C 179.37117 55.999454 176.914 50.97002 175.53125 48 C 174.14747 45.02998 172.39121 41.91888 171.625 41.09375 C 170.85898 40.26862 169.82051 38.62234 169.3125 37.40625 C 168.80388 36.19016 167.63075 34.742584 166.71875 34.1875 C 165.80652 33.63238 164.12396 31.98638 162.96875 30.53125 C 158.2676 24.609416 157.33501 23.62514 153.65625 21 C 151.54557 19.49447 149.603 17.913688 149.34375 17.46875 C 149.08532 17.02379 146.17487 14.69572 142.875 12.3125 C 139.57513 9.928561 136.7275 7.8163112 136.5625 7.59375 C 136.07859 6.942145 133.12586 5.77614 128.84375 4.53125 C 126.64967 3.893325 123.26153 2.7988386 121.3125 2.125 C 119.36347 1.450873 117.41251 0.90625 116.96875 0.90625 C 116.74773 0.90625 115.31652 0.38887799 114.5 0.15625 C 114.38263 0.12281057 114.306 0.11314332 114.21875 0.09375 C 114.17975 0.085077993 114.12525 0.067677704 114.09375 0.0625 C 113.99197 0.045743087 113.93889 0.033259577 113.9375 0.0625 z M 114.40625 0.40625 C 114.48535 0.45387454 114.51988 0.50310135 114.625 0.5625 C 114.89396 0.71449198 115.25685 0.88588145 115.71875 1.125 C 115.79815 1.1660832 115.92466 1.3843656 116.34375 1.59375 C 118.00468 2.4235664 122.95936 4.1683399 131.25 6.71875 C 134.68516 7.7754923 144.81529 14.41554 148.875 18.28125 C 150.52545 19.8523 153.17265 22.02267 154.75 23.125 C 156.32632 24.22733 158.55839 26.56433 159.71875 28.3125 C 160.87911 30.06139 163.06443 32.50871 164.5625 33.75 C 166.06057 34.99129 167.83118 37.08648 168.5 38.40625 C 169.16821 39.72602 170.22467 41.353835 170.84375 42.03125 C 172.348 43.67718 176.78125 52.3107 176.78125 53.59375 C 176.78225 54.15319 177.76721 56.23873 178.96875 58.21875 C 180.17029 60.19877 181.59759 63.08736 182.15625 64.65625 C 182.71465 66.22514 183.34357 67.687276 183.5625 67.90625 C 183.78151 68.12513 183.96875 68.89131 183.96875 69.625 C 183.96875 70.833139 185.64081 74.494527 186.75 75.90625 C 186.6367 75.91035 186.51863 75.90165 186.40625 75.90625 C 183.55934 76.022741 181.01739 76.30533 179.65625 76.71875 L 176.84375 77.5625 L 176.09375 75.6875 C 175.67367 74.65429 174.49049 72.5784 173.46875 71.09375 C 172.44739 69.6091 171.11452 67.31977 170.5 66 C 169.88533 64.67951 168.21445 62.16882 166.78125 60.40625 C 165.34908 58.64368 164.15625 56.972253 164.15625 56.6875 C 164.15625 56.40238 163.56322 55.5387 162.8125 54.78125 C 162.06192 54.0238 160.6556 52.31977 159.6875 51 C 157.91947 48.588988 153.65271 43.74223 148.90625 38.71875 C 147.50393 37.23338 144.6392 34.65025 142.5625 33 C 140.48477 31.34975 137.67466 28.86412 136.3125 27.46875 C 134.87518 25.99634 133.03711 24.782417 131.9375 24.5625 C 130.89554 24.3537 129.44465 23.580401 128.6875 22.875 C 127.93074 22.16939 126.08667 20.96871 124.59375 20.1875 C 120.96002 18.2874 120.86469 18.17006 120.65625 15.375 C 120.53064 13.70315 119.98285 12.45184 118.875 11.34375 C 117.14218 9.609976 114.96875 5.118415 114.96875 3.25 C 114.96875 2.8021002 114.73282 1.3840457 114.46875 0.59375 C 114.44405 0.51969564 114.43145 0.46798475 114.40625 0.40625 z M 103.125 14.125 C 105.195 14.022992 110.99505 15.529691 113.90625 17.125 C 114.47974 17.439014 115.51333 17.71875 116.21875 17.71875 C 117.66143 17.71875 126.94842 22.14364 127.875 23.28125 C 128.2055 23.68661 129.57225 24.520423 130.9375 25.125 C 132.30275 25.7298 134.75647 27.49692 136.375 29.03125 C 137.99353 30.56558 140.47408 32.61166 141.90625 33.59375 C 144.79304 35.573986 157.20922 48.52206 159.0625 51.5 C 159.71115 52.54401 160.69817 53.759784 161.28125 54.1875 C 161.864 54.61518 163.1003 56.22892 164 57.78125 C 164.89987 59.33358 166.65632 61.90303 167.90625 63.5 C 169.1567 65.09697 170.15625 66.710883 170.15625 67.09375 C 170.15825 67.47679 171.4123 69.69022 172.90625 72 C 174.39917 74.3105 175.76799 76.89362 175.96875 77.71875 C 176.49282 79.87373 179.35111 84.63403 179.625 83.8125 C 179.75158 83.43162 179.31086 82.33837 178.625 81.375 C 177.2741 79.4785 177.01823 78.3125 177.96875 78.3125 C 178.29876 78.3125 178.5625 78.576252 178.5625 78.90625 C 178.5625 79.945623 179.60535 79.55682 179.90625 78.40625 C 180.06465 77.800989 180.57345 77.2824 181.03125 77.25 C 195.68606 76.21247 204.32595 78.06379 208.40625 83.09375 C 208.81912 83.60207 210.68863 86.28861 212.5625 89.09375 C 214.43637 91.89889 216.46136 94.9495 217.0625 95.84375 C 218.37275 97.793652 218.42689 98.09375 217.34375 98.09375 C 216.88867 98.09375 215.5783 99.25368 214.4375 100.65625 C 212.34763 103.22737 211.21315 105.90625 212.21875 105.90625 C 212.51785 105.90625 212.77105 105.56875 212.78125 105.15625 C 212.79155 104.74369 214.0978 102.94761 215.6875 101.15625 L 218.59375 97.90625 L 222.28125 101.75 C 224.30956 103.87112 225.96875 105.92247 225.96875 106.3125 C 225.96975 106.70274 226.79125 107.60756 227.78125 108.3125 C 228.77082 109.01738 229.5691 109.77498 229.5625 110 C 229.545 110.58752 223.81377 113.09375 222.5 113.09375 C 221.89151 113.09375 221.15725 113.3457 220.84375 113.65625 C 220.48648 114.01049 218.49238 113.46377 215.53125 112.15625 C 212.93151 111.00766 210.66442 110.21057 210.46875 110.40625 C 209.95395 110.92105 211.24267 111.63637 216.75 113.78125 C 220.23108 115.13773 221.85356 116.08647 222.3125 117.09375 L 222.9375 118.5 L 218.59375 118.15625 C 216.20714 117.96028 213.45875 117.56784 212.46875 117.28125 C 209.94922 116.55189 196.34823 117.07682 192.375 118.0625 C 188.24013 119.0885 186.95575 119.79142 182.46875 123.4375 C 177.13748 127.77032 174.52239 130.4925 173.6875 132.5625 C 173.27772 133.5777 172.58814 134.61111 172.15625 134.875 C 171.72437 135.13924 171.375 135.88765 171.375 136.53125 C 171.375 138.27941 170.06969 137.95564 167.75 135.625 C 165.49713 133.36132 164.78125 133.05351 164.78125 134.34375 C 164.78125 134.80311 166.33597 136.60668 168.25 138.375 C 168.96328 139.03362 169.59078 139.60192 169.6875 140.5625 C 168.47658 141.27176 166.74662 142.19879 164.78125 143.375 C 161.08807 145.58468 159.67609 146.06799 156.125 146.40625 C 153.78987 146.62873 150.69659 147.06346 149.25 147.375 C 147.80444 147.68656 146.52247 147.86622 146.40625 147.75 C 146.28991 147.63336 146.7174 146.47702 147.375 145.1875 C 148.03254 143.89726 148.47287 142.55645 148.34375 142.21875 C 148.21463 141.88101 147.88684 142.15255 147.625 142.8125 C 147.36315 143.47202 146.97902 144.1475 146.75 144.3125 C 146.52143 144.47738 145.46813 146.23875 144.4375 148.21875 C 141.4949 153.87305 139.73183 156.91424 138.78125 158 C 138.2994 158.5508 137.42431 159.93887 136.84375 161.09375 C 136.26306 162.24935 134.99761 164.10995 134.03125 165.21875 C 133.06549 166.32755 132.01468 167.9413 131.6875 168.8125 C 131.07489 170.44474 128.15761 175.23318 124.71875 180.1875 C 123.63973 181.74198 121.97517 184.1585 121.03125 185.5625 C 119.07089 188.47814 112.31432 194.09375 110.78125 194.09375 C 110.21703 194.09375 109.03832 194.91625 108.15625 195.90625 C 106.40387 197.87329 105.375 198.21506 105.375 196.8125 C 105.375 196.3175 105.11126 195.90625 104.78125 195.90625 C 103.64251 195.90625 104.1863 194.61211 106.75 191.21875 C 109.54985 187.51219 111.08744 184.5 110.1875 184.5 C 109.87641 184.5 109.28821 185.10143 108.90625 185.84375 C 107.94151 187.71863 105.27438 190.5 104.4375 190.5 C 104.05552 190.5 103.25361 191.09654 102.625 191.8125 C 101.49796 193.09675 101.47266 193.11882 102.65625 192.6875 C 103.62459 192.33464 103.73556 192.38495 103.125 193 C 102.51342 193.61539 102.11269 193.51923 101.0625 192.46875 C 98.990904 190.39731 99.035636 186.32634 101.1875 182.0625 C 102.15635 180.14154 103.30991 178.36039 103.75 178.09375 C 104.18964 177.82663 105.43436 176.31744 106.5 174.75 C 107.56564 173.18256 108.75137 171.90625 109.15625 171.90625 C 109.56088 171.90625 111.30667 169.98977 113.03125 167.65625 C 115.39699 164.45441 116.15625 162.91839 116.15625 161.34375 C 116.15625 160.19607 116.60778 158.36874 117.15625 157.3125 C 118.20198 155.29909 118.45365 148.9071 117.65625 144.1875 C 117.02922 140.479 116.16339 142.26708 115.75 148.125 C 115.38861 153.25056 115.35072 153.30388 113.8125 153.25 C 110.9393 153.1492 98.118588 154.54536 96.59375 155.125 C 94.457742 155.93716 86.780122 157.49942 84.90625 157.5 L 83.3125 157.5 L 83 150.75 C 82.600386 142.06218 79.74659 131.32494 78 131.40625 C 77.883561 131.41125 77.761655 131.45705 77.65625 131.5625 C 77.249867 131.96858 77.346244 132.64335 77.96875 133.59375 C 79.058067 135.25529 81.096685 143.64521 81.6875 148.90625 C 82.723278 158.13092 78.90437 170.0743 73.5 174.4375 C 71.251765 176.25262 65.581039 179.32533 55.875 184.03125 C 54.555053 184.67133 53.057501 185.40175 52.5625 185.65625 C 51.004056 186.45768 51.265655 189.44257 53.3125 194.40625 C 55.37067 199.39844 59.410805 205.34342 61.84375 206.9375 C 62.619039 207.44582 65.119146 208.15217 67.375 208.5 C 70.737674 209.0184 71.754602 209.44494 73.125 210.9375 C 74.552067 212.4927 74.747943 213.10568 74.40625 215 C 73.926456 217.6568 73.134071 219.3125 72.34375 219.3125 C 72.025387 219.3125 71.78125 218.91914 71.78125 218.4375 C 71.78125 217.95582 71.029143 216.86933 70.125 216.03125 C 68.83697 214.83717 67.85887 214.5 65.59375 214.5 C 63.81909 214.5 62.834855 214.72545 63.0625 215.09375 C 63.266361 215.42375 64.165502 215.71875 65.0625 215.71875 C 66.600722 215.71875 70.571499 218.60131 70.5625 219.71875 C 70.54809 221.54751 61.660409 223.34379 60.65625 221.71875 C 60.452389 221.38875 58.989775 221.09375 57.40625 221.09375 C 55.093768 221.09375 54.024137 220.73161 51.90625 219.15625 C 50.456573 218.07841 48.547914 216.82887 47.65625 216.375 C 46.705929 215.89116 45.870633 214.85132 45.65625 213.875 C 45.455478 212.95916 44.734798 211.58218 44.0625 210.8125 C 42.070224 208.53168 36.106764 199.40378 34.90625 196.8125 C 34.295697 195.49274 33.150134 193.46162 32.375 192.3125 C 31.318567 190.74583 30.96875 189.39025 30.96875 186.90625 C 30.96875 184.08313 31.273055 183.17337 33.0625 180.65625 C 34.217876 179.03121 35.15625 177.44624 35.15625 177.15625 C 35.15625 176.86609 36.242553 174.84505 37.5625 172.65625 C 39.905725 168.77041 40.581691 166.5 39.375 166.5 C 39.265001 166.5 39.181713 166.5515 39.09375 166.625 C 38.166422 165.77885 36.276149 164.10958 35 162.78125 C 33.258946 160.96858 30.301076 156.94335 28.4375 153.84375 C 24.893617 147.94997 20.781374 139.52022 20.78125 138.1875 C 20.78125 137.75982 20.065411 135.23399 19.21875 132.59375 C 18.463394 130.23807 18.065335 128.70957 17.875 126.5625 C 17.72418 124.86118 17.707876 122.77376 17.71875 119.5625 C 17.7414 112.95064 17.998424 110.54935 18.96875 107.59375 C 19.635087 105.56335 20.1875 103.49175 20.1875 102.96875 C 20.1885 102.44603 20.72969 101.10952 21.40625 100 C 22.08281 98.88975 22.507786 97.820288 22.34375 97.65625 C 22.180044 97.49281 22.693782 96.33979 23.5 95.0625 C 24.306517 93.78521 24.96875 92.491059 24.96875 92.1875 C 24.96875 91.35589 29.155714 87.31716 31.6875 85.71875 C 32.914783 84.94402 34.190627 83.792805 34.53125 83.15625 C 34.914261 82.43984 37.01864 81.37797 40.03125 80.375 C 44.546767 78.871486 45.750228 78.761551 56.96875 78.5625 C 69.220166 78.34506 71.582325 78.577608 76.5625 80.65625 C 84.247434 83.864636 86.009849 84.401069 89.25 84.5625 C 91.187707 84.65905 93.116774 85.034757 93.53125 85.375 C 93.945149 85.715265 95.895079 86.16481 97.875 86.375 C 106.71844 87.31389 116.83285 88.69172 120.96875 89.53125 C 123.44391 90.03381 127.34583 90.697622 129.65625 91 C 143.02458 92.74961 150.06832 93.955061 150.25 94.5 C 150.36371 94.839782 150.84504 95.09375 151.3125 95.09375 C 153.14931 95.09375 151.99313 97.05401 148.5625 99.71875 C 146.58155 101.25595 144.96875 102.69576 144.96875 102.9375 C 144.96875 103.63661 146.67461 104.09375 149.21875 104.09375 C 150.5109 104.09375 151.5625 104.21648 151.5625 104.34375 C 151.5625 104.80311 150.03973 107.46858 148.71875 109.3125 C 147.97645 110.34858 147.375 111.36594 147.375 111.5625 C 147.375 111.75906 148.71286 111.90625 150.34375 111.90625 C 151.97464 111.90625 153.47984 112.19523 153.6875 112.53125 C 153.89472 112.86749 153.49565 114.0198 152.8125 115.125 C 151.14702 117.82019 151.20613 118.62217 153.0625 118.15625 C 155.12891 117.63785 157.5625 118.3215 157.5625 119.4375 C 157.5625 119.94569 157.84065 120.2263 158.15625 120.03125 C 158.81089 119.62733 158.27586 117.81587 157.3125 117.15625 C 156.95832 116.9138 156.02784 116.72355 155.25 116.71875 C 154.14379 116.71175 153.91983 116.47777 154.25 115.65625 C 154.48221 115.07881 154.74392 114.27795 154.8125 113.875 C 154.8811 113.4718 155.11707 112.94544 155.34375 112.71875 C 156.20141 111.86123 154.33004 110.71875 152.09375 110.71875 C 150.81396 110.71875 149.78125 110.58797 149.78125 110.4375 C 149.78125 110.28702 150.59865 108.78143 151.59375 107.09375 C 152.58841 105.40607 153.22085 103.77553 153.03125 103.46875 C 152.8418 103.16196 151.34964 102.90625 149.71875 102.90625 C 148.08889 102.90625 146.78125 102.6425 146.78125 102.3125 C 146.78125 101.9825 147.0182 101.71875 147.3125 101.71875 C 147.60594 101.71875 149.19227 100.48465 150.84375 99 C 152.49523 97.51535 154.13597 96.3125 154.5 96.3125 C 154.86402 96.3125 155.18199 95.829226 155.1875 95.25 C 155.1955 94.191302 160.29822 89.3094 162.8125 87.96875 C 164.00478 87.33298 164.41586 87.46049 166.125 89.0625 C 167.97486 90.796241 168.96875 91.33723 168.96875 90.5625 C 168.96875 89.830034 160.31967 81.79949 158.53125 80.875 C 156.47308 79.81083 153.15472 77.32082 149.46875 74.09375 C 148.14674 72.9367 144.71839 70.53388 141.84375 68.71875 C 137.22805 65.80561 136.38428 64.99133 134.6875 61.8125 C 133.63113 59.83248 132.48961 58.098588 132.15625 57.96875 C 130.51507 57.329596 121.31365 47.08977 118.65625 42.9375 C 117.50516 41.13749 115.76909 38.77327 114.78125 37.6875 C 113.79283 36.60173 112.64643 35.08824 112.21875 34.34375 C 110.72274 31.737402 102.375 14.885839 102.375 14.46875 C 102.375 14.254774 102.64731 14.14854 103.125 14.125 z M 115.53125 24.3125 C 114.59822 24.3125 114.88917 25.26317 116.1875 26.4375 C 116.8588 27.0459 117.91535 28.6281 118.53125 29.96875 C 120.31719 33.855412 123.80112 38.660078 130.5625 46.53125 C 137.56666 54.68568 149.97874 67.30447 154.03125 70.40625 C 162.5203 76.904588 168.56163 82.75977 171.6875 87.53125 L 172.6875 89.0625 L 174.4375 87.78125 C 175.39715 87.07132 176.15625 86.28636 176.15625 86.03125 C 176.15625 85.42429 170.008 75.17501 168.46875 73.21875 C 166.12888 70.244122 154.15013 57.65876 147.40625 51.09375 C 143.63359 47.421072 137.29499 41.13716 133.3125 37.15625 C 127.21305 31.058592 125.32939 29.5886 121.4375 27.71875 C 118.89645 26.49762 116.67005 25.231935 116.46875 24.90625 C 116.26744 24.580565 115.84175 24.3125 115.53125 24.3125 z M 118.90625 27.875 C 119.37416 27.77799 120.521 28.27151 122.3125 29.25 C 125.47646 30.977866 127.57049 32.76133 131.71875 37.15625 C 133.55762 39.10459 136.1488 41.65646 137.46875 42.84375 C 141.54411 46.508652 151.67441 56.29648 153.3125 58.15625 C 154.16707 59.1261 156.6696 61.81133 158.875 64.09375 C 161.08143 66.37617 163.04223 68.602535 163.21875 69.0625 C 163.3952 69.522803 163.78133 69.90625 164.09375 69.90625 C 165.55918 69.90625 175.36959 84.97083 174.65625 86.125 C 173.81198 87.49301 171.62226 86.67745 170.5 84.59375 C 168.95344 81.721938 164.27597 77.40121 153 68.4375 C 150.32304 66.30844 147.35857 63.73223 146.40625 62.6875 C 145.45387 61.64277 143.71771 59.77787 142.5625 58.5625 C 136.34104 52.017074 125.04077 38.51862 122.03125 34.0625 C 119.19708 29.86622 118.1264 28.036684 118.90625 27.875 z M 7.84375 84.9375 C 8.6655495 84.903008 9.4033009 85.142886 9.8125 85.65625 C 10.141292 86.06881 10.617125 87.68399 10.84375 89.25 C 11.371935 92.898054 13.524047 95.47735 17.53125 97.25 L 20.625 98.625 L 18.78125 104.53125 C 17.175095 109.61798 16.892093 111.46635 16.71875 118.28125 C 16.64764 121.08207 16.62177 123.03621 16.71875 124.75 C 16.73159 124.97688 16.7643 125.18668 16.78125 125.40625 C 16.033399 124.65806 14.83006 123.66248 13.125 122.34375 C 6.5453412 117.25501 0.97835617 111.05005 0.96875 105.53125 C 0.96772 104.49229 1.6477161 102.46765 2.46875 101.03125 C 3.7749623 98.74631 3.9621503 97.68275 3.96875 92.59375 C 3.97493 87.26787 4.0913944 86.69912 5.3125 85.84375 C 6.1161028 85.280853 7.0219505 84.971992 7.84375 84.9375 z M 189.875 87.53125 C 186.96886 87.46702 184.57172 88.35095 182.625 90.1875 C 180.99182 91.72759 180.42958 93.3125 181.53125 93.3125 C 181.84506 93.3125 182.32986 92.955618 182.59375 92.53125 C 182.85733 92.10717 183.8874 91.13389 184.875 90.375 C 186.43073 89.179466 187.10543 89.049913 189.96875 89.375 C 191.78599 89.58133 193.99875 89.915838 194.90625 90.09375 C 196.09374 90.326252 196.5625 90.15405 196.5625 89.53125 C 196.5625 88.95741 195.34059 88.41624 192.9375 87.90625 C 191.85184 87.67585 190.84371 87.552659 189.875 87.53125 z M 192.03125 93.4375 C 190.33125 93.54562 188.30739 94.34639 186.09375 95.8125 C 183.33648 97.63915 182.51938 98.87132 181.5625 102.59375 C 180.94408 104.99927 180.93041 105.25088 181.34375 107.75 C 181.65263 109.62056 182.10429 110.11702 184.78125 111.4375 C 189.31293 113.67238 190.96522 113.80837 195.375 112.28125 L 199.28125 110.9375 L 199.21875 106.46875 C 199.16105 101.01914 197.09919 95.33273 194.71875 94 C 193.93999 93.56395 193.05125 93.372628 192.03125 93.4375 z M 192.0625 94.5 C 193.88077 94.5 195.68024 96.14097 196.4375 98.46875 C 197.03158 100.29684 196.97741 100.36643 194.25 101.625 C 191.30534 102.98393 188.09589 107.23707 187.9375 109.96875 C 187.8945 110.71103 187.69681 111.31228 187.5 111.3125 C 186.73707 111.31322 183.36512 109.39402 182.9375 108.71875 C 182.11532 107.42037 182.3262 103.58907 183.40625 100.21875 C 184.05284 98.20201 189.65324 94.5 192.0625 94.5 z M 197.15625 101.59375 L 197.75 103.1875 C 198.5573 105.31083 198.53334 106.0757 197.625 105.75 C 196.52745 105.35688 194.78125 106.41179 194.78125 107.46875 C 194.78125 107.60425 194.80101 107.69172 194.8125 107.78125 C 194.24048 108.63116 193.5625 109.86964 193.5625 110.40625 C 193.5625 111.67267 193.30094 111.90625 191.78125 111.90625 C 190.21539 111.90625 189.96875 111.6936 189.96875 110.25 C 189.96875 107.65584 191.87597 104.68538 194.625 103.0625 L 197.15625 101.59375 z M 197.625 106.59375 C 198.20114 106.49548 198.375 107.03495 198.375 108.3125 C 198.375 109.9125 198.1625 110.09375 196.5625 110.09375 C 195.57276 110.09375 194.78125 109.83 194.78125 109.5 C 194.78125 109.31872 195.10787 108.58374 195.34375 107.9375 C 195.52902 107.83308 195.76796 107.6656 196.09375 107.4375 C 196.80178 106.94151 197.27931 106.65271 197.625 106.59375 z M 229.9375 112.625 C 230.57184 112.5473 230.57496 112.85616 230.34375 113.8125 C 229.95147 115.43682 227.27168 118.5 226.25 118.5 C 225.86699 118.5 225.14483 118.04625 224.65625 117.46875 C 223.73459 116.37939 223.33998 113.78942 224.0625 113.625 C 224.29004 113.5734 225.14375 113.44933 225.96875 113.375 C 226.79449 113.3007 228.17809 113.04651 229.0625 112.8125 C 229.42753 112.716 229.72605 112.65091 229.9375 112.625 z M 202.875 118.4375 C 211.17605 118.3943 225.375 120.21018 225.375 121.3125 C 225.375 121.70562 224.7 122.83186 223.875 123.8125 C 223.04987 124.79314 222.375 125.85683 222.375 126.1875 C 222.375 126.51798 221.41654 127.63241 220.25 128.65625 C 217.87677 130.73993 216.70328 130.88343 210.40625 129.84375 C 206.91282 129.26705 205.81014 129.31342 203.03125 130.1875 C 198.08196 131.74414 197.85367 131.96627 199.5 133.71875 C 201.21531 135.54423 205.87867 136.76713 209.125 136.21875 L 211.53125 135.8125 L 210.9375 137.5625 C 209.78229 140.8745 207.11578 142.88632 202.0625 144.25 C 193.10426 146.66704 185.32718 145.73328 174.625 141 C 171.50429 139.61976 170.73287 138.77573 171.9375 138.03125 C 172.6263 137.60645 174.375 134.17376 174.375 133.25 C 174.375 132.2096 177.90791 128.17675 180.09375 126.71875 C 181.1738 125.99803 183.29075 124.37463 184.8125 123.09375 C 188.75916 119.77167 193.73524 118.48532 202.875 118.4375 z M 156.75 148 C 157.3329 148.0355 157.49269 148.18119 157.28125 148.40625 C 156.2951 149.45601 146.26654 155.06449 144.65625 155.46875 C 143.83514 155.6746 142.99388 156.08156 142.8125 156.375 C 142.63119 156.66844 142.24801 156.90625 141.9375 156.90625 C 141.0644 156.90625 141.32117 156.28201 143.75 152.40625 C 145.60431 149.44705 146.29069 148.80358 147.71875 148.71875 C 148.67422 148.66205 151.34583 148.41823 153.65625 148.1875 C 155.13661 148.03967 156.1671 147.96452 156.75 148 z M 113.1875 154.78125 C 113.61265 154.79025 113.89239 154.8338 114 154.875 C 114.62844 155.1162 114.57711 156.03032 113.71875 159.5 C 113.3215 161.10616 112.98736 162.3814 112.6875 163.4375 L 111.71875 163.5625 C 111.51685 163.5512 111.20415 163.5944 110.78125 163.6875 C 108.27242 164.23974 99.32802 165.83741 94.875 166.53125 C 92.565607 166.89131 88.441012 167.21952 85.71875 167.28125 C 80.244367 167.40509 80.243333 167.3988 81.71875 163.5 C 82.155723 162.34512 82.512645 160.94214 82.53125 160.375 C 82.55153 159.75637 82.88282 159.46738 83.375 159.65625 C 83.825965 159.82905 85.924688 159.44578 88.03125 158.8125 C 95.578115 156.54378 100.25765 155.61635 106.6875 155.09375 C 109.38171 154.87481 111.91206 154.75443 113.1875 154.78125 z M 33.75 163.75 C 34.22431 163.757 35.021476 164.26983 35.65625 165 C 36.395341 165.84997 37.874551 166.78679 38.8125 167.15625 C 38.80115 167.22135 38.78125 167.2738 38.78125 167.34375 C 38.78125 167.80671 37.797352 169.90552 36.59375 172 C 35.390148 174.09376 33.971246 176.60375 33.46875 177.59375 C 32.966305 178.58375 31.925691 180.35088 31.15625 181.5 C 29.067222 184.62041 29.256558 189.79922 31.59375 193.8125 C 32.555396 195.46202 33.941471 197.86918 34.65625 199.1875 C 35.370792 200.50568 37.800469 204.32769 40.0625 207.65625 C 42.324531 210.98553 44.15625 213.98605 44.15625 214.34375 C 44.15625 215.30567 48.965241 219.6308 49.78125 219.40625 C 50.300786 219.26322 50.282192 219.39585 49.78125 219.90625 C 49.273657 220.42361 48.325142 220.36523 45.9375 219.65625 C 41.822189 218.43441 40.203602 217.32646 39 214.9375 C 38.461519 213.8683 37.272902 212.20875 36.34375 211.21875 C 34.703597 209.47109 33.045618 206.35094 27.25 196.6875 C 25.716926 194.13006 24.535821 192.2074 24.46875 191.78125 C 24.42803 191.13419 25.194178 189.3762 25.3125 187.875 C 25.430904 186.3738 26.455012 183.18821 27.59375 180.78125 C 28.732488 178.37429 29.856087 175.31976 30.09375 174 C 30.331588 172.68024 31.029306 170.29814 31.65625 168.6875 C 32.193569 167.30757 32.563582 166.05501 32.5625 165.625 C 32.562477 165.616 32.562848 165.60185 32.5625 165.59375 C 32.921064 164.75365 33.345383 163.86458 33.5625 163.78125 C 33.6154 163.76095 33.682241 163.7488 33.75 163.75 z M 112.5 164.0625 C 111.53602 167.25323 110.71607 168.29275 108.15625 171 C 106.29576 172.96704 104.78125 174.77455 104.78125 175 C 104.78125 175.22536 103.58636 176.83119 102.15625 178.59375 C 100.72614 180.35703 99.094666 183.08881 98.5 184.65625 C 97.635136 186.93653 97.124323 187.5 96 187.5 C 93.259998 187.5 91.431614 182.2786 93.0625 179.125 C 93.591766 178.10188 93.825173 176.93406 93.59375 176.53125 C 93.362275 176.12844 93.399087 175.98697 93.65625 176.21875 C 94.211204 176.71915 94.774343 176.13425 97.5625 172.3125 C 98.717711 170.72994 100.0675 168.92352 100.5625 168.28125 C 101.12157 167.55621 103.24696 166.66326 106.1875 165.9375 C 108.79136 165.29454 111.38406 164.48579 111.75 164.09375 L 112.5 164.0625 z "
         transform="matrix(0,9.7125097e-4,0.00138889,0,0.40191353,0.375408)"
         id="path2991" /><path
         style="fill:#ac9d93;stroke:#000000;stroke-width:0.0545339;stroke-miterlimit:4;stroke-opacity:1;stroke-dasharray:none;stroke-dashoffset:0"
         d="m 60.669799,221.5445 c -0.449904,-0.25734 -2.045021,-0.63319 -3.544703,-0.83523 -3.763008,-0.50696 -9.861752,-4.6213 -11.493595,-7.75382 -0.651353,-1.25035 -2.531561,-4.19518 -4.17824,-6.54407 -1.64668,-2.34889 -4.557213,-6.96135 -6.467852,-10.24993 -3.216791,-5.5367 -3.474532,-6.22282 -3.482567,-9.27076 -0.0076,-2.86973 0.243307,-3.67591 1.957645,-6.2909 2.104415,-3.21001 6.164787,-10.98736 6.71426,-12.86069 0.248191,-0.84617 0.0074,-1.28435 -0.944034,-1.71785 -1.432027,-0.65248 -6.423226,-6.22146 -8.928178,-9.96171 -3.57099,-5.332 -8.355301,-15.22627 -10.020417,-20.72288 -1.522855,-5.027 -1.766498,-6.72472 -1.995701,-13.90615 -0.22337,-6.99863 -0.096,-8.88895 0.88185,-13.08813 1.926712,-8.27384 5.646016,-16.192103 9.016235,-19.19523 9.68887,-8.633545 11.438638,-9.343178 24.824429,-10.067759 12.936336,-0.700254 18.21381,-0.130135 25.626226,2.768369 3.132384,1.22487 7.7386,2.583696 10.236045,3.019613 2.497446,0.435922 4.739056,0.915112 4.981361,1.064862 0.242305,0.149755 4.470574,0.786357 9.396167,1.41468 4.92558,0.628318 14.23176,1.975392 20.68039,2.993496 6.44863,1.018105 14.42422,2.257895 17.72352,2.755096 3.2993,0.497197 6.98034,1.332498 8.18008,1.856231 l 2.18136,0.952232 -3.81738,3.623538 c -4.16639,3.954832 -4.19301,4.699782 -0.16852,4.716482 1.10706,0.004 2.16715,0.25802 2.35574,0.56317 0.1886,0.30515 -0.51837,1.96162 -1.57104,3.68104 -2.16859,3.54215 -1.99975,3.83566 2.24685,3.90589 1.27473,0.0211 2.31769,0.17081 2.31769,0.33273 0,0.16191 -0.4908,1.25645 -1.09067,2.4323 -0.59988,1.17584 -1.09068,2.39308 -1.09068,2.70496 0,0.31189 1.09475,0.56707 2.43278,0.56707 1.78969,0 2.72253,0.31101 3.52887,1.17652 0.94068,1.00969 1.14297,1.0544 1.42659,0.31528 0.52243,-1.36143 -0.6839,-3.00596 -2.49715,-3.40421 -1.40988,-0.30966 -1.60168,-0.54393 -1.26415,-1.54401 0.21885,-0.64843 0.41258,-1.7915 0.43051,-2.54016 0.0275,-1.14842 -0.30838,-1.44116 -2.14877,-1.87273 -1.19974,-0.28134 -2.25437,-0.55983 -2.34362,-0.61886 -0.0893,-0.059 0.51978,-1.49801 1.35339,-3.19771 1.73435,-3.53627 1.43772,-4.10597 -2.14546,-4.1206 -1.12477,-0.004 -2.04503,-0.22966 -2.04503,-0.50015 0,-0.27048 1.53377,-1.62763 3.40837,-3.015887 1.87461,-1.388247 4.0277,-3.428033 4.78465,-4.532847 0.75695,-1.104818 2.78261,-3.100797 4.50147,-4.435514 l 3.12518,-2.426758 2.14696,1.725343 c 2.27722,1.830027 3.30159,2.15549 3.30159,1.048981 0,-0.94192 -6.64184,-7.120382 -10.90677,-10.145846 -1.94959,-1.383001 -5.3766,-3.960142 -7.61558,-5.726981 -2.23897,-1.766838 -6.21581,-4.654697 -8.83742,-6.417462 -3.5729,-2.402416 -5.14461,-3.854288 -6.27622,-5.797683 -0.83031,-1.425961 -3.92272,-5.136485 -6.87202,-8.245609 C 118.46522,43.381455 111.94923,33.801774 105.40745,19.933204 l -2.68887,-5.700401 2.01618,0.353019 c 2.54751,0.446049 15.1547,4.719246 17.61605,5.970943 20.16634,10.255432 43.07159,35.154927 53.67469,58.347877 1.67384,3.661313 3.21247,5.667659 3.85425,5.025871 0.16484,-0.164834 -0.0863,-1.046232 -0.55818,-1.958661 -0.82135,-1.588327 -0.8004,-1.720986 0.49202,-3.115532 l 1.34991,-1.456573 8.60219,0.254395 c 13.60576,0.402362 15.74252,1.600504 23.52241,13.189688 l 4.36105,6.496367 -1.38291,1.087799 c -2.17029,1.707154 -4.53933,5.303374 -4.5194,6.860504 l 0.0182,1.41786 1.09447,-1.36335 c 3.09214,-3.8518 5.51932,-6.544064 5.89972,-6.544064 0.23424,0 1.8771,1.760924 3.65078,3.913164 1.77369,2.15224 4.01244,4.70306 4.975,5.66847 l 1.75012,1.7553 -2.56813,1.08216 c -5.89748,2.48507 -6.13765,2.50055 -10.6965,0.68958 -2.29359,-0.9111 -4.53187,-1.65656 -4.97397,-1.65656 -1.52051,0 -0.80078,1.14757 1.24121,1.97903 5.53549,2.25396 9.37176,4.23171 9.65869,4.97944 0.27732,0.72268 -0.22519,0.76672 -3.92046,0.3436 -6.69474,-0.76657 -21.72553,-0.59819 -25.7247,0.28818 -2.1355,0.47331 -4.60914,1.53154 -6.37365,2.7267 -4.48535,3.03803 -11.03662,9.19009 -12.37468,11.62061 -0.6662,1.21013 -1.53142,2.7816 -1.92271,3.49215 -0.9425,1.7115 -1.35184,1.64209 -3.90183,-0.66167 -1.93284,-1.74621 -3.29416,-2.07678 -3.29416,-0.79992 0,0.2498 1.10432,1.68244 2.45403,3.18365 1.34971,1.5012 2.45402,2.83466 2.45402,2.96325 0,0.12858 -2.26997,1.38425 -5.04438,2.79038 -4.36076,2.21013 -5.85173,2.66644 -11.00171,3.36713 -3.27653,0.44579 -6.02478,0.81052 -6.10723,0.81052 -0.0825,0 0.20566,-0.85102 0.64026,-1.89117 0.8675,-2.07621 1.02231,-3.56222 0.37111,-3.56222 -0.23049,0 -1.64156,2.21091 -3.1357,4.91312 -1.49414,2.70221 -4.73058,8.03972 -7.19208,11.86112 -2.4615,3.82141 -5.16092,8.15285 -5.99873,9.62543 -0.8378,1.47258 -3.90762,6.29109 -6.82182,10.70781 -5.38246,8.15755 -8.40466,11.42572 -12.97031,14.02593 -1.34971,0.76869 -3.12001,2.00837 -3.93399,2.75485 -1.23308,1.13085 -1.61971,1.24128 -2.31769,0.66201 -1.20771,-1.00231 -1.11515,-1.2901 1.81095,-5.63072 1.45677,-2.16099 2.82302,-4.48124 3.03611,-5.15609 0.65145,-2.06313 -1.01051,-1.46255 -2.70029,0.97579 -0.83959,1.21155 -2.63814,2.95301 -3.99675,3.86994 -2.32586,1.5697 -2.51187,1.61015 -3.183,0.69232 -1.063617,-1.45457 -0.842569,-4.47794 0.5803,-7.93716 1.23749,-3.00854 7.31362,-10.99919 8.79655,-11.56825 1.01587,-0.38982 6.26894,-7.94051 6.27696,-9.02241 0.003,-0.47784 0.49145,-2.83203 1.08424,-5.23152 1.14006,-4.61473 1.33677,-8.84305 0.59086,-12.70075 -0.90765,-4.69421 -1.64229,-3.8769 -2.45689,2.73336 l -0.62347,5.05933 -2.70896,0.37576 c -1.48992,0.20667 -5.39071,0.66475 -8.6684,1.01795 -3.2777,0.3532 -7.834362,1.09 -10.125926,1.63732 -2.291563,0.54733 -5.402826,1.15915 -6.913922,1.3596 l -2.747445,0.36446 -0.384616,-5.74177 c -0.788206,-11.76679 -4.188176,-23.01108 -6.048,-20.00181 -0.187772,0.30381 0.185949,1.96028 0.830485,3.68103 1.775302,4.73961 3.24582,12.45677 3.255369,17.0839 0.01,4.83698 -1.53393,11.44801 -3.681104,15.76246 -2.472698,4.96853 -4.888075,6.86932 -15.942554,12.54601 l -10.088771,5.18077 0.06211,3.11829 c 0.05055,2.53768 0.531255,4.0636 2.581706,8.19519 1.434197,2.88985 3.639204,6.27688 5.118608,7.86249 2.461883,2.63864 2.843589,2.83744 7.234395,3.76771 3.739367,0.79226 4.933294,1.29841 6.176596,2.61848 1.310237,1.39115 1.486872,1.92605 1.178609,3.56923 -0.199436,1.06307 -0.618033,2.41012 -0.930223,2.99346 -0.542422,1.01351 -0.599748,0.99927 -1.291423,-0.32084 -1.126631,-2.15025 -3.142295,-3.17371 -6.250495,-3.17371 -3.195974,0 -3.510181,1.01353 -0.551854,1.78011 2.164331,0.56084 4.940824,2.51756 4.940824,3.48204 0,0.76542 -4.839372,2.38221 -7.052052,2.35601 -0.770386,-0.009 -1.768806,-0.22713 -2.218711,-0.48447 z m 135.536231,-109.15776 3.67909,-1.13635 -0.34364,-4.47062 c -0.68056,-8.853759 -3.03744,-13.434214 -6.91262,-13.434214 -3.72894,0 -8.64489,2.686318 -10.11366,5.526602 -1.42485,2.755362 -1.99635,6.706152 -1.32873,9.185512 0.55378,2.05659 0.92753,2.41897 3.98818,3.86691 4.00751,1.89588 6.10505,1.98375 11.03138,0.46216 l 0,0 z m -11.60977,-21.00652 2.17539,-1.965331 3.61676,0.421122 c 5.45897,0.63562 6.34346,0.599486 6.34346,-0.259172 0,-1.913033 -7.94917,-2.910769 -11.47004,-1.439657 -2.08995,0.873235 -4.61746,3.320029 -4.61746,4.469996 0,1.319023 1.72745,0.782698 3.95189,-1.226958 l 0,0 z m -8.50606,-4.866392 c 0.14717,-0.383504 -0.27112,-1.764025 -0.92953,-3.067837 C 170.70753,74.62769 163.03711,65.84407 140.46913,43.71971 127.9981,31.493824 126.37176,30.092547 121.32314,27.223206 c -3.0345,-1.724634 -5.77547,-3.135699 -6.09103,-3.135699 -0.95418,0 -0.64943,1.115964 0.76319,2.794771 0.73532,0.873878 2.12083,3.059589 3.07892,4.857135 4.37181,8.202367 25.07452,30.99176 37.28469,41.04273 6.76597,5.569493 12.10312,10.852797 14.53702,14.390345 l 1.63782,2.380503 1.64445,-1.170946 c 0.90444,-0.644024 1.76484,-1.484718 1.912,-1.868217 l 0,0 z"
         id="path3859"
         inkscape:connector-curvature="0"
         transform="matrix(0,9.7125097e-4,0.00138889,0,0.40191353,0.375408)" /><path
         style="fill:#ac9d93;stroke:#000000;stroke-width:0.0545339;stroke-miterlimit:4;stroke-opacity:1;stroke-dasharray:none;stroke-dashoffset:0"
         d="m 173.55497,70.62722 c -8.06756,-14.471518 -18.97138,-27.534702 -34.23809,-41.018525 -2.78435,-2.459185 -5.71457,-4.719177 -6.51159,-5.022203 -1.57333,-0.598182 -9.14218,-5.137655 -10.58283,-6.34714 -0.48876,-0.410332 -1.04453,-1.720847 -1.23505,-2.912256 -0.19051,-1.191409 -1.20086,-3.35556 -2.24521,-4.809224 -1.91141,-2.6605515 -3.5385,-6.4600753 -3.5385,-8.2629983 0,-0.9325126 0.0843,-0.9326893 2.04502,-0.00429 1.12476,0.5325871 5.16437,1.9998795 8.9769,3.2606499 4.97898,1.6465028 8.31822,3.1649877 11.85274,5.3899034 6.18777,3.895097 17.43221,13.080003 20.40469,16.667362 1.24105,1.497765 3.75312,4.333444 5.58238,6.301508 4.7929,5.156572 9.50461,12.463587 11.66338,18.087783 0.62095,1.61775 2.32908,5.272688 3.79585,8.122084 1.46676,2.849396 3.31748,7.201398 4.11271,9.671118 0.79523,2.469715 1.67414,4.631471 1.95313,4.803896 1.19624,0.739316 0.28878,1.2108 -2.90111,1.507323 -1.8746,0.174257 -3.89917,0.453323 -4.49904,0.620148 -0.92503,0.257253 -1.62904,-0.66239 -4.63538,-6.055144 z"
         id="path3861"
         inkscape:connector-curvature="0"
         transform="matrix(0,9.7125097e-4,0.00138889,0,0.40191353,0.375408)" /><path
         style="fill:#ac9d93;stroke:#000000;stroke-width:0.01363347;stroke-miterlimit:4;stroke-opacity:1;stroke-dasharray:none;stroke-dashoffset:0"
         d="m 95.203557,187.16038 c -1.562796,-0.71381 -2.571199,-2.8022 -2.575899,-5.33466 -0.0022,-1.19101 0.03988,-1.39934 0.523281,-2.59036 0.289127,-0.71235 0.55435,-1.61242 0.589384,-2.00017 0.0542,-0.5999 0.111324,-0.71694 0.383203,-0.78518 0.517684,-0.12993 1.172409,-0.89777 4.035609,-4.73282 2.680665,-3.59055 2.722675,-3.63813 3.627455,-4.10719 1.07439,-0.55701 2.12745,-0.90815 5.82343,-1.94183 1.49968,-0.41943 3.0562,-0.91268 3.45893,-1.09611 0.40272,-0.18344 0.8462,-0.33352 0.98549,-0.33352 0.23778,0 0.23179,0.0604 -0.0981,0.98843 -0.71257,2.00483 -1.28769,2.79877 -5.07703,7.00869 -1.00174,1.11292 -1.99912,2.33595 -2.21639,2.71786 -0.21728,0.38191 -1.17684,1.71225 -2.13237,2.95632 -2.00572,2.61139 -3.143767,4.44448 -4.121169,6.63807 -0.901577,2.02342 -1.17612,2.45034 -1.7226,2.67868 -0.58779,0.24559 -0.823665,0.23506 -1.483274,-0.0662 l 0,0 z"
         id="path3863"
         inkscape:connector-curvature="0"
         transform="matrix(0,9.7125097e-4,0.00138889,0,0.40191353,0.375408)" /><path
         style="fill:#ac9d93;stroke:#000000;stroke-width:0.0545339;stroke-miterlimit:4;stroke-opacity:1;stroke-dasharray:none;stroke-dashoffset:0"
         d="m 44.885252,218.89115 c -4.093131,-1.41279 -7.121131,-5.21729 -15.729631,-19.76337 l -4.421842,-7.47173 1.029037,-4.0235 c 0.565971,-2.21292 1.638585,-5.47651 2.383587,-7.25242 0.745002,-1.7759 2.008043,-5.43754 2.806757,-8.13697 1.694628,-5.72736 2.493807,-7.90741 2.898756,-7.90741 0.160253,0 1.173442,0.65564 2.25153,1.45697 1.078089,0.80134 2.03758,1.51272 2.132203,1.58084 0.228715,0.16465 -2.430876,5.35169 -5.852226,11.41367 -2.502854,4.43458 -2.770199,5.23402 -2.771324,8.28707 -0.001,2.86631 0.32332,4.00623 2.137761,7.51255 3.727139,7.20252 11.663837,19.46292 14.547181,22.4721 1.529023,1.59575 2.510633,2.89336 2.181356,2.88357 -0.329278,-0.01 -1.946193,-0.48291 -3.593145,-1.05137 l 0,0 z"
         id="path3865"
         inkscape:connector-curvature="0"
         transform="matrix(0,9.7125097e-4,0.00138889,0,0.40191353,0.375408)" /><path
         style="fill:#ff5555;stroke:#000000;stroke-width:0.0545339;stroke-miterlimit:4;stroke-opacity:1;stroke-dasharray:none;stroke-dashoffset:0"
         d="m 168.97312,82.194405 c -3.06221,-3.381058 -16.10561,-14.884378 -20.5903,-18.159139 -1.26028,-0.920268 -15.67368,-17.098978 -20.4424,-22.946127 -4.71278,-5.778559 -9.0417,-12.220886 -8.36368,-12.446891 1.52848,-0.509493 6.90842,3.992701 20.43276,17.099119 8.11616,7.865355 16.8181,16.662118 19.33766,19.548361 2.51956,2.886243 4.75009,5.247715 4.95673,5.247715 0.20664,0 1.73602,1.90187 3.39861,4.226378 7.86075,10.990314 8.6442,15.571925 1.27062,7.430584 z"
         id="path3867"
         inkscape:connector-curvature="0"
         transform="matrix(0,9.7125097e-4,0.00138889,0,0.40191353,0.375408)" /><path
         style="fill:#e3dbdb;stroke:#000000;stroke-width:0.0545339;stroke-miterlimit:4;stroke-opacity:1;stroke-dasharray:none;stroke-dashoffset:0"
         d="m 186.94108,144.69549 c -4.83677,-0.96204 -15.27099,-5.05755 -14.89322,-5.8457 3.97317,-8.28942 5.87727,-10.51451 13.31624,-15.56103 5.06634,-3.43696 8.46812,-4.25919 17.66855,-4.27059 8.78231,-0.0109 20.51052,1.30033 21.62821,2.41801 0.55725,0.55725 -4.25803,6.91883 -5.86679,7.75075 -1.3558,0.70112 -2.7954,0.78964 -8.02709,0.49358 -5.74569,-0.32513 -6.68452,-0.24357 -9.51069,0.82626 -1.72463,0.65285 -3.13569,1.42649 -3.13569,1.7192 0,0.98703 2.67155,3.01765 4.81502,3.65985 1.17054,0.3507 3.38814,0.63764 4.92801,0.63764 1.53987,0 2.79976,0.20911 2.79976,0.46469 0,1.26421 -2.7272,4.24639 -4.90805,5.36694 -4.71966,2.42501 -13.12937,3.47114 -18.81426,2.3404 l 0,0 z"
         id="path3869"
         inkscape:connector-curvature="0"
         transform="matrix(0,9.7125097e-4,0.00138889,0,0.40191353,0.375408)" /><path
         style="fill:#e3dbdb;stroke:#000000;stroke-width:0.0545339;stroke-miterlimit:4;stroke-opacity:1;stroke-dasharray:none;stroke-dashoffset:0"
         d="m 81.729073,166.57915 c -0.211334,-0.34195 -0.0068,-1.90686 0.45461,-3.47758 l 0.838854,-2.85587 8.808501,-2.10986 c 8.197522,-1.96352 21.330372,-3.68428 22.116762,-2.89789 0.1764,0.1764 -0.0924,2.00665 -0.59739,4.06722 l -0.91812,3.74649 -9.91739,1.72818 c -11.438092,1.99318 -20.197389,2.75142 -20.785827,1.79931 z"
         id="path3871"
         inkscape:connector-curvature="0"
         transform="matrix(0,9.7125097e-4,0.00138889,0,0.40191353,0.375408)" /><path
         style="fill:#e3dbdb;stroke:#000000;stroke-width:0.01363347;stroke-miterlimit:4;stroke-opacity:1;stroke-dasharray:none;stroke-dashoffset:0"
         d="m 141.65274,156.69499 c -0.11978,-0.19381 0.30522,-1.08868 1.29573,-2.72827 1.83123,-3.03123 2.91118,-4.44256 3.71916,-4.86038 0.26468,-0.13687 1.83828,-0.33483 4.77879,-0.60118 4.74481,-0.42979 5.67934,-0.47353 5.67934,-0.26582 0,0.55349 -9.66262,6.01186 -12.66689,7.15546 -0.79183,0.30141 -1.48349,0.66954 -1.80683,0.96166 -0.52897,0.47789 -0.84665,0.58551 -0.9993,0.33853 z"
         id="path3873"
         inkscape:connector-curvature="0"
         transform="matrix(0,9.7125097e-4,0.00138889,0,0.40191353,0.375408)" /><path
         style="fill:#ffb380;stroke:#000000;stroke-width:0.0545339;stroke-miterlimit:4;stroke-opacity:1;stroke-dasharray:none;stroke-dashoffset:0"
         d="m 225.16102,117.39766 c -0.82148,-1.02679 -1.32598,-3.01074 -0.83737,-3.29299 1.05586,-0.60993 5.6119,-0.9675 5.6119,-0.44043 0,0.68303 -3.21811,4.4151 -3.80709,4.4151 -0.23214,0 -0.66749,-0.30676 -0.96744,-0.68168 z"
         id="path3875"
         inkscape:connector-curvature="0"
         transform="matrix(0,9.7125097e-4,0.00138889,0,0.40191353,0.375408)" /><path
         style="fill:#ffffff;stroke:#000000;stroke-width:0.0545339;stroke-miterlimit:4;stroke-opacity:1;stroke-dasharray:none;stroke-dashoffset:0"
         d="M 12.426181,121.25829 C 5.1729718,114.97197 1.5831708,109.96791 1.5504647,106.09794 c -0.00929,-1.09917 0.5238194,-3.2255 1.1846861,-4.72518 0.843807,-1.914825 1.2743183,-4.188068 1.4458837,-7.634748 0.3171968,-6.372356 0.5150901,-7.209755 1.8759117,-7.938045 2.1991306,-1.176939 3.5879432,-0.245193 4.3079658,2.890189 0.98036,4.269035 2.655217,6.477148 6.445083,8.497126 l 3.306987,1.762606 -0.791442,2.574782 c -1.929931,6.2786 -2.453701,9.2069 -2.832825,15.83776 l -0.40423,7.06997 -3.662304,-3.17411 z"
         id="path3878"
         inkscape:connector-curvature="0"
         transform="matrix(0,9.7125097e-4,0.00138889,0,0.40191353,0.375408)" /><path
         style="fill:#ffffff;stroke:#000000;stroke-width:0.0545339;stroke-miterlimit:4;stroke-opacity:1;stroke-dasharray:none;stroke-dashoffset:0"
         d="m 185.52926,109.99321 c -2.45033,-1.18971 -3.03202,-2.49764 -2.59456,-5.83389 0.3667,-2.79657 1.38533,-4.914145 2.9859,-6.207214 1.70286,-1.375708 4.9327,-2.850747 6.24217,-2.850747 1.41021,0 4.16024,2.730622 4.16024,4.130882 0,0.426341 -1.10299,1.461689 -2.45109,2.300769 -2.77706,1.72848 -5.40877,5.00926 -6.08825,7.58981 l -0.45875,1.74224 -1.79566,-0.87185 z"
         id="path3880"
         inkscape:connector-curvature="0"
         transform="matrix(0,9.7125097e-4,0.00138889,0,0.40191353,0.375408)" /><path
         style="fill:#ffffff;stroke:#000000;stroke-width:0.00964032;stroke-miterlimit:4;stroke-opacity:1;stroke-dasharray:none;stroke-dashoffset:0"
         d="m 195.39471,109.82322 c -0.20547,-0.0732 -0.40762,-0.16894 -0.44923,-0.21267 -0.0416,-0.0437 0.0509,-0.42657 0.20557,-0.85074 l 0.28122,-0.77123 0.88101,-0.56766 c 1.71815,-1.10705 1.93188,-0.99554 1.92241,1.00302 -0.005,0.98499 -0.11821,1.30006 -0.5188,1.43971 -0.41128,0.14337 -1.87818,0.11783 -2.32218,-0.0404 z"
         id="path3882"
         inkscape:connector-curvature="0"
         transform="matrix(0,9.7125097e-4,0.00138889,0,0.40191353,0.375408)" /><path
         style="fill:#000000;stroke:none"
         d="m 190.77689,111.80146 c -0.35434,-0.0909 -0.51091,-0.20253 -0.63374,-0.45197 -0.106,-0.21527 -0.11337,-0.28524 -0.11311,-1.0738 2.9e-4,-0.87673 0.0414,-1.16 0.27253,-1.87987 0.62314,-1.94044 2.03783,-3.77548 3.84159,-4.98303 0.6575,-0.44017 2.96487,-1.76732 3.00204,-1.72671 0.0406,0.0443 0.68286,1.77849 0.86407,2.33301 0.3581,1.09582 0.37782,1.67659 0.0596,1.75644 -0.0624,0.0157 -0.25296,-0.007 -0.4234,-0.0494 -0.58714,-0.14749 -1.14662,-0.0629 -1.76921,0.26755 -0.35715,0.18954 -0.85062,0.65953 -0.97852,0.93194 -0.0498,0.10605 -0.10368,0.35549 -0.11975,0.55432 -0.0265,0.32782 -0.0511,0.39521 -0.26415,0.72303 -0.27622,0.42501 -0.75503,1.3676 -0.86923,1.71115 -0.0441,0.13256 -0.0991,0.47469 -0.12232,0.76028 -0.0633,0.77835 -0.23355,1.01805 -0.80869,1.13843 -0.3287,0.0688 -1.65543,0.061 -1.93774,-0.0114 z"
         id="path3884"
         inkscape:connector-curvature="0"
         transform="matrix(0,9.7125097e-4,0.00138889,0,0.40191353,0.375408)" /></g></g></svg>