<?xml version="1.0" encoding="UTF-8" standalone="no"?>
<!-- Created with Inkscape (http://www.inkscape.org/) -->

<svg
   xmlns:dc="http://purl.org/dc/elements/1.1/"
   xmlns:cc="http://creativecommons.org/ns#"
   xmlns:rdf="http://www.w3.org/1999/02/22-rdf-syntax-ns#"
   xmlns:svg="http://www.w3.org/2000/svg"
   xmlns="http://www.w3.org/2000/svg"
   xmlns:sodipodi="http://sodipodi.sourceforge.net/DTD/sodipodi-0.dtd"
   xmlns:inkscape="http://www.inkscape.org/namespaces/inkscape"
   width="150mm"
   height="100mm"
   viewBox="0 0 150.00001 100"
   version="1.1"
   id="svg8"
   inkscape:version="0.92.4 (5da689c313, 2019-01-14)"
   sodipodi:docname="meme.svg">
  <defs
     id="defs2">
    <inkscape:perspective
       sodipodi:type="inkscape:persp3d"
       inkscape:vp_x="155.60636 : 219.49713 : 1"
       inkscape:vp_y="0 : 627.166 : 0"
       inkscape:vp_z="265.61761 : 202.41917 : 1"
       inkscape:persp3d-origin="189.61071 : 159.37374 : 1"
       id="perspective881" />
    <inkscape:perspective
       sodipodi:type="inkscape:persp3d"
       inkscape:vp_x="93.182971 : -115.49583 : 1"
       inkscape:vp_y="0 : 435.23656 : 0"
       inkscape:vp_z="169.52786 : -127.34748 : 1"
       inkscape:persp3d-origin="116.7811 : -157.21988 : 1"
       id="perspective881-5" />
    <inkscape:perspective
       sodipodi:type="inkscape:persp3d"
       inkscape:vp_x="-44.405333 : -3.8542975 : 1"
       inkscape:vp_y="-829.50301 : 5.0792406e-14 : 0"
       inkscape:vp_z="-21.817661 : 141.64889 : 1"
       inkscape:persp3d-origin="35.115165 : 41.120572 : 1"
       id="perspective881-3" />
  </defs>
  <sodipodi:namedview
     id="base"
     pagecolor="#ffffff"
     bordercolor="#666666"
     borderopacity="1.0"
     inkscape:pageopacity="0.0"
     inkscape:pageshadow="2"
     inkscape:zoom="0.7"
     inkscape:cx="77.897313"
     inkscape:cy="-72.514553"
     inkscape:document-units="mm"
     inkscape:current-layer="layer5"
     showgrid="false"
     inkscape:window-width="1920"
     inkscape:window-height="1055"
     inkscape:window-x="1920"
     inkscape:window-y="0"
     inkscape:window-maximized="1"
     fit-margin-top="0"
     fit-margin-left="0"
     fit-margin-right="0"
     fit-margin-bottom="0" />
  <metadata
     id="metadata5">
    <rdf:RDF>
      <cc:Work
         rdf:about="">
        <dc:format>image/svg+xml</dc:format>
        <dc:type
           rdf:resource="http://purl.org/dc/dcmitype/StillImage" />
        <dc:title></dc:title>
      </cc:Work>
    </rdf:RDF>
  </metadata>
  <g
     inkscape:groupmode="layer"
     id="layer7"
     inkscape:label="Layer 7"
     style="display:none"
     transform="translate(-38.683743,-5.4882769)">
    <path
       id="path1171"
       style="display:inline;fill:none;fill-opacity:1;stroke:#000000;stroke-width:0.16126378;stroke-linecap:butt;stroke-linejoin:miter;stroke-opacity:1"
       d="m 49.548228,71.095701 3.988582,0.587305 3.988582,0.587306 3.693743,-1.61557 3.995961,-0.534854 3.988591,0.587302 m -11.678295,1.563122 3.6722,1.663958 3.988591,0.5873 3.995962,-0.53486 m -11.656753,-1.716398 3.988592,0.587302 3.98859,0.587296 3.693743,-1.615566 3.995952,-0.534849 3.988591,0.587302 m -11.678286,1.563113 3.672191,1.66396 3.988591,0.5873 3.995953,-0.53485 m -11.656735,-1.71641 3.693743,-1.615566 3.693733,-1.615566 2.276349,-3.327464 3.105331,-2.571112 3.693742,-1.615571 m -9.075422,7.514147 3.995961,-0.534854 3.693733,-1.615566 3.105339,-2.571117 m -10.795033,4.721537 3.995961,-0.534854 3.995952,-0.534849 3.105339,-2.571116 3.693743,-1.615571 3.995961,-0.534853 m -10.795043,4.72154 3.988592,0.587303 3.995962,-0.534851 3.693742,-1.615571 m -11.678296,1.563119 3.988592,0.587303 3.988591,0.587302 3.693742,-1.615571 3.995949,-0.534847 3.988593,0.587302 m -11.678284,1.563116 3.672191,1.663958 3.98859,0.587301 3.995953,-0.534847 m -35.013306,1.409818 3.672191,1.66396 3.672191,1.66396 3.995962,-0.53485 3.988591,0.5873 3.6722,1.66395 m -11.656753,-1.7164 3.071294,2.61168 3.672201,1.66396 3.988582,0.5873 m -10.732077,-4.86294 3.988591,0.5873 3.988591,0.5873 3.693742,-1.61557 3.995953,-0.53485 3.988591,0.58731 m -11.678286,1.56311 3.672191,1.66396 3.988592,0.5873 3.995953,-0.53485 m -11.656736,-1.71641 3.995962,-0.53485 3.995962,-0.53485 3.10533,-2.57112 3.693725,-1.615562 3.99596,-0.534852 m -10.795015,4.721534 3.988582,0.5873 3.995953,-0.53485 3.693743,-1.61556 m -34.991766,-1.86971 3.988592,0.58731 3.988582,0.5873 3.693742,-1.615569 3.995952,-0.53485 3.988591,0.587302 m -11.678285,1.563117 3.67219,1.66396 3.988591,0.5873 3.995962,-0.53485 m -11.656743,-1.71641 3.98859,0.5873 3.988582,0.58731 3.693742,-1.61557 3.995962,-0.53486 3.988591,0.58731 m -11.678295,1.56312 3.6722,1.66395 3.988591,0.5873 3.995953,-0.53485 m -11.656744,-1.7164 3.693742,-1.61557 3.693733,-1.615571 2.276349,-3.327464 3.105339,-2.571118 3.693724,-1.615567 m -9.075412,7.514149 3.995962,-0.534851 3.69374,-1.61557 3.10533,-2.571115 m -10.795032,4.721536 3.995962,-0.534851 3.99596,-0.534851 3.10534,-2.571119 3.693733,-1.615566 3.99596,-0.534853 m -10.795033,4.721538 3.988593,0.587302 3.99595,-0.534848 3.69374,-1.61557 m -11.678283,1.563116 3.988593,0.587302 3.98858,0.587305 3.69373,-1.615566 3.99598,-0.534857 3.98858,0.587306 m -11.67829,1.563117 3.6722,1.663956 3.98859,0.5873 3.99596,-0.53485 m -35.01332,1.40983 3.6722,1.66395 3.672191,1.66396 3.995963,-0.53485 3.988573,0.5873 3.672203,1.66396 m -11.656739,-1.71641 3.071295,2.61168 3.672191,1.66396 3.98859,0.5873 m -10.732076,-4.86294 3.988592,0.5873 3.988574,0.58731 3.693743,-1.61557 3.99597,-0.53486 3.98859,0.58731 m -11.678303,1.56312 3.672203,1.66395 3.98859,0.5873 3.99596,-0.53485 m -11.656753,-1.7164 3.995963,-0.53486 3.99597,-0.53485 3.10534,-2.57112 3.69373,-1.61556 3.99596,-0.53485 m -10.79503,4.72153 3.98859,0.5873 3.99596,-0.53486 3.69373,-1.61556 m -34.99177,-1.86969 3.693742,-1.61557 3.693733,-1.615571 2.276349,-3.327464 3.105339,-2.571118 3.693724,-1.615567 m -9.075412,7.514149 3.995962,-0.534851 3.69374,-1.61557 3.10533,-2.571115 m -10.795032,4.721536 3.693742,-1.61557 3.69374,-1.61557 2.27634,-3.32746 3.105343,-2.571119 3.69373,-1.615568 m -9.075413,7.514147 3.995953,-0.534848 3.69374,-1.61557 3.10534,-2.571116 m -10.795033,4.721534 2.27634,-3.32746 2.276353,-3.327462 0.16716,-4.028126 1.271,-3.826011 2.27634,-3.32746 m -3.7145,11.181597 3.10533,-2.571112 2.27635,-3.327466 1.271,-3.826011 m -6.65268,9.724589 3.10533,-2.571112 3.10534,-2.571119 1.271,-3.826011 2.27634,-3.327459 3.10534,-2.571117 m -6.65268,9.724587 3.69374,-1.61557 3.10534,-2.571118 2.27634,-3.32746 m -9.07542,7.514148 3.69374,-1.61557 3.69374,-1.615567 2.27635,-3.327464 3.10533,-2.571113 3.69374,-1.615571 m -9.07542,7.514148 3.99596,-0.534853 3.69373,-1.615566 3.10534,-2.571117 m -28.945873,19.749826 3.995953,-0.534848 3.99596,-0.534851 3.10534,-2.57112 3.69374,-1.615566 3.99596,-0.534852 m -10.79504,4.721538 3.98859,0.587304 3.99596,-0.534851 3.69374,-1.61557 m -11.67829,1.563117 3.69374,-1.615568 3.69374,-1.61557 2.27635,-3.327464 3.10534,-2.571119 3.69373,-1.615566 m -9.07542,7.514149 3.99596,-0.534851 3.69374,-1.615567 3.10533,-2.571118 m -10.79503,4.721536 3.10534,-2.571119 3.10534,-2.571118 1.27099,-3.826008 2.27634,-3.327456 3.10534,-2.571117 m -6.65267,9.724581 3.69373,-1.615567 3.10533,-2.571115 2.27635,-3.327463 m -30.665483,16.957219 3.995953,-0.534848 3.99596,-0.534851 3.10534,-2.57112 3.69374,-1.615566 3.99596,-0.534852 m -10.79504,4.721538 3.98859,0.587304 3.99596,-0.534851 3.69374,-1.61557 m -11.67829,1.563117 3.99597,-0.534853 3.99596,-0.534851 3.10533,-2.571114 3.69374,-1.615571 3.99595,-0.534847 m -10.79502,4.721532 3.98858,0.587306 3.99596,-0.534861 3.69373,-1.615566 m -11.67827,1.563121 3.10533,-2.571114 3.10534,-2.571119 1.27099,-3.826008 2.27635,-3.327464 3.10533,-2.571118 m -6.65267,9.72459 3.69373,-1.615566 3.10534,-2.571119 2.27635,-3.327464 m -9.07542,7.514149 3.69373,-1.615566 3.69374,-1.615571 2.27634,-3.32746 3.10535,-2.571122 3.69373,-1.615567 m -9.07542,7.514149 3.99597,-0.534851 3.69373,-1.615566 3.10534,-2.571119 m -10.79504,4.721536 3.99597,-0.534851 3.99596,-0.534851 3.10533,-2.571115 3.69374,-1.61557 3.99595,-0.534847 m -10.79502,4.721532 3.98858,0.587305 3.99596,-0.53486 3.69373,-1.615566 m -33.26834,11.006193 3.98858,0.587306 3.98859,0.587292 3.69373,-1.615566 3.99596,-0.534851 3.98859,0.587305 m -11.67828,1.563112 3.67219,1.663958 3.98858,0.587306 3.99597,-0.534855 m -11.65674,-1.716409 3.99595,-0.534847 3.99596,-0.534851 3.10534,-2.571119 3.69374,-1.61557 3.99596,-0.534847 m -10.79504,4.721536 3.9886,0.587302 3.99596,-0.534852 3.69373,-1.615566 m -11.67829,1.563116 3.69375,-1.61557 3.69373,-1.615567 2.27635,-3.327464 3.10534,-2.571118 3.69373,-1.615567 m -9.07542,7.514149 3.99596,-0.534851 3.69374,-1.615571 3.10533,-2.571114 m -34.15159,7.847773 3.98858,0.587306 3.98859,0.587292 3.69373,-1.615566 3.99596,-0.534851 3.98859,0.587305 m -11.67828,1.563112 3.67219,1.663958 3.98858,0.587306 3.99597,-0.534855 m -11.65674,-1.716409 3.98858,0.587306 3.98859,0.587302 3.69374,-1.615567 3.99596,-0.534851 3.98859,0.587302 m -11.67829,1.563116 3.67219,1.663958 3.98859,0.587301 3.99597,-0.534851 m -11.65675,-1.716408 3.69374,-1.615567 3.69374,-1.61557 2.27635,-3.327464 3.10534,-2.57111 3.69373,-1.615566 m -9.07542,7.51414 3.99596,-0.534851 3.69373,-1.615567 3.10534,-2.571118 m -10.79503,4.721536 3.99596,-0.534851 3.99596,-0.534852 3.10533,-2.571114 3.69374,-1.615571 3.99596,-0.534847 m -10.79503,4.721532 3.98858,0.587306 3.99597,-0.534851 3.69373,-1.615567 m -11.67828,1.563112 3.98858,0.587306 3.98859,0.587302 3.69374,-1.615567 3.99596,-0.534851 3.98859,0.587302 m -11.67829,1.563116 3.6722,1.663958 3.98859,0.587301 3.99596,-0.534851 m -35.01332,1.409824 3.67219,1.663958 3.6722,1.663954 3.99596,-0.534847 3.98859,0.587301 3.67219,1.663962 m -11.65674,-1.716416 3.07129,2.611696 3.67219,1.66395 3.98859,0.5873 m -10.73207,-4.862946 3.98859,0.587306 3.98859,0.5873 3.69373,-1.615565 3.99596,-0.534852 3.98859,0.587302 m -11.67828,1.563115 3.67219,1.66396 3.98859,0.5873 3.99596,-0.53485 m -11.65674,-1.71641 3.99595,-0.53485 3.99597,-0.534851 3.10534,-2.571119 3.69373,-1.615566 3.99596,-0.534848 m -10.79503,4.721533 3.98858,0.587301 3.99597,-0.534847 3.69373,-1.615566 m -81.70491,4.382773 3.6722,1.66395 3.672191,1.66396 3.995963,-0.53485 3.988573,0.5873 3.672203,1.66396 m -11.656739,-1.71641 3.071295,2.61168 3.672191,1.66396 3.98859,0.5873 m -10.732076,-4.86294 3.672192,1.66396 3.672194,1.66395 3.995963,-0.53485 3.98859,0.5873 3.67218,1.66395 m -11.656733,-1.7164 3.0713,2.61169 3.672193,1.66395 3.98858,0.58731 m -10.732073,-4.86295 3.995963,-0.53485 3.99596,-0.53486 3.10533,-2.57111 3.69374,-1.61556 3.99596,-0.53486 m -10.79503,4.72153 3.98858,0.5873 3.99597,-0.53485 3.69373,-1.61556 m -11.67828,1.56311 3.98858,0.5873 3.98859,0.58731 3.69374,-1.61557 3.99596,-0.53485 3.98859,0.5873 m -11.67829,1.56312 3.6722,1.66395 3.98859,0.5873 3.99596,-0.53485 m -11.65675,-1.7164 3.6722,1.66395 3.6722,1.66396 3.99595,-0.53485 3.98859,0.5873 3.6722,1.66396 m -11.65674,-1.71641 3.07129,2.6117 3.67219,1.66394 3.98859,0.58731 m -34.045563,-8.29576 3.0713,2.61169 3.071283,2.61169 3.98858,0.5873 3.6722,1.66395 3.0713,2.6117 m -10.73208,-4.86295 2.23244,3.35708 3.07128,2.61169 3.67219,1.66396 m -8.97591,-7.63273 3.67219,1.66395 3.6722,1.66396 3.99596,-0.53485 3.98859,0.5873 3.67219,1.66396 m -11.65674,-1.71641 3.07129,2.6117 3.67219,1.66394 3.98859,0.5873 m -10.73207,-4.86294 3.98858,0.5873 3.9886,0.5873 3.69373,-1.61556 3.99596,-0.53485 3.9886,0.5873 m -11.67829,1.56311 3.67219,1.66396 3.98859,0.5873 3.99596,-0.53485 m -33.120893,-11.4423 3.988593,0.5873 3.98858,0.58731 3.69375,-1.61557 3.99595,-0.53485 3.98859,0.5873 m -11.67829,1.56312 3.6722,1.66396 3.98859,0.5873 3.99596,-0.53486 m -11.65675,-1.7164 3.9886,0.5873 3.98858,0.58731 3.69374,-1.61558 3.99597,-0.53485 3.98857,0.5873 m -11.67828,1.56313 3.6722,1.66395 3.98858,0.5873 3.99596,-0.53486 m -11.65674,-1.71639 3.69374,-1.61558 3.69374,-1.61556 2.27635,-3.32747 3.10533,-2.57112 3.69374,-1.61556 m -9.07542,7.51415 3.99596,-0.53485 3.69374,-1.61557 3.10533,-2.57112 m -10.79503,4.72154 3.99596,-0.53485 3.99596,-0.53486 3.10534,-2.57111 3.69373,-1.61557 3.99596,-0.53486 m -10.79503,4.72154 3.98859,0.5873 3.99595,-0.53485 3.69373,-1.61557 m -11.67827,1.56312 3.98859,0.5873 3.98858,0.5873 3.69373,-1.61556 3.99596,-0.53486 3.9886,0.58731 m -11.67829,1.56311 3.67219,1.66396 3.98859,0.5873 3.99596,-0.53485 m -35.01331,1.40984 3.6722,1.66395 3.67219,1.66395 3.99596,-0.53485 3.98858,0.5873 3.6722,1.66395 m -11.65674,-1.7164 3.0713,2.61169 3.67219,1.66396 3.98859,0.5873 m -10.73208,-4.86295 3.98859,0.5873 3.98858,0.5873 3.69374,-1.61557 3.99596,-0.53484 3.98859,0.5873 m -11.67829,1.56311 3.6722,1.66396 3.98858,0.5873 3.99597,-0.53485 m -11.65675,-1.71641 3.99596,-0.53485 3.99597,-0.53485 3.10534,-2.57112 3.69373,-1.61556 3.99596,-0.53485 m -10.79503,4.72153 3.98859,0.5873 3.99595,-0.53484 3.69374,-1.61557 m -34.99177,-1.86969 3.99596,-0.53486 3.99596,-0.53486 3.10534,-2.57111 3.69374,-1.61556 3.99596,-0.53486 m -10.79504,4.72153 3.98859,0.5873 3.99596,-0.53484 3.69374,-1.61557 m -11.67829,1.56311 3.99596,-0.53485 3.99597,-0.53485 3.10533,-2.57112 3.69373,-1.61556 3.99596,-0.53485 m -10.79502,4.72153 3.98858,0.58731 3.99596,-0.53486 3.69373,-1.61556 m -11.67827,1.56311 3.10533,-2.57112 3.10533,-2.57111 1.271,-3.82602 2.27635,-3.327446 3.10533,-2.571119 m -6.65268,9.724585 3.69374,-1.61557 3.10535,-2.57111 2.27634,-3.327463 m -9.07543,7.514143 3.69374,-1.61557 3.69374,-1.61557 2.27635,-3.327464 3.10533,-2.571106 3.69374,-1.61557 m -9.07542,7.51414 3.99596,-0.53485 3.69373,-1.615568 3.10534,-2.571119 m -10.79503,4.721537 3.99596,-0.53485 3.99595,-0.534849 3.10534,-2.571119 3.69374,-1.61557 3.99597,-0.534851 m -10.79505,4.72154 3.9886,0.587299 3.99596,-0.53485 3.69373,-1.615565 m -33.26834,11.006185 3.98858,0.58731 3.98859,0.5873 3.69373,-1.61557 3.99596,-0.53485 3.9886,0.5873 m -11.67829,1.56312 3.67219,1.66395 3.98859,0.58731 3.99596,-0.53485 m -11.65674,-1.71641 3.99595,-0.53485 3.99596,-0.53485 3.10534,-2.57112 3.69374,-1.61557 3.99596,-0.53485 m -10.79504,4.72154 3.9886,0.5873 3.99595,-0.53486 3.69374,-1.61557 m -11.67829,1.56313 3.69375,-1.61557 3.69373,-1.61557 2.27635,-3.32746 3.10533,-2.57112 3.69374,-1.615567 m -9.07542,7.514147 3.99596,-0.53486 3.69373,-1.61557 3.10534,-2.5711"
       inkscape:connector-curvature="0" />
    <text
       xml:space="preserve"
       style="font-style:normal;font-variant:normal;font-weight:normal;font-stretch:normal;font-size:10.58333302px;line-height:1.25;font-family:monospace;-inkscape-font-specification:monospace;letter-spacing:0px;word-spacing:0px;display:inline;fill:#000000;fill-opacity:1;stroke:none;stroke-width:0.26458332"
       x="41.413269"
       y="27.828808"
       id="text1227"><tspan
         sodipodi:role="line"
         id="tspan1225"
         x="41.413269"
         y="27.828808"
         style="stroke-width:0.26458332">What I expect to happen</tspan></text>
  </g>
  <g
     inkscape:groupmode="layer"
     id="layer6"
     inkscape:label="Layer 6"
     style="display:none"
     transform="translate(-38.683743,-5.4882769)">
    <text
       xml:space="preserve"
       style="font-style:normal;font-variant:normal;font-weight:normal;font-stretch:normal;font-size:10.58333302px;line-height:1.25;font-family:monospace;-inkscape-font-specification:monospace;letter-spacing:0px;word-spacing:0px;display:inline;fill:#000000;fill-opacity:1;stroke:none;stroke-width:0.26458332"
       x="44.731361"
       y="27.700865"
       id="text949"><tspan
         sodipodi:role="line"
         x="44.731361"
         y="27.700865"
         style="stroke-width:0.26458332"
         id="tspan953">What I tell the intern</tspan></text>
    <g
       style="display:inline"
       id="g1260"
       transform="matrix(1.2022816,0,0,1.2022816,186.35267,-368.99367)">
      <rect
         ry="0"
         y="345.91034"
         x="-71.360962"
         height="32.60688"
         width="32.60688"
         id="rect1229-3"
         style="display:inline;fill:none;fill-opacity:1;stroke:#000000;stroke-width:0.79374999;stroke-miterlimit:4;stroke-dasharray:none" />
      <rect
         ry="0"
         y="360.07559"
         x="-81.249931"
         height="32.60688"
         width="32.60688"
         id="rect1229"
         style="fill:none;fill-opacity:1;stroke:#000000;stroke-width:0.79374999;stroke-miterlimit:4;stroke-dasharray:none" />
      <path
         inkscape:connector-curvature="0"
         id="path1246"
         d="m -81.249929,360.07558 9.888969,-14.16523"
         style="fill:none;stroke:#000000;stroke-width:0.26458332px;stroke-linecap:butt;stroke-linejoin:miter;stroke-opacity:1" />
      <path
         inkscape:connector-curvature="0"
         id="path1248"
         d="m -48.64305,360.07558 9.888969,-14.16523"
         style="fill:none;stroke:#000000;stroke-width:0.26458332px;stroke-linecap:butt;stroke-linejoin:miter;stroke-opacity:1" />
      <path
         inkscape:connector-curvature="0"
         id="path1250"
         d="m -48.64305,392.68246 9.888969,-14.16526"
         style="fill:none;stroke:#000000;stroke-width:0.26458332px;stroke-linecap:butt;stroke-linejoin:miter;stroke-opacity:1" />
      <path
         inkscape:connector-curvature="0"
         id="path1252"
         d="M -81.249929,392.68246 -71.36096,378.5172"
         style="fill:none;stroke:#000000;stroke-width:0.26458332px;stroke-linecap:butt;stroke-linejoin:miter;stroke-opacity:1" />
    </g>
  </g>
  <g
     inkscape:groupmode="layer"
     id="layer5"
     inkscape:label="Layer 5"
     style="display:none"
     transform="translate(-38.683743,-5.4882769)">
    <text
       xml:space="preserve"
       style="font-style:normal;font-variant:normal;font-weight:normal;font-stretch:normal;font-size:10.58333302px;line-height:1.25;font-family:monospace;-inkscape-font-specification:monospace;letter-spacing:0px;word-spacing:0px;display:inline;fill:#000000;fill-opacity:1;stroke:none;stroke-width:0.26458332"
       x="37.106998"
       y="27.426498"
       id="text945"><tspan
         sodipodi:role="line"
         id="tspan943"
         x="37.106998"
         y="27.426498"
         style="stroke-width:0.26458332">What it should have been</tspan></text>
    <path
       sodipodi:type="star"
       style="display:inline;fill:none;fill-opacity:1;stroke:#000000;stroke-width:0.994003;stroke-miterlimit:4;stroke-dasharray:none"
       id="path911-2"
       sodipodi:sides="5"
       sodipodi:cx="113.49923"
       sodipodi:cy="72.759148"
       sodipodi:r1="36.541935"
       sodipodi:r2="18.270967"
       sodipodi:arg1="0.93247652"
       sodipodi:arg2="1.560795"
       inkscape:flatsided="false"
       inkscape:rounded="0"
       inkscape:randomized="0"
       d="M 135.27263,102.1059 113.68196,91.029201 92.317156,102.53553 96.179843,78.578692 78.634589,61.815206 102.61253,58.08577 113.13377,36.21904 124.09027,57.870957 148.138,61.12006 130.93155,78.231117 Z"
       inkscape:transform-center-x="0.11292957"
       inkscape:transform-center-y="-3.3818662" />
  </g>
  <g
     inkscape:groupmode="layer"
     id="layer4"
     inkscape:label="Layer 4"
     style="display:inline"
     transform="translate(-38.683743,-5.4882769)">
    <g
       sodipodi:type="inkscape:box3d"
       id="g897"
       style="display:inline;fill:none;fill-opacity:1;stroke:#000000;stroke-width:3;stroke-miterlimit:4;stroke-dasharray:none"
       inkscape:perspectiveID="#perspective881"
       inkscape:corner0="-1.6638752 : 0.12221772 : -0.15098439 : 1"
       inkscape:corner7="-1.4525837 : 0.075358252 : 0 : 1">
      <path
         sodipodi:type="inkscape:box3dside"
         id="path899"
         style="fill:#353564;fill-rule:evenodd;stroke:none;stroke-width:3.66345596;stroke-linejoin:round"
         inkscape:box3dsidetype="6"
         d="m 172.94364,-90.56197 v -36.06593 l -29.87454,-6.75395 v 44.268356 z"
         points="172.94364,-126.6279 143.0691,-133.38185 143.0691,-89.113494 172.94364,-90.56197 " />
      <path
         sodipodi:type="inkscape:box3dside"
         id="path903"
         style="fill:#8686bf;fill-rule:evenodd;stroke:none;stroke-width:3.66345596;stroke-linejoin:round"
         inkscape:box3dsidetype="3"
         d="m 172.94364,-90.56197 -7.47278,8.208066 v -48.691546 l 7.47278,4.41755 z"
         points="165.47086,-82.353904 165.47086,-131.04545 172.94364,-126.6279 172.94364,-90.56197 " />
      <path
         sodipodi:type="inkscape:box3dside"
         id="path905"
         style="fill:#d7d7ff;fill-rule:evenodd;stroke:none;stroke-width:3.66345596;stroke-linejoin:round"
         inkscape:box3dsidetype="14"
         d="m 165.47086,-82.353904 v -48.691546 l -46.3146,-11.38081 v 64.935318 z"
         points="165.47086,-131.04545 119.15626,-142.42626 119.15626,-77.490942 165.47086,-82.353904 " />
      <path
         sodipodi:type="inkscape:box3dside"
         id="path901"
         style="fill:#4d4d9f;fill-rule:evenodd;stroke:none;stroke-width:3.66345596;stroke-linejoin:round"
         inkscape:box3dsidetype="5"
         d="m 172.94364,-90.56197 -7.47278,8.208066 -46.3146,4.862962 23.91284,-11.622552 z"
         points="165.47086,-82.353904 119.15626,-77.490942 143.0691,-89.113494 172.94364,-90.56197 " />
      <path
         sodipodi:type="inkscape:box3dside"
         id="path909"
         style="fill:#e9e9ff;fill-rule:evenodd;stroke:none;stroke-width:3.66345596;stroke-linejoin:round"
         inkscape:box3dsidetype="11"
         d="m 143.0691,-89.113494 -23.91284,11.622552 v -64.935318 l 23.91284,9.04441 z"
         points="119.15626,-77.490942 119.15626,-142.42626 143.0691,-133.38185 143.0691,-89.113494 " />
      <path
         sodipodi:type="inkscape:box3dside"
         id="path907"
         style="fill:#afafde;fill-rule:evenodd;stroke:none;stroke-width:3.66345596;stroke-linejoin:round"
         inkscape:box3dsidetype="13"
         d="m 172.94364,-126.6279 -7.47278,-4.41755 -46.3146,-11.38081 23.91284,9.04441 z"
         points="165.47086,-131.04545 119.15626,-142.42626 143.0691,-133.38185 172.94364,-126.6279 " />
    </g>
    <text
       xml:space="preserve"
       style="font-style:normal;font-variant:normal;font-weight:normal;font-stretch:normal;font-size:10.58333302px;line-height:1.25;font-family:monospace;-inkscape-font-specification:monospace;letter-spacing:0px;word-spacing:0px;display:inline;fill:#000000;fill-opacity:1;stroke:none;stroke-width:0.26458332"
       x="26.654093"
       y="27.355915"
       id="text923-7"><tspan
         sodipodi:role="line"
         id="tspan921-5"
         x="26.654093"
         y="27.355915"
         style="stroke-width:0.26458332">What the client wants now</tspan></text>
  </g>
  <g
     inkscape:groupmode="layer"
     id="layer3"
     inkscape:label="Layer 3"
     style="display:inline"
     sodipodi:insensitive="true"
     transform="translate(-38.683743,-5.4882769)">
    <text
       xml:space="preserve"
       style="font-style:normal;font-variant:normal;font-weight:normal;font-stretch:normal;font-size:10.58333302px;line-height:1.25;font-family:monospace;-inkscape-font-specification:monospace;letter-spacing:0px;word-spacing:0px;display:inline;fill:#000000;fill-opacity:1;stroke:none;stroke-width:0.26458332"
       x="55.36845"
       y="27.094654"
       id="text923"><tspan
         sodipodi:role="line"
         id="tspan921"
         x="55.36845"
         y="27.094654"
         style="stroke-width:0.26458332">What I did to it</tspan></text>
    <rect
       style="display:inline;fill:none;fill-opacity:1;stroke:#000000;stroke-width:0.79374999;stroke-miterlimit:4;stroke-dasharray:none"
       id="rect864-0"
       width="55.184525"
       height="55.184525"
       x="80.472527"
       y="58.836224"
       ry="12.027129" />
  </g>
  <g
     inkscape:groupmode="layer"
     id="layer2"
     inkscape:label="Layer 2"
     style="display:inline"
     sodipodi:insensitive="true"
     transform="translate(-38.683743,-5.4882769)">
    <rect
       style="fill:none;fill-opacity:1;stroke:#000000;stroke-width:0.79374999;stroke-miterlimit:4;stroke-dasharray:none"
       id="rect864"
       width="55.184521"
       height="55.184521"
       x="80.224243"
       y="58.454426" />
    <text
       xml:space="preserve"
       style="font-style:normal;font-variant:normal;font-weight:normal;font-stretch:normal;font-size:10.58333302px;line-height:1.25;font-family:monospace;-inkscape-font-specification:monospace;letter-spacing:0px;word-spacing:0px;fill:#000000;fill-opacity:1;stroke:none;stroke-width:0.26458332"
       x="12.149456"
       y="27.236261"
       id="text919"><tspan
         sodipodi:role="line"
         id="tspan917"
         x="12.149456"
         y="27.236261"
         style="stroke-width:0.26458332">What I was given to work with</tspan></text>
  </g>
  <g
     inkscape:label="Layer 1"
     inkscape:groupmode="layer"
     id="layer1"
     style="display:inline"
     sodipodi:insensitive="true"
     transform="translate(-38.683743,-5.4882769)">
    <circle
       style="fill:none;fill-opacity:1;stroke:#000000;stroke-width:1.08089471;stroke-miterlimit:4;stroke-dasharray:none"
       id="path847"
       cx="108.10119"
       cy="86.845245"
       r="29.338572" />
    <text
       xml:space="preserve"
       style="font-style:normal;font-variant:normal;font-weight:normal;font-stretch:normal;font-size:10.58333302px;line-height:1.25;font-family:monospace;-inkscape-font-specification:monospace;letter-spacing:0px;word-spacing:0px;fill:#000000;fill-opacity:1;stroke:none;stroke-width:0.26458332"
       x="13.60714"
       y="27.125004"
       id="text915"><tspan
         sodipodi:role="line"
         id="tspan913"
         x="13.60714"
         y="27.125004"
         style="stroke-width:0.26458332">What the client thinks it is</tspan></text>
    <text
       xml:space="preserve"
       style="font-style:normal;font-variant:normal;font-weight:normal;font-stretch:normal;font-size:10.58333302px;line-height:1.25;font-family:monospace;-inkscape-font-specification:monospace;letter-spacing:0px;word-spacing:0px;fill:#000000;fill-opacity:1;stroke:none;stroke-width:0.26458332"
       x="-246.44048"
       y="495.81546"
       id="text1178"><tspan
         sodipodi:role="line"
         id="tspan1176"
         x="-246.44048"
         y="495.81546"
         style="stroke-width:0.26458332">What it will be</tspan><tspan
         sodipodi:role="line"
         x="-246.44048"
         y="509.04462"
         style="stroke-width:0.26458332"
         id="tspan1180">in the end</tspan></text>
    <rect
       style="fill:none;fill-opacity:1;stroke:#000000;stroke-width:0.79374999;stroke-miterlimit:4;stroke-dasharray:none"
       id="rect864-2"
       width="55.184525"
       height="55.184525"
       x="-101.67559"
       y="481.83035" />
  </g>
</svg>
