<?xml version="1.0" encoding="UTF-8" standalone="no"?>
<!-- Created with Inkscape (http://www.inkscape.org/) -->

<svg
   xmlns:dc="http://purl.org/dc/elements/1.1/"
   xmlns:cc="http://creativecommons.org/ns#"
   xmlns:rdf="http://www.w3.org/1999/02/22-rdf-syntax-ns#"
   xmlns:svg="http://www.w3.org/2000/svg"
   xmlns="http://www.w3.org/2000/svg"
   xmlns:xlink="http://www.w3.org/1999/xlink"
   xmlns:sodipodi="http://sodipodi.sourceforge.net/DTD/sodipodi-0.dtd"
   xmlns:inkscape="http://www.inkscape.org/namespaces/inkscape"
   sodipodi:docname="portal1.svg"
   viewBox="0 0 32 32"
   height="32"
   width="32"
   id="svg2"
   version="1.1"
   inkscape:version="0.92.4 (5da689c313, 2019-01-14)">
  <metadata
     id="metadata8">
    <rdf:RDF>
      <cc:Work
         rdf:about="">
        <dc:format>image/svg+xml</dc:format>
        <dc:type
           rdf:resource="http://purl.org/dc/dcmitype/StillImage" />
        <dc:title />
      </cc:Work>
    </rdf:RDF>
  </metadata>
  <defs
     id="defs6">
    <linearGradient
       inkscape:collect="always"
       id="linearGradient889">
      <stop
         style="stop-color:#000000;stop-opacity:1;"
         offset="0"
         id="stop885" />
      <stop
         style="stop-color:#000000;stop-opacity:0;"
         offset="1"
         id="stop887" />
    </linearGradient>
    <radialGradient
       inkscape:collect="always"
       xlink:href="#linearGradient889"
       id="radialGradient891"
       cx="16.644644"
       cy="16.390885"
       fx="16.644644"
       fy="16.390885"
       r="7.8474967"
       gradientTransform="matrix(1,0,0,0.88641308,0,1.8617902)"
       gradientUnits="userSpaceOnUse" />
    <radialGradient
       r="7.8474967"
       fy="16.390884"
       fx="16.644644"
       cy="16.390884"
       cx="16.644644"
       gradientTransform="matrix(1.4724843,0.87691176,-0.80183332,1.4586484,4.2910408,-21.769279)"
       gradientUnits="userSpaceOnUse"
       id="radialGradient898-219"
       xlink:href="#linearGradient904-674"
       inkscape:collect="always" />
    <linearGradient
       inkscape:collect="always"
       id="linearGradient904-674">
      <stop
         style="stop-color:#cf0ce7;stop-opacity:1;opacity:1"
         offset="0"
         id="stop2562" />
      <stop
         style="stop-color:#2001a6;stop-opacity:1;opacity:1"
         offset="1"
         id="stop2564" />
    </linearGradient>
  </defs>
  <sodipodi:namedview
     pagecolor="#ffffff"
     bordercolor="#666666"
     borderopacity="1"
     objecttolerance="10"
     gridtolerance="10"
     guidetolerance="10"
     inkscape:pageopacity="0"
     inkscape:pageshadow="2"
     inkscape:window-width="1920"
     inkscape:window-height="1055"
     id="namedview4"
     showgrid="false"
     inkscape:zoom="0.5"
     inkscape:cx="15.408031"
     inkscape:cy="16.368263"
     inkscape:window-x="1920"
     inkscape:window-y="0"
     inkscape:window-maximized="1"
     inkscape:current-layer="svg2" />
  <path
     id="path881"
     d="M 10.45757,20.398305 9.9441511,20.834203 9.1065669,19.765426 9.6199845,19.329529 Z m 0.418791,0.534388 -0.513418,0.435899 -0.06923,-0.08833 c -0.06266,0.171506 -0.186137,0.297335 -0.3141273,0.417442 L 9.8752686,21.56458 c 0.1978914,-0.210342 0.2116874,-0.485515 0.07144,-0.732547 l 0.5108624,-0.433726 z m -1.0015743,0.631271 0.1048089,0.133741 c -0.185749,0.133945 -0.391086,0.232642 -0.6225397,0.228852 -0.1489497,-0.0017 -0.1477569,-0.0019 -0.1629599,0.01929 -0.024705,0.05753 0.0065,0.113332 0.035691,0.16232 L 9.1030548,22.215764 8.5795643,21.54778 8.7057121,21.440679 c 0.3523379,0.353653 0.7537364,0.427467 1.1690746,0.123285 z m 1.4203663,-0.09689 -0.513418,0.435896 -0.418792,-0.534386 0.513418,-0.435899 z m -0.270293,1.564405 -0.104698,-0.133597 c 0.292167,-0.24745 0.06827,-0.73056 -0.138427,-0.99491 l 0.513418,-0.435896 c 0.370012,0.475399 0.167804,1.190317 -0.270293,1.564403 z m -0.103094,-0.13155 0.104811,0.13374 c -0.18575,0.133949 -0.391087,0.232646 -0.622541,0.228854 -0.148951,-0.0017 -0.147758,-0.0019 -0.16296,0.01929 -0.0247,0.05753 0.0065,0.113332 0.03569,0.162321 l -0.12673,0.107597 -0.5234912,-0.667986 0.1261478,-0.107101 C 10.10503,23.1303 10.50643,23.204115 10.921766,22.899933 Z M 9.3058908,18.928736 9.6199845,19.329527 9.1065669,19.765425 8.7924722,19.364632 8.5357638,19.582581 8.4310659,19.448985 9.3295465,18.686163 9.4342452,18.81976 Z M 8.991828,18.527984 9.2011929,18.795138 8.6877742,19.231036 8.2689509,18.696607 Z m 2.790987,-0.793698 0.724161,0.924047 -0.513417,0.435898 -0.764547,-0.975579 C 11.068478,17.91381 10.694508,17.744531 10.456815,17.95159 l -0.104697,-0.133597 c 0.452915,-0.380445 1.005055,-0.621738 1.430697,-0.08371 z m 1.142954,1.458436 -0.513419,0.435898 -0.06923,-0.08833 c -0.06266,0.171507 -0.186137,0.297335 -0.314126,0.417441 l -0.104323,-0.13312 c 0.197893,-0.210342 0.211689,-0.485514 0.07144,-0.732548 l 0.510861,-0.433726 z m 0.418791,0.534389 -0.513417,0.435898 -0.418793,-0.534389 0.513419,-0.435898 z m 0.339462,0.15935 -0.434362,0.810584 -0.418517,-0.534036 0.513417,-0.435898 c 0.0534,0.06878 0.163156,0.08284 0.236068,0.02741 z m -2.213954,-1.460215 0.104697,0.133597 -0.226946,0.19268 c -0.12482,0.105975 -0.264792,0.218879 -0.311044,0.250902 -0.317534,0.186638 -0.856224,0.469992 -1.1611887,0.108206 -0.2784593,-0.373941 0.092722,-0.887397 0.3360087,-1.161157 0.04518,-0.04605 0.09065,-0.09193 0.140524,-0.132484 l 0.104697,0.133597 c -0.03022,0.02567 -0.05837,0.05339 -0.08058,0.08721 -0.146545,0.206325 -0.124814,0.464551 0.008,0.637502 0.276438,0.308307 0.583513,0.176444 0.869868,-0.06668 z m 0.454125,1.397746 0.10481,0.13374 c -0.18575,0.133947 -0.391087,0.232645 -0.62254,0.228853 -0.14895,-0.0017 -0.147757,-0.0019 -0.16296,0.01929 -0.02471,0.05752 0.0065,0.113332 0.03569,0.162321 l -0.126731,0.107601 -0.523492,-0.667987 0.126149,-0.1071 c 0.352336,0.353654 0.753736,0.427469 1.169073,0.123286 z m 0.0733,-2.512993 0.513418,-0.435899 0.837586,1.068777 -0.51342,0.435899 z m -0.837582,-1.068777 0.513417,-0.435899 0.837585,1.068777 -0.513418,0.435899 z m 0,0 c -0.216804,-0.278664 -0.219541,-0.724399 0.111042,-0.984705 0.180969,-0.142495 0.462538,-0.203065 0.673856,-0.07458 l -0.03433,0.187197 c -0.08344,-0.009 -0.163392,-0.06366 -0.243718,-7.56e-4 -0.128077,0.113068 -0.06673,0.343474 0.0066,0.436949 z m 1.863321,2.650397 c 0.04228,-0.05273 0.0654,-0.10918 0.0518,-0.177921 -0.0072,-0.03626 -0.02613,-0.06147 -0.125235,-0.188204 l -0.114724,-0.146714 0.513418,-0.435898 0.115028,0.146458 c 0.09936,0.126507 0.120296,0.148538 0.151966,0.16551 0.06163,0.03311 0.120229,0.0099 0.177861,-0.01707 l 0.102287,0.130521 -0.770116,0.653836 z m 1.362119,-4.261652 -0.0444,1.580351 -0.513433,0.435909 0.03004,-1.444964 c 0.0021,-0.09787 -0.06136,-0.08559 -0.127306,-0.0296 l -1.096062,0.930569 c -0.09523,0.08086 -0.146939,0.163439 -0.07937,0.289603 l -0.125397,0.106462 -0.209396,-0.267193 2.053672,-1.74359 z m -0.539606,2.139848 -0.0088,-0.131574 0.504736,-0.428527 c 0.0069,0.04909 0.0079,0.09876 0.01096,0.148211 0.07048,0.66766 0.255155,1.298204 0.670585,1.819399 0.143456,0.186929 0.215306,0.376763 0.01068,0.553276 -0.245262,0.149644 -0.407092,0.06368 -0.557058,-0.157343 -0.378819,-0.537304 -0.585908,-1.129128 -0.63104,-1.803442 z m 2.900432,-3.491501 0.837585,1.068777 -0.513417,0.435897 -0.837585,-1.068778 z m 0.111824,1.233718 -0.142507,1.462176 -0.638256,0.541887 -0.103206,-0.131689 c 0.043,-0.04104 0.09369,-0.07979 0.11803,-0.136251 0.07964,-0.554654 0.106103,-1.116877 0.172091,-1.673262 l -1.450248,-0.264329 c -0.07138,0.0051 -0.126694,0.04433 -0.178784,0.09262 l -0.104698,-0.133597 0.641772,-0.544872 0.104698,0.133597 -0.141138,0.119828 c -0.0012,0.03598 -0.0061,0.07404 0.01023,0.107106 l 1.613408,0.300975 z m -0.792934,-0.755887 c -0.471533,0.117215 -0.908915,-0.02966 -1.221228,-0.420133 -0.31232,-0.390467 -0.361873,-0.935285 -0.120459,-1.383109 0.07297,-0.135349 0.185369,-0.231739 0.305166,-0.331117 l 0.104697,0.133597 c -0.31739,0.270419 0.01802,0.801037 0.263408,1.111285 0.245344,0.310274 0.66513,0.719935 1.082444,0.391122 0.06508,-0.05129 0.0799,-0.06378 0.115372,-0.07021 0.07888,-0.01329 0.10608,0.0325 0.151712,0.09074 l -0.513419,0.435898 c -0.05136,-0.02131 -0.11617,0.02912 -0.167693,0.04194 z M 15.94362,11.724966 c -0.166646,0.05786 -0.27899,-0.05174 -0.29324,-0.219865 -0.189625,0.04594 -0.370439,0.127058 -0.521986,0.255399 L 15.02198,11.624712 c 0.244547,-0.196033 0.541312,-0.311529 0.850634,-0.306354 0.106368,0.0017 0.19474,0.113739 0.188835,0.229019 -0.0033,0.06651 -0.06137,0.157973 -0.117814,0.177577 z m 1.05356,3.221578 c 0.02241,-0.04996 0.08291,-0.105901 0.07317,-0.162556 l 0.51342,-0.435897 c 0.04564,0.05823 0.08331,0.09514 0.0549,0.172918 -0.01318,0.03488 -0.0279,0.04746 -0.08926,0.103528 -0.393317,0.359423 -0.09209,0.86974 0.1506,1.182267 0.242717,0.312506 0.674682,0.761161 0.992969,0.491881 l 0.104697,0.133597 c -0.117605,0.102171 -0.230913,0.197413 -0.372956,0.244615 -0.469984,0.156163 -0.972783,-0.0038 -1.277524,-0.400749 -0.304731,-0.396907 -0.355084,-0.872373 -0.150015,-1.329602 z m 1.888207,0.532179 c 0.0298,-0.05361 0.127515,-0.09433 0.190799,-0.08444 0.109701,0.01713 0.197313,0.129733 0.1776,0.238559 -0.05728,0.316428 -0.22562,0.595808 -0.459257,0.805759 l -0.106419,-0.13579 c 0.151247,-0.128724 0.263921,-0.296791 0.345262,-0.480902 -0.155364,-0.04832 -0.235952,-0.184885 -0.148001,-0.343174 z m -0.348855,-3.71944 0.513416,-0.435899 0.837585,1.068777 -0.513418,0.435898 z m -0.418794,-0.534389 0.513418,-0.435897 0.06923,0.08833 c 0.06266,-0.171507 0.186137,-0.297335 0.314127,-0.417441 l 0.104325,0.133119 c -0.197895,0.210342 -0.211688,0.485514 -0.07144,0.732547 l -0.51086,0.433727 z m 1.904959,-0.285015 c -0.199842,-0.254055 -0.621455,-0.583654 -0.90336,-0.346223 l -0.104663,-0.133552 c 0.487389,-0.412773 1.042009,-0.5714092 1.428352,-0.07843 l 0.728684,0.920206 -0.51304,0.43558 z m 0.561799,0.960992 c 0.02241,-0.04996 0.08291,-0.105901 0.07317,-0.162556 l 0.513417,-0.435897 c 0.04563,0.05823 0.08331,0.09514 0.0549,0.172918 -0.01318,0.03488 -0.0279,0.04746 -0.08925,0.103528 -0.393316,0.359423 -0.09209,0.86974 0.150599,1.182269 0.242717,0.312504 0.674682,0.761161 0.99297,0.49188 l 0.104697,0.133596 c -0.117605,0.102171 -0.230911,0.197413 -0.372955,0.244615 -0.469986,0.156163 -0.972783,-0.0038 -1.277523,-0.400747 -0.304734,-0.396908 -0.355085,-0.872374 -0.150017,-1.329605 z m 1.692552,1.358304 c 0.369744,-0.36236 0.380928,-0.786465 0.118884,-1.216778 l 0.126149,-0.107101 0.52349,0.667986 -0.126736,0.107599 c -0.04026,-0.03961 -0.08649,-0.08264 -0.145595,-0.06902 -0.02303,0.01123 -0.02266,0.01002 -0.05089,0.162283 -0.04295,0.236755 -0.177091,0.426287 -0.340484,0.588766 z m -4.578102,-2.568669 0.513418,-0.435898 0.418792,0.534389 -0.513418,0.435897 z M 16.685693,10.21585 c 0.44011,-0.3715201 1.153573,-0.4340193 1.526669,0.03877 l -0.513418,0.435898 C 17.491684,10.42665 17.08199,10.101277 16.790391,10.34945 Z m -0.09256,0.957671 c -0.0298,0.05362 -0.127517,0.09433 -0.190801,0.08444 -0.1097,-0.01713 -0.197314,-0.129733 -0.1776,-0.238559 0.05727,-0.316417 0.225605,-0.595795 0.459243,-0.805746 l 0.106415,0.135788 c -0.151241,0.128733 -0.263919,0.296791 -0.345261,0.480902 0.155365,0.04832 0.235954,0.184886 0.148002,0.343174 z m 2.969133,2.167386 c 0.04228,-0.05273 0.06539,-0.109179 0.0518,-0.177921 -0.0072,-0.03627 -0.02613,-0.06147 -0.125235,-0.188204 l -0.114726,-0.146713 0.513418,-0.435899 0.115029,0.146457 c 0.09936,0.126509 0.120295,0.148539 0.151966,0.16551 0.06163,0.03311 0.120228,0.0099 0.177862,-0.01706 l 0.102284,0.130517 -0.770127,0.653849 z"
     style="opacity:1;fill:url(#radialGradient898-219);fill-opacity:1;stroke:none;stroke-width:0.04224719"
     inkscape:export-xdpi="348"
     inkscape:export-ydpi="348"
     inkscape:connector-curvature="0" />
  <path
     id="path906"
     d="m 21.837052,23.823843 c -2.309509,1.362035 -2.062442,1.146536 -1.844144,1.922501 -0.847045,0.325736 -2.855237,0.952776 -4.134026,1.808297 -2.247807,-0.128099 -4.994003,1.555403 -7.4243509,1.448434 C 5.7078513,29.808017 4.3876328,28.388454 3.8469125,26.957108 3.4993885,25.656023 1.2814569,23.927934 2.0766314,21.080062 0.61526476,17.541508 5.0986046,14.00536 6.8698491,11.187864 7.271605,8.5937083 6.3410698,9.6014565 8.5969768,7.4278846 11.411354,5.7186707 12.313766,5.1346108 13.195003,4.7579604 c 2.460112,0.067692 4.346154,-1.280268 5.172486,-1.8493814 1.070086,-0.992978 2.481964,-0.020604 2.237166,-0.8732814 1.912637,-0.1266349 2.602916,1.9965399 3.78502,3.4053208 1.565711,0.930305 3.963602,2.8024832 4.517753,4.16973 0.372299,2.1088586 -0.332383,4.3494386 -0.803144,5.3772626 0.342582,0.861251 -5.328889,2.012408 -4.50396,3.077717 0.683383,2.560423 -3.426373,4.051735 -2.92964,5.578129 1.485704,-0.555964 1.047082,-0.185463 0.791776,-1.050854"
     style="opacity:1;fill:none;stroke:#c31694;stroke-width:2.72769403;stroke-miterlimit:4;stroke-dasharray:none"
     inkscape:export-xdpi="348"
     inkscape:export-ydpi="348"
     inkscape:connector-curvature="0" />
  <g
     id="g983" />
  <g
     id="g1063"
     inkscape:label="Voronoi" />
  <g
     id="g1278"
     inkscape:export-xdpi="348"
     inkscape:export-ydpi="348"
     transform="matrix(0.98250323,0,0,1.0226332,0.01738836,-0.68692161)">
    <path
       style="opacity:0.05882401;fill:none;stroke:#b3f6e9;stroke-width:2.83980727;stroke-miterlimit:4;stroke-dasharray:none"
       d="M 21.407641,3.7984949 C 18.53304,4.1469902 16.166859,6.4796686 13.125873,6.514166 10.675392,7.794081 7.495308,9.0119328 7.7581646,12.162613 c -2.502035,3.098 -5.9591622,6.236123 -4.867995,10.516441 0.9672374,2.859641 2.6885227,6.983901 6.5280918,5.363965 3.3947106,-1.321787 8.8642926,-0.876582 10.6156356,-4.252243 0.101504,-2.604639 3.779264,-3.642668 3.161108,-6.404568 2.119915,-1.88675 6.027699,-1.837136 5.350865,-5.805658 C 28.385057,7.9300381 23.43403,7.2640815 22.087026,4.0268283 21.90086,3.9372927 21.631057,3.5191293 21.407641,3.7984949 c 0,0 0,0 0,0 m -0.0262,18.9535511 c -0.347659,0.881054 1.274607,-0.636824 0,0 0,0 0,0 0,0"
       id="path1280"
       inkscape:connector-curvature="0" />
    <path
       style="opacity:0.05882401;fill:none;stroke:#2e14b3;stroke-width:2.83980727;stroke-miterlimit:4;stroke-dasharray:none"
       d="m 21.538652,3.585134 c -2.903154,0.464385 -5.348465,2.7201266 -8.43711,2.8073789 -2.397405,1.3210235 -5.7968862,2.4805847 -5.4406997,5.7008511 -2.2246296,3.022302 -5.9651896,5.9244 -4.8810962,10.029829 0.4561516,2.27549 1.6562387,5.48706 4.0201665,6.286657 4.2421234,-0.579536 9.0601014,-1.247559 12.6032594,-3.400671 1.04366,-1.354099 0.931305,-3.470147 2.923417,-4.491806 1.575278,-1.169765 -0.02371,-3.748214 2.526642,-4.141821 4.630904,-0.424224 5.203204,-7.4148203 0.771094,-8.8731886 -2.003356,-0.669502 -2.338818,-3.0725541 -4.085673,-3.9172294 0,0 0,0 0,0 m -0.06925,19.249261 c -0.406174,0.695406 0.970976,-0.696023 0,0 0,0 0,0 0,0"
       id="path1284"
       inkscape:connector-curvature="0" />
    <path
       style="opacity:0.05882401;fill:none;stroke:#f6c9d8;stroke-width:2.83980727;stroke-miterlimit:4;stroke-dasharray:none"
       d="m 21.452559,3.4971696 c -2.820342,0.3105892 -5.068261,2.7621341 -8.090867,2.635193 -2.444831,1.4074377 -6.1820841,2.5100015 -5.7981723,5.8917524 -2.2042229,3.029748 -6.0069424,5.945139 -4.9016835,10.072876 0.3028967,2.325722 1.6503629,4.995611 3.5728575,6.331575 4.5213533,-0.02851 9.1972263,-1.36487 13.2358553,-3.121806 0.986037,-1.361104 0.755238,-3.302293 2.616477,-4.383253 2.085251,-1.067556 0.153856,-3.977025 2.812994,-4.437531 3.343119,-0.215894 4.979716,-4.428725 3.239716,-7.0090894 -2.193864,-1.9418941 -4.59366,-3.4919499 -6.279171,-5.9104684 -0.08694,0.036124 -0.364113,-0.2956936 -0.408006,-0.069249 0,0 0,4e-7 0,4e-7 m 0.179672,19.3615564 c 0.326877,0.02843 0.01021,-0.164904 0,0 0,0 0,0 0,0"
       id="path1288"
       inkscape:connector-curvature="0" />
    <path
       style="opacity:0.05882401;fill:none;stroke:#38e5d2;stroke-width:2.83980727;stroke-miterlimit:4;stroke-dasharray:none"
       d="m 21.364594,3.409205 c -2.758748,0.1879297 -4.860068,2.7841715 -7.825101,2.5135399 -2.362577,1.4592324 -6.4923769,2.4371466 -5.9928176,5.9160831 -1.9885822,3.036657 -6.1108548,5.790748 -4.9372436,9.855771 -0.2661669,2.471879 1.5473428,4.581088 2.8710128,6.500018 3.5592887,1.209387 7.3513934,-0.952966 10.8963734,-1.418661 1.423553,-0.800924 3.111335,-0.867116 3.829265,-2.337612 -0.163069,-1.96168 2.192792,-3.320215 3.176081,-5.010235 -0.373148,-1.518636 0.495199,-2.748481 2.115185,-3.06308 3.164528,-0.269049 4.082615,-4.29858 2.951198,-6.704727 C 26.439059,7.5767997 23.799889,6.3095226 22.307874,3.7442188 22.11011,3.6295144 21.537233,3.0506102 21.364594,3.409205 c 0,0 0,0 0,0"
       id="path1292"
       inkscape:connector-curvature="0" />
    <path
       style="opacity:0.05882401;fill:none;stroke:#f8e3f2;stroke-width:2.83980727;stroke-miterlimit:4;stroke-dasharray:none"
       d="M 21.342136,3.2126885 C 20.363271,3.7937595 18.945294,3.3800192 18.085576,4.4591647 15.686059,6.075858 12.578479,5.462161 10.384061,7.5270293 8.5745662,8.2614017 7.1672902,9.6624307 7.4474814,11.679743 c -1.869166,3.130598 -6.1740368,5.867778 -4.954088,9.984911 -0.4167875,2.478098 1.6184687,4.452817 2.7044417,6.458844 3.4928936,1.746788 7.1468939,-0.9224 10.7990499,-0.988198 1.228638,-1.081861 3.532888,-0.787958 4.007066,-2.384401 1.100072,-0.460377 0.01163,-2.062717 1.283909,-2.717542 1.353338,-1.085841 2.640408,-2.513301 2.245903,-4.280317 1.402466,-1.865208 5.031128,-1.239379 5.163705,-4.126848 0.944208,-2.306842 0.01173,-4.7336798 -2.167296,-5.9085962 -2.354615,-0.7944131 -2.929613,-3.5147715 -5.012108,-4.5367243 0,0 -0.144111,-0.022459 -0.144111,-0.022459 0,0 -0.03182,0.054276 -0.03182,0.054276"
       id="path1296"
       inkscape:connector-curvature="0" />
    <path
       style="opacity:0.05882401;fill:none;stroke:#1d9228;stroke-width:2.83980727;stroke-miterlimit:4;stroke-dasharray:none"
       d="M 21.280373,3.0816774 C 20.553015,3.7743078 19.194998,3.0661603 18.501068,4.0605169 16.886868,5.3631285 14.699044,5.5069848 12.876952,5.9695346 11.060069,7.1773007 8.51214,7.8935452 7.4643257,9.9073514 7.7451506,12.963374 4.4413151,14.540804 3.1783939,17.006277 c -1.0506396,1.335139 -1.1318715,3.10017 -0.8010388,4.62656 -0.5254834,2.389351 1.5227216,4.16492 2.373171,6.189335 1.6617053,1.94758 4.5052291,0.669289 6.5917259,0.430465 2.309642,-0.89315 4.784435,-0.79805 6.928611,-2.05313 1.018732,-0.251466 1.5464,-0.460538 1.807952,-1.355029 1.174278,-0.886919 0.932489,-0.208359 0.539017,-1.341926 0.429547,-2.113912 3.860746,-3.016021 2.955233,-5.500591 1.146787,-2.065277 4.972244,-1.290521 5.165806,-4.099924 C 29.543255,11.837695 29.303175,9.3470602 27.252604,8.1387027 25.590316,6.9291478 23.846618,5.8905382 22.878707,3.9893966 22.489082,3.5390363 21.876614,2.9619129 21.280373,3.0816774 c 0,0 0,0 0,0"
       id="path1300"
       inkscape:connector-curvature="0" />
    <path
       style="opacity:0.05882401;fill:none;stroke:#d9f6e7;stroke-width:2.83980727;stroke-miterlimit:4;stroke-dasharray:none"
       d="M 21.209253,2.920721 C 20.746946,3.7356505 19.395351,2.878249 18.808008,3.7161451 17.177028,4.9527453 15.153647,5.5245353 13.16892,5.6925398 11.176404,6.9166826 8.6226773,7.7351638 7.3539021,9.791313 c 0.1694987,1.409893 -0.428656,2.637952 -1.4471612,3.589379 -1.6716399,2.168136 -4.4720046,4.482315 -3.7015717,7.516612 0.1490992,1.144996 -0.3046228,2.506717 0.5030002,3.590131 0.8463116,1.133191 1.3056079,2.489201 2.1284496,3.619218 1.4104362,1.555991 3.5856668,0.614826 5.352256,0.541025 2.024012,-0.457143 4.032924,-1.219737 6.078391,-1.391966 1.160685,-0.707476 2.562517,-1.077981 3.753529,-1.587735 -0.370239,-1.129768 1.572775,-1.24538 1.867843,-1.916504 -0.740048,0.54643 -1.400056,0.267412 -1.081776,-0.598907 0.80383,-1.748747 3.685816,-2.775685 2.874756,-5.040182 0.548655,-1.321631 2.396617,-1.397377 3.520049,-2.053335 1.594656,-0.335952 1.611869,-2.198126 1.96261,-3.493037 C 29.546663,10.996809 29.1473,9.3925437 27.773586,8.4417592 26.340299,7.013349 24.267938,6.3882891 23.374677,4.4367057 22.866388,3.725217 22.148772,2.8765155 21.209253,2.920721 c 0,0 0,0 0,0"
       id="path1304"
       inkscape:connector-curvature="0" />
    <path
       style="opacity:0.05882401;fill:none;stroke:#eba8c0;stroke-width:2.83980727;stroke-miterlimit:4;stroke-dasharray:none"
       d="m 21.102573,2.7934533 c -0.119486,0.6648964 -1.015791,0.220338 -1.47318,0.4014954 -1.026377,0.299497 -1.795184,1.1646256 -2.815686,1.5230701 -1.084283,0.5259368 -2.304033,0.707082 -3.483102,0.7737117 C 11.72856,6.2773958 10.132919,7.214704 8.6285993,8.1929117 8.0082511,8.837185 7.0160406,9.3540218 7.2134116,10.391955 c 0.00674,0.736177 -0.091495,1.480252 -0.659861,2.006476 -1.6347344,2.196303 -3.9966001,4.091984 -4.5819558,6.889552 -0.1901732,0.727785 0.1314034,1.464469 0.2110001,2.142632 -0.5686076,1.842412 0.6065183,3.529858 1.5714843,4.985074 0.4246817,1.153529 1.1825125,2.415827 2.53575,2.643411 1.1588947,0.260614 2.2865676,-0.242449 3.4461415,-0.2147 2.1531563,-0.286469 4.1568833,-1.391359 6.3582373,-1.347884 1.264788,-0.782623 2.694342,-1.224501 4.085673,-1.721859 -0.426982,-0.74935 0.582795,-1.096828 1.069453,-1.399491 0.824422,-0.178147 1.02928,-1.113111 0.04399,-0.54756 -0.543773,0.384878 -0.494836,-0.489875 -0.306791,-0.792951 0.85487,-1.490768 2.940018,-2.313268 2.972078,-4.226041 -0.04242,-0.396767 -0.341544,-0.873826 0.114167,-1.158512 1.305105,-0.991395 3.065688,-1.157663 4.362667,-2.148581 0.647855,-1.702705 1.25531,-3.655958 0.800581,-5.5032674 -1.064553,-1.7937394 -2.950122,-2.8718433 -4.59785,-4.02165 -1.031257,-1.1405621 -1.733859,-3.2138454 -3.535606,-3.1831503 0,0 0,0 0,0"
       id="path1308"
       inkscape:connector-curvature="0" />
    <path
       style="opacity:0.05882401;fill:none;stroke:#dc7bee;stroke-width:2.83980727;stroke-miterlimit:4;stroke-dasharray:none"
       d="m 22.208232,23.968282 c -2.350636,1.33189 -2.099169,1.12116 -1.876984,1.879951 -0.862129,0.318527 -2.906084,0.931689 -4.207645,1.768276 -2.287836,-0.125264 -5.082939,1.520977 -7.5565659,1.416377 C 5.7918002,29.820011 4.4480709,28.431866 3.8977214,27.032201 3.5440087,25.759911 1.2865797,24.070069 2.0959149,21.285228 0.60852395,17.82499 5.1717039,14.367107 6.9744911,11.611969 7.3834016,9.0752273 6.4362952,10.060672 8.7323757,7.9352061 11.596872,6.2638212 12.515355,5.6926881 13.412283,5.3243739 c 2.503923,0.066194 4.423552,-1.2519327 5.2646,-1.8084502 1.089143,-0.9710011 2.526163,-0.020148 2.277006,-0.8539535 1.946698,-0.1238321 2.649268,1.9523516 3.852425,3.3299527 1.593593,0.9097152 4.034186,2.7404574 4.598204,4.0774441 0.378931,2.062184 -0.338301,4.253174 -0.817445,5.258251 0.348683,0.842189 -5.423788,1.967869 -4.584166,3.009599 0.695552,2.503753 -3.487393,3.96206 -2.981814,5.454671 1.512162,-0.543659 1.06573,-0.181358 0.805877,-1.027597"
       id="path1312"
       inkscape:connector-curvature="0" />
    <path
       style="opacity:0.05882401;fill:none;stroke:#cce8a1;stroke-width:2.83980727;stroke-miterlimit:4;stroke-dasharray:none"
       d="m 20.836807,2.6849012 c 0.09292,0.4542348 -0.658363,0.135292 -0.903976,0.2339482 -1.216982,0.054045 -2.005177,1.1664142 -3.121814,1.5334477 -1.09898,0.5695996 -2.356534,0.7220697 -3.557108,0.809317 C 11.634513,6.0388879 10.094153,6.9960495 8.5648283,7.9280472 7.9408507,8.6083394 6.802905,9.1727386 6.9795849,10.264824 c 0.04096,0.823083 -0.1512897,1.594945 -0.7641983,2.180323 -1.6335502,2.136264 -3.9214499,4.040747 -4.4781018,6.79224 -0.1719397,0.731667 0.065032,1.486602 0.2035009,2.170672 -0.5455212,1.836616 0.5442494,3.580492 1.5491323,5.027575 0.4615333,1.097027 1.0483519,2.314283 2.2751866,2.715386 1.2635702,0.530639 2.5879017,-0.05129 3.8784513,-0.05226 2.2226901,-0.275194 4.2804241,-1.404484 6.5404891,-1.379524 1.331234,-0.820228 2.822939,-1.269214 4.299032,-1.796722 -0.330815,-0.464025 -0.06295,-0.896844 0.420151,-1.069938 0.411735,-0.433043 1.724117,-0.50873 1.310606,-1.261968 0.01804,-0.373126 -0.20885,-0.785113 -0.473051,-1.068766 0.379187,0.619537 -0.300286,1.426896 -0.626981,0.87216 -0.0026,-0.423528 0.66908,-0.743576 0.454796,-1.046217 0.329336,0.138422 0.757507,-0.589273 1.183795,-0.902101 0.91895,-0.822262 1.819547,-2.106271 1.296055,-3.372601 0.752087,-0.894082 2.04967,-1.086386 3.06753,-1.587105 0.641756,-0.311395 1.617798,-0.523191 1.692701,-1.362921 0.649823,-1.626176 1.081582,-3.484368 0.649675,-5.212572 C 28.404427,8.0810647 26.49254,6.9670201 24.808088,5.8066275 23.788114,4.6223345 23.08803,2.715848 21.304704,2.5445322 c -0.122767,0.068723 -0.629637,-0.1579411 -0.467897,0.140369 0,0 0,0 0,0"
       id="path1314"
       inkscape:connector-curvature="0" />
    <path
       style="opacity:0.05882401;fill:none;stroke:#13a0a2;stroke-width:2.83980727;stroke-miterlimit:4;stroke-dasharray:none"
       d="M 20.718897,2.7073602 C 20.176966,2.9033772 19.074844,2.6812594 18.531014,3.3268552 16.961224,4.505517 15.03651,5.0635688 13.095593,5.2012623 10.944535,6.4659387 8.2769432,7.3696733 6.9122079,9.5685942 6.9632453,10.919782 6.6001499,12.168414 5.5340975,13.0792 3.772143,15.302299 0.95577535,17.772578 1.7158583,20.931971 c 0.1062732,1.135373 -0.2411673,2.45587 0.4500076,3.545677 0.7485167,1.223875 1.4157757,2.48566 2.1223784,3.724456 1.1554754,1.631176 3.3128943,1.327428 5.0039481,1.052606 2.3730026,-0.189189 4.5640316,-1.44164 6.9536146,-1.432538 1.357849,-0.836053 2.897979,-1.289545 4.386997,-1.826668 -0.747768,-1.089696 1.148881,-1.25071 1.693785,-1.819181 0.481704,-0.494695 -0.551102,-1.44241 -0.301047,-1.865728 1.162471,-1.059482 2.788967,-2.504771 2.155789,-4.243129 1.276378,-1.248637 3.486228,-1.149144 4.635919,-2.52477 0.627083,-1.897412 1.505975,-4.227122 0.486612,-6.1388013 C 28.106787,7.6331646 26.038598,6.743294 24.572492,5.3088648 23.676079,3.9668019 22.565451,2.1323678 20.664621,2.4210076 c 0,0 0.04462,0.2353723 0.04462,0.2353723 0,0 0.0097,0.05098 0.0097,0.05098 m 0.937664,19.5711741 c -0.905058,-0.439554 0.395945,-0.809116 0,0 0,0 0,0 0,0 m -0.05802,0.559604 c 0.376221,1.089584 -0.952877,0.58483 0,0 0,0 0,0 0,0"
       id="path1318"
       inkscape:connector-curvature="0" />
    <path
       style="opacity:0.05882401;fill:none;stroke:#a3e556;stroke-width:2.83980727;stroke-miterlimit:4;stroke-dasharray:none"
       d="m 20.591629,2.6830297 c -2.237942,-0.2234271 -3.669955,2.1345318 -5.904853,2.1953702 -2.46283,-0.01279 -4.42644,1.8860051 -6.4606843,3.0363421 -1.3529318,0.7608938 -1.655153,2.140173 -1.5964933,3.56287 -1.8926979,2.920397 -5.97668616,5.634001 -4.9915197,9.610594 -0.3901554,2.017354 0.501705,4.01988 1.7368317,5.627859 0.5482404,2.263032 3.0867172,3.499698 5.2366974,2.676367 2.6503362,0.04714 5.0656512,-1.461784 7.6940902,-1.465452 1.386086,-0.857925 2.965199,-1.306703 4.478705,-1.856613 -0.883916,-1.521647 2.63065,-1.220257 1.658225,-2.807378 -0.950461,-1.37648 1.608187,-2.039343 1.84164,-3.511096 0.389866,-0.925201 -0.438417,-2.093415 1.048089,-2.279591 1.476938,-0.741384 3.802388,-0.954586 3.982734,-2.996409 0.795302,-2.19961 1.030168,-5.1178228 -1.222953,-6.551744 C 26.393421,6.4776266 24.471388,5.5512432 23.427082,3.5252433 22.755536,2.630494 21.636064,2.1364975 20.518637,2.3012261 c 0,0 0.06748,0.3529524 0.06748,0.3529524 0,0 0.0055,0.028851 0.0055,0.028851 m 0.976969,19.3521985 c -1.355616,-0.661102 0.597471,-1.21278 0,0 0,0 0,0 0,0 m 0.02433,1.182843 c -0.45037,0.382945 0.05472,-0.524049 0,0 0,0 0,0 0,0"
       id="path1322"
       inkscape:connector-curvature="0" />
    <path
       style="opacity:0.05882401;fill:none;stroke:#f2c3f6;stroke-width:2.83980727;stroke-miterlimit:4;stroke-dasharray:none"
       d="m 20.447518,2.5595049 c -2.576149,-0.00974 -4.364857,2.7991366 -7.136358,2.2852065 -2.300277,1.395112 -5.753562,2.294009 -6.6853048,5.0420525 -0.066958,3.4879211 -4.3626107,5.2458321 -5.1131728,8.6991311 -0.3190207,1.730111 0.042492,3.428367 0.1160384,5.163706 1.0314275,1.900379 1.7468152,4.234439 3.5597564,5.53428 3.6948219,1.401503 7.4914288,-1.111752 11.1771108,-1.253963 1.340028,-1.201638 4.472545,-1.023146 4.439403,-2.695084 1.643958,-0.432896 2.218972,-1.627102 1.45235,-2.917803 1.21255,-1.062003 2.732686,-2.553101 2.202857,-4.310262 1.893168,-1.211566 5.075923,-1.35382 5.161833,-4.227912 C 30.433653,11.567085 30.048335,8.8323896 27.789749,7.4967487 25.979727,6.3276233 24.424925,5.0077844 23.27174,3.1733851 22.740562,2.4463694 20.574286,1.5917006 20.447518,2.5595049 c 0,0 0,0 0,0 m 1.034986,19.2324171 c -1.808146,-0.880878 0.795444,-1.617339 0,0 0,0 0,0 0,0"
       id="path1326"
       inkscape:connector-curvature="0" />
    <path
       style="opacity:0.05882401;fill:none;stroke:#629d28;stroke-width:2.83980727;stroke-miterlimit:4;stroke-dasharray:none"
       d="m 20.301534,2.4378519 c -2.547111,0.1278585 -4.378077,2.7806574 -7.130743,2.3376108 -2.592615,1.5803678 -7.2293237,2.7786716 -6.7695262,6.6104423 -2.2444831,3.007146 -6.13195899,6.140568 -5.0158503,10.32741 -0.2895399,2.747743 1.6761303,5.12048 3.1274202,7.244909 3.6561407,2.377085 8.0755023,-0.770759 11.9145153,-0.825369 1.610713,-1.224611 4.541549,-1.158462 4.781903,-2.906573 2.770088,-0.331339 0.474279,-2.380007 1.79485,-3.355753 1.249459,-0.883976 1.78027,-2.51818 1.742447,-3.825522 1.961442,-1.017767 4.901432,-1.359682 4.99152,-4.138076 1.069489,-2.717648 0.01633,-5.6702005 -2.573431,-7.0614942 -2.817953,-0.9937379 -3.408675,-5.4340756 -6.936097,-4.7856453 0,0 0.07299,0.3780604 0.07299,0.3780604 m 1.096749,19.1107641 c -2.261805,-1.097612 0.994286,-2.022753 0,0 0,0 0,0 0,0"
       id="path1330"
       inkscape:connector-curvature="0" />
    <path
       style="opacity:0.05882401;fill:none;stroke:#fbeaef;stroke-width:2.83980727;stroke-miterlimit:4;stroke-dasharray:none"
       d="M 20.157421,2.3180704 C 17.582522,2.721658 15.533146,4.9963835 12.755299,4.8278671 10.256442,6.3909317 5.8105435,7.6173775 6.2870981,11.339114 4.0314775,14.339726 0.149775,17.501502 1.2675047,21.696471 c -0.2208426,2.864522 1.6972762,5.53662 3.4736635,7.591152 3.9178027,1.838619 8.3566618,-0.821276 12.2420428,-1.341926 2.833487,-0.800464 3.609226,-1.940504 5.58107,-3.352011 0.560919,-1.020271 -0.412922,-2.496071 1.231503,-3.378213 1.562902,-1.164506 0.157866,-3.69739 2.592147,-3.795575 3.729393,-0.530958 4.547946,-5.423893 3.299606,-8.3023559 -1.970756,-2.4105069 -4.879224,-3.7010074 -6.52622,-6.3783649 -0.59735,-0.6588828 -2.940783,-1.3534841 -3.003896,-0.4211068 0,0 0,0 0,0 m 1.15477,18.9872396 c -2.714336,-1.317388 1.192258,-2.427311 0,0 0,0 0,0 0,0"
       id="path1334"
       inkscape:connector-curvature="0" />
    <path
       style="opacity:0.05882401;fill:none;stroke:#2cdb97;stroke-width:2.83980727;stroke-miterlimit:4;stroke-dasharray:none"
       d="M 20.011438,2.2001605 C 17.476707,2.6843863 15.438169,4.8443827 12.702894,4.7211867 9.7911238,6.2205403 5.778049,7.876238 5.9202673,11.655413 c -2.5256562,2.857726 -5.78968579,6.20623 -4.8118475,10.319925 0.091299,2.86509 1.8141454,5.78034 3.9228441,7.632327 4.1644278,1.313034 8.6090581,-0.93605 12.5508551,-1.824796 2.687266,-0.620139 3.093766,-1.852523 5.042053,-3.086245 0.399035,-1.221742 -0.07583,-2.709119 1.596463,-3.829265 1.000863,-1.600769 0.300869,-3.592832 2.993117,-3.647108 3.375612,-0.967597 4.064679,-6.321995 2.069523,-8.7989389 C 26.83679,6.502098 24.753513,4.3933328 22.616686,2.2001605 c -0.563312,-0.2846028 -2.866232,-0.9257472 -2.605248,0 0,0 0,0 0,0 m 1.214659,18.8618435 c -3.166865,-1.537165 1.39023,-2.831869 0,0 0,0 0,0 0,0"
       id="path1338"
       inkscape:connector-curvature="0" />
    <path
       style="opacity:0.05882401;fill:none;stroke:#2662a6;stroke-width:2.83980727;stroke-miterlimit:4;stroke-dasharray:none"
       d="M 19.867326,2.0841221 C 17.306942,2.9066478 14.999233,4.5635056 12.246228,4.8128944 9.4744366,6.2620612 5.6451275,7.9247393 5.8454038,11.554347 3.1076062,14.496335 0.02733317,18.022493 0.96805094,22.291636 1.5503864,25.375693 3.1437965,29.700764 6.7175629,30.206573 11.884828,29.930016 16.804144,28.28294 21.53678,26.440941 c 0.08306,-1.6209 1.795235,-2.506791 1.714373,-4.310262 2.462307,-1.306523 0.686798,-4.991853 4.192353,-4.873609 3.78469,-1.433491 4.193429,-8.0580334 0.645697,-10.1365101 -3.291524,-0.9971155 -4.18776,-6.80997514 -8.221877,-5.0364378 0,0 0,0 0,0 m 1.272678,18.7345759 c -3.615956,-1.759359 1.586568,-3.232105 0,0 0,0 0,0 0,0"
       id="path1342"
       inkscape:connector-curvature="0" />
  </g>
</svg>
