<?xml version="1.0" encoding="UTF-8" standalone="no"?>
<!-- Created with Inkscape (http://www.inkscape.org/) -->

<svg
   xmlns:dc="http://purl.org/dc/elements/1.1/"
   xmlns:cc="http://creativecommons.org/ns#"
   xmlns:rdf="http://www.w3.org/1999/02/22-rdf-syntax-ns#"
   xmlns:svg="http://www.w3.org/2000/svg"
   xmlns="http://www.w3.org/2000/svg"
   xmlns:sodipodi="http://sodipodi.sourceforge.net/DTD/sodipodi-0.dtd"
   xmlns:inkscape="http://www.inkscape.org/namespaces/inkscape"
   id="svg4441"
   version="1.1"
   inkscape:version="0.48.4 r9939"
   width="337.45306"
   height="310.85562"
   xml:space="preserve"
   sodipodi:docname="drawing1.svg"><metadata
     id="metadata4447"><rdf:RDF><cc:Work
         rdf:about=""><dc:format>image/svg+xml</dc:format><dc:type
           rdf:resource="http://purl.org/dc/dcmitype/StillImage" /><dc:title></dc:title></cc:Work></rdf:RDF></metadata><defs
     id="defs4445" /><sodipodi:namedview
     pagecolor="#ffffff"
     bordercolor="#666666"
     borderopacity="1"
     objecttolerance="10"
     gridtolerance="10"
     guidetolerance="10"
     inkscape:pageopacity="0"
     inkscape:pageshadow="2"
     inkscape:window-width="1280"
     inkscape:window-height="996"
     id="namedview4443"
     showgrid="false"
     fit-margin-top="0"
     fit-margin-left="0"
     fit-margin-right="0"
     fit-margin-bottom="0"
     inkscape:zoom="1.2966372"
     inkscape:cx="245.20049"
     inkscape:cy="289.02587"
     inkscape:window-x="0"
     inkscape:window-y="0"
     inkscape:window-maximized="1"
     inkscape:current-layer="g4451" /><g
     id="g4449"
     inkscape:groupmode="layer"
     inkscape:label="16061202"
     transform="matrix(1.25,0,0,-1.25,-126.39488,738.1999)"><g
       id="g4451"
       transform="matrix(0,-576,823.68,0,-647.36541,633.52678)"><path
         style="fill:#000000"
         d="m 0.42162024,0.90896495 c -0.008932,4.9831e-4 -0.014889,0.001188 -0.0218712,0.00253 -0.0122547,0.002357 -0.0285763,0.004999 -0.0379975,0.00615 -0.008505,0.00104 -0.0188627,9.9236e-4 -0.0317979,-1.4557e-4 -0.0226374,-0.001991 -0.0544536,-0.001154 -0.0683333,0.001799 -0.002979,6.3374e-4 -0.006694,0.001336 -0.008256,0.001561 -0.003777,5.4324e-4 -0.0201836,0.005434 -0.0258121,0.007694 -0.005429,0.00218 -0.0188097,0.0112497 -0.025099,0.017012 -0.002521,0.00231 -0.004971,0.00451 -0.005444,0.00489 -4.7342e-4,3.8001e-4 -0.001768,0.001609 -0.002877,0.002731 -0.001109,0.001122 -0.002222,0.002171 -0.002475,0.002331 -0.001182,7.5035e-4 -0.004917,0.005165 -0.005915,0.006993 -6.1265e-4,0.001122 -0.001828,0.002729 -0.002701,0.003572 -8.7268e-4,8.4272e-4 -0.002076,0.003072 -0.002675,0.004953 -5.9841e-4,0.001882 -0.001472,0.004208 -0.001942,0.005169 -0.003368,0.006893 -0.003231,0.0193772 3.1309e-4,0.028666 0.003063,0.00803 0.004623,0.012569 0.004358,0.012687 -1.2472e-4,5.53e-5 -0.003414,9.662e-4 -0.00731,0.00202 -0.0107133,0.00291 -0.019083,0.00572 -0.0224186,0.00754 -0.001649,8.975e-4 -0.004165,0.0021 -0.005591,0.00268 l -0.002593,0.00105 -0.003497,-0.00237 c -0.006657,-0.00452 -0.0177312,-0.00783 -0.0288161,-0.00863 -0.006658,-4.771e-4 -0.018618,0.00116 -0.0194021,0.00265 -2.6302e-4,5.009e-4 -7.4268e-4,0.00104 -0.001066,0.0012 -0.002901,0.00144 -0.00435,0.013959 -0.002436,0.021045 0.001642,0.00608 0.009308,0.014653 0.0180673,0.020215 l 0.002113,0.00134 -0.00546,0.00827 c -0.005713,0.00866 -0.00691,0.011119 -0.009831,0.02022 -0.001488,0.00464 -0.001838,0.008 -0.002151,0.020688 -3.3266e-4,0.013472 -1.8395e-4,0.015894 0.001342,0.021853 0.002434,0.00951 0.003974,0.014635 0.004898,0.016317 4.4019e-4,8.013e-4 0.001064,0.0028 0.001385,0.00445 l 5.8491e-4,0.00299 -0.004612,0.00184 c -0.00731,0.00293 -0.0142159,0.00823 -0.0182345,0.013995 l -0.003472,0.00499 2.3872e-4,0.00612 c 2.0566e-4,0.00527 5.3362e-4,0.0065 0.002368,0.00886 0.004724,0.00607 0.013927,0.010542 0.0249998,0.012149 0.008909,0.00129 0.0248964,-2.094e-4 0.0317467,-0.00298 0.001836,-7.437e-4 0.003081,-9.276e-4 0.00375,-5.539e-4 5.5092e-4,3.076e-4 0.002314,0.0013 0.003918,0.00221 0.001604,9.066e-4 0.004003,0.00213 0.005331,0.00271 0.002904,0.00128 0.0155763,0.00355 0.0227854,0.00409 0.00286,2.126e-4 0.006357,6.687e-4 0.007771,0.00101 0.003841,9.364e-4 0.004778,-4.26e-5 0.002871,-0.003 -0.001712,-0.00266 -0.001378,-0.00333 0.001181,-0.00237 0.001603,5.998e-4 0.0215219,0.00351 0.0240779,0.00352 7.1156e-4,0 0.001006,-5.64e-4 8.3334e-4,-0.0016 -2.3462e-4,-0.0014 -8.59e-6,-0.00158 0.001815,-0.00145 0.005718,4.25e-4 0.0085,8.493e-4 0.0106065,0.00162 0.002285,8.335e-4 0.00606,0.00116 0.00606,5.202e-4 0,-1.814e-4 -4.0102e-4,-8.537e-4 -8.9116e-4,-0.00149 -6.4779e-4,-8.464e-4 -6.2184e-4,-0.00139 9.504e-5,-0.00199 8.3062e-4,-6.999e-4 0.001267,-5.8e-4 0.002766,7.6e-4 0.002331,0.00208 0.006803,0.00488 0.009572,0.00598 0.001214,4.827e-4 0.00552,0.00239 0.009569,0.00424 0.007222,0.0033 0.0211843,0.0085 0.0238085,0.00886 0.009205,0.00127 0.0151836,0.00221 0.0175808,0.00276 0.003708,8.608e-4 0.00331,7.965e-4 0.0116667,0.00189 0.003896,5.081e-4 0.0104583,0.00138 0.0145833,0.00194 0.005395,7.281e-4 0.009137,8.972e-4 0.0133333,6.022e-4 0.009913,-6.968e-4 0.0114666,-0.0011 0.0366667,-0.0095 0.004125,-0.00138 0.00988,-0.00291 0.0127885,-0.00341 0.002909,-5.028e-4 0.005731,-0.00117 0.006271,-0.00148 5.4045e-4,-3.137e-4 0.002661,-7.138e-4 0.004711,-8.89e-4 0.002051,-1.754e-4 0.006729,-6.013e-4 0.0103955,-9.467e-4 0.003667,-3.453e-4 0.0169792,-7.547e-4 0.0295833,-9.098e-4 0.0126042,-1.55e-4 0.0232917,-2.934e-4 0.02375,-3.075e-4 0.002741,-8.44e-5 0.008783,7.093e-4 0.0114902,0.00151 0.004858,0.00144 0.0108971,6.888e-4 0.0155932,-0.00193 0.006704,-0.00374 0.0141718,-0.00926 0.0141718,-0.010486 0,-8.453e-4 6.3273e-4,-0.00123 0.002227,-0.00137 0.001625,-1.345e-4 0.002263,-5.388e-4 0.002361,-0.0015 1.4032e-4,-0.00138 -0.001676,-0.00183 -0.002331,-5.827e-4 -2.5491e-4,4.862e-4 -6.6125e-4,5.346e-4 -0.001222,1.457e-4 -5.0108e-4,-3.477e-4 -6.685e-4,-0.00252 -4.1507e-4,-0.00538 3.6113e-4,-0.00407 6.6573e-4,-0.00484 0.002033,-0.00515 0.002025,-4.495e-4 0.001646,-0.00214 -5.742e-4,-0.00256 -0.001443,-2.752e-4 -0.001702,-9.118e-4 -0.001962,-0.00483 -3.0123e-4,-0.00454 2.2446e-4,-0.00533 0.002531,-0.00377 6.0566e-4,4.082e-4 0.002106,7.36e-4 0.003333,7.284e-4 0.002027,-1.28e-5 0.002117,-1.029e-4 9.8034e-4,-9.813e-4 -6.8857e-4,-5.32e-4 -0.002252,-0.00114 -0.003474,-0.00136 -0.003125,-5.485e-4 -0.003425,-0.00115 -0.002904,-0.0058 5.1221e-4,-0.00457 0.001201,-0.00555 0.00313,-0.00443 9.4322e-4,5.475e-4 0.001579,5.756e-4 0.002388,1.057e-4 8.0475e-4,-4.67e-4 0.001365,-4.574e-4 0.002069,3.56e-5 5.3145e-4,3.717e-4 0.001206,5.078e-4 0.0015,3.025e-4 4.9115e-4,-3.435e-4 -0.003066,-0.00165 -0.006548,-0.0024 -0.001562,-3.381e-4 -0.002057,-0.00268 -5.6605e-4,-0.00268 5.5822e-4,0 8.1546e-4,-0.00132 6.8709e-4,-0.00352 -1.7746e-4,-0.00304 3.975e-5,-0.00364 0.001608,-0.0044 0.002593,-0.00127 0.002241,-0.00199 -9.7415e-4,-0.00199 -0.001771,0 -0.00367,-5.309e-4 -0.005208,-0.00146 -0.004576,-0.00275 -0.006678,-0.00226 -0.0190879,0.00445 -0.008499,0.0046 -0.0122279,0.00577 -0.0201054,0.00634 -0.003895,2.81e-4 -0.007552,3.844e-4 -0.008128,2.298e-4 -5.7605e-4,-1.545e-4 -0.005029,-1.75e-5 -0.009896,3.053e-4 -0.0112136,7.43e-4 -0.0181756,-3.401e-4 -0.0256024,-0.00398 -0.002676,-0.00131 -0.005319,-0.00239 -0.005873,-0.00239 -5.7764e-4,0 -8.11e-4,-4.345e-4 -5.4776e-4,-0.00102 0.001371,-0.00305 0.003397,-0.00646 0.005918,-0.00996 0.005062,-0.00703 0.00951,-0.017266 0.0113265,-0.026065 9.2183e-4,-0.00447 0.002066,-0.00998 0.002542,-0.012264 0.001014,-0.00485 9.1781e-4,-0.015334 -1.8576e-4,-0.020331 -4.2472e-4,-0.00192 -9.8566e-4,-0.00444 -0.001247,-0.0056 l -4.7433e-4,-0.00211 0.006969,-0.00158 c 0.006543,-0.00148 0.0203812,-0.0027 0.0303027,-0.00266 0.001833,6.4e-6 0.004915,-1.2e-4 0.006849,-2.809e-4 0.003407,-2.834e-4 0.003671,-1.806e-4 0.008542,0.00332 0.002764,0.00199 0.005026,0.00379 0.005026,0.004 0,8.68e-4 0.006489,0.00337 0.009649,0.00373 0.002585,2.886e-4 0.003664,1.557e-4 0.004508,-5.55e-4 7.232e-4,-6.094e-4 0.00186,-8.244e-4 0.003268,-6.181e-4 0.001187,1.739e-4 0.002666,8.8e-5 0.003285,-1.909e-4 8.9274e-4,-4.018e-4 7.5831e-4,-6.874e-4 -6.477e-4,-0.00138 -0.001506,-7.375e-4 -0.001645,-0.00111 -9.1821e-4,-0.00244 4.7408e-4,-8.65e-4 8.593e-4,-0.00272 8.593e-4,-0.00411 0,-0.00139 2.283e-4,-0.00295 5.0733e-4,-0.00346 4.5924e-4,-8.369e-4 0.003756,-0.00216 0.006993,-0.00281 6.875e-4,-1.382e-4 -5.1421e-4,-4.382e-4 -0.00267,-6.667e-4 -0.003768,-3.994e-4 -0.00389,-4.723e-4 -0.003125,-0.00188 4.3749e-4,-8.047e-4 7.9545e-4,-0.00236 7.9545e-4,-0.00346 0,-0.00135 3.8932e-4,-0.002 0.001194,-0.002 6.5662e-4,0 0.00144,-5.434e-4 0.001742,-0.00121 3.2246e-4,-7.105e-4 0.001021,-0.00108 0.001696,-8.996e-4 6.3141e-4,1.695e-4 0.00137,5.71e-5 0.001641,-2.492e-4 2.8333e-4,-3.206e-4 -9.8551e-4,-5.573e-4 -0.002987,-5.573e-4 -0.003202,0 -0.00344,-1.047e-4 -0.002977,-0.00131 2.7637e-4,-7.212e-4 5.0761e-4,-0.00229 5.1387e-4,-0.0035 9.91e-6,-0.00191 2.6e-4,-0.00219 0.001998,-0.00219 0.001285,0 0.00214,-4.113e-4 0.002422,-0.00117 3.6201e-4,-9.681e-4 2.558e-5,-0.00117 -0.001986,-0.00117 -0.002672,0 -0.002837,-3.887e-4 -0.001545,-0.00364 6.1254e-4,-0.00154 0.001332,-0.00219 0.002446,-0.00219 0.002456,0 0.003022,-0.00127 9.8558e-4,-0.00222 -0.001395,-6.477e-4 -0.001809,-0.00142 -0.001809,-0.00337 0,-0.00317 -0.003449,-0.00841 -0.007453,-0.011317 -0.003225,-0.00234 -0.008726,-0.00377 -0.0166185,-0.00431 -0.002468,-1.695e-4 -0.004709,-4.628e-4 -0.004979,-6.518e-4 -2.7026e-4,-1.89e-4 -5.0065e-4,-0.00151 -5.1199e-4,-0.00293 -1.134e-5,-0.00142 -3.0186e-4,-0.00259 -6.4561e-4,-0.00259 -3.4375e-4,0 -6.25e-4,-3.025e-4 -6.25e-4,-6.699e-4 0,-3.675e-4 -0.0013,-0.00204 -0.00289,-0.00371 -0.004032,-0.00425 -0.00625,-0.00483 -0.017527,-0.00457 -0.005042,1.16e-4 -0.009729,3.585e-4 -0.0104167,5.387e-4 -6.875e-4,1.801e-4 -0.007468,4.469e-4 -0.0150685,5.928e-4 l -0.0138185,2.653e-4 -0.002372,-0.00424 c -0.001305,-0.00233 -0.003722,-0.00555 -0.005373,-0.00715 -0.001651,-0.001603 -0.003636,-0.003615 -0.004412,-0.004471 -7.7591e-4,-8.5665e-4 -0.004515,-0.003275 -0.008309,-0.005374 -0.003794,-0.002099 -0.00821,-0.004665 -0.009814,-0.005703 l -0.002916,-0.001887 0.002916,-4.9802e-4 c 0.001604,-2.7389e-4 0.005107,-7.4324e-4 0.007786,-0.001043 0.002678,-2.997e-4 0.005191,-6.8368e-4 0.005583,-8.5332e-4 6.2228e-4,-2.6894e-4 0.0112808,-0.002312 0.015069,-0.002888 7.4545e-4,-1.1346e-4 0.003745,-8.5769e-4 0.006667,-0.001654 0.002921,-7.9615e-4 0.006811,-0.001769 0.008645,-0.002163 0.001833,-3.9348e-4 0.003708,-9.056e-4 0.004167,-0.001138 4.5833e-4,-2.3246e-4 0.002608,-7.2541e-4 0.004777,-0.001095 0.005226,-8.9144e-4 0.007162,-2.7145e-4 0.0152198,0.004875 0.006735,0.004302 0.00808,0.004802 0.0131695,0.004895 0.004908,9.004e-5 0.009691,-0.002148 0.009023,-0.004221 -8.709e-5,-2.7046e-4 3.2212e-4,-3.6883e-4 9.0936e-4,-2.1859e-4 5.8725e-4,1.5029e-4 9.7396e-4,5.6818e-4 8.5938e-4,9.2879e-4 -2.4818e-4,7.81e-4 0.001989,8.8642e-4 0.002662,1.254e-4 8.1588e-4,-9.2313e-4 -4.8673e-4,-0.002384 -0.002126,-0.002384 -0.001737,0 -0.002034,-6.1294e-4 -7.3693e-4,-0.00152 4.6231e-4,-3.2331e-4 9.3106e-4,-0.001652 0.001042,-0.002953 1.2717e-4,-0.001496 5.5304e-4,-0.002272 0.001158,-0.002111 0.001497,3.9697e-4 0.00222,-9.4364e-4 0.001043,-0.001935 -5.8774e-4,-4.9522e-4 -0.001197,-0.002946 -0.001368,-0.005505 -2.6662e-4,-0.003987 -1.327e-4,-0.004565 9.8764e-4,-0.004264 0.001638,4.3957e-4 0.001774,-0.001273 1.5307e-4,-0.001933 -0.001501,-6.1195e-4 -0.003054,-0.007036 -0.002117,-0.008759 3.9556e-4,-7.2756e-4 0.001318,-0.001323 0.002051,-0.001323 0.001895,0 0.001165,-0.001916 -8.7819e-4,-0.002305 -0.001326,-2.528e-4 -0.001718,-9.063e-4 -0.001937,-0.003231 -1.5131e-4,-0.001603 -5.7164e-4,-0.004028 -9.3408e-4,-0.00539 -5.7792e-4,-0.002172 -4.7324e-4,-0.002477 8.5092e-4,-0.002477 0.002406,0 0.002668,-0.001035 5.1321e-4,-0.002022 -0.00109,-4.9936e-4 -0.002416,-0.001921 -0.002946,-0.00316 -8.6286e-4,-0.002014 -0.006792,-0.007431 -0.006792,-0.006205 0,2.7256e-4 -7.5e-4,2.098e-5 -0.001667,-5.592e-4 -0.002302,-0.001457 -0.00211,-0.002483 2.0834e-4,-0.00111 l 0.001875,0.00111 -0.001587,-0.001311 c -8.7311e-4,-7.2116e-4 -0.001974,-0.001311 -0.002446,-0.001311 -4.7234e-4,0 -0.001633,-4.9954e-4 -0.002579,-0.00111 -0.003691,-0.002381 -0.0138509,-0.006118 -0.0196726,-0.007236 -0.006718,-0.00129 -0.008756,-0.001396 -0.0174644,-9.0991e-4 z m 0.0156881,0.001929 c 0.003368,3.768e-4 0.008089,0.001872 0.0109786,0.003478 6.875e-4,3.8193e-4 0.002375,0.001075 0.00375,0.001541 0.002955,0.001001 0.0155332,0.009537 0.0171404,0.0116323 6.1454e-4,8.0128e-4 0.001241,0.002045 0.001391,0.002763 2.1885e-4,0.001045 -1.0753e-4,0.001291 -0.001629,0.001228 -0.001046,-4.312e-5 -0.002278,-9.91e-6 -0.002736,7.389e-5 -0.001823,3.3357e-4 -0.003519,-4.021e-5 -0.005225,-0.001151 -0.001855,-0.001209 -0.003525,-0.001528 -0.003525,-6.7331e-4 0,7.8146e-4 0.002663,0.002161 0.005833,0.003021 0.001604,4.3526e-4 0.003187,0.001068 0.003518,0.001407 4.1986e-4,4.3001e-4 0.001048,4.2069e-4 0.002083,-3.088e-5 0.00135,-5.8934e-4 0.001572,-2.2635e-4 0.002488,0.004079 0.001459,0.006852 0.001414,0.007163 -0.001099,0.007604 -0.001519,2.6667e-4 -0.0034,-6.585e-5 -0.006235,-0.001102 -0.004361,-0.001595 -0.005756,-0.001816 -0.005756,-9.1329e-4 0,0.001011 0.006975,0.003104 0.0105334,0.003161 l 0.00345,5.537e-5 5.0099e-4,0.002914 c 0.001352,0.007864 5.3331e-4,0.008867 -0.005979,0.007325 -0.004514,-0.001069 -0.006698,-6.6032e-4 -0.00332,6.2103e-4 0.001044,3.9616e-4 0.003773,0.001018 0.006065,0.001382 l 0.004167,6.6206e-4 2.4998e-4,0.003651 c 1.4903e-4,0.002177 -1.4191e-4,0.003981 -7.2035e-4,0.004469 -0.001061,8.9435e-4 -0.003793,6.3572e-4 -0.007655,-7.2471e-4 -0.001991,-7.0152e-4 -0.002292,-6.9347e-4 -0.002292,6.125e-5 0,0.001114 0.002232,0.001938 0.006562,0.002422 0.003809,4.2593e-4 0.00427,0.001305 0.002523,0.00481 -0.001026,0.002059 -0.003087,0.00236 -0.006585,9.6107e-4 -0.002516,-0.001005 -0.003332,-0.00107 -0.003332,-2.6328e-4 0,3.3525e-4 0.001918,0.001231 0.004262,0.00199 l 0.004262,0.001381 -0.002554,9.2349e-4 c -0.003184,0.001151 -0.00785,0.001186 -0.0108028,8.135e-5 -0.001238,-4.6311e-4 -0.003905,-0.002037 -0.005927,-0.003496 -0.002022,-0.00146 -0.004031,-0.002654 -0.004464,-0.002654 -4.3305e-4,0 -5.3993e-4,-4.5094e-4 -2.375e-4,-0.001002 3.0243e-4,-5.5117e-4 3.0663e-4,-8.32e-4 9.33e-6,-6.2407e-4 -2.9729e-4,2.0787e-4 -0.00186,-1.4027e-4 -0.003473,-7.7366e-4 -0.002629,-0.001033 -0.003417,-0.001082 -0.007629,-4.7494e-4 -0.002583,3.722e-4 -0.005745,0.001053 -0.007027,0.001514 -0.006984,0.002507 -0.0289899,0.007193 -0.0414189,0.00882 -0.0118511,0.001551 -0.01302,0.001362 -0.0184539,-0.002986 -0.0281986,-0.0225628 -0.043863,-0.0332054 -0.0623361,-0.0423522 -0.004208,-0.002083 -0.00886,-0.004488 -0.0103383,-0.005343 -0.001478,-8.5548e-4 -0.00461,-0.002441 -0.006959,-0.003523 -0.004864,-0.00224 -0.0119123,-0.006631 -0.0119123,-0.007421 0,-0.001634 0.0370692,-0.001396 0.0481794,3.0903e-4 0.005703,8.7535e-4 0.007051,9.2616e-4 0.007616,2.8706e-4 6.3955e-4,-7.2366e-4 0.005326,-6.1107e-4 0.0120052,2.8852e-4 0.001872,2.521e-4 0.023098,-0.001853 0.0267831,-0.002657 0.001375,-2.9976e-4 0.0055,-9.68e-4 0.009167,-0.001485 0.007243,-0.001021 0.009313,-0.001373 0.01875,-0.003185 0.0121709,-0.002337 0.0274565,-0.003188 0.0373547,-0.00208 z m 0.003479,0.0577348 c 0,4.8076e-4 5.5074e-4,8.7412e-4 0.001224,8.7412e-4 7.4549e-4,0 0.001036,-3.4167e-4 7.4418e-4,-8.7412e-4 -2.6383e-4,-4.8077e-4 -8.1455e-4,-8.7413e-4 -0.001224,-8.7413e-4 -4.0929e-4,0 -7.4418e-4,3.9336e-4 -7.4418e-4,8.7413e-4 z M 0.27495323,0.92062164 c 0.001604,6.768e-4 0.003854,0.001833 0.005,0.00257 0.006273,0.004033 0.007806,0.004936 0.008386,0.004936 5.2346e-4,0 0.0105656,0.005035 0.0137191,0.006878 4.7025e-4,2.7488e-4 0.00197,9.8491e-4 0.003333,0.001578 0.001363,5.9289e-4 0.002853,0.001359 0.003312,0.001702 0.001304,9.7553e-4 0.008177,0.00474 0.009754,0.005343 0.002694,0.001029 0.0127661,0.007523 0.0206623,0.0133214 0.004354,0.003197 0.009323,0.006816 0.0110417,0.008041 0.001719,0.001225 0.003125,0.002479 0.003125,0.002787 0,3.0816e-4 3.0953e-4,5.6026e-4 6.8783e-4,5.6026e-4 3.7831e-4,0 0.002722,0.00177 0.005208,0.003934 0.005704,0.004964 0.0169199,0.0129662 0.0181721,0.0129662 0.00124,0 0.0134317,0.006915 0.0134317,0.007618 0,2.972e-4 5.1119e-4,5.4039e-4 0.001136,5.4039e-4 0.002505,0 0.0155307,0.0115603 0.0155307,0.0137835 0,4.302e-4 0.001081,0.00242 0.002401,0.00443 0.003365,0.00511 0.004265,0.00723 0.004265,0.010079 0,0.00169 4.0695e-4,0.00258 0.001282,0.00282 0.00201,5.393e-4 0.002248,-9.033e-4 8.4672e-4,-0.00513 -0.001666,-0.00502 -0.001737,-0.00478 0.001413,-0.00489 0.00149,-5.25e-5 0.005333,-2.248e-4 0.008542,-3.835e-4 0.0293471,-0.00145 0.0329878,-0.00155 0.0355996,-9.44e-4 0.004273,9.876e-4 0.007166,0.00403 0.008498,0.00892 6.3494e-4,0.00233 0.001018,0.00434 8.5126e-4,0.00447 -5.6768e-4,4.135e-4 -0.0174261,2.41e-5 -0.024948,-5.771e-4 -0.004125,-3.298e-4 -0.0148125,-5.381e-4 -0.02375,-4.629e-4 -0.0337663,2.838e-4 -0.0427307,8.12e-5 -0.0498458,-0.00113 -0.008837,-0.0015 -0.0131909,-0.00309 -0.020563,-0.0075 -0.003362,-0.00201 -0.00652,-0.00366 -0.007019,-0.00366 -4.9822e-4,0 -9.0584e-4,-2.3e-4 -9.0584e-4,-5.111e-4 0,-9.864e-4 -0.007991,-0.00283 -0.0154167,-0.00355 -0.004125,-4.008e-4 -0.008625,-9.6e-4 -0.01,-0.00124 -0.004171,-8.571e-4 -0.0186681,-0.00173 -0.027429,-0.00164 -0.008281,7.88e-5 -0.0182523,0.00104 -0.0221543,0.00213 -0.001146,3.211e-4 -0.004109,0.00105 -0.006584,0.00162 -0.005423,0.00125 -0.0109396,0.00334 -0.0129977,0.00493 -8.3053e-4,6.418e-4 -0.001921,0.00117 -0.002423,0.00117 -5.0188e-4,4e-7 -0.002038,6.726e-4 -0.003413,0.00149 -0.003193,0.00191 -0.010953,0.00667 -0.0129133,0.00792 -0.002018,0.00129 -0.003397,0.00152 -0.0115121,0.00196 l -0.006925,3.742e-4 6.1408e-4,-0.00223 c 6.6895e-4,-0.00243 6.583e-4,-0.00423 -2.792e-5,-0.00471 -2.406e-4,-1.683e-4 -0.002042,-2.57e-5 -0.004003,3.164e-4 -0.005416,9.453e-4 -0.0107651,0.00177 -0.0137739,0.00211 -0.002297,2.642e-4 -0.002708,1.355e-4 -0.002708,-8.473e-4 0,-0.00122 0.001356,-0.00317 0.003162,-0.00454 5.9338e-4,-4.503e-4 9.3042e-4,-0.00112 7.4899e-4,-0.00148 -3.6394e-4,-7.29e-4 -0.001833,-7.723e-4 -0.006828,-2.013e-4 l -0.003333,3.811e-4 -0.003054,-0.00683 c -0.002849,-0.00637 -0.004686,-0.0122584 -0.004677,-0.0149891 2.5e-6,-6.4102e-4 -7.291e-5,-0.003826 -1.6669e-4,-0.007077 -9.801e-5,-0.003399 2.1615e-4,-0.006417 7.3903e-4,-0.0071 5.0022e-4,-6.5362e-4 9.095e-4,-0.001879 9.095e-4,-0.002722 0,-8.4341e-4 3.8279e-4,-0.002034 8.5065e-4,-0.002645 4.6785e-4,-6.1137e-4 0.00122,-0.002475 0.001672,-0.004142 4.5201e-4,-0.001667 0.001904,-0.004231 0.003227,-0.005697 0.001323,-0.001467 0.002683,-0.003323 0.003023,-0.004124 3.4019e-4,-8.0128e-4 0.002218,-0.002934 0.004174,-0.004739 0.001955,-0.001805 0.003998,-0.00386 0.004538,-0.004566 5.4063e-4,-7.0641e-4 0.003578,-0.003343 0.006749,-0.00586 0.003171,-0.002517 0.005766,-0.004794 0.005766,-0.005061 0,-2.6672e-4 0.001895,-0.001529 0.004212,-0.002804 0.002316,-0.001276 0.005148,-0.003172 0.006292,-0.004213 0.001144,-0.001042 0.00253,-0.001895 0.00308,-0.001895 5.4959e-4,0 0.002312,-7.8688e-4 0.003916,-0.001747 0.001604,-9.6002e-4 0.003498,-0.001746 0.004208,-0.001747 7.1042e-4,0 0.001648,-2.3205e-4 0.002083,-5.1404e-4 0.001525,-9.8747e-4 0.0171542,-0.005347 0.0220104,-0.006139 0.002697,-4.3986e-4 0.005368,-0.001001 0.005936,-0.001246 0.003695,-0.001597 0.009724,-0.001684 0.013262,-1.9114e-4 z m -0.005417,0.0850122 c -2.8326e-4,3.205e-4 -1.179e-4,5.828e-4 3.6749e-4,5.828e-4 4.8538e-4,0 8.8251e-4,-2.623e-4 8.8251e-4,-5.828e-4 0,-3.205e-4 -1.6536e-4,-5.827e-4 -3.6748e-4,-5.827e-4 -2.0212e-4,0 -5.9925e-4,2.622e-4 -8.8252e-4,5.827e-4 z m 0.042917,0.00317 c 0.003896,4.629e-4 0.0109979,0.00127 0.0157823,0.00179 0.008374,9.109e-4 0.0115681,0.0016 0.0126345,0.00274 2.7505e-4,2.939e-4 0.001149,6.009e-4 0.001942,6.823e-4 7.9313e-4,8.14e-5 0.003756,0.00159 0.006583,0.00336 0.005635,0.00352 0.0106651,0.00591 0.0138912,0.00659 0.001146,2.427e-4 0.003208,7.746e-4 0.004583,0.00118 0.005714,0.00169 0.0121218,0.00206 0.0345951,0.00201 0.0125977,-3.21e-5 0.0262799,-6.21e-5 0.0304049,-6.69e-5 0.004125,-5.8e-6 0.008813,1.751e-4 0.0104167,3.999e-4 0.001604,2.248e-4 0.007792,4.989e-4 0.01375,6.092e-4 0.005958,1.103e-4 0.0143958,3.543e-4 0.01875,5.421e-4 0.004354,1.879e-4 0.009166,3.226e-4 0.0106931,2.993e-4 0.001588,-2.44e-5 0.002563,1.988e-4 0.002279,5.209e-4 -2.7378e-4,3.098e-4 8.2056e-4,8.966e-4 0.002432,0.0013 0.001611,4.075e-4 0.00293,0.00106 0.00293,0.00145 0,3.896e-4 2.9662e-4,7.959e-4 6.5917e-4,9.027e-4 0.001566,4.613e-4 0.006007,0.00702 0.006007,0.00887 l 0,0.00199 -0.002906,-6.237e-4 c -0.001598,-3.431e-4 -0.003645,-0.0011 -0.004548,-0.00169 -0.0019,-0.00124 -0.00339,-0.00139 -0.003353,-3.415e-4 3.234e-5,8.992e-4 0.00278,0.00229 0.00664,0.00335 0.001604,4.431e-4 0.003138,0.00103 0.003409,0.0013 6.0152e-4,6.11e-4 -0.001426,0.00628 -0.002519,0.00705 -4.946e-4,3.458e-4 -0.002198,8.7e-5 -0.004579,-6.957e-4 -0.004487,-0.00148 -0.004643,-0.00149 -0.004643,-4.211e-4 0,4.539e-4 0.001125,0.00117 0.0025,0.0016 0.001375,4.256e-4 0.0025,9.839e-4 0.0025,0.00124 0,2.568e-4 0.001242,3.04e-4 0.002759,1.049e-4 l 0.002759,-3.62e-4 -6.0554e-4,0.0034 c -3.3306e-4,0.00187 -6.372e-4,0.00388 -6.7587e-4,0.00448 -5.667e-5,8.733e-4 -4.9588e-4,0.00101 -0.002268,6.974e-4 -0.001208,-2.121e-4 -0.0034,-0.00103 -0.00487,-0.00181 -0.003079,-0.00164 -0.003766,-0.00175 -0.003766,-5.954e-4 0,9.194e-4 0.009029,0.00458 0.0103913,0.00421 0.001013,-2.732e-4 6.6446e-4,0.00605 -3.7516e-4,0.00681 -8.7993e-4,6.444e-4 -0.004168,-6.12e-4 -0.006102,-0.00233 -0.001505,-0.00134 -0.003914,-0.00186 -0.003914,-8.519e-4 0,0.00101 0.006812,0.0054 0.007925,0.0051 0.001618,-4.342e-4 0.001849,5.232e-4 0.001093,0.00454 -0.001279,0.0068 -0.002029,0.00742 -0.005685,0.0047 -0.001076,-8.012e-4 -0.001639,-0.00146 -0.00125,-0.00146 3.8896e-4,0 -1.7354e-4,-6.556e-4 -0.00125,-0.00146 -0.001947,-0.00145 -0.004167,-0.00194 -0.004167,-9.236e-4 0,5.69e-4 0.002308,0.00264 0.006042,0.00542 0.00126,9.394e-4 0.002292,0.00183 0.002292,0.00197 0,7.824e-4 -0.004334,0.00127 -0.006892,7.775e-4 -0.003268,-6.31e-4 -0.005046,-0.00165 -0.008415,-0.00481 -0.001305,-0.00123 -0.003669,-0.00314 -0.005254,-0.00424 -0.002395,-0.00167 -0.003331,-0.00197 -0.005536,-0.00172 -0.001459,1.604e-4 -0.008203,4.475e-4 -0.0149854,6.381e-4 -0.0174555,4.904e-4 -0.02407,0.00185 -0.0489177,0.010065 -0.0100219,0.00331 -0.0206729,0.00583 -0.0279167,0.00659 -0.0112639,0.00118 -0.0195259,0.00172 -0.0258333,0.00168 -0.003667,-2.62e-5 -0.009854,2.517e-4 -0.01375,6.172e-4 -0.005435,5.099e-4 -0.008441,4.993e-4 -0.0129167,-4.6e-5 -0.003208,-3.908e-4 -0.008777,-7.719e-4 -0.0123745,-8.47e-4 -0.006012,-1.254e-4 -0.006703,-2.682e-4 -0.008542,-0.00177 -0.0011,-8.954e-4 -0.001974,-0.00205 -0.001942,-0.00256 6.542e-5,-0.00104 0.001458,-0.00353 0.00155,-0.00278 8.34e-5,6.861e-4 0.004225,-0.00285 0.004225,-0.00361 0,-3.448e-4 -0.001107,-0.0012 -0.002459,-0.0019 -0.003186,-0.00165 -0.003631,-0.00257 -0.002449,-0.00508 8.7949e-4,-0.00186 7.9516e-4,-0.00216 -9.0301e-4,-0.00312 -0.00103,-5.834e-4 -0.002623,-0.00106 -0.00354,-0.00106 -0.001472,0 -0.0016,-2.553e-4 -0.001096,-0.00218 3.1397e-4,-0.0012 0.001106,-0.00295 0.001759,-0.00388 6.537e-4,-9.306e-4 0.001189,-0.00177 0.001189,-0.00187 0,-9.6e-5 -0.001639,-6.816e-4 -0.003642,-0.0013 -0.004835,-0.0015 -0.005215,-0.00211 -0.002633,-0.00426 0.003358,-0.00279 0.002568,-0.00314 -0.006726,-0.00297 -0.009049,1.686e-4 -0.0114773,-3.103e-4 -0.009299,-0.00183 7.1693e-4,-5.014e-4 0.002121,-0.00184 0.00312,-0.00297 9.9894e-4,-0.00113 0.002161,-0.00206 0.002582,-0.00206 0.001285,0 8.5325e-4,-0.00144 -7.0463e-4,-0.00235 -8.085e-4,-4.718e-4 -0.002402,-0.00117 -0.003542,-0.00154 -0.008241,-0.00271 -0.0117931,-0.00361 -0.0156543,-0.00397 l -0.004416,-4.143e-4 0.001437,-0.00154 c 7.9015e-4,-8.492e-4 0.001946,-0.00181 0.00257,-0.00213 9.5463e-4,-4.968e-4 9.5343e-4,-7.613e-4 -7.5e-6,-0.00168 -8.7672e-4,-8.385e-4 -0.002719,-0.00119 -0.007962,-0.00151 -0.003752,-2.307e-4 -0.007007,-5.49e-4 -0.007233,-7.072e-4 -2.2636e-4,-1.583e-4 2.6694e-4,-9.179e-4 0.001096,-0.00169 0.002367,-0.0022 0.0046,-0.00618 0.003906,-0.00697 -4.5544e-4,-5.153e-4 -0.002447,-6.153e-4 -0.007177,-3.602e-4 -0.003601,1.942e-4 -0.006547,1.627e-4 -0.006547,-6.98e-5 0,-9.727e-4 0.010072,-0.00674 0.018285,-0.010474 0.005424,-0.00246 0.0123745,-0.00426 0.0208996,-0.00539 0.002441,-3.238e-4 0.004623,-7.179e-4 0.004849,-8.759e-4 9.393e-4,-6.568e-4 0.0260304,-2.325e-4 0.032633,5.519e-4 z m -0.12,0.00881 c 0,1.802e-4 -6.1351e-4,0.00164 -0.001363,0.00324 -0.001994,0.00426 -0.001379,0.00447 0.00949,0.00318 0.004926,-5.865e-4 0.009481,-0.00121 0.0101214,-0.00138 9.0488e-4,-2.426e-4 0.001039,6.67e-5 5.9877e-4,0.00139 -0.001175,0.00352 -0.001542,0.00665 -7.8132e-4,0.00665 4.3035e-4,0 0.00151,-3.85e-4 0.0024,-8.556e-4 8.8969e-4,-4.705e-4 0.003364,-8.639e-4 0.005497,-8.741e-4 0.002134,-9.9e-6 0.008675,-6.741e-4 0.0145357,-0.00148 0.0110095,-0.0015 0.0138527,-0.00172 0.0147432,-0.00109 6.5104e-4,4.553e-4 -0.002001,0.00413 -0.004327,0.00599 -0.003456,0.00277 -0.002529,0.0034 0.005544,0.00376 0.00401,1.809e-4 0.007744,3.826e-4 0.008297,4.483e-4 0.001066,1.266e-4 9.8676e-4,2.589e-4 -0.002031,0.00338 -0.002271,0.00235 -0.002089,0.00323 6.7897e-4,0.00329 0.003536,7.79e-5 0.0111658,9.577e-4 0.0115973,0.00134 2.2917e-4,2.016e-4 0.002606,0.00115 0.005282,0.00212 0.002676,9.615e-4 0.005009,0.00191 0.005186,0.0021 1.7624e-4,1.955e-4 -0.001372,0.00188 -0.00344,0.00374 -0.00532,0.00479 -0.004977,0.00519 0.004651,0.0054 0.0101526,2.22e-4 0.0104147,2.878e-4 0.00865,0.00217 -0.00112,0.0012 -0.001212,0.00178 -4.6357e-4,0.00292 5.1352e-4,7.881e-4 0.001421,0.00143 0.002016,0.00143 5.9535e-4,0 0.001874,3.878e-4 0.002842,8.62e-4 0.001573,7.705e-4 0.001657,0.00106 7.8566e-4,0.00277 -5.3582e-4,0.00105 -0.001432,0.00248 -0.001991,0.00318 -0.001459,0.00183 -0.001313,0.0033 2.8589e-4,0.00287 7.1654e-4,-1.923e-4 0.002415,5.24e-5 0.003774,5.441e-4 0.002382,8.613e-4 0.002451,10e-4 0.001912,0.00384 -5.2461e-4,0.00277 -4.1013e-4,0.00303 0.001851,0.00429 l 0.00241,0.00135 -0.001819,0.00136 c -0.003579,0.00268 -0.004116,0.0059 -0.001358,0.00814 0.001015,8.236e-4 9.2316e-4,0.00131 -6.9671e-4,0.00364 l -0.001867,0.00269 0.001559,0.0042 c 0.002534,0.00683 0.001872,0.015642 -0.002249,0.029899 -9.2641e-4,0.0032 -0.001991,0.0069 -0.002366,0.00821 -3.75e-4,0.00131 -0.001642,0.00364 -0.002817,0.00519 -0.001174,0.00154 -0.002135,0.00324 -0.002135,0.00377 0,0.0015 -0.004968,0.00586 -0.006683,0.00586 -0.002164,0 -0.002868,0.00205 -0.00125,0.00364 0.001296,0.00127 0.001213,0.0014 -0.002554,0.0037 -0.003878,0.00237 -0.003888,0.00239 -0.002479,0.00389 0.001368,0.00146 0.001351,0.00154 -5.1754e-4,0.00239 -0.001063,4.811e-4 -0.002949,0.00105 -0.004191,0.00126 -0.003743,6.434e-4 -0.004182,0.00156 -0.001883,0.00392 0.003002,0.00309 0.003357,0.00276 -0.005651,0.00531 -0.003415,9.69e-4 -0.003814,0.00157 -0.001814,0.00273 0.001125,6.528e-4 0.004522,0.00471 0.004522,0.0054 0,3.886e-4 -0.009261,0.00158 -0.0141667,0.00182 l -0.004583,2.248e-4 0,0.00221 c 0,0.00246 -0.001691,0.00342 -0.007083,0.00402 -0.004824,5.35e-4 -0.0125,0.00218 -0.0125,0.00267 0,2.555e-4 9.4675e-4,0.00144 0.002104,0.00263 0.001157,0.00119 0.00197,0.00245 0.001806,0.00279 -1.6381e-4,3.436e-4 -0.00232,8.282e-4 -0.004791,0.00108 -0.005236,5.269e-4 -0.006507,0.00116 -0.004965,0.00245 0.001808,0.00152 2.9347e-4,0.00171 -0.00573,6.891e-4 -0.00316,-5.335e-4 -0.006453,-9.699e-4 -0.007317,-9.699e-4 -8.6369e-4,0 -0.002435,-4.237e-4 -0.003493,-9.416e-4 -0.001414,-6.928e-4 -0.002168,-7.698e-4 -0.002852,-2.913e-4 -6.8414e-4,4.783e-4 -6.6559e-4,8.349e-4 7.025e-5,0.00135 0.001098,7.679e-4 0.001371,0.0028 3.75e-4,0.00279 -0.002439,-2.16e-5 -0.0174416,-0.00249 -0.0213545,-0.00351 -0.002641,-6.911e-4 -0.004981,-0.00113 -0.005199,-9.786e-4 -2.1851e-4,1.527e-4 4.4059e-4,0.00148 0.001465,0.00296 0.001024,0.00147 0.001697,0.00279 0.001496,0.00293 C 0.17758027,1.213758 0.16407613,1.212593 0.15841193,1.2116 0.15185393,1.21045 0.14658033,1.2086 0.14213513,1.20589 L 0.13889813,1.20392 0.14203013,1.20191 0.14516213,1.1999 0.1442141,1.19673 C 0.14369267,1.19499 0.1427471,1.19277 0.1421131,1.19181 0.1391241,1.18728 0.1374231,1.18375 0.1355011,1.178115 0.1311481,1.165339 0.1300071,1.163034 0.1257661,1.158447 c -0.001445,-0.00156 -0.002472,-0.00172 -0.001944,-2.914e-4 3.817e-4,0.00103 -0.002331,0.00128 -0.0166915,0.00154 l -0.003241,5.9e-5 -0.001559,-0.00379 c -0.002202,-0.00535 -0.004701,-0.013212 -0.006575,-0.020688 -0.001387,-0.00553 -0.001551,-0.00832 -0.001198,-0.020396 3.0972e-4,-0.0106 7.9038e-4,-0.015256 0.001985,-0.019231 0.002288,-0.00761 0.004595,-0.013056 0.006924,-0.016344 0.001125,-0.00159 0.002893,-0.00438 0.003929,-0.00621 0.001067,-0.00188 0.002784,-0.00373 0.003959,-0.00427 0.001891,-8.666e-4 0.002204,-8.693e-4 0.003528,-3.09e-5 7.9941e-4,5.06e-4 0.001926,9.199e-4 0.002504,9.199e-4 5.7794e-4,0 0.001673,5.23e-4 0.002434,0.00116 0.001018,8.552e-4 0.001714,0.00101 0.002634,5.827e-4 9.0849e-4,-4.21e-4 9.8481e-4,-6.997e-4 2.7937e-4,-0.00102 -7.192e-4,-3.266e-4 -6.5594e-4,-7.417e-4 2.4421e-4,-0.0016 6.6816e-4,-6.39e-4 0.00148,-0.00112 0.001804,-0.00106 6.8034e-4,1.14e-4 0.0109961,-0.00861 0.0110019,-0.0093 2.5e-6,-2.541e-4 0.001475,-0.00183 0.003272,-0.0035 0.005219,-0.00485 0.008696,-0.013529 0.007894,-0.019711 l -4.0697e-4,-0.00314 0.003581,-0.00171 c 0.008137,-0.00389 0.0105008,-0.00486 0.0156641,-0.00642 0.002979,-9.041e-4 0.006917,-0.00211 0.00875,-0.00268 0.00307,-9.559e-4 0.0158475,-0.00391 0.0172917,-0.004 3.4375e-4,-2.09e-5 6.25e-4,1.087e-4 6.25e-4,2.889e-4 z m -0.0191667,0.044491 c -0.008317,0.00126 -0.0243242,0.00708 -0.0273587,0.00995 -9.0426e-4,8.553e-4 -0.002598,0.00367 -0.003765,0.00625 -0.001688,0.00374 -0.002038,0.00548 -0.001717,0.00856 4.6474e-4,0.00445 5.3119e-4,0.00458 0.004744,0.00977 0.003419,0.00421 0.007647,0.0069 0.010827,0.0069 0.003795,0 0.012675,-0.00255 0.021605,-0.00619 8.8223e-4,-3.602e-4 0.002611,-0.00131 0.003843,-0.0021 0.001231,-7.947e-4 0.002875,-0.0016 0.003653,-0.00179 7.777e-4,-1.906e-4 0.003618,-0.00229 0.006312,-0.00466 0.008465,-0.00745 0.0105791,-0.015019 0.005848,-0.02094 -0.002285,-0.00286 -0.005066,-0.00439 -0.009472,-0.00522 -0.004392,-8.278e-4 -0.0109514,-0.00106 -0.0145189,-5.252e-4 z m 0.0180354,0.00326 c 0.001167,5.346e-4 0.003072,0.00242 0.004234,0.0042 0.001792,0.00274 0.002035,0.00375 0.0016,0.00666 -0.001258,0.00842 -0.0127235,0.017489 -0.0289883,0.02294 -0.0127558,0.00428 -0.0158527,0.00347 -0.0226557,-0.00592 -0.00272,-0.00375 -0.003611,-0.00825 -0.002271,-0.011454 0.003154,-0.00756 0.003911,-0.00876 0.0065,-0.010352 0.003115,-0.00191 0.0105319,-0.00451 0.0189586,-0.00664 0.006213,-0.00157 0.00917,-0.00183 0.0100036,-8.899e-4 7.8433e-4,8.874e-4 0.002917,6.948e-4 0.002917,-2.636e-4 0,-7.327e-4 5.085e-4,-7.392e-4 0.00379,-4.83e-5 0.002085,4.387e-4 0.004745,0.00123 0.005912,0.00177 z m -0.018243,0.015409 c -0.006158,0.00273 -0.007962,0.00624 -0.004802,0.00935 0.003319,0.00326 0.009356,0.00252 0.0141842,-0.00175 0.003836,-0.00339 0.003188,-0.00642 -0.001749,-0.00818 -0.001756,-6.265e-4 -0.003322,-0.00114 -0.00348,-0.00114 -1.5769e-4,0 -0.002027,7.718e-4 -0.004154,0.00171 z m 0.004371,0.00207 c 0.001327,0.00244 -0.002018,0.00612 -0.005564,0.00612 -0.001592,0 -0.001933,-3.082e-4 -0.001933,-0.00175 0,-9.615e-4 3.8677e-4,-0.00175 8.5948e-4,-0.00175 4.7273e-4,0 0.001092,-4.589e-4 0.001377,-0.00102 6.6289e-4,-0.00131 0.002809,-0.00306 0.003747,-0.00306 3.9864e-4,0 0.00108,6.534e-4 0.001514,0.00145 z m 0.005003,0.00197 c 0,0.00139 -0.001961,0.00316 -0.003707,0.00334 -0.001318,1.352e-4 -0.001327,6.25e-5 -1.1527e-4,-8.74e-4 7.2709e-4,-5.619e-4 0.001322,-0.00155 0.001322,-0.00219 0,-6.425e-4 2.3981e-4,-0.00134 5.329e-4,-0.00154 8.3606e-4,-5.847e-4 0.001967,1.438e-4 0.001967,0.00127 z m 0.0562234,-0.00998 c 0.002143,0.00385 0.00298,0.00815 0.002763,0.014215 -2.1223e-4,0.00593 -3.9638e-4,0.00662 -0.001804,0.00681 -8.6232e-4,1.156e-4 -0.002362,-6.62e-5 -0.003333,-4.039e-4 -9.7101e-4,-3.378e-4 -0.003265,-0.00107 -0.005099,-0.00163 -0.001833,-5.584e-4 -0.003615,-0.00112 -0.003958,-0.00124 -3.4375e-4,-1.237e-4 -6.25e-4,1.262e-4 -6.25e-4,5.555e-4 0,7.402e-4 0.001679,0.00142 0.006878,0.00277 0.001262,3.287e-4 0.00396,0.00113 0.005996,0.00178 0.002036,6.485e-4 0.004097,0.00118 0.004581,0.00118 4.8348e-4,0 8.7905e-4,2.902e-4 8.7905e-4,6.451e-4 0,3.547e-4 5.9799e-4,4.846e-4 0.001329,2.885e-4 0.002057,-5.52e-4 0.00785,0.00157 0.0121199,0.00445 0.0034,0.00229 0.004171,0.0033 0.006397,0.00837 0.001392,0.00317 0.002785,0.00717 0.003096,0.00887 l 5.643e-4,0.0031 -0.002786,-1.871e-4 c -0.00245,-1.646e-4 -0.003192,-6.599e-4 -0.006152,-0.00411 -0.004172,-0.00486 -0.004205,-0.00488 -0.008527,-0.00533 l -0.003543,-3.75e-4 0,0.00255 c 0,0.00141 -7.9045e-4,0.00567 -0.001757,0.00948 -9.661e-4,0.00381 -0.00181,0.00728 -0.001875,0.00772 -1.7004e-4,0.00114 0.004985,0.00142 0.007667,4.172e-4 0.001218,-4.562e-4 0.002871,-9.729e-4 0.003673,-0.00115 8.0209e-4,-1.754e-4 0.001458,-8.426e-4 0.001458,-0.00148 0,-0.00195 0.002693,-0.00528 0.004272,-0.00528 8.0473e-4,0 0.001695,-2.623e-4 0.001978,-5.828e-4 7.7905e-4,-8.815e-4 0.001907,-7.062e-4 0.00375,5.828e-4 0.002,0.0014 0.002132,0.00397 3.8194e-4,0.00748 -0.0041,0.00823 -0.008974,0.011412 -0.0232986,0.0152 -0.00275,7.272e-4 -0.00575,0.00156 -0.006667,0.00185 -0.003429,0.00108 -0.0170961,0.00402 -0.0186577,0.00402 -0.002529,0 -0.004259,6.277e-4 -0.004259,0.00155 0,0.00117 0.005397,5.261e-4 0.0129167,-0.00154 0.003976,-0.00109 0.008798,-0.00192 0.009271,-0.00159 2.8214e-4,1.973e-4 -5.8422e-4,0.00135 -0.001925,0.00257 -0.004067,0.00369 -0.00766,0.00795 -0.0124071,0.014724 -0.002486,0.00355 -0.004521,0.00657 -0.004521,0.00673 0,1.542e-4 5.4931e-4,2.803e-4 0.001221,2.803e-4 0.001298,0 0.003398,-0.00221 0.002619,-0.00275 -2.5423e-4,-1.777e-4 6.558e-5,-0.00101 7.1069e-4,-0.00184 6.451e-4,-8.364e-4 0.002346,-0.0032 0.00378,-0.00525 0.003432,-0.00491 0.0109027,-0.013026 0.0115648,-0.012561 2.8702e-4,2.016e-4 5.2185e-4,0.00395 5.2185e-4,0.00833 0,0.00669 1.9987e-4,0.00796 0.00125,0.00796 7.7245e-4,0 0.001161,-4.453e-4 0.001016,-0.00117 -5.0038e-4,-0.00249 -3.5462e-4,-0.014152 1.9897e-4,-0.015914 9.7676e-4,-0.00311 0.001845,-0.0021 0.002382,0.00277 5.4751e-4,0.00496 0.004454,0.01409 0.006195,0.014472 0.001486,3.259e-4 0.001289,-0.00104 -5.3503e-4,-0.00369 -0.002032,-0.00296 -0.004479,-0.011379 -0.003831,-0.013184 2.7515e-4,-7.666e-4 1.4289e-4,-0.00205 -2.9392e-4,-0.00286 -7.6275e-4,-0.0014 -5.7583e-4,-0.00152 0.004722,-0.00284 0.003034,-7.609e-4 0.007224,-0.00143 0.009311,-0.00149 0.004306,-1.158e-4 0.006484,-7.924e-4 0.0112878,-0.0035 0.005285,-0.00299 0.007703,-0.00594 0.0100368,-0.012262 0.001981,-0.00537 0.002457,-0.00887 0.001697,-0.012487 -1.6863e-4,-8.013e-4 -3.5447e-4,-0.00203 -4.1297e-4,-0.00272 -2.0671e-4,-0.00246 -0.003873,-0.00465 -0.009183,-0.00547 -0.004249,-6.591e-4 -0.005004,-9.769e-4 -0.005373,-0.00226 -0.001029,-0.00358 -0.009893,-0.00937 -0.0157224,-0.010261 -0.00128,-1.966e-4 -0.002328,-5.907e-4 -0.002328,-8.757e-4 0,-2.849e-4 0.001571,-0.00212 0.00349,-0.00408 0.004066,-0.00414 0.0115877,-0.00914 0.0154681,-0.010273 0.002763,-8.076e-4 0.003393,-0.00158 0.001839,-0.00225 -0.001868,-8.074e-4 -0.0126532,0.00595 -0.0189149,0.01185 -0.003012,0.00284 -0.004982,0.00419 -0.005909,0.00406 -0.001372,-1.977e-4 -0.001503,-0.00216 -1.8508e-4,-0.00278 3.4195e-4,-1.602e-4 8.5256e-4,-9.469e-4 0.001135,-0.00175 7.255e-4,-0.00206 0.009558,-0.011701 0.0132853,-0.014501 0.003226,-0.00242 0.003892,-0.00356 0.002083,-0.00356 -0.001306,0 -0.007901,0.00619 -0.0123758,0.011618 -0.001866,0.00226 -0.003776,0.00412 -0.004244,0.00412 -4.6776e-4,0 -6.4431e-4,-3.757e-4 -3.9235e-4,-8.348e-4 7.1526e-4,-0.0013 -0.001067,-0.011946 -0.002364,-0.014117 -0.001178,-0.00197 -0.003604,-0.00286 -0.002526,-9.285e-4 z m 0.0380462,0.040724 c 0.001824,0.00136 0.001977,0.00194 0.001935,0.0074 -5.217e-5,0.00685 -0.001994,0.013002 -0.005131,0.016248 -0.002434,0.00252 -0.009932,0.00665 -0.0130722,0.0072 -0.003087,5.419e-4 -0.002652,-3.629e-4 0.001056,-0.0022 0.002694,-0.00133 0.003661,-0.00245 0.006232,-0.00721 0.001674,-0.0031 0.003043,-0.00601 0.003043,-0.00647 0,-4.822e-4 4.062e-4,-6.662e-4 9.5108e-4,-4.307e-4 6.8536e-4,2.962e-4 8.2112e-4,-3.861e-4 4.8591e-4,-0.00244 -8.3035e-4,-0.00509 -0.003197,-0.013329 -0.003994,-0.013896 -0.001658,-0.00118 -6.2543e-4,-0.00138 0.002868,-5.468e-4 0.002005,4.776e-4 0.004536,0.00153 0.005625,0.00234 z m -0.0205641,0.0045 c 0.001629,0.00172 0.002961,0.00334 0.002961,0.0036 0,8.264e-4 -0.006014,0.00869 -0.006992,0.00915 -5.0857e-4,2.355e-4 -0.001949,4.322e-4 -0.0032,4.371e-4 -0.002223,8.7e-6 -0.002265,-5.54e-5 -0.001831,-0.00276 2.4471e-4,-0.00152 8.0633e-4,-0.00434 0.001248,-0.00626 4.4172e-4,-0.00192 9.0144e-4,-0.00402 0.001022,-0.00466 6.7048e-4,-0.00358 0.003093,-0.0034 0.006792,4.974e-4 z m -0.10827496,0.00532 c -0.006506,0.0013 -0.007857,0.00201 -0.008812,0.00462 -4.7729e-4,0.00131 -0.002024,0.00442 -0.003437,0.00692 -0.002225,0.00394 -0.002494,0.00499 -0.002014,0.00785 3.5434e-4,0.00211 0.001416,0.00426 0.002935,0.00594 0.001309,0.00145 0.003939,0.00474 0.005844,0.0073 0.004257,0.00573 0.004655,0.00615 0.008803,0.00933 0.003969,0.00304 0.008662,0.00458 0.012378,0.00406 0.005427,-7.634e-4 0.0102505,-0.00233 0.014162,-0.00462 0.005942,-0.00346 0.006636,-0.00474 0.006506,-0.012032 -1.0974e-4,-0.00617 -2.4293e-4,-0.00663 -0.005208,-0.018016 -0.002576,-0.00591 -0.005152,-0.00806 -0.0120049,-0.010055 -0.006918,-0.00201 -0.0134446,-0.00246 -0.0191528,-0.00132 z m 0.0163679,0.00215 c 0.008893,0.00246 0.0107831,0.00443 0.0150129,0.015627 0.002664,0.00705 0.003197,0.00931 0.003077,0.013036 -1.9943e-4,0.00617 -0.002876,0.00897 -0.0111382,0.011674 -0.008511,0.00278 -0.0118893,0.00256 -0.0174001,-0.00113 -0.004531,-0.00304 -0.006819,-0.00551 -0.0131626,-0.014217 -0.004042,-0.00555 -0.004854,-0.00716 -0.004854,-0.00964 0,-0.00164 3.287e-4,-0.00323 7.3043e-4,-0.00353 4.0172e-4,-3.045e-4 0.001555,-0.00213 0.002563,-0.00405 0.003631,-0.00693 0.003911,-0.00717 0.009509,-0.00842 0.006896,-0.00153 0.007909,-0.00149 0.0156623,6.563e-4 z m -0.001104,0.00855 c -0.001915,0.0012 -0.00263,0.00223 -0.002961,0.00428 -3.7733e-4,0.00234 -1.5179e-4,0.0029 0.001677,0.00418 0.004464,0.00312 0.008656,0.00242 0.0106408,-0.00179 0.002647,-0.00561 -0.003756,-0.010176 -0.009357,-0.00668 z m 0.005805,0.00105 c 0.001673,0.00117 0.001826,0.00492 2.551e-4,0.00625 -0.002783,0.00235 -0.007688,-1.5e-4 -0.006305,-0.00321 8.5142e-4,-0.00188 0.002903,-0.004 0.003873,-0.004 4.3836e-4,0 0.001418,4.342e-4 0.002177,9.65e-4 z M 0.11745297,1.0216774 c 0.0100114,0.00162 0.0161048,0.00359 0.0214208,0.00693 0.005466,0.00344 0.00643,0.00515 0.005859,0.010415 -5.2077e-4,0.00481 -0.003574,0.012001 -0.005289,0.012461 -6.3682e-4,1.709e-4 -0.001158,5.964e-4 -0.001158,9.455e-4 0,3.491e-4 -8.8059e-4,0.00157 -0.001957,0.00271 -0.001076,0.00114 -0.003293,0.00351 -0.004925,0.00528 -0.001632,0.00176 -0.004876,0.00448 -0.007209,0.00603 l -0.004241,0.00282 -0.003657,-0.0015 c -0.005761,-0.00236 -0.0165515,-0.010836 -0.0203544,-0.015986 -0.004117,-0.00558 -0.004344,-0.00634 -0.00452,-0.015281 -1.3808e-4,-0.00704 -6.784e-5,-0.00736 0.002301,-0.010298 0.002058,-0.00256 0.003104,-0.00321 0.006628,-0.00416 0.005181,-0.00139 0.01008,-0.0015 0.017101,-3.635e-4 z m 0.0217325,0.026837 c 4e-5,6.789e-4 2.3745e-4,8.17e-4 5.0347e-4,3.521e-4 2.4072e-4,-4.207e-4 2.1112e-4,-9.233e-4 -6.575e-5,-0.00112 -2.7691e-4,-1.936e-4 -4.7387e-4,1.506e-4 -4.3769e-4,7.649e-4 z m 0.27916991,0.037976 c 5.3939e-4,0.0012 0.001158,0.0063 0.001375,0.01133 8.9249e-4,0.020676 -0.00623,0.043079 -0.0180469,0.056768 -8.592e-4,9.953e-4 -0.001707,0.00231 -0.001885,0.00291 -3.7907e-4,0.0013 -0.002824,0.00119 -0.00508,-2.207e-4 -8.1642e-4,-5.106e-4 -0.003254,-0.00111 -0.005417,-0.00134 -0.002163,-2.254e-4 -0.006107,-8.329e-4 -0.008765,-0.00135 -0.00369,-7.18e-4 -0.008712,-9.412e-4 -0.02125,-9.445e-4 -0.00903,0 -0.0186677,-2.571e-4 -0.0214177,-5.659e-4 -0.00275,-3.089e-4 -0.008188,-8.298e-4 -0.0120833,-0.00116 -0.020262,-0.0017 -0.0261595,-0.0024 -0.0296754,-0.00348 -0.003348,-0.00104 -0.003779,-0.00137 -0.003284,-0.00251 0.003433,-0.00792 0.007008,-0.021979 0.007667,-0.03016 2.4513e-4,-0.00304 4.6973e-4,-0.0058 4.9909e-4,-0.00612 2.942e-5,-3.206e-4 -5.9692e-4,-0.00214 -0.001392,-0.00404 -0.001438,-0.00343 -0.001208,-0.00771 3.7736e-4,-0.00703 4.257e-4,1.839e-4 0.001578,3.32e-5 0.002562,-3.346e-4 0.001988,-7.441e-4 0.0162859,-0.00114 0.0182468,-5.059e-4 6.875e-4,2.225e-4 0.005,1.716e-4 0.009583,-1.132e-4 0.004583,-2.848e-4 0.0135833,-5.297e-4 0.02,-5.443e-4 0.01134,-2.56e-5 0.014266,-3.197e-4 0.0295833,-0.00297 0.002062,-3.571e-4 0.004594,-6.174e-4 0.005625,-5.786e-4 0.001031,3.91e-5 0.001875,-1.887e-4 0.001875,-5.056e-4 0,-3.169e-4 6.5923e-4,-5.762e-4 0.001465,-5.762e-4 8.0572e-4,0 0.003226,-6.556e-4 0.005378,-0.00146 0.002152,-8.013e-4 0.004515,-0.00146 0.005251,-0.00146 8.0887e-4,0 0.001099,-2.694e-4 7.348e-4,-6.818e-4 -4.0447e-4,-4.591e-4 -1.4757e-4,-5.606e-4 7.8484e-4,-3.103e-4 7.6268e-4,2.046e-4 0.001387,1.181e-4 0.001387,-1.924e-4 0,-3.104e-4 6.5625e-4,-5.768e-4 0.001458,-5.919e-4 8.0209e-4,-1.52e-5 0.003521,-7.895e-4 0.006042,-0.00172 0.00615,-0.00227 0.007211,-0.00222 0.008402,4.37e-4 z m -0.0221524,0.057838 c -2.8327e-4,3.205e-4 -1.179e-4,5.828e-4 3.6748e-4,5.828e-4 4.8539e-4,0 8.8252e-4,-2.623e-4 8.8252e-4,-5.828e-4 0,-3.205e-4 -1.6537e-4,-5.827e-4 -3.6748e-4,-5.827e-4 -2.0212e-4,0 -5.9925e-4,2.622e-4 -8.8252e-4,5.827e-4 z m -0.0983333,0.0063 c 0.001375,5.71e-5 0.004188,3.529e-4 0.00625,6.571e-4 0.002062,3.043e-4 0.007125,8.603e-4 0.01125,0.00124 0.0222729,0.00203 0.0248508,0.00216 0.0475,0.00253 0.0154308,2.487e-4 0.0226876,0.00109 0.0270833,0.00313 0.001146,5.327e-4 0.002458,9.836e-4 0.002917,10e-4 0.001887,7.63e-5 0.005053,0.00111 0.005911,0.00193 6.2577e-4,5.985e-4 0.001098,6.735e-4 0.001485,2.359e-4 6.6484e-4,-7.522e-4 0.004368,6.543e-4 0.008854,0.00336 0.001604,9.686e-4 0.003479,0.00177 0.004167,0.00177 6.875e-4,5.8e-6 0.00275,3.785e-4 0.004583,8.287e-4 0.002589,6.357e-4 0.00687,7.55e-4 0.0191667,5.34e-4 0.008708,-1.565e-4 0.0177375,-5.115e-4 0.0200648,-7.889e-4 0.003445,-4.108e-4 0.011915,-0.00331 0.0136852,-0.00469 2.2917e-4,-1.782e-4 0.001823,-9.215e-4 0.003542,-0.00165 0.001719,-7.305e-4 0.003125,-0.00151 0.003125,-0.00174 0,-2.267e-4 0.002028,-0.00127 0.004506,-0.00232 0.003965,-0.00168 0.004716,-0.00182 0.00625,-0.00115 0.00217,9.477e-4 0.002242,0.00204 1.6439e-4,0.0025 -0.001778,3.945e-4 -0.009254,0.00578 -0.009254,0.00666 0,3.153e-4 3.75e-4,7.354e-4 8.3333e-4,9.335e-4 4.5833e-4,1.98e-4 8.3333e-4,5.42e-5 8.3333e-4,-3.194e-4 0,-3.737e-4 4.81e-4,-5.504e-4 0.001069,-3.926e-4 0.00125,3.355e-4 0.005261,-0.00176 0.004452,-0.00232 -3.0174e-4,-2.11e-4 -9.9236e-4,-7.34e-5 -0.001535,3.059e-4 -0.0012,8.39e-4 -0.002319,8.945e-4 -0.002319,1.151e-4 0,-0.00115 0.006175,-0.00344 0.00842,-0.00312 0.002075,2.91e-4 0.002166,4.646e-4 0.002069,0.00396 -1.1124e-4,0.00405 -0.001064,0.00526 -0.004489,0.00574 -0.003131,4.379e-4 -0.006834,0.00257 -0.006834,0.00394 0,0.00161 0.002062,0.00138 0.003192,-3.501e-4 0.002235,-0.00343 0.005981,-0.00218 0.005963,0.00198 -1.692e-5,0.00401 -6.598e-4,0.00504 -0.003589,0.00579 -0.003249,8.273e-4 -0.00758,0.00447 -0.006865,0.00577 4.5017e-4,8.204e-4 6.5494e-4,7.992e-4 0.001712,-1.774e-4 6.6031e-4,-6.101e-4 0.001212,-0.00141 0.001227,-0.00177 1.459e-5,-3.632e-4 8.1424e-4,-8.045e-4 0.001777,-9.806e-4 9.639e-4,-1.762e-4 0.001503,-5.996e-4 0.001201,-9.421e-4 -3.0234e-4,-3.42e-4 -3.7074e-4,-6.219e-4 -1.52e-4,-6.219e-4 2.1872e-4,0 0.001052,-1.757e-4 0.001853,-3.904e-4 9.3915e-4,-2.521e-4 0.001257,-1.664e-4 8.9629e-4,2.416e-4 -3.0721e-4,3.475e-4 -1.5249e-4,7.266e-4 3.4382e-4,8.423e-4 5.2905e-4,1.234e-4 9.1334e-4,0.00189 9.2889e-4,0.00428 3.625e-5,0.00555 1.3477e-4,0.00534 -0.002562,0.00571 -0.003102,4.339e-4 -0.007227,0.00289 -0.006409,0.00381 4.2856e-4,4.849e-4 0.001135,2.366e-4 0.002317,-8.141e-4 0.001057,-9.393e-4 0.00219,-0.00138 0.002992,-0.00117 7.1026e-4,1.905e-4 0.001587,1.22e-5 0.001948,-3.968e-4 0.0015,-0.0017 0.00246,6.106e-4 0.00222,0.00533 l -2.4415e-4,0.00481 -0.004116,0.00109 c -0.002264,6e-4 -0.004644,0.00146 -0.005288,0.00191 -0.001833,0.00128 2.0893e-4,0.00169 0.002361,4.693e-4 0.002127,-0.0012 0.005793,-0.00101 0.005793,3.095e-4 0,4.68e-4 -0.002362,0.00251 -0.00525,0.00454 -0.00377,0.00265 -0.006236,0.00388 -0.00875,0.00435 -0.001925,3.625e-4 -0.0035,8.821e-4 -0.0035,0.00116 0,2.724e-4 -0.00131,6.672e-4 -0.002911,8.773e-4 -0.002242,2.941e-4 -0.004109,-5.9e-6 -0.008125,-0.0013 -0.004952,-0.0016 -0.005529,-0.00166 -0.0114641,-0.00115 -0.003437,2.913e-4 -0.0145,5.362e-4 -0.0245833,5.442e-4 -0.0145636,1.16e-5 -0.0200166,2.432e-4 -0.0265196,0.00113 -0.004502,6.119e-4 -0.008926,0.00111 -0.00983,0.00111 -0.001864,0 -0.0139707,0.00259 -0.0179433,0.00384 -0.001444,4.538e-4 -0.003057,8.25e-4 -0.003584,8.25e-4 -5.2721e-4,0 -0.004971,0.00142 -0.009874,0.00316 -0.0148818,0.00527 -0.0183022,0.0062 -0.0259912,0.00707 -0.006784,7.674e-4 -0.008269,7.429e-4 -0.0181349,-2.995e-4 -0.0112621,-0.00119 -0.0133652,-0.00149 -0.0235393,-0.00338 -0.003437,-6.373e-4 -0.00925,-0.00162 -0.0129167,-0.00218 -0.003945,-6.061e-4 -0.0100686,-0.00221 -0.015,-0.00392 -0.009796,-0.00341 -0.0267143,-0.01111 -0.0279479,-0.012722 -4.7341e-4,-6.186e-4 -0.001275,-0.00113 -0.001781,-0.00113 -5.0626e-4,0 -0.001419,-4.589e-4 -0.002028,-0.00102 -0.00124,-0.00114 -0.001478,-0.00194 -5.3505e-4,-0.0018 0.001293,1.977e-4 0.005208,-8.27e-4 0.005208,-0.00136 0,-3.072e-4 -9.7909e-4,-0.00146 -0.002176,-0.00255 -0.002701,-0.00248 -0.002167,-0.00359 0.001924,-0.00403 0.001743,-1.854e-4 0.005183,-7.777e-4 0.007645,-0.00132 0.002462,-5.386e-4 0.005219,-9.401e-4 0.006126,-8.924e-4 0.00144,7.59e-5 0.001582,-1.663e-4 0.001116,-0.0019 -4.9517e-4,-0.00185 -3.3037e-4,-0.00205 0.002268,-0.00281 0.001541,-4.503e-4 0.003777,-8.187e-4 0.004968,-8.187e-4 0.004904,0 0.0113505,-8.489e-4 0.0117324,-0.00154 2.247e-4,-4.096e-4 -0.001026,-0.00247 -0.002779,-0.00459 -0.002534,-0.00305 -0.002902,-0.00384 -0.001797,-0.00381 7.6433e-4,1.92e-5 0.002748,-3.814e-4 0.004409,-8.909e-4 0.001661,-5.094e-4 0.003201,-7.992e-4 0.003423,-6.439e-4 2.2207e-4,1.553e-4 8.7209e-4,-1.123e-4 0.001444,-5.946e-4 8.5273e-4,-7.185e-4 6.4251e-4,-0.00135 -0.001164,-0.00351 l -0.002204,-0.00263 0.004616,-0.00153 c 0.002539,-8.406e-4 0.004616,-0.00164 0.004616,-0.00178 0,-1.387e-4 -5.1605e-4,-9.603e-4 -0.001147,-0.00183 -0.001093,-0.0015 -9.9308e-4,-0.00167 0.00212,-0.00373 0.001797,-0.00119 0.003438,-0.00217 0.003647,-0.00219 6.3087e-4,-4.49e-5 5.7661e-4,-2.53e-4 -4.9387e-4,-0.0019 -9.377e-4,-0.00144 -7.9289e-4,-0.00177 0.001649,-0.00371 0.002486,-0.00198 0.003365,-0.0031 0.005809,-0.00742 l 9.2737e-4,-0.00164 0.002286,0.00109 c 0.001257,6.012e-4 0.003411,0.00114 0.004786,0.0012 z m -0.17111503,0.011624 c 5.1292e-4,8.814e-4 0.001442,0.00243 0.002065,0.00344 6.2309e-4,0.00101 0.001138,0.00219 0.001144,0.00262 5.83e-6,4.324e-4 7.3133e-4,0.00239 0.001612,0.00436 8.807e-4,0.00196 0.002186,0.00555 0.002901,0.00797 7.1486e-4,0.00242 0.002554,0.00658 0.004088,0.00925 0.001533,0.00267 0.003033,0.00593 0.003333,0.00726 5.1074e-4,0.00226 3.4357e-4,0.00254 -0.002648,0.00443 -0.003755,0.00237 -0.0104749,0.00467 -0.0165442,0.00567 -0.005448,8.9e-4 -0.0179444,0.00102 -0.0223364,2.299e-4 -0.005705,-0.00102 -0.012348,-0.00372 -0.0160903,-0.00654 -0.005508,-0.00414 -0.006587,-0.00603 -0.007264,-0.012703 l -5.9799e-4,-0.0059 0.003066,-0.00446 c 0.002035,-0.00296 0.004927,-0.00584 0.008602,-0.00856 0.008742,-0.00648 0.0157988,-0.00848 0.0304263,-0.0086 0.007227,-6.28e-5 0.00732,-4.55e-5 0.008242,0.00154 z M 0.5041199,1.0883843 c 0,3.206e-4 5.8463e-4,5.828e-4 0.001299,5.828e-4 7.1455e-4,0 0.001067,-2.622e-4 7.8415e-4,-5.828e-4 -2.8327e-4,-3.205e-4 -8.679e-4,-5.827e-4 -0.001299,-5.827e-4 -4.3129e-4,0 -7.8415e-4,2.622e-4 -7.8415e-4,5.827e-4 z m -0.003333,0.069241 c 0,7.044e-4 0.001581,0.00152 0.002159,0.00112 2.0975e-4,-1.466e-4 -1.902e-4,-5.983e-4 -8.8877e-4,-0.001 -7.92e-4,-4.596e-4 -0.00127,-5.039e-4 -0.00127,-1.174e-4 z m -0.001129,0.00357 c 8.5038e-4,5.789e-4 0.001834,9.368e-4 0.002185,7.954e-4 9.8607e-4,-3.97e-4 -5e-6,-0.00117 -0.001963,-0.00152 -0.001719,-3.143e-4 -0.001725,-2.941e-4 -2.2132e-4,7.292e-4 z m 0.004463,0.011691 c 0,3.206e-4 3.9713e-4,5.828e-4 8.8251e-4,5.828e-4 4.8539e-4,0 6.5075e-4,-2.622e-4 3.6749e-4,-5.828e-4 -2.8327e-4,-3.205e-4 -6.804e-4,-5.827e-4 -8.8252e-4,-5.827e-4 -2.0212e-4,0 -3.6748e-4,2.622e-4 -3.6748e-4,5.827e-4 z m -0.0025,0.011432 c 0,3.206e-4 5.5057e-4,0.00109 0.001224,0.00171 6.7291e-4,6.222e-4 0.001223,8.69e-4 0.001223,5.485e-4 0,-3.205e-4 -5.5058e-4,-0.00109 -0.001223,-0.00171 -6.7293e-4,-6.222e-4 -0.001224,-8.69e-4 -0.001224,-5.485e-4 z m -9.1557e-4,0.019777 c 0.002933,8.901e-4 0.003984,7.915e-4 0.003033,-2.843e-4 -3.0212e-4,-3.419e-4 -0.001746,-6.113e-4 -0.003208,-5.988e-4 l -0.002659,2.28e-5 0.002834,8.602e-4 z m -0.0157521,0.013081 c 0,3.206e-4 5.8463e-4,5.828e-4 0.001299,5.828e-4 7.1455e-4,0 0.001067,-2.622e-4 7.8415e-4,-5.828e-4 -2.8326e-4,-3.205e-4 -8.679e-4,-5.827e-4 -0.001299,-5.827e-4 -4.3128e-4,0 -7.8415e-4,2.622e-4 -7.8415e-4,5.827e-4 z m 0.006667,5.828e-4 c 0,3.205e-4 3.75e-4,5.827e-4 8.3333e-4,5.827e-4 4.5833e-4,0 8.3333e-4,-2.622e-4 8.3333e-4,-5.827e-4 0,-3.205e-4 -3.75e-4,-5.828e-4 -8.3333e-4,-5.828e-4 -4.5833e-4,0 -8.3333e-4,2.623e-4 -8.3333e-4,5.828e-4 z m -0.009323,0.00856 c 6.0156e-4,1.684e-4 0.00132,1.477e-4 0.001597,-4.6e-5 2.7691e-4,-1.937e-4 -2.1528e-4,-3.314e-4 -0.001094,-3.062e-4 -9.7079e-4,2.8e-5 -0.001168,1.661e-4 -5.0347e-4,3.521e-4 z"
         id="path4490"
         inkscape:connector-curvature="0"
         sodipodi:nodetypes="cccccccccsccccccccccccccccccccccsccccccccccccccccccccscccccccccccccccccccscccccccsccccccccccsccsccccccscccccccccccsccccccsccscsscccsccscscscscccssscccsccccsscccccccccccccccsccccccccscccsccsccccsccccccccccccscsccccsccsccccsccscccscccccsccccccccccscccccsccsscssccsccccccsscsssscscccccccccccssccccccccccccsccsccccccscscsccccssccscccsccccssscccccccccccsccccsssccccccccscsccscccscccscccscscsccccccccscccccscccsccscccccscccccccccccssccccccccccsccccccccccccccccsccccccccccccccscssccccccccsccscscccccsccccccccccccccccccccccscccccsccccccccccccccccccccscccccccccccccccccscccccccscccssscscccccsccccsccccsccsscccccccccsccccsscccscssccccssccccssccccccccccccccccsccccccccscsccccccccccscccccccscscccccccccccccccccccccccccsccccccccccccccsccccccsccccccccccccccccccscccccccccccccccscccsscsccscsccssssscccccccccccscccscccscscccscccsccccccccsccccccccccccccsscscccscscscccccccsccsccccccscccccccccsccccccccccccccccccccccccccccsscssccccccccccsscssscscsccccccsscsssssssccccc" /><path
         style="fill:#000000;fill-opacity:1;stroke:#000000;stroke-width:0.77122575;stroke-miterlimit:4;stroke-opacity:1;stroke-dasharray:none"
         d="m 131.77268,304.31324 c -1.98971,-1.03604 -4.47702,-3.01543 -5.52736,-4.39863 -1.82603,-2.4047 -1.94873,-3.2754 -2.79969,-19.8675 -0.48949,-9.54392 -0.87584,-22.9054 -0.85857,-29.69219 0.0173,-6.78679 -0.24016,-17.91019 -0.57206,-24.71868 -0.56902,-11.67271 -0.74367,-12.67871 -3.06072,-17.63014 -1.3515,-2.88808 -3.79522,-6.86142 -5.4305,-8.82963 -5.82103,-7.0062 -6.9751,-9.57279 -8.63047,-19.1936 -0.85778,-4.98531 -1.76685,-13.92293 -2.02016,-19.86137 -0.41304,-9.68313 -0.27953,-11.47353 1.29397,-17.35258 0.96499,-3.60548 2.44589,-7.94362 3.29089,-9.64032 2.36709,-4.75297 10.54049,-15.81013 11.68678,-15.81013 0.23947,0 0.4354,2.08231 0.4354,4.62736 0,5.24214 0.35417,5.46009 5.01297,3.0849 1.66398,-0.84835 3.27783,-1.54245 3.58633,-1.54245 0.30849,0 0.78486,1.6485 1.05859,3.66332 0.95315,7.01567 1.99697,8.11549 5.2636,5.54595 l 1.90911,-1.50169 0.51386,3.04153 c 0.66958,3.96322 5.4109,13.83216 6.92438,14.41294 0.69629,0.26719 2.29234,-0.52705 3.90566,-1.94356 1.50051,-1.31747 3.06318,-2.39539 3.47259,-2.39539 0.41248,0 0.74439,2.58988 0.74439,5.80839 0,4.5623 0.25931,5.90791 1.20868,6.27222 0.66477,0.25509 1.60181,0.0707 2.08231,-0.40982 1.48991,-1.48991 2.78776,-0.97478 4.11393,1.63285 0.7011,1.37857 1.35083,2.5978 1.44384,2.70941 0.093,0.11162 1.42594,-0.3222 2.96206,-0.96403 3.84548,-1.60675 4.58573,-1.48216 6.00326,1.01038 1.07681,1.89342 1.59599,2.12518 4.10468,1.8323 2.32224,-0.2711 3.27918,0.0549 4.99948,1.70302 l 2.12754,2.03831 2.91346,-2.31533 c 2.97319,-2.3628 4.41556,-2.3371 6.37756,0.11364 1.68333,2.10265 2.58525,17.54571 1.7495,29.95556 -1.5465,22.96334 -2.50524,27.13788 -10.2769,44.74796 -7.20404,16.32386 -8.12741,20.14155 -9.31496,38.51298 l -0.42356,6.55242 5.41161,5.04885 c 4.29467,4.00676 5.50738,5.63897 5.8756,7.90805 0.25519,1.57257 0.2167,2.85922 -0.0855,2.85922 -0.30224,0 -2.03189,-1.21469 -3.84366,-2.69929 -1.81177,-1.48461 -3.6922,-2.69929 -4.17873,-2.69929 -1.86891,0 -0.75114,2.28976 2.29581,4.703 2.87761,2.27909 3.03416,2.57303 1.6443,3.08718 -3.02291,1.11824 -8.68084,1.66298 -8.68084,0.83578 0,-1.11365 -4.99751,-6.31229 -6.06806,-6.31229 -1.41561,0 -1.00767,1.54533 1.05509,3.99678 2.60044,3.09044 2.43727,3.71744 -0.96403,3.70437 -2.66768,-0.0103 -3.05665,-0.30948 -5.01274,-3.85613 -1.16636,-2.11476 -2.64133,-3.84502 -3.27771,-3.84502 -1.49105,0 -1.49714,-0.0315 0.78184,4.04604 l 1.93891,3.46908 -2.42092,0.48418 c -4.13482,0.82696 -6.08302,0.60713 -5.60724,-0.63272 0.55316,-1.44154 -2.02501,-5.82413 -3.42619,-5.82413 -1.05768,0 -1.04206,0.26035 0.30604,5.09957 0.34896,1.25265 0.0385,1.74025 -1.34362,2.11034 -3.94651,1.05674 -5.19048,0.59275 -6.78371,-2.53022 -2.82812,-5.54359 -5.19774,-5.2111 -2.49585,0.3502 l 1.67789,3.4536 -1.72524,-0.0359 c -0.94888,-0.0197 -3.35317,-0.88359 -5.34287,-1.91964 l 0,3e-5 z"
         id="path4515"
         inkscape:connector-curvature="0"
         transform="matrix(0,9.7125097e-4,0.00138889,0,0.07459524,0.908704)" /><path
         style="fill:#000000;fill-opacity:1;stroke:#000000;stroke-width:0.77122575;stroke-miterlimit:4;stroke-opacity:1;stroke-dasharray:none"
         d="m 259.17205,299.77645 c 0,-1.99084 0.88462,-3.44168 1.86833,-3.06419 1.2233,0.46942 2.48083,-1.02053 3.16625,-3.75143 0.8111,-3.23171 -0.93452,-2.66382 -5.10191,1.65977 -2.54155,2.63682 -3.88419,3.53205 -4.44948,2.96676 -1.02732,-1.02732 -0.29495,-2.42236 4.95705,-9.44238 6.40076,-8.5555 6.69012,-9.58594 7.09251,-25.25683 0.19331,-7.52865 0.12652,-14.88754 -0.14842,-16.3531 -0.27494,-1.46556 -1.70183,-4.45073 -3.17088,-6.63373 -1.46905,-2.18299 -2.671,-4.33441 -2.671,-4.78092 0,-0.44651 -1.01063,-2.95085 -2.24584,-5.56519 -3.42967,-7.2589 -3.82226,-9.55707 -4.68243,-27.40995 -1.00033,-20.76186 -3.50543,-41.16182 -5.51596,-44.91853 -0.62567,-1.16908 -0.27457,-1.58706 2.18611,-2.60253 1.61231,-0.66538 4.0485,-2.05263 5.41374,-3.08278 1.66954,-1.25976 3.06224,-1.72744 4.25366,-1.42842 1.31235,0.32938 2.34526,-0.1544 3.98593,-1.86689 1.71413,-1.78917 2.68022,-2.21835 4.27532,-1.89933 1.81745,0.36349 2.22909,0.0389 3.48622,-2.74892 1.39576,-3.09523 1.46403,-3.13579 3.27783,-1.94734 2.39729,1.57077 5.1329,1.16876 5.50968,-0.80966 0.16156,-0.84835 0.58646,-2.31313 0.94421,-3.25506 l 0.65046,-1.71261 4.02396,1.86432 c 2.21317,1.02538 4.2738,1.70992 4.57917,1.52119 0.30536,-0.18872 0.80582,-2.51283 1.11212,-5.16468 0.78044,-6.75662 1.4846,-8.29206 3.80282,-8.29206 1.47772,0 2.04531,-0.49907 2.41204,-2.12087 1.35539,-5.99397 2.57675,-10.41787 2.99038,-10.8315 0.25466,-0.25465 1.46027,0.1261 2.67914,0.8461 3.01948,1.78365 3.79033,1.65376 4.3911,-0.7399 l 0.51427,-2.04901 2.2499,2.62743 c 3.81388,4.45384 11.35591,16.14393 14.11091,21.87179 2.96687,6.16839 8.21988,26.47799 9.59084,37.08089 1.28264,9.91987 0.37128,14.35927 -5.65891,27.56556 -9.44654,20.68819 -10.92377,27.61082 -11.89341,55.73499 -0.60241,17.4726 -0.55268,18.70939 0.91605,22.78479 l 1.55303,4.30931 -2.00206,4.17417 c -2.01101,4.19283 -8.62273,11.45822 -9.56753,10.51342 -0.27808,-0.27808 -0.0651,-1.56901 0.47325,-2.86873 0.53837,-1.29972 0.7817,-2.56028 0.54073,-2.80125 -0.84122,-0.84122 -2.22173,0.68292 -3.66205,4.04306 -1.40422,3.27592 -1.56245,3.38555 -4.88606,3.38555 -5.86264,0 -7.43236,-1.62785 -4.59403,-4.76417 0.70435,-0.7783 1.06637,-1.62937 0.80448,-1.89126 -0.94483,-0.94483 -2.6393,0.39856 -3.9279,3.11409 -1.28538,2.70873 -1.41338,2.77011 -5.77714,2.77011 -2.45444,0 -4.67902,-0.2164 -4.94351,-0.48088 -0.26448,-0.26449 0.71883,-1.54302 2.18514,-2.8412 2.91042,-2.57669 3.32798,-3.61895 1.44986,-3.61895 -1.15871,0 -3.76679,2.35061 -6.68136,6.02177 -1.56032,1.96537 -6.03866,2.32699 -7.46933,0.60313 -0.71469,-0.86115 -0.5528,-1.33224 0.77818,-2.26449 1.05662,-0.74009 1.50404,-1.63727 1.20505,-2.41642 -0.71865,-1.87278 -3.46679,-0.0976 -4.8042,3.10323 -1.2941,3.09721 -3.09543,4.20749 -6.82632,4.20749 -1.8598,0 -2.74999,-0.35406 -2.74999,-1.09376 z"
         id="path4517"
         inkscape:connector-curvature="0"
         transform="matrix(0,9.7125097e-4,0.00138889,0,0.07459524,0.908704)" /><path
         style="fill:#000000;fill-opacity:1;stroke:#000000;stroke-width:0.77122575;stroke-miterlimit:4;stroke-opacity:1;stroke-dasharray:none"
         d="m 43.499873,286.42199 c -2.999729,-0.26825 -3.232568,-0.46248 -3.729441,-3.11104 -0.638523,-3.40362 -2.466656,-7.11997 -3.502431,-7.11997 -1.051616,0 -0.941927,1.03512 0.488531,4.61018 1.510171,3.7743 1.004708,5.5919 -1.415823,5.09119 -0.963706,-0.19934 -3.407406,-0.5772 -5.430442,-0.83966 -2.023037,-0.26246 -3.491517,-0.77935 -3.263289,-1.14863 0.594245,-0.96151 -2.761461,-7.57211 -4.105628,-8.08791 -1.744489,-0.66942 -1.89969,0.0228 -0.578088,2.57854 1.515574,2.9308 1.590683,6.27978 0.140841,6.27978 -3.26295,0 -13.7613441,-11.40722 -17.5756483,-19.09714 l -2.3954758,-4.82945 0.4556158,-9.82383 c 0.3604821,-7.7726 1.0925436,-12.40038 3.5060046,-22.16345 6.1396827,-24.83661 6.9035507,-34.19344 4.8049107,-58.85667 -0.574882,-6.75603 -0.773644,-14.28184 -0.464362,-17.58234 0.480697,-5.12975 0.675578,-5.6593 1.755221,-4.76945 0.667968,0.55054 5.98838,7.36393 11.823135,15.14086 12.940727,17.24823 20.312258,25.34662 36.46885,40.06482 6.841272,6.2322 12.861453,11.85595 13.378181,12.49722 2.212787,2.74611 0.0062,14.13145 -6.362432,32.82743 -2.319567,6.80946 -4.217395,13.10459 -4.217395,13.98918 0,0.88458 -0.433815,1.56014 -0.964032,1.50122 -0.530218,-0.0589 -1.046917,0.23994 -1.148219,0.66411 -0.101303,0.42418 0.358395,0.77386 1.02155,0.77707 0.663156,0.003 1.50552,0.52379 1.87192,1.15684 0.366399,0.63305 2.596352,3.20983 4.955449,5.72618 3.603018,3.84318 4.280594,5.01539 4.235061,7.32664 -0.02981,1.51331 -0.302249,3.38049 -0.605411,4.14929 -0.462955,1.17402 -0.760971,0.95794 -1.861381,-1.34965 -1.459028,-3.05961 -3.384744,-3.82929 -2.532545,-1.01221 0.976742,3.22877 0.816347,3.9564 -1.08614,4.92728 -2.304949,1.17627 -3.581288,0.33777 -4.271865,-2.80641 -0.563444,-2.56534 -2.301455,-4.35255 -3.051908,-3.13829 -0.269465,0.43601 -0.126837,1.4712 0.316953,2.30043 0.44379,0.82923 0.806891,2.24274 0.806891,3.14115 0,1.48251 -0.367018,1.61191 -3.971715,1.40034 l -3.971715,-0.23311 -1.053531,-3.62539 c -1.533941,-5.27858 -2.937054,-5.73074 -2.274058,-0.73282 0.314579,2.37141 0.230852,3.9726 -0.207728,3.9726 -0.404092,0 -1.196911,0.11051 -1.761822,0.24559 -0.56491,0.13508 -2.466875,0.11685 -4.226589,-0.0405 l 0,-3e-5 z"
         id="path4519"
         inkscape:connector-curvature="0"
         transform="matrix(0,9.7125097e-4,0.00138889,0,0.07459524,0.908704)" /><path
         style="fill:#000000;fill-opacity:1;stroke:#000000;stroke-width:0.77122575;stroke-miterlimit:4;stroke-opacity:1;stroke-dasharray:none"
         d="m 112.80294,283.13979 c -5.36988,-2.43719 -5.64287,-3.80932 -4.38053,-22.01852 0.58693,-8.46654 1.08171,-15.41318 1.0995,-15.43697 0.0178,-0.0238 2.25977,0.28961 4.98219,0.69647 l 4.94984,0.73974 0.43319,7.01579 c 0.23826,3.85868 0.64678,12.30832 0.90784,18.77697 l 0.47465,11.7612 -2.57998,-0.0169 c -1.41898,-0.009 -4.068,-0.6923 -5.8867,-1.51774 l 0,0 z"
         id="path4521"
         inkscape:connector-curvature="0"
         transform="matrix(0,9.7125097e-4,0.00138889,0,0.07459524,0.908704)" /><path
         style="fill:#000000;fill-opacity:1;stroke:#000000;stroke-width:0.77122575;stroke-miterlimit:4;stroke-opacity:1;stroke-dasharray:none"
         d="m 128.44929,49.476837 c -2.55224,-1.070937 -7.14913,-6.351851 -8.8146,-10.126215 -0.86024,-1.949511 -2.11679,-5.927839 -2.79233,-8.84073 -1.94798,-8.399547 -0.24774,-13.832196 5.19861,-16.610719 2.78315,-1.419854 4.22246,-1.594793 11.04376,-1.342287 7.06579,0.261556 8.34854,0.546675 12.93659,2.875451 5.34922,2.715118 15.59592,11.530414 17.46739,15.027295 1.03933,1.942006 0.95654,2.201306 -1.54613,4.842325 -4.58761,4.841215 -17.0771,12.481277 -22.48979,13.757431 -5.36494,1.264897 -8.68382,1.390808 -11.0035,0.417449 z m 16.37248,-2.805857 c -0.25628,-0.256271 -0.92146,-0.283671 -1.47819,-0.06089 -0.61523,0.246195 -0.43248,0.428942 0.46595,0.465949 0.813,0.03349 1.26851,-0.148791 1.01224,-0.405063 l 0,2e-6 z"
         id="path4523"
         inkscape:connector-curvature="0"
         transform="matrix(0,9.7125097e-4,0.00138889,0,0.07459524,0.908704)" /><path
         style="fill:#000000;fill-opacity:1;stroke:#000000;stroke-width:0.77122575;stroke-miterlimit:4;stroke-opacity:1;stroke-dasharray:none"
         d="m 290.02108,45.849221 c -3.1813,-1.048767 -10.21768,-3.092384 -15.63639,-4.54137 -5.41871,-1.448986 -10.92579,-3.189692 -12.23794,-3.868235 l -2.38574,-1.233714 0.32241,-6.74364 c 0.25468,-5.326828 0.7607,-7.639454 2.40852,-11.00747 2.61606,-5.347042 8.85299,-11.3078312 15.16622,-14.4947391 4.83106,-2.4387101 4.87986,-2.4458075 11.07963,-1.6114482 7.45505,1.0032937 11.07506,3.1769024 14.85183,8.9176893 3.36743,5.118567 4.47773,9.937704 3.96891,17.226618 -0.46533,6.665848 -2.41762,12.496792 -5.5663,16.624916 -2.55108,3.344638 -3.81074,3.421599 -11.97115,0.731393 z"
         id="path4525"
         inkscape:connector-curvature="0"
         transform="matrix(0,9.7125097e-4,0.00138889,0,0.07459524,0.908704)" /><path
         style="fill:#000000;fill-opacity:1;stroke:#000000;stroke-width:0.77122575;stroke-miterlimit:4;stroke-opacity:1;stroke-dasharray:none"
         d="m 242.20509,75.013421 c -12.4986,-3.298829 -13.96916,-4.375642 -17.05055,-12.485203 -1.43678,-3.781295 -1.45244,-4.221537 -0.29214,-8.212823 1.22183,-4.202946 1.24579,-4.226363 7.0134,-6.854748 8.26289,-3.765521 10.7376,-3.594616 20.43919,1.41154 8.44663,4.35858 14.24786,8.887203 15.45632,12.065695 1.6575,4.359558 -3.03567,13.465864 -7.82803,15.188969 -4.19145,1.507044 -8.93878,1.209053 -17.73819,-1.11343 z m 1.25386,-5.784384 c 1.98643,-1.70866 2.05104,-1.960883 1.09407,-4.271216 -1.28346,-3.098551 -3.34176,-4.213411 -6.63747,-3.595134 -4.87136,0.913874 -6.98104,6.047097 -3.58306,8.718209 2.05476,1.615213 6.76998,1.175096 9.12646,-0.851859 l 0,0 z"
         id="path4527"
         inkscape:connector-curvature="0"
         transform="matrix(0,9.7125097e-4,0.00138889,0,0.07459524,0.908704)" /><path
         style="fill:#000000;fill-opacity:1;stroke:#000000;stroke-width:0.77122575;stroke-miterlimit:4;stroke-opacity:1;stroke-dasharray:none"
         d="m 165.62817,86.446784 c -1.60868,-0.874641 -3.58005,-2.667628 -4.38084,-3.984414 -3.40463,-5.598465 0.38581,-20.483691 7.17211,-28.16521 2.17176,-2.458253 10.68105,-5.118762 14.86379,-4.647306 4.12733,0.46521 11.49136,4.080059 13.49133,6.622614 2.08179,2.646565 1.86762,4.20109 -1.54932,11.245619 -7.28304,15.01503 -20.8439,23.687829 -29.59707,18.928697 z m 20.14457,-9.039243 c 5.18282,-4.382521 3.83592,-10.989968 -2.24025,-10.989968 -2.45609,0 -3.3319,0.498415 -5.66466,3.223723 -3.20533,3.744712 -3.25604,4.050119 -1.22539,7.380632 2.00955,3.295899 5.51355,3.443889 9.1303,0.385613 z"
         id="path4529"
         inkscape:connector-curvature="0"
         transform="matrix(0,9.7125097e-4,0.00138889,0,0.07459524,0.908704)" /><path
         style="fill:#000080;fill-opacity:1;stroke:#000000;stroke-width:0.09640322;stroke-miterlimit:4;stroke-opacity:1;stroke-dasharray:none"
         d="m 179.43865,74.041831 c -0.49555,-0.154869 -1.16952,-0.541403 -1.41287,-0.810299 -0.24784,-0.273858 -0.15488,-0.563158 0.36772,-1.144412 0.53228,-0.592024 1.23826,-1.087151 2.44302,-1.713359 0.81575,-0.424007 0.9511,-0.53145 1.1247,-0.89278 0.27062,-0.563295 0.75734,-0.749066 1.9326,-0.737637 1.01474,0.0099 1.45757,0.180096 1.55002,0.595836 0.0322,0.144846 0.0792,0.339563 0.1045,0.432706 0.0675,0.248797 -0.15294,1.218341 -0.3775,1.660365 -0.29156,0.573926 -1.2913,1.563721 -2.00004,1.980155 -1.199,0.704487 -2.68829,0.955657 -3.73215,0.629425 z"
         id="path4531"
         inkscape:connector-curvature="0"
         transform="matrix(0,9.7125097e-4,0.00138889,0,0.07459524,0.908704)" /><path
         style="fill:#000080;fill-opacity:1;stroke:#000000;stroke-width:0.09640322;stroke-miterlimit:4;stroke-opacity:1;stroke-dasharray:none"
         d="m 180.92318,77.549627 c -0.65589,-0.110411 -1.10263,-0.559327 -0.99266,-0.997491 0.0864,-0.344199 0.52308,-0.523505 1.56266,-0.64163 0.98596,-0.112032 1.68248,-0.405829 2.49509,-1.052438 0.33424,-0.265965 0.6341,-0.483573 0.66634,-0.483573 0.0323,0 0.0586,0.159829 0.0586,0.355176 0,1.413575 -2.24074,3.080769 -3.79007,2.819956 z"
         id="path4533"
         inkscape:connector-curvature="0"
         transform="matrix(0,9.7125097e-4,0.00138889,0,0.07459524,0.908704)" /><path
         style="fill:#000080;fill-opacity:1;stroke:#000000;stroke-width:0.09640322;stroke-miterlimit:4;stroke-opacity:1;stroke-dasharray:none"
         d="m 237.83142,68.817058 c -1.5343,-0.230436 -2.19566,-0.49791 -2.76474,-1.118152 -0.41736,-0.454882 -0.80218,-1.11207 -0.80218,-1.369962 0,-0.394766 1.26506,-1.408755 2.57852,-2.066783 1.21701,-0.6097 1.64928,-0.732423 2.57906,-0.732192 0.76797,1.92e-4 0.93189,0.0327 1.42717,0.283001 0.86291,0.436098 1.49263,1.240333 1.65003,2.107311 0.16369,0.901565 -0.54074,2.061147 -1.5038,2.475442 -0.84557,0.363755 -2.27768,0.554459 -3.16406,0.421335 z"
         id="path4535"
         inkscape:connector-curvature="0"
         transform="matrix(0,9.7125097e-4,0.00138889,0,0.07459524,0.908704)" /><path
         style="fill:#800080;fill-opacity:1;stroke:#000000;stroke-width:0.38561288;stroke-miterlimit:4;stroke-opacity:1;stroke-dasharray:none"
         d="m 219.37862,131.54035 c -2.40868,-1.41454 -4.53342,-3.32027 -4.53342,-4.06613 0,-0.32876 0.30873,-0.76298 0.68607,-0.96493 0.93038,-0.49792 14.6487,-2.46023 15.12807,-2.16396 0.71015,0.4389 0.40716,2.5135 -0.49951,3.42016 -0.89418,0.89419 -6.76915,4.21585 -8.1808,4.62536 -0.47551,0.13795 -1.47258,-0.18816 -2.60041,-0.8505 z"
         id="path4537"
         inkscape:connector-curvature="0"
         transform="matrix(0,9.7125097e-4,0.00138889,0,0.07459524,0.908704)" /><path
         style="fill:#000000;fill-opacity:1;stroke:#000000;stroke-width:0.13633475;stroke-miterlimit:4;stroke-opacity:1;stroke-dasharray:none"
         d="m 216.48319,146.76249 c -0.74984,-0.0583 -1.56164,-0.1673 -1.80401,-0.24224 -1.19024,-0.36802 -2.52363,-1.81878 -3.46459,-3.76955 -0.81701,-1.6938 -1.32779,-3.7492 -0.9317,-3.7492 0.0766,0 0.37006,0.15274 0.65215,0.33942 0.60245,0.39868 1.25454,0.60358 3.64548,1.14549 4.08728,0.92639 10.44365,1.92346 12.26219,1.92346 1.15858,0 1.42038,-0.12528 1.15595,-0.55313 -0.15401,-0.24921 0.0969,-0.53755 0.46786,-0.53755 0.3987,0 5.10527,-1.60465 7.79232,-2.65671 3.80984,-1.49165 4.69047,-2.05414 6.21513,-3.96983 1.19577,-1.50246 1.89137,-2.23522 2.12185,-2.23522 0.2638,0 0.21973,0.83912 -0.0904,1.72154 -0.89173,2.53714 -5.34358,7.88651 -7.70895,9.26313 -3.3044,1.92312 -7.87026,3.00548 -14.04186,3.32869 -2.87685,0.15065 -4.25008,0.14884 -6.2714,-0.008 l 0,-1e-5 z"
         id="path4541"
         inkscape:connector-curvature="0"
         transform="matrix(0,9.7125097e-4,0.00138889,0,0.07459524,0.908704)" /><path
         style="fill:#ffffff;fill-opacity:1;stroke:#000000;stroke-width:0.77122575;stroke-miterlimit:4;stroke-opacity:1;stroke-dasharray:none"
         d="m 119.36589,245.56081 c -0.31221,-0.75574 -1.86948,-1.42177 -4.01041,-1.71522 -5.24652,-0.71911 -15.943178,-5.30615 -20.636149,-8.84937 C 90.256765,231.62694 84.52483,225.38669 80.111105,219.0925 78.600604,216.93846 70.565565,208.92912 62.255463,201.29399 42.520772,183.1622 37.112454,177.20956 25.818907,161.19025 c -3.289453,-4.66592 -6.950468,-9.52464 -8.135592,-10.79716 -3.454429,-3.70918 -6.164228,-8.16754 -6.164228,-10.14183 0,-2.56277 5.425001,-17.96712 8.889243,-25.2411 3.501119,-7.35142 9.763775,-14.29062 20.911372,-23.170374 C 62.69724,74.811239 79.812194,71.40902 105.60863,79.060027 l 5.01297,1.486804 -0.26724,3.881291 c -0.14699,2.134711 -0.0709,3.881292 0.16905,3.881292 0.23997,0 1.85018,-0.736956 3.57826,-1.637681 1.72809,-0.900725 3.26239,-1.508065 3.40958,-1.349645 0.1472,0.15842 -0.33309,3.4115 -1.0673,7.229068 -0.83703,4.352249 -1.05645,7.124477 -0.58828,7.432885 0.41065,0.270519 2.02828,0.319949 3.59474,0.109839 l 2.8481,-0.382008 -0.59462,5.565068 c -0.5746,5.37756 -0.74715,5.73765 -5.12134,10.68732 -11.80313,13.35597 -15.41419,22.10636 -16.11752,39.05618 -0.33377,8.04353 -0.0921,12.00834 1.2223,20.05187 2.42935,14.86678 3.18559,16.9088 9.2074,24.86204 6.23667,8.23702 7.60121,11.73429 8.65513,22.18273 0.82119,8.14133 0.68462,25.54621 -0.18397,23.44373 z M 100.59566,140.75277 c 0.26216,-0.42418 0.12959,-0.77123 -0.29458,-0.77123 -0.424176,0 -0.985713,0.34705 -1.247869,0.77123 -0.262155,0.42417 -0.129589,0.77122 0.294586,0.77122 0.424174,0 0.985713,-0.34705 1.247863,-0.77122 z"
         id="path4543"
         inkscape:connector-curvature="0"
         transform="matrix(0,9.7125097e-4,0.00138889,0,0.07459524,0.908704)" /><path
         style="fill:#ffffff;fill-opacity:1;stroke:#000000;stroke-width:0.77122575;stroke-miterlimit:4;stroke-opacity:1;stroke-dasharray:none"
         d="m 184.42733,247.24159 c -1.40009,-0.35865 -2.71026,-0.81673 -2.91148,-1.01795 -0.37862,-0.37862 2.08352,-6.75241 3.64499,-9.43584 2.64157,-4.53963 5.57233,-13.4653 7.22289,-21.99736 1.53707,-7.94544 1.97464,-13.39519 2.48885,-30.99759 0.34314,-11.7465 0.86094,-21.59432 1.15067,-21.88404 0.28972,-0.28972 3.32279,-0.0727 6.74015,0.48227 7.54147,1.22471 19.51986,0.20469 32.99768,-2.80992 4.77641,-1.06835 9.0492,-1.71698 9.49508,-1.44141 0.44589,0.27557 1.11854,1.31071 1.49478,2.3003 1.43226,3.76713 4.54334,30.60915 5.00328,43.16762 0.49655,13.55832 2.03334,24.18979 3.92581,27.15857 0.59887,0.93947 1.08885,1.88999 1.08885,2.11226 0,0.84214 -12.6892,6.73733 -19.12416,8.88476 -12.52806,4.18079 -20.84156,5.51338 -36.40409,5.83529 -7.84723,0.16232 -15.41321,0.002 -16.8133,-0.35696 z m 59.23071,-15.48418 c 0,-0.42418 -0.32657,-0.77123 -0.72571,-0.77123 -0.39914,0 -0.9402,0.34705 -1.20235,0.77123 -0.26216,0.42417 0.0644,0.77122 0.72571,0.77122 0.66129,0 1.20235,-0.34705 1.20235,-0.77122 z"
         id="path4545"
         inkscape:connector-curvature="0"
         transform="matrix(0,9.7125097e-4,0.00138889,0,0.07459524,0.908704)" /><path
         style="fill:#ffffff;fill-opacity:1;stroke:#000000;stroke-width:0.77122575;stroke-miterlimit:4;stroke-opacity:1;stroke-dasharray:none"
         d="m 179.32747,160.92651 c -0.78886,-0.78887 -2.27229,-1.1449 -4.19255,-1.00626 -2.72456,0.19672 -3.05649,0.002 -3.99064,-2.34262 -0.56039,-1.40646 -1.11144,-2.68071 -1.22455,-2.83167 -0.1131,-0.15097 -1.83298,0.34699 -3.82194,1.10658 -3.52445,1.34601 -3.64248,1.34318 -4.6479,-0.11112 -2.17673,-3.14855 -2.76605,-3.51221 -4.9237,-3.03831 l -2.15157,0.47256 -0.3066,-5.42607 c -0.16863,-2.98435 -0.66059,-5.78007 -1.09324,-6.21272 -0.5347,-0.5347 -1.99431,-0.0207 -4.55741,1.60471 -3.61411,2.29201 -3.81633,2.33211 -4.86719,0.9653 -1.9805,-2.57595 -3.8463,-7.5256 -4.38957,-11.6448 -0.29371,-2.22692 -0.8943,-4.04894 -1.33464,-4.04894 -0.44035,0 -1.92208,0.6931 -3.29274,1.54021 l -2.49211,1.54021 -0.40792,-5.08187 c -0.48053,-5.98644 -1.37797,-7.31886 -3.87108,-5.74734 -3.98969,2.51487 -5.88097,3.4553 -6.23564,3.10062 -0.40092,-0.40092 2.86416,-21.45329 3.81143,-24.575113 0.55011,-1.812967 0.48992,-1.83807 -3.49016,-1.455635 l -4.04992,0.389146 0.50131,-2.400495 c 0.27573,-1.320276 0.70696,-4.7431 0.95829,-7.606275 0.50259,-5.725439 0.41879,-5.814864 -4.20638,-4.488385 -1.37576,0.394565 -2.50139,0.422217 -2.50139,0.06145 0,-0.360767 1.08082,-3.720295 2.40181,-7.465616 2.75884,-7.821937 5.84189,-14.179813 9.67696,-19.955845 l 2.68147,-4.038582 5.26424,-0.08013 c 2.89533,-0.04408 7.37054,-0.735686 9.94491,-1.53692 5.18315,-1.613178 15.99771,-8.468983 20.11877,-12.754143 1.46178,-1.51998 3.2838,-2.763601 4.04894,-2.763601 1.7872,0 1.75389,-0.48007 -0.30279,-4.363211 -2.17635,-4.109087 -1.7198,-4.675783 6.67097,-8.280419 13.3719,-5.744509 18.8955,-6.791887 37.99509,-7.204579 18.53236,-0.400435 21.17816,-0.134161 37.52034,3.776036 l 9.9253,2.374828 -0.47778,3.485797 c -0.26278,1.917189 -0.47778,4.999091 -0.47778,6.848673 0,2.587869 -0.28837,3.362875 -1.25127,3.362875 -1.05064,0 -1.08983,0.194532 -0.2444,1.213206 1.78202,2.147208 6.26775,3.940774 17.3058,6.919515 5.93843,1.602554 12.28883,3.546574 14.11198,4.320043 1.82316,0.773469 5.38737,1.943356 7.92047,2.599747 l 4.60563,1.19344 1.83968,-2.138753 c 1.81804,-2.113602 1.85871,-2.121528 3.45827,-0.673945 3.56279,3.22428 7.73095,15.405752 7.7687,22.704064 0.0106,2.054417 -0.24026,2.491658 -1.21509,2.117582 -0.67567,-0.259278 -2.03203,-0.67309 -3.01413,-0.919582 l -1.78564,-0.448168 2.2429,8.629648 c 2.69934,10.385806 2.74423,11.045741 0.70735,10.399261 -2.51969,-0.799718 -3.1896,0.198905 -2.01665,3.006177 0.58376,1.397129 1.30733,4.328504 1.60793,6.514159 0.45907,3.33776 0.35156,3.97393 -0.67154,3.97393 -0.80007,0 -1.51802,1.19104 -2.092,3.47051 -0.48063,1.90878 -1.02345,3.47052 -1.20623,3.47052 -0.1828,0 -1.39616,-0.55011 -2.69636,-1.22247 -3.02392,-1.56373 -3.4964,-1.05178 -5.22251,5.6587 -1.743,6.77622 -1.97266,7.13215 -4.60188,7.13215 -2.10179,0 -2.16718,0.13553 -3.0386,6.29757 -0.48983,3.46366 -1.04879,6.45576 -1.24215,6.64912 -0.19336,0.19335 -1.90138,-0.55671 -3.79562,-1.66681 l -3.44407,-2.01836 -1.74122,3.85273 c -0.95766,2.119 -1.87011,3.85272 -2.02765,3.85272 -0.15754,0 -1.32054,-0.53476 -2.58446,-1.18836 -2.75674,-1.42556 -3.47375,-1.07384 -4.93364,2.42018 -0.92718,2.21905 -1.41458,2.59362 -2.89233,2.22273 -1.31708,-0.33057 -2.34519,0.14677 -3.97086,1.84359 -1.77776,1.8556 -2.65275,2.21541 -4.61544,1.89799 -2.02386,-0.32732 -2.6998,-0.015 -4.11356,1.90021 -5.10368,6.91418 -39.27531,13.86692 -52.66193,10.71487 -4.36148,-1.02696 -5.33002,-1.03631 -7.63399,-0.0737 -2.16481,0.90451 -3.11415,0.93064 -5.2856,0.14544 -2.33098,-0.8429 -2.99976,-0.7638 -5.60427,0.66283 -2.69772,1.47769 -3.06465,1.51274 -4.17826,0.39914 l 0,0 z m 50.27998,-12.85521 c 11.43692,-2.69643 15.23152,-6.70779 18.21927,-19.26003 0.70511,-2.96234 1.53058,-5.6272 1.83438,-5.9219 0.91355,-0.88618 11.93046,0.68047 16.78599,2.38705 5.39161,1.89501 4.97508,1.85304 4.97508,0.50123 0,-1.38143 -4.98294,-3.28764 -11.954,-4.57297 -4.68718,-0.86422 -5.10692,-1.06962 -3.18528,-1.5587 1.21732,-0.30983 4.95689,-0.4972 8.31017,-0.41637 5.55954,0.13399 7.68325,-0.24533 6.72703,-1.20154 -0.19753,-0.19754 -3.71518,-0.59506 -7.81699,-0.88339 -4.10181,-0.28833 -7.28217,-0.80846 -7.06748,-1.15585 0.70729,-1.14441 15.56717,-9.2417 18.3909,-10.02137 1.93354,-0.53388 2.76546,-1.20391 2.76546,-2.22734 0,-1.38866 -0.21633,-1.36809 -4.2161,0.40079 -5.13469,2.27081 -11.98841,6.0428 -16.46839,9.06349 -1.83255,1.23563 -3.49063,2.08787 -3.68462,1.89388 -0.19399,-0.19399 0.54954,-3.20888 1.6523,-6.69974 1.10277,-3.49086 1.80628,-6.86496 1.56335,-7.49801 -0.87752,-2.286792 -2.20187,-0.46695 -3.56427,4.89782 -2.08231,8.19961 -7.49672,21.48479 -10.25222,25.1556 -1.49834,1.99603 -4.06595,4.05547 -6.67633,5.35496 -6.03692,3.00527 -8.52299,3.35548 -10.78979,1.51993 l -1.86314,-1.50868 2.41105,-2.41105 c 1.32609,-1.32608 3.14957,-2.41105 4.05218,-2.41105 2.60521,0 5.32425,-8.26868 3.15908,-9.60683 -0.39437,-0.24374 -3.95165,0.0814 -7.90507,0.72261 -3.95342,0.64116 -8.48947,1.16715 -10.08013,1.16886 -2.75052,0.003 -2.89151,0.1258 -2.88029,2.50958 0.0147,3.13014 0.25139,3.45281 5.11419,6.9736 3.59133,2.60022 5.44616,4.88407 4.62969,5.70054 -0.62755,0.62755 -11.8249,-2.31294 -15.68086,-4.11789 -4.25564,-1.99201 -8.72811,-7.45193 -8.72811,-10.65509 0,-0.90288 -0.3156,-1.9713 -0.70133,-2.37427 -0.38574,-0.40296 -1.82206,-3.42231 -3.19184,-6.70966 -1.46011,-3.50415 -2.94637,-5.977 -3.59238,-5.977 -1.20607,0 -0.86834,1.82466 1.02783,5.55309 1.77024,3.48081 1.37049,4.33164 -2.2933,4.88106 -3.20671,0.48088 -13.51013,-0.49081 -17.38111,-1.63916 -1.38659,-0.41134 -1.75215,-0.27969 -1.4872,0.53558 0.43228,1.33017 4.79166,2.675 11.42359,3.52407 l 5.01296,0.64181 -5.39858,3.37208 c -7.41473,4.63141 -11.50319,8.58192 -8.88159,8.58192 0.4173,0 3.454,-1.94138 6.74822,-4.31418 7.21484,-5.19677 14.8714,-9.24657 14.8294,-7.84373 -0.016,0.53632 -1.60352,2.18982 -3.5277,3.67443 -5.12759,3.95622 -11.86762,11.42727 -11.86762,13.15479 0,2.33058 1.34511,1.77584 3.37918,-1.3936 2.82184,-4.39692 11.2313,-11.76119 13.43043,-11.76119 0.41875,0 0.98428,0.88814 1.25673,1.97365 0.65097,2.5937 6.04967,8.40308 8.91011,9.58792 1.70061,0.70441 2.56093,1.84612 3.48299,4.62219 1.20263,3.62076 2.7234,5.56255 5.01695,6.40587 2.3003,0.84581 11.28889,0.49932 16.02721,-0.61781 l 0,0 z M 179.06712,88.442494 c 7.93329,-3.586707 13.81541,-10.018356 18.84138,-20.601629 4.568,-9.618902 3.53545,-12.898104 -5.73172,-18.20297 -3.51731,-2.013438 -4.7988,-2.314965 -9.72918,-2.289224 -6.43242,0.03359 -13.14075,2.13157 -15.71199,4.913823 -2.26243,2.448093 -6.73157,11.004639 -8.31444,15.918669 -1.53754,4.773287 -1.19703,12.434163 0.71718,16.135854 3.06453,5.92613 11.90027,7.755231 19.92877,4.125477 z m 85.24679,-12.305461 c 5.67893,-5.678937 7.80063,-13.452541 4.92568,-18.047051 -2.12413,-3.394607 -5.13166,-5.653498 -14.524,-10.908669 -10.33125,-5.780498 -12.5426,-6.062568 -22.22922,-2.835464 -6.99925,2.331798 -7.56923,2.679577 -8.68404,5.298583 -3.04776,7.160056 -1.48591,16.733596 3.55181,21.771319 2.14079,2.140788 4.26397,3.254217 8.60873,4.514558 3.17191,0.920118 6.63474,1.972119 7.69517,2.337782 1.06044,0.365663 5.48535,0.69224 9.83313,0.725728 l 7.90507,0.06089 2.91767,-2.917672 z"
         id="path4547"
         inkscape:connector-curvature="0"
         transform="matrix(0,9.7125097e-4,0.00138889,0,0.07459524,0.908704)" /></g></g></svg>