<?xml version="1.0" encoding="UTF-8" standalone="no"?>
<!-- Created with Inkscape (http://www.inkscape.org/) -->

<svg
   xmlns:dc="http://purl.org/dc/elements/1.1/"
   xmlns:cc="http://creativecommons.org/ns#"
   xmlns:rdf="http://www.w3.org/1999/02/22-rdf-syntax-ns#"
   xmlns:svg="http://www.w3.org/2000/svg"
   xmlns="http://www.w3.org/2000/svg"
   xmlns:sodipodi="http://sodipodi.sourceforge.net/DTD/sodipodi-0.dtd"
   xmlns:inkscape="http://www.inkscape.org/namespaces/inkscape"
   width="401.20374"
   height="186.85371"
   id="svg3022"
   version="1.1"
   inkscape:version="0.48.4 r9939"
   sodipodi:docname="drawing1.svg">
  <defs
     id="defs3024" />
  <sodipodi:namedview
     id="base"
     pagecolor="#ffffff"
     bordercolor="#666666"
     borderopacity="1.0"
     inkscape:pageopacity="0.0"
     inkscape:pageshadow="2"
     inkscape:zoom="0.7"
     inkscape:cx="675.54076"
     inkscape:cy="227.62248"
     inkscape:document-units="px"
     inkscape:current-layer="layer1"
     showgrid="false"
     inkscape:window-width="1366"
     inkscape:window-height="692"
     inkscape:window-x="0"
     inkscape:window-y="24"
     inkscape:window-maximized="1"
     fit-margin-top="0"
     fit-margin-left="0"
     fit-margin-right="0"
     fit-margin-bottom="0" />
  <metadata
     id="metadata3027">
    <rdf:RDF>
      <cc:Work
         rdf:about="">
        <dc:format>image/svg+xml</dc:format>
        <dc:type
           rdf:resource="http://purl.org/dc/dcmitype/StillImage" />
        <dc:title />
      </cc:Work>
    </rdf:RDF>
  </metadata>
  <g
     inkscape:label="Layer 1"
     inkscape:groupmode="layer"
     id="layer1"
     transform="translate(730.10335,37.380981)">
    <path
       style="fill:#000000"
       d="m -383.04481,-37.374455 c 0.0727,0.01099 0.15345,0.03779 0.21526,0.0615 0.52828,0.202635 0.89179,1.062053 0.89179,2.060349 0,1.574034 0.57455,3.171937 3.50567,9.840469 0.57142,1.298706 1.53573,3.609356 2.1526,5.135495 0.62818,1.553062 1.70049,3.019801 2.42937,3.35191 0.7163,0.325916 2.35409,1.554794 3.62867,2.706129 1.27458,1.151335 2.56384,2.091099 2.89064,2.091099 0.64944,0 6.05804,6.3412281 6.05804,7.1035889 0,0.2593161 0.92255,1.8698565 2.06034,3.5979216 1.1384,1.72806512 1.9866,3.4220212 1.87584,3.7516789 -0.17021,0.5072958 5.5494,4.4282111 6.45781,4.4282111 0.16718,0 1.14992,0.6193296 2.18335,1.3838164 1.03445,0.764486 3.49468,2.0360221 5.44301,2.7983831 1.94834,0.762361 3.94111,1.655202 4.42822,1.998845 0.48733,0.34363 1.81535,1.131857 2.95214,1.752834 2.32726,1.271782 5.69387,4.759805 6.58081,6.796074 0.6337,1.45387 0.55281,1.74197 -0.64578,2.490869 -0.82468,0.515089 -1.04667,1.195282 -0.86104,2.52162 0.27761,1.983839 -0.70054,3.429118 -3.53642,5.258501 -2.26373,1.460247 -7.24904,0.903138 -10.30174,-1.168556 -1.49949,-1.017043 -2.66252,-1.386289 -3.75168,-1.168556 -1.47934,0.29545 -10.28939,-1.629217 -14.48394,-3.167401 -1.39616,-0.511976 -3.198,-0.539866 -6.85758,-0.09225 -4.59546,0.56256 -10.9393,0.1758 -13.56139,-0.83029 -0.95543,-0.366585 -0.97967,-0.323871 -8.3029,9.809718 -2.00406,2.773619 -4.59485,6.094399 -5.78128,7.380352 -9.23043,10.003506 -13.16695,15.278461 -18.08186,24.385913 -1.15907,2.147505 -2.42477,4.310125 -2.82913,4.797228 -0.89565,1.07885 -3.80128,9.83675 -3.81319,11.501049 -0.005,0.658209 -0.38343,2.268464 -0.83028,3.56717 -0.44667,1.298922 -0.98852,5.139539 -1.19931,8.548907 -0.21036,3.409584 -0.66699,8.039887 -1.0148,10.270997 -0.6616,4.24852 -0.62635,4.43777 1.90659,16.60579 0.67636,3.24499 1.27975,6.20764 1.35307,6.58081 0.0734,0.36843 0.42069,1.03743 0.76878,1.47607 0.3477,0.43928 0.88573,1.58171 1.19931,2.55237 0.47316,1.47081 0.96865,1.84455 2.89064,2.12185 1.27255,0.18422 3.34929,1.03512 4.61272,1.9066 1.26343,0.87147 2.47036,1.59907 2.67537,1.59907 0.20467,0 1.01942,1.19217 1.81434,2.64463 1.67478,3.06786 1.21262,4.09385 -1.93734,4.2437 -1.03851,0.0463 -3.75373,0.36139 -6.02729,0.70728 -13.59042,2.06745 -18.16451,-0.94836 -22.41782,-14.6992 -0.55218,-1.78758 -2.12977,-5.21982 -3.50566,-7.65711 -2.23913,-3.9613 -3.32326,-6.40664 -5.68903,-12.85411 -0.38575,-1.04839 -0.93771,-1.749 -1.23005,-1.56833 -0.29235,0.18443 -0.37504,0.58352 -0.18451,0.89179 0.19047,0.30466 -0.66647,1.8571 -1.90659,3.44417 -1.24114,1.58778 -3.49375,4.87447 -5.01249,7.31885 -1.51774,2.44437 -3.45625,4.91751 -4.30521,5.47376 -1.75077,1.14546 -7.77925,1.31119 -9.71746,0.27676 -0.64134,-0.34327 -2.0289,-0.617 -3.1059,-0.61503 -2.87955,0 -16.51545,-4.67899 -17.98961,-6.18104 -1.83898,-1.87757 -2.17529,-3.56092 -1.1378,-5.56602 1.4691,-2.84114 4.21385,-4.42262 7.96463,-4.58197 3.09423,-0.13462 3.43638,0.0129 5.65827,2.15261 2.60284,2.50636 6.16452,3.74278 9.04093,3.1674 2.27356,-0.45465 3.61315,-2.83113 5.35075,-9.53296 2.08664,-8.050135 3.51731,-7.251193 -13.06937,-7.165093 -7.8749,0.0408 -16.17732,-0.0789 -18.45088,-0.24601 -9.37642,-0.689612 -12.89885,-1.026884 -13.37689,-1.322315 -0.27761,-0.171529 -2.35233,-0.423356 -4.61272,-0.553526 -2.53192,-0.145245 -5.00253,-0.687632 -6.42705,-1.414568 -1.27255,-0.648644 -2.40904,-1.065909 -2.55238,-0.922544 -0.14387,0.14312 -2.4526,-0.68284 -5.13549,-1.814336 -2.68289,-1.131497 -5.27618,-2.060348 -5.75052,-2.060348 -0.47518,0 -1.89653,-0.504895 -3.13665,-1.137805 l -2.24486,-1.137804 -2.12185,1.937343 c -3.43061,3.142327 -8.15626,6.547061 -11.56255,8.364403 -1.74672,0.93169 -3.54492,2.306123 -4.02845,3.044393 -0.5238,0.79957 -1.49399,1.35307 -2.36786,1.35307 -0.80648,0 -2.95426,0.92105 -4.79723,2.06034 -4.19281,2.58962 -9.48869,3.77906 -18.48163,4.15145 -6.03095,0.24798 -7.37255,0.48263 -10.64005,1.99885 -3.4944,1.61541 -8.1491,5.34076 -8.1491,6.48856 0,0.27632 -0.3948,0.81239 -0.861,1.1993 -1.0537,0.87148 -1.7534,3.85973 -1.1378,4.85873 0.2522,0.40386 0.4853,1.16781 0.5227,1.66058 0.1267,1.65793 2.2133,6.48856 2.7984,6.48856 0.3184,0 0.4464,0.74419 0.2768,1.62983 -0.383,2.0051 0.7922,4.38944 2.6139,5.28925 0.7588,0.37297 3.1173,0.80557 5.2277,0.92255 2.1105,0.11336 4.6226,0.60067 5.5968,1.0763 1.63232,0.79353 1.76261,1.06867 1.66055,3.69017 -0.0609,1.55873 -0.50102,3.44535 -0.98404,4.1822 -0.84901,1.29452 -1.18541,1.32542 -10.05571,1.35307 -6.2331,0.0195 -9.3508,-0.18489 -9.7175,-0.64578 -0.2968,-0.37551 -1.515,-2.5229 -2.7369,-4.79723 -1.2219,-2.27433 -2.6747,-4.67058 -3.2289,-5.32 -1.5511,-1.81805 -5.0066,-7.80876 -7.1343,-12.39285 -1.0547,-2.26724 -2.0145,-4.23782 -2.1219,-4.3667 -0.1074,-0.12754 -1.8382,0.58349 -3.8746,1.56832 -2.0355,0.98484 -4.6445,2.23051 -5.7813,2.76763 -1.1368,0.53139 -3.6485,2.42041 -5.5968,4.21295 -3.1044,2.85335 -3.7678,3.21118 -5.32,2.89064 -0.9747,-0.20122 -2.8911,-0.50465 -4.2437,-0.67653 -3.0628,-0.38968 -5.3177,-2.48403 -4.4282,-4.1207 0.3252,-0.60223 2.0837,-2.52442 3.9054,-4.27445 2.1695,-2.08303 3.2132,-3.49196 3.0137,-4.1207 -0.305,-0.96358 3.6453,-4.37207 7.2573,-6.24255 0.8947,-0.46761 3.0918,-2.62917 4.8587,-4.79722 1.768,-2.17018 3.9169,-4.76102 4.7665,-5.78128 0.8491,-1.02026 2.4832,-3.382073 3.6595,-5.227753 1.1762,-1.845677 2.4353,-3.515565 2.7676,-3.720926 0.3323,-0.205469 1.5044,-1.801977 2.6139,-3.536419 1.1094,-1.73515 3.2101,-4.407477 4.6742,-5.935033 2.9372,-3.065877 5.3865,-7.69935 6.427,-12.208332 0.3736,-1.617537 0.986,-3.057286 1.3531,-3.198152 0.4792,-0.184214 0.3919,-1.368977 -0.3075,-4.212951 -1.4874,-6.04887 -0.8234,-16.083017 1.0763,-16.083017 0.9068,0 1.2138,2.341343 0.5535,4.243702 -0.9392,2.695045 -0.1321,11.337982 1.5376,16.452035 1.9186,5.878755 2.9007,11.457406 2.3986,13.745905 -0.3749,1.705747 -3.7009,9.143931 -4.3975,9.840469 -0.1621,0.16225 -1.5628,2.891691 -3.1059,6.058039 -1.543,3.166353 -3.6884,6.747403 -4.7664,7.964633 -1.078,1.21864 -2.9553,3.54375 -4.1822,5.16625 -2.2031,2.91695 -2.2233,3.00882 -1.9681,7.38035 0.2482,4.244 2.3897,10.53506 3.9054,11.4703 0.309,0.19129 1.1274,1.47828 1.8451,2.85988 0.7183,1.3816 2.0978,3.66405 3.0444,5.07399 0.9473,1.40995 2.2504,3.57391 2.8906,4.82798 0.6404,1.25407 1.5354,2.5067 1.9989,2.76764 0.9141,0.5165 15.9628,0.0936 16.5135,-0.46128 0.1847,-0.1913 0.4876,-1.11094 0.6765,-2.06034 0.2918,-1.46663 0.077,-1.88908 -1.4145,-2.76764 -2.1743,-1.27822 -4.312,-1.32748 -6.6423,-0.123 -1.6272,0.83841 -1.9395,0.86438 -3.2597,0 -0.7975,-0.51722 -1.3,-1.18289 -1.1378,-1.44532 0.3809,-0.61641 -1.6466,-4.59639 -3.1674,-6.2118 -0.7398,-0.78645 -1.0652,-1.7115 -0.861,-2.49087 0.1884,-0.72268 -0.3323,-2.65013 -1.2608,-4.61272 -2.0084,-4.24754 -1.7666,-7.78892 0.738,-10.33249 0.8946,-0.9069 2.2848,-2.51857 3.0751,-3.56717 0.7903,-1.0486 2.7828,-2.79533 4.4282,-3.84393 3.3668,-2.14703 7.001,-2.80153 15.03751,-2.73688 8.23164,0.0659 14.79073,-2.13689 20.32672,-6.796083 1.25532,-1.0571 3.13422,-2.0872 4.15145,-2.306357 1.01723,-0.218931 3.01382,-1.083298 4.42821,-1.906591 3.54408,-2.063261 11.86105,-8.694448 13.71515,-10.947522 2.69911,-3.28155 5.21859,-9.332228 6.2733,-15.006715 0.81257,-4.372947 1.21795,-5.44301 2.0296,-5.44301 1.34967,0 1.94508,1.026056 1.1378,1.998846 -0.72746,0.876933 -2.09633,5.350272 -2.70613,8.887173 -0.42451,2.460875 -3.40896,8.841475 -4.42821,9.471452 -2.25867,1.395772 2.3167,3.381097 8.27215,3.597921 2.43567,0.08857 5.20684,0.475482 6.18104,0.861041 2.33436,0.923765 9.10119,1.633548 9.3177,0.984047 0.0943,-0.280109 0.87014,-0.212583 1.75283,0.123006 1.87042,0.711092 18.68838,0.156966 19.71169,-0.645781 0.36068,-0.283139 2.20884,-0.47126 4.1207,-0.43052 1.91186,0.04113 5.2084,-0.353794 7.31884,-0.861041 2.11085,-0.507296 7.68461,-1.732208 12.39285,-2.736881 4.70923,-1.004672 9.03056,-2.086258 9.59445,-2.398614 0.56333,-0.312356 1.43112,-0.553526 1.93735,-0.553526 0.73644,0 0.85266,-0.442821 0.55352,-2.214106 -0.20596,-1.217935 -0.73798,-3.023484 -1.16855,-3.997691 -0.43056,-0.974206 -0.84562,-2.826241 -0.9533,-4.120696 -0.1523,-1.8308 -6.3e-4,-2.404194 0.76879,-2.552372 0.77216,-0.148788 1.08891,0.427687 1.41456,2.644626 0.22946,1.561565 0.67963,3.524 0.98405,4.335957 0.81829,2.181298 1.70053,6.570855 1.66058,8.17989 -0.0193,0.773697 0.46705,2.247189 1.0763,3.259656 0.68397,1.137164 1.26303,3.588041 1.50682,6.427056 0.21683,2.528686 1.05016,6.514075 1.84509,8.856425 0.79534,2.34164 1.44335,4.84439 1.44532,5.53526 0.002,0.69435 0.40441,1.56389 0.89179,1.9681 0.48712,0.40385 0.8918,1.5083 0.8918,2.42936 0,2.07666 0.80126,3.96724 3.65942,8.57966 1.22996,1.97676 2.24486,3.84162 2.24486,4.15145 0,0.64475 2.09956,5.37181 2.98289,6.70382 0.32256,0.48888 0.75227,1.36076 0.9533,1.96809 1.04053,3.14368 3.61121,7.23613 4.92023,7.84163 0.81155,0.37551 2.19734,1.01185 3.07515,1.41457 2.10345,0.96421 11.62563,0.42633 12.51584,-0.70729 0.34448,-0.43516 1.01603,-0.76878 1.47607,-0.76878 0.45965,0 0.94098,-0.33213 1.0763,-0.73804 0.26038,-0.78191 -1.14066,-1.04268 -1.84508,-0.33827 -0.57143,0.57197 -5.074,0.65541 -5.074,0.0923 0,-0.67309 2.10446,-1.69133 3.50567,-1.69133 1.44478,0 1.58984,-1.30751 0.27677,-2.39862 -0.7761,-0.64177 -1.26349,-0.60179 -2.89064,0.27677 -1.07499,0.5773 -2.42089,0.97519 -3.01365,0.86104 -1.186,-0.22673 -2.11737,-3.11333 -2.02959,-6.2733 0.0293,-1.05569 -0.24291,-2.43727 -0.58428,-3.07515 -0.85209,-1.59274 -4.18082,-18.06051 -4.2437,-20.9725 -0.079,-3.66549 2.09267,-21.415568 3.04439,-24.816434 0.27255,-0.974207 0.91107,-3.226326 1.41457,-5.012489 0.50355,-1.786164 1.20742,-4.298061 1.56832,-5.596767 0.36061,-1.298706 0.88512,-2.886938 1.16856,-3.536419 0.81662,-1.872739 2.52157,-13.281592 2.49087,-16.698046 -0.0207,-2.301961 0.17944,-3.105898 0.79954,-3.105898 0.49396,0 0.83029,0.595102 0.83029,1.445319 0,1.768705 0.8387,2.377152 1.90659,1.383816 0.94732,-0.881187 1.79412,-1.167487 4.70497,-1.506822 1.80041,-0.20972 2.75279,-0.923459 5.59677,-4.151448 1.88856,-2.143963 4.21016,-4.553254 5.13549,-5.381507 1.75178,-1.567728 7.21367,-8.641142 9.87122,-12.761858 1.60939,-2.496094 2.50881,-5.596767 1.62983,-5.596767 -0.46201,0 -2.48483,-1.698455 -5.3815,-4.520465 -0.61385,-0.597986 -0.80443,-1.225155 -0.49203,-1.537574 0.08,-0.08004 0.15183,-0.127644 0.24601,-0.184509 -0.4718,-2.686212 0.15662,-9.1894224 1.90659,-10.2709893 3.54358,-2.1900161 8.06994,-1.1910511 17.40533,3.8131822 6.24764,3.3489321 13.0151,6.0320691 19.40418,7.6878661 1.90577,0.493834 4.23329,1.297027 5.16625,1.783585 1.88652,0.983545 3.78243,1.165387 3.78243,0.369018 0,-0.284823 -0.88162,-0.839101 -1.93735,-1.230059 -1.05572,-0.391099 -2.31128,-0.962108 -2.79838,-1.26081 -0.48734,-0.298284 -1.55601,-0.809742 -2.36786,-1.137804 -0.81156,-0.328042 -2.50345,-1.138222 -3.75168,-1.783585 -1.24824,-0.645265 -2.61873,-1.168556 -3.07515,-1.168556 -0.45641,0 -0.83029,-0.259537 -0.83029,-0.584278 0,-0.841842 2.15763,-0.739816 4.33596,0.21526 1.0233,0.44849 2.91406,1.287495 4.21295,1.845088 1.29889,0.557601 3.86566,1.794558 5.71977,2.736881 1.85309,0.942323 3.69629,1.691331 4.08995,1.691331 0.39311,0 1.22047,0.44661 1.81433,0.984046 0.58168,0.526355 1.28483,1.277264 1.81434,1.968094 0.26862,-0.543325 0.81869,-1.058546 1.59908,-1.353064 0.97395,-0.367896 1.78358,-0.845982 1.78358,-1.04555 0,-0.487458 -5.55651,-4.245798 -8.85642,-5.996536 -1.46201,-0.775114 -3.85901,-2.18795 -5.32,-3.13665 -1.46201,-0.9487001 -3.0985,-2.0057391 -3.62868,-2.3371111 -4.74672,-2.9672557 -7.00193,-4.8620578 -7.04208,-5.9042815 -0.0689,-1.78389598 -5.44362,-10.6400073 -6.45781,-10.6400073 -0.58353,0 -0.97279,0.80559 -1.16856,2.3678629 -0.35562,2.8418487 -1.35125,3.2074025 -4.52046,1.5990762 -2.55167,-1.2949005 -3.78832,-1.4794653 -10.76302,-1.4453189 -6.84044,0.0333 -9.32583,0.886085 -13.86891,4.7049743 -4.64103,3.9004392 -5.20757,5.2976855 -5.28925,13.0693734 -0.0841,7.931174 1.08625,11.378023 5.2585,15.498739 3.41845,3.376777 3.86618,4.387739 2.0911,4.950986 -1.30629,0.414906 -10.15003,-4.574755 -12.42359,-7.011334 -1.75786,-1.883208 -2.73984,-1.948994 -3.62867,-0.215261 -1.10437,2.154591 -4.84218,5.750525 -5.96579,5.750525 -0.7306,0 -1.22464,-0.724544 -1.66058,-2.490869 -1.05978,-4.293239 -2.64302,-9.295799 -2.95214,-9.286943 -0.35968,0.01084 -6.49227,5.886657 -7.59561,7.288097 -0.43567,0.553017 -1.21425,0.936057 -1.75283,0.83029 -0.84947,-0.166784 -0.98405,-1.172649 -0.98405,-7.564861 0,-4.407593 -0.23113,-7.434173 -0.58428,-7.534109 -0.32523,-0.0914 -2.31776,1.049329 -4.42821,2.52162 -7.1518,4.986945 -9.75995,6.498676 -12.42359,7.349601 -1.461,0.46691 -3.1637,1.201203 -3.81318,1.599076 -1.55077,0.950826 -7.41136,1.968094 -11.19354,1.968094 -1.67072,0 -3.56483,0.385536 -4.2437,0.861041 -0.67174,0.470644 -1.71906,0.85125 -2.33711,0.83029 -0.61803,-0.02126 -5.52836,0.367653 -10.88602,0.861041 -5.35818,0.493182 -10.12214,0.91659 -10.60926,0.953295 -1.64874,0.124018 -23.3301,0.771296 -24.81643,0.738035 -3.94186,-0.08785 -14.40282,-1.275885 -18.85065,-2.121851 -3.10032,-0.589788 -5.19071,-0.744333 -5.53526,-0.399769 -0.34449,0.344584 -1.12724,0.350635 -2.0911,-0.03075 -2.41461,-0.955786 -7.53295,-2.263495 -13.46914,-3.413413 -4.66597,-0.903582 -6.70408,-0.988041 -14.42244,-0.522775 -5.00955,0.301827 -9.66506,0.898898 -10.517,1.322313 -0.84093,0.418023 -2.78443,1.095339 -4.30521,1.506822 -3.13978,0.849366 -8.03638,5.279854 -9.96348,9.010179 -0.7366,1.427656 -1.5834,2.214106 -2.3371,2.214106 -0.6432,0 -1.1686,0.316579 -1.1686,0.676532 0,0.824002 -2.5566,0.228791 -3.9669,-0.922544 -0.5633,-0.459825 -2.1866,-1.795846 -3.5979,-2.952141 -1.4104,-1.156294 -2.8138,-2.091099 -3.1059,-2.091099 -0.2918,0 -4.5079,-3.998429 -9.3792,-8.887174 -8.5228,-8.553462 -11.5229,-11.199832 -16.3598,-14.3916861 -1.233,-0.813374 -3.346,-2.2551209 -4.6742,-3.1981527 -6.671,-4.73521018 -16.7438,-8.1004479 -26.9998,-9.0101796 -3.9585,-0.3510686 -8.2341,-0.5908218 -9.533,-0.5535264 -2.9781,0.08573 -12.3065,2.2328812 -14.3916,3.32115832 -0.8663,0.4512879 -2.0875,0.8283215 -2.7369,0.8302896 -1.231,0.00423 -7.2438,2.12572838 -8.2722,2.92138928 -0.3252,0.2511327 -1.3136,0.6227945 -2.1833,0.8302896 -2.2287,0.5316688 -10.8351,5.9041239 -12.6081,7.872375 -2.2189,2.474485 -2.826,3.844408 -6.0581,13.469143 -4.0831,12.140808 -4.2361,13.404185 -1.8451,17.005561 l 1.9066,2.859886 1.7221,-2.736881 c 2.2797,-3.672227 3.4574,-3.421915 4.582,1.014799 1.0233,4.038528 1.6414,4.200296 5.2585,1.322313 1.4286,-1.133622 2.785,-2.060348 3.0136,-2.060348 1.026,0 2.3175,2.195477 1.9989,3.413412 -0.4326,1.655285 0.2947,1.660757 3.1366,0 2.8278,-1.652254 3.4221,-2.129497 5.3815,-4.243702 3.441,-3.712754 18.5116,-12.146829 21.6798,-12.146829 0.538,0 3.2201,-0.444635 5.9658,-0.984047 4.617,-0.907567 5.3099,-0.91356 9.2562,-0.03075 7.1169,1.592031 13.6546,2.767632 15.3142,2.767632 0.8643,0 2.3203,0.329823 3.2289,0.707284 0.9139,0.374542 2.1251,0.748401 2.7062,0.861041 0.5815,0.112654 2.1216,0.755522 3.4134,1.414568 1.2918,0.658917 4.9275,2.084792 8.0876,3.167401 3.1601,1.0819 7.0785,2.524533 8.7027,3.198152 1.6231,0.673797 4.5402,1.819769 6.4885,2.552372 3.4286,1.288078 8.5019,4.477443 8.5489,5.381506 0.046,0.873598 -1.5721,0.419519 -3.4749,-0.984046 -1.0658,-0.785742 -4.6339,-2.425617 -7.9339,-3.628674 -3.2999,-1.203764 -6.256,-2.373518 -6.5808,-2.613874 -0.3242,-0.240186 -2.8676,-1.15841 -5.6275,-2.060348 -2.7599,-0.901938 -6.6307,-2.424466 -8.6104,-3.35191 -2.0567,-0.963579 -4.6017,-1.660579 -5.935,-1.660579 -1.2837,0 -2.5822,-0.257305 -2.8907,-0.553527 -0.309,-0.296159 -2.6914,-0.867018 -5.2892,-1.26081 -2.5978,-0.393225 -6.1784,-1.089483 -7.9647,-1.568325 -1.7862,-0.479196 -3.9238,-0.884904 -4.7357,-0.891792 -3.1594,-0.02834 -12.0228,1.290592 -12.6081,1.875839 -0.3394,0.339541 -1.2938,0.614775 -2.1218,0.61503 -1.4875,7.08e-4 -6.2836,2.204934 -11.0091,5.04324 -1.3373,0.803455 -4.503,3.298771 -7.042,5.566015 -2.5391,2.267245 -5.5235,4.438041 -6.6116,4.797229 -1.5839,0.522883 -1.8927,0.858266 -1.5991,1.783585 0.2979,0.939489 -0.1019,1.352405 -2.0603,2.121851 -1.3263,0.520758 -2.3986,1.201531 -2.3986,1.506822 0,0.30537 -0.557,1.258882 -1.2301,2.121851 -0.6788,0.86297 -2.0725,2.859847 -3.1059,4.458963 -1.0334,1.599824 -2.1287,3.332485 -2.4601,3.843933 -0.3344,0.510839 -1.3532,2.136966 -2.2756,3.597922 -0.922,1.461664 -2.9186,4.520328 -4.4282,6.796074 -1.4995,2.275746 -3.0252,4.673081 -3.3827,5.320004 -0.3546,0.646873 -1.3202,1.252986 -2.1526,1.353064 -1.9474,0.234518 -2.5609,-1.49765 -1.5376,-4.335957 0.5837,-1.613994 0.5926,-2.633555 0.062,-4.581968 -1.0104,-3.717011 -0.5295,-29.16785 0.6458,-33.795862 2.077,-8.198142 3.9616,-14.589902 4.7972,-16.206022 0.4912,-0.950117 0.9226,-2.008439 0.9226,-2.337112 0,-1.455429 2.5785,-7.309599 3.9362,-8.917925 1.3374,-1.5884881 7.1977,-5.8735301 8.0261,-5.8735301 0.1814,0 3.1851,-1.3995115 6.7038,-3.0751466 5.7798,-2.75186748 8.4987,-3.6885719 14.976,-5.1969978 11.6955,-2.7242355 14.4401,-2.9116669 23.0328,-1.5683248 7.0719,1.1059901 14.0868,2.6143028 15.6218,3.3211584 9.2556,4.2631274 11.9909,5.6427415 12.8848,6.5808138 0.5836,0.6128644 3.3861,2.8294104 6.2118,4.920235 2.8264,2.0907531 8.3117,7.0283091 12.2084,10.9782731 7.5805,7.683194 15.6985,14.431934 18.0511,15.006716 1.1712,0.286239 1.6124,0.0079 2.4293,-1.445319 0.5532,-0.984126 1.4159,-1.783585 1.9066,-1.783585 0.4914,0 1.2185,-0.591836 1.5991,-1.322313 0.7812,-1.498507 4.6768,-4.951929 5.3508,-4.735726 0.2411,0.07794 1.7064,-0.5601 3.2596,-1.414568 6.41312,-3.52769 24.71264,-4.614255 34.13415,-2.029596 1.29889,0.356149 4.0706,0.806457 6.18105,0.984046 2.11043,0.177441 4.65332,0.541741 5.62751,0.83029 7.31351,2.165856 11.03579,2.61031 23.89389,2.829135 13.12933,0.223182 36.20649,-0.683539 42.12951,-1.660579 1.68086,-0.277738 6.1059,-0.946109 9.84047,-1.476071 3.73456,-0.529968 7.24698,-1.208814 7.81087,-1.506821 0.56333,-0.298001 1.55584,-0.553527 2.21411,-0.553527 0.65856,0 1.68097,-0.218459 2.24486,-0.492023 7.21086,-3.497933 10.62622,-5.392233 12.42359,-6.91908 1.18542,-1.007507 3.05382,-2.31081 4.12069,-2.859887 1.06688,-0.548389 4.60489,-3.5516411 7.87238,-6.7038193 3.26748,-3.1514693 6.16457,-5.82677898 6.45781,-5.93503298 0.29321,-0.1076941 0.55352,-0.5310429 0.55352,-0.95329552 0,-1.0656047 4.43163,-5.0036227 6.73458,-5.9657844 3.41241,-1.4256006 3.44512,-1.8484436 0.55352,-7.7801208 -1.9838,-4.070058 -2.83013,-6.672035 -3.38266,-10.455499 -0.73961,-5.065165 -0.49335,-6.242547 1.23006,-6.242547 0.41844,0 1.07046,0.549834 1.47607,1.199307 0.40571,0.649707 0.97548,1.168556 1.26081,1.168556 1.51875,0 8.26341,4.880361 11.71631,8.487404 3.75179,3.919499 4.01385,4.099097 5.04324,3.167401 1.0868,-0.98337 3.62024,-1.747854 6.48856,-2.183354 0.0412,-1.263645 0.32952,-3.109164 0.49202,-4.305205 0.68998,-5.078343 1.57001,-8.04051 2.67538,-9.040931 0.62359,-0.564686 1.1378,-1.335637 1.1378,-1.722082 0,-0.99006 1.70793,-2.434943 2.79839,-2.52162 0.0779,-0.0062 0.14255,-0.011 0.21526,0 z m -0.98405,3.505667 c -0.57386,-0.06032 -1.11817,0.749155 -1.96809,2.060348 -0.96312,1.486462 -1.43964,3.222537 -1.56833,5.596767 -0.12683,2.3408 -0.56196,4.731613 -1.16855,6.242547 3.84802,-0.406169 7.90516,-0.248076 9.74821,0.738036 1.64471,0.880682 1.55823,0.04697 -0.61503,-5.627519 -2.45885,-6.419135 -3.47177,-8.909646 -4.42821,-9.010179 z m -31.05898,5.781275 c -0.40428,0 -0.46417,1.258557 -0.18451,3.690176 0.44378,3.862676 4.99635,14.16015 7.38035,16.6980464 1.22465,1.3029568 1.54983,3.5122012 0.61503,4.089945 -0.692,0.4279423 -2.39861,-1.2576218 -2.39861,-2.3678629 0,-1.0674646 -0.71528,-1.0575257 -3.32116,0.030752 -3.09879,1.2945963 -4.38593,2.4782178 -10.48625,9.6252089 l -5.53527,6.5193106 -0.43052,6.580814 c -0.23653,3.620505 -0.28045,6.730991 -0.0923,6.91908 0.18743,0.187756 1.25236,-0.465445 2.36786,-1.445319 1.11551,-0.979875 2.2639,-1.880099 2.55237,-1.998846 0.28876,-0.118322 1.2851,-1.228012 2.21411,-2.460117 2.26951,-3.00835 3.45093,-2.68322 3.69018,0.984047 0.10264,1.572901 0.44999,3.340505 0.76878,3.936188 0.3188,0.59586 0.58428,1.610015 0.58428,2.244857 0,0.634828 0.48911,1.735307 1.0763,2.460117 l 1.0763,1.322313 1.66058,-1.968094 c 0.91277,-1.086151 2.05149,-2.823959 2.55237,-3.874685 0.50152,-1.050726 1.24996,-2.056539 1.66058,-2.214105 0.41033,-0.15729 1.99603,1.154356 3.50567,2.921389 1.50963,1.767033 3.06325,3.228904 3.47492,3.228904 0.41236,0 1.22657,0.519083 1.81433,1.168556 0.58765,0.649707 1.62234,1.199307 2.27561,1.199307 1.01424,0 0.87954,-0.319678 -0.95329,-2.152603 -2.73659,-2.736705 -3.94416,-6.725092 -4.39746,-14.729952 -0.27575,-4.8692606 -0.12718,-6.6247314 0.64578,-8.6411616 0.93009,-2.4266597 3.33306,-5.7812756 4.15144,-5.7812756 0.21581,0 1.66052,-1.004958 3.22891,-2.2448571 4.13466,-3.2682324 9.70057,-4.4924989 17.00556,-3.7209274 2.98481,0.3152886 5.99212,0.8656346 6.67307,1.2300586 0.68085,0.3644556 1.7614,0.50976 2.39861,0.3075147 0.84304,-0.2678182 1.16856,-0.9151243 1.16856,-2.3371114 0,-1.5594392 -0.51757,-2.3978762 -2.52162,-4.1514482 -3.18574,-2.78871 -6.35434,-4.233707 -10.73226,-4.920235 -3.71573,-0.58283 -8.86822,-0.308026 -10.48625,0.553527 -0.54711,0.291283 -1.50517,0.522775 -2.12186,0.522775 -0.61701,0 -1.10705,0.404689 -1.10705,0.891792 0,0.48728 0.40838,0.886872 0.92255,0.891793 1.67515,0.01629 2.79002,1.022926 1.99884,1.814336 -1.28116,1.28071 -6.81782,-2.025493 -10.94752,-6.550062 -2.62616,-2.877275 -4.67971,-4.531448 -7.07284,-5.627519 -1.85917,-0.850925 -3.53318,-1.787324 -3.72093,-2.091099 -0.18773,-0.303776 -0.61583,-0.553527 -0.95329,-0.553527 z m 3.56717,6.611566 c 0.15923,-0.0131 0.3505,-5.83e-4 0.55353,0.03075 0.23202,0.03581 0.48091,0.117574 0.76878,0.21526 0.76291,0.258962 1.58172,0.429734 1.81434,0.369018 0.23303,-0.06022 1.18715,0.804429 2.0911,1.937342 0.90376,1.132914 1.94263,2.060335 2.33711,2.060349 0.39444,0 0.98052,0.464413 1.29156,1.045549 0.58055,1.086152 2.10498,2.044968 4.95099,3.075147 2.07791,0.752442 2.26998,2.668259 0.21526,2.152603 -1.4225,-0.357091 -1.68365,-0.0031 -2.95214,3.9361872 -0.54611,1.6944107 -2.09271,1.8730546 -3.62868,0.4305206 -0.77507,-0.7283522 -2.38312,-3.3636889 -3.59792,-5.8427788 -1.21479,-2.479089 -2.88654,-5.387243 -3.69017,-6.457808 -1.28458,-1.711024 -1.26841,-2.860471 -0.15376,-2.95214 z m 2.95214,3.444164 c -0.3122,0.06205 -0.29163,0.522755 0.27676,1.322313 0.51874,0.730478 1.43991,2.39147 2.06035,3.690176 0.62107,1.298706 1.54698,2.886952 2.06035,3.5364183 0.91118,1.152752 0.93499,1.1544248 0.9533,-0.4305205 0.0103,-0.8934358 0.29029,-1.6298278 0.61502,-1.6298278 1.09221,0 0.60039,-1.082077 -1.26081,-2.767632 -1.01722,-0.921068 -2.34501,-2.137845 -2.95214,-2.706129 -0.80388,-0.752562 -1.44063,-1.076851 -1.75283,-1.014798 z m 27.67632,13.3768875 c 0.36082,0.056209 0.81269,0.2285735 1.32231,0.4920235 0.94023,0.4862038 2.44277,0.8898244 3.35191,0.8917925 1.4306,0.00285 4.71589,0.6747413 7.13434,1.4760704 0.40591,0.1346176 0.73804,0.6405063 0.73804,1.13780432 0,0.9963475 -2.65223,1.3021302 -3.22891,0.3690175 -0.18744,-0.3032439 -1.85972,-0.87717052 -3.72092,-1.26081002 -3.95848,-0.8162079 -6.82888,-2.1529373 -6.33481,-2.9521408 0.10385,-0.1679178 0.37722,-0.2099632 0.73804,-0.1537574 z m 0.46127,4.15144802 c 0.79699,-0.012586 1.98523,0.1918301 4.0592,0.5535264 3.17629,0.5540578 5.13231,1.22175328 6.05803,2.09109968 1.31995,1.2398991 1.85211,3.6692039 0.92255,4.2437023 -0.24924,0.1541441 -2.54207,0.037945 -5.07399,-0.2460117 -7.02729,-0.7878673 -10.47643,-3.5212741 -7.62637,-6.02728738 0.45745,-0.4021012 0.86359,-0.6024483 1.66058,-0.6150293 z m 1.0763,2.06034818 c -0.0759,-0.02468 -0.15874,-0.029088 -0.24601,0 -0.34909,0.1161677 -0.64578,0.460286 -0.64578,0.7687867 0,0.3083029 0.29669,0.6524201 0.64578,0.7687866 0.34909,0.1169048 0.61503,-0.2275598 0.61503,-0.7687866 0,-0.4057708 -0.14141,-0.6947509 -0.36902,-0.7687867 z m 3.90544,0.5227749 c -0.17278,-0.010411 -0.4088,0.023598 -0.67653,0.061503 -1.67732,0.2373521 -1.86775,1.9680938 -0.21526,1.9680938 0.66728,0 1.26533,-0.4918355 1.38381,-1.1070528 0.12082,-0.6288798 0.0263,-0.8913064 -0.49202,-0.922544 z m 16.7903,3.5056672 c 0.45458,-0.014692 0.84881,0.1106954 1.1378,0.3997691 0.64641,0.645456 0.17976,1.387142 -1.53757,2.429366 -1.23911,0.751655 -1.7584,0.793962 -2.30636,0.246012 -0.54796,-0.547682 -0.47001,-0.9791468 0.36902,-1.9065914 0.67376,-0.7441697 1.57947,-1.1440687 2.33711,-1.1685557 z m -27.46106,1.9680938 c -0.29143,0.00728 -0.54275,0.037482 -0.73803,0.092254 -3.95889,1.1102409 -4.52047,1.5581109 -4.52047,3.5979224 0,1.196789 -0.2932,3.542567 -0.64578,4.981737 1.10184,0.03904 2.48913,0.870308 3.41341,2.244857 1.3759,2.046897 5.96945,5.321797 8.11839,5.781276 3.38927,0.724504 7.47014,0.670529 10.67076,-0.123006 3.33638,-0.826963 3.80617,-0.78402 7.31885,0.338266 2.06282,0.658451 4.12149,1.168556 4.58196,1.168556 0.461,0 1.94593,0.549848 3.29041,1.199307 2.6981,1.303532 3.38266,1.42798 3.38266,0.645781 0,-0.287657 -0.92356,-0.96748 -2.06035,-1.506822 -2.1339,-1.012466 -2.73796,-2.0911 -1.16855,-2.0911 0.49139,0 1.34271,0.228155 1.90659,0.522775 3.61795,1.889606 10.00064,4.241833 11.68556,4.305206 2.95127,0.111236 5.88597,-3.710782 3.53642,-4.61272 -0.19566,-0.07501 -0.35995,-0.162436 -0.49203,-0.276764 -1.54886,-0.111517 -11.17967,-3.030823 -18.08186,-4.920234 -3.06789,-0.839695 -5.90365,-1.506822 -6.30405,-1.506822 -0.8997,0 -8.66536,-3.555397 -9.07168,-4.151448 -0.48025,-0.704263 -4.92274,-2.952141 -5.84278,-2.952141 -0.46607,0 -1.27072,-0.3567245 -1.78359,-0.7995385 -1.11348,-0.958442 -5.15583,-1.9885442 -7.19584,-1.9373423 z m 51.93923,14.0226684 c -0.92326,0.03212 -1.69133,0.583019 -1.69133,1.383816 0,0.943641 1.02217,1.164216 2.61387,0.553527 1.17902,-0.452741 1.18577,-1.340276 0.0308,-1.783585 -0.31307,-0.120093 -0.64554,-0.164463 -0.95329,-0.153758 z m 0.36901,4.059194 c -0.4871,0 -0.89179,0.360997 -0.89179,0.799538 0,0.43857 -0.77864,1.405829 -1.75283,2.152603 -0.97397,0.746773 -1.78359,1.576951 -1.78359,1.845088 0,0.804163 3.07957,-0.594709 4.24371,-1.937343 1.31172,-1.511968 1.39119,-2.859886 0.1845,-2.859886 z m -393.52654,17.128567 c -0.5667,0 -1.3952,22.199212 -0.861,23.063599 0.4755,0.769446 0.9938,5.689238 0.9533,9.071683 -0.03,2.554901 -0.065,2.543859 3.1674,-2.029597 1.2665,-1.786163 2.4402,-3.374051 2.6139,-3.536419 0.1722,-0.162958 0.7126,-1.086141 1.1993,-2.060348 0.4964,-0.974206 1.376,-2.30267 1.9681,-2.952141 0.5977,-0.649707 2.3343,-3.161605 3.8439,-5.596766 1.5096,-2.435871 3.6104,-5.5756 4.6742,-6.980583 1.9414,-2.571197 2.5273,-5.582646 1.2608,-6.365554 -0.3647,-0.221765 -2.1851,0.719132 -4.0899,2.060348 -3.8501,2.719985 -4.1171,2.605796 -4.9203,-1.845088 -0.2169,-1.206598 -0.6888,-2.362655 -1.0455,-2.583123 -0.7801,-0.481789 -2.8415,1.988877 -2.8599,3.444165 -0.02,1.855597 -2.1418,1.127019 -3.8439,-1.322314 -0.9017,-1.298705 -1.8245,-2.367862 -2.0604,-2.367862 z m 317.38591,9.040931 c -0.62166,-0.07932 -1.6936,0.733341 -3.99769,2.95214 -0.60283,0.580145 -1.34769,0.900659 -1.66058,0.707284 -0.32998,-0.203343 -0.56922,0.70752 -0.58427,2.183354 -0.0142,1.399315 -0.42385,3.590778 -0.8918,4.889483 -1.02446,2.843679 -0.99256,2.675378 -0.24601,2.675378 0.33494,0 0.77083,-0.477263 0.98405,-1.04555 0.21276,-0.568228 1.21752,-2.22923 2.2141,-3.690176 0.99697,-1.461664 2.26835,-3.640796 2.82914,-4.858732 0.5613,-1.217935 1.26909,-2.214105 1.59908,-2.214105 0.7893,0 0.7984,-1.013371 0,-1.506822 -0.0735,-0.04543 -0.15721,-0.08093 -0.24602,-0.09225 z m -193.33451,19.31192 c -0.2943,0 -0.4057,0.496186 -0.246,1.107053 0.2635,1.006306 -0.2871,2.442001 -4.0592,10.547753 -0.6416,1.380185 -1.3537,2.519652 -1.5683,2.52162 -0.2148,0.002 -1.0332,1.000422 -1.8451,2.214106 -1.5856,2.371819 -2.0938,2.973829 -6.0888,7.503358 -1.4316,1.623913 -2.9347,3.565518 -3.3211,4.305208 -0.3862,0.739705 -0.9561,1.203115 -1.2608,1.014795 -0.3047,-0.18831 -0.3778,0.0499 -0.1845,0.55352 0.6934,1.80693 -10.2435,14.30298 -14.4532,16.51354 -1.7925,0.9402 -10.8566,11.58513 -10.5478,12.39284 0.2726,0.7156 3.3541,1.52084 5.812,1.53757 0.8369,0.007 5.2368,-3.13881 8.3644,-5.96578 0.5846,-0.53139 2.8372,-1.6809 5.0125,-2.55237 6.3823,-2.55774 6.9012,-2.90053 7.1036,-4.64347 0.1065,-0.90931 0.5333,-1.59908 1.0148,-1.59908 0.4656,0 0.8611,-0.51156 0.8611,-1.1378 0,-0.63058 0.3465,-1.47745 0.7687,-1.9066 0.4225,-0.4251 1.9234,-2.38754 3.352,-4.33595 1.4285,-1.94842 2.9673,-3.91378 3.4134,-4.36671 0.4458,-0.45345 2.0389,-3.36968 3.5364,-6.488555 1.4975,-3.119094 3.1956,-6.349592 3.7517,-7.165092 0.5562,-0.81479 1.562,-3.178304 2.2448,-5.2585 0.6827,-2.080197 1.1842,-3.930786 1.1378,-4.120697 -0.3424,-1.399816 -2.1744,-9.887595 -2.2141,-10.240238 -0.027,-0.243552 -0.2899,-0.430521 -0.5843,-0.430521 z m 148.71414,13.561397 c -1.0857,-0.0554 -3.2968,0.221125 -3.96694,0.584278 -0.56434,0.305369 -3.15274,0.940021 -5.75053,1.445319 -2.59777,0.50517 -6.98832,1.482043 -9.74821,2.152602 -7.66183,1.861266 -10.58061,2.244031 -22.72534,2.952141 -10.25971,0.597966 -13.83272,0.549925 -23.34036,-0.369017 -4.64438,-0.449198 -2.99487,0.599924 2.36786,1.506821 2.43466,0.411647 4.68776,0.925851 5.01249,1.168556 0.57731,0.431485 5.92275,1.051671 13.00787,1.506822 1.94834,0.125043 5.46877,0.459048 7.84163,0.738035 10.57247,1.243442 28.39564,-0.455515 36.59424,-3.505667 3.40832,-1.267531 3.55824,-1.687749 2.18336,-5.504512 -0.46797,-1.299415 -0.85612,-2.440437 -0.86104,-2.521621 -0.006,-0.100648 -0.25313,-0.135306 -0.61503,-0.153757 z m -69.59057,5.965785 c -0.11715,-0.0126 -0.24416,-0.0059 -0.39977,0 -0.68782,0.02834 -0.84002,0.180543 -0.36902,0.369017 0.42627,0.170614 0.94162,0.134677 1.13781,-0.0615 0.14714,-0.147154 -0.0175,-0.269875 -0.36902,-0.307514 z m 71.3434,3.505667 c -0.5854,0 -1.20587,0.234852 -1.38382,0.522775 -0.1773,0.288089 -1.25879,0.708651 -2.39861,0.922544 -1.14011,0.213971 -2.0911,0.739964 -2.0911,1.168555 0,0.428651 -0.46164,1.408945 -1.04555,2.183355 -0.5846,0.7744 -1.4262,2.857305 -1.84509,4.643465 -1.04256,4.44302 -3.51859,12.52456 -4.15145,13.53065 -0.40121,0.63815 -1.37677,0.73632 -4.27445,0.43052 -7.68188,-0.81479 -7.72543,-0.83202 -10.05573,-3.38266 -2.17427,-2.3811 -2.30463,-2.42254 -5.04324,-2.0296 -1.5461,0.21964 -3.13051,0.82601 -3.53642,1.35306 -1.46099,1.89173 -0.49426,6.02729 1.41457,6.02729 0.51671,0 2.56336,0.80584 4.55122,1.78359 3.98836,1.95549 16.49375,4.5049 19.0044,3.87468 2.06586,-0.51721 6.03152,-4.24813 7.44186,-7.01133 0.65653,-1.2895 1.74411,-2.91293 2.39861,-3.59793 0.65451,-0.68017 1.79813,-2.20652 2.55237,-3.38266 1.82111,-2.83852 2.20164,-5.61551 1.13781,-8.45665 -0.47868,-1.27958 -1.05818,-3.719195 -1.26081,-5.443005 -0.29281,-2.490672 -0.56854,-3.136649 -1.41457,-3.136649 z"
       id="path2991-6"
       inkscape:connector-curvature="0" />
    <path
       style="fill:#ffffff;fill-opacity:1"
       d="m -724.53576,73.234691 c 1.1453,-1.576886 2.8731,-4.092109 3.8396,-5.589386 0.9664,-1.497277 4.1134,-6.219393 6.9932,-10.493591 4.598,-6.824453 5.2559,-7.979105 5.3998,-9.477102 0.1036,-1.078061 0.014,-1.798327 -0.2428,-1.957173 -0.2257,-0.13952 -1.873,0.635828 -3.7025,1.742718 -1.8127,1.096735 -3.58,1.939348 -3.9272,1.872474 -0.4578,-0.08817 -0.8416,-0.878568 -1.3965,-2.875724 -0.4208,-1.514774 -0.9105,-2.899528 -1.0882,-3.07723 -0.4608,-0.460874 -1.8262,1.102649 -2.3823,2.728041 -0.7316,2.138467 -1.6456,2.009988 -4.0641,-0.571267 -1.1132,-1.188261 -2.1151,-2.0133 -2.2263,-1.833418 -0.1111,0.179882 -0.3905,4.854976 -0.6208,10.389098 -0.3358,8.068569 -0.3304,10.427428 0.027,11.906352 0.2454,1.014365 0.5314,3.702575 0.6356,5.973785 0.1042,2.271219 0.2982,4.129484 0.4311,4.129484 0.133,0 1.1788,-1.290175 2.324,-2.867061 z"
       id="path3056"
       inkscape:connector-curvature="0" />
    <path
       style="fill:#ffffff;fill-opacity:1"
       d="m -414.22795,60.198852 c 1.50841,-2.561159 3.04596,-5.170639 3.41679,-5.798848 0.37083,-0.628209 0.81949,-1.142197 0.99702,-1.142197 0.17753,0 0.32278,-0.237226 0.32278,-0.527169 0,-0.966041 -1.10592,-0.5449 -3.23014,1.230059 -1.15665,0.966475 -2.31502,1.757227 -2.57415,1.757227 -0.31217,0 -0.55004,0.681887 -0.70494,2.02081 -0.21994,1.901007 -0.983,5.380644 -1.44258,6.578298 -0.11365,0.296159 -0.0538,0.53847 0.13302,0.53847 0.1868,0 1.5738,-2.095488 3.0822,-4.65665 z"
       id="path3058"
       inkscape:connector-curvature="0" />
    <path
       style="fill:#ffffff;fill-opacity:1"
       d="m -473.27869,96.094751 c 10.0818,-0.942934 20.18053,-3.484432 20.73047,-5.217131 0.10667,-0.336092 -0.20335,-1.781736 -0.68893,-3.21254 -0.48557,-1.430814 -0.88396,-2.641005 -0.88531,-2.689331 -0.009,-0.303529 -2.94799,-2.95e-4 -4.24505,0.437891 -2.37202,0.801359 -19.69778,4.603037 -23.87303,5.238308 -8.96235,1.363633 -25.67499,1.98931 -34.09149,1.276289 -5.59004,-0.473572 -7.05063,-0.341533 -3.6289,0.328052 1.12677,0.220495 3.63019,0.795277 5.56314,1.277303 5.06036,1.261902 23.63316,2.954738 31.80581,2.898963 3.38266,-0.02303 7.57363,-0.175092 9.31329,-0.337804 z"
       id="path3060"
       inkscape:connector-curvature="0" />
    <path
       style="fill:#ffffff;fill-opacity:1"
       d="m -379.20111,2.785869 c 0.10639,-0.1518856 0.19343,-0.3631024 0.19343,-0.4693707 0,-0.2372458 -0.34366,-0.7455287 -0.50407,-0.7455287 -0.22923,0 -0.61422,0.5018167 -0.61422,0.8006098 0,0.1728655 0.11891,0.386881 0.27615,0.4970195 0.36096,0.2528252 0.41885,0.2454419 0.64871,-0.082729 z"
       id="path3062"
       inkscape:connector-curvature="0" />
    <path
       style="fill:#999999;fill-opacity:1"
       d="m -588.43826,143.74701 c -0.7033,-1.13791 -2.8663,-1.56504 -4.8068,-0.94914 -4.561,1.44759 -7.7282,-2.5199 -11.1875,-14.01409 l -2.7882,-9.26461 6.4341,-6.41163 c 5.2238,-5.20544 8.6093,-6.66513 17.99628,-7.75912 22.22353,-2.59 44.62288,-18.186778 49.10387,-34.191258 1.77677,-6.34604 3.1632,-8.430773 4.63077,-6.963195 1.46758,1.467578 0.8609,5.015097 -2.02638,11.849066 l -4.12109,9.754356 8.93013,1.33915 c 15.54466,2.331069 39.55631,1.455405 55.13585,-2.010713 l 15.05704,-3.349883 -1.26583,-6.747452 c -0.75249,-4.011143 -0.46085,-6.747452 0.71917,-6.747452 1.09175,0 3.96079,8.72268 6.37564,19.383736 5.69701,25.151105 18.79061,53.817095 25.33158,55.458775 5.26153,1.32056 8.68614,-0.69929 5.02353,-2.96291 -1.30192,-0.80463 -3.78477,-8.13672 -5.51744,-16.29352 -3.37261,-15.87703 -2.75382,-30.984092 1.9918,-48.627817 1.47051,-5.467207 3.26197,-13.642669 3.98102,-18.167683 1.10057,-6.925991 1.92561,-8.065629 5.21614,-7.205137 2.77583,0.725896 6.22395,-1.411579 11.89636,-7.374523 l 7.98758,-8.396693 -7.27457,-3.898935 c -6.58441,-3.529034 -7.59662,-3.607488 -10.66909,-0.826934 -4.01413,3.632734 -8.11162,0.819025 -8.11162,-5.570172 0,-3.793532 -0.15421,-3.780206 -4.6013,0.397615 -6.24632,5.868109 -7.32715,5.479335 -7.32715,-2.635563 0,-3.827045 -0.46509,-6.958263 -1.03354,-6.958263 -0.56845,0 -4.75156,2.347077 -9.29579,5.215728 -14.30746,9.031899 -64.343,13.451789 -96.03268,8.483047 -34.442,-5.400292 -47.79268,-4.073224 -53.97708,5.365357 -5.227,7.977344 -10.758,6.006605 -28.1884,-10.043696 -25.942,-23.88801818 -42.0555,-29.7856908 -65.6093,-24.01352648 -25.4274,6.23128528 -34.936,15.18610448 -37.637,35.44490648 -1.0372,7.779131 -0.8707,8.172108 2.3387,5.520996 3.0026,-2.480316 3.6864,-2.480316 5.219,0 3.0322,4.907515 12.3729,3.517189 24.0884,-3.585488 6.1845,-3.749429 14.6497,-7.585148 18.8116,-8.523813 12.9574,-2.922372 44.5454,5.107322 64.8744,16.491139 6.9132,3.871232 7.4561,4.834838 7.4664,13.252067 0.01,4.992503 0.9427,12.431888 2.0814,16.531968 2.361,8.501733 -1.0664,18.355693 -11.8219,33.98826 -6.8918,10.01693 -6.4973,14.45152 2.5625,28.80323 4.7297,7.49227 5.9965,8.28277 13.2734,8.28277 5.0665,0 7.5713,-0.76593 6.766,-2.06895 z"
       id="path3070"
       inkscape:connector-curvature="0" />
    <path
       style="fill:#999999;fill-opacity:1"
       d="m -636.28846,127.64633 c 2.5357,-1.87182 6.8992,-4.4583 9.6967,-5.74773 3.0465,-1.40422 5.3488,-2.94793 5.7409,-3.84931 0.9522,-2.18877 1.9782,-3.72632 6.1586,-9.22933 4.7581,-6.26343 13.4888,-23.524799 13.4469,-26.585628 -0.017,-1.232145 -0.4306,-4.138065 -0.9194,-6.457611 -0.8144,-3.864697 -0.9259,-4.036157 -1.334,-2.050518 -0.9249,4.499889 -4.9919,11.457505 -11.265,19.271339 -3.5692,4.445786 -6.9547,9.032148 -7.5235,10.191918 -0.5688,1.15977 -5.6548,6.69503 -11.3023,12.30058 -9.4733,9.40299 -13.2149,13.6937 -12.5297,14.36851 0.149,0.14675 1.3846,0.47478 2.7457,0.72896 2.1979,0.41043 2.9905,0.0814 7.0851,-2.94118 l 0,0 z"
       id="path3072"
       inkscape:connector-curvature="0" />
    <path
       style="fill:#999999;fill-opacity:1"
       d="m -460.51797,122.41775 c 3.92753,-3.59272 10.42472,-13.65088 10.42472,-16.1383 0,-1.67846 -1.94824,-11.013365 -2.44036,-11.69284 -0.067,-0.0925 -1.41103,0.338257 -2.98676,0.957222 -3.34923,1.315622 -4.06038,2.645363 -7.28311,13.618398 -1.19187,4.05821 -2.50585,7.78681 -2.91997,8.28579 -0.72455,0.87302 -2.40963,0.82731 -9.46154,-0.25666 -1.23629,-0.19003 -3.5111,-1.40096 -5.05514,-2.69097 -2.16088,-1.80537 -3.26184,-2.26347 -4.78111,-1.98936 -2.80396,0.50588 -3.731,1.44831 -3.731,3.79295 0,1.75467 0.44858,2.23987 3.13577,3.39172 5.70275,2.44449 12.5429,4.26533 17.56568,4.67597 4.87551,0.39859 4.99495,0.36761 7.53282,-1.95392 l 0,0 z"
       id="path3074"
       inkscape:connector-curvature="0" />
    <path
       style="fill:#999999;fill-opacity:1"
       d="m -390.49121,29.435698 c 3.40931,-5.279061 3.40732,-5.578647 -0.0583,-8.773122 -3.055,-2.816 -3.07741,-2.871281 -2.79578,-6.898161 0.74395,-10.6375629 4.33809,-11.2322214 21.3274,-3.528668 9.86167,4.471626 21.50239,8.72237 22.14006,8.084699 0.17371,-0.173706 -1.98138,-1.361508 -4.78909,-2.639559 -6.03777,-2.748359 -5.8991,-2.651295 -5.02971,-3.520683 0.42825,-0.428257 1.46291,-0.445254 2.7647,-0.04541 2.7791,0.853585 15.29027,6.592289 17.43309,7.996316 1.40853,0.922907 1.91656,0.959664 2.93824,0.212593 1.10421,-0.807421 0.5874,-1.306732 -4.87158,-4.706633 -3.35876,-2.091865 -8.12996,-5.105315 -10.60266,-6.6965551 -3.35243,-2.1573663 -4.59013,-2.6474128 -4.86662,-1.9268681 -0.59634,1.5540341 -3.80454,2.7612471 -4.77064,1.7951461 -0.95811,-0.9581108 1.10606,-3.6525759 2.79816,-3.6525759 0.79399,0 0.84734,-0.2218465 0.23175,-0.9635945 -0.43984,-0.5299772 -1.74412,-2.8535245 -2.8984,-5.16343888 -1.15428,-2.30991432 -2.69443,-4.73898302 -3.42256,-5.39793032 -1.26387,-1.1437892 -1.35775,-1.1009114 -2.07134,0.9460942 -0.86302,2.4756751 -2.15732,2.6886721 -6.16433,1.0144372 -3.6105,-1.5085616 -15.05147,-1.1005177 -18.36933,0.655144 -3.24599,1.7176303 -7.10907,5.2614982 -8.34885,7.6589651 -1.27684,2.469141 -1.46795,12.2689572 -0.32224,16.5238042 0.43641,1.620717 2.10982,4.357547 3.8432,6.28548 1.68862,1.878148 3.20454,4.042655 3.36872,4.810017 0.24301,1.135784 0.71456,0.75099 2.53608,-2.069493 l 0,0 z m 11.45604,-24.0595252 c -2.65859,-0.8586282 -3.71596,-1.5889484 -4.01279,-2.7716144 -0.59907,-2.38690218 0.1912,-3.09190098 3.46098,-3.08755048 6.13282,0.00817 11.02904,2.50274808 11.02904,5.61920508 0,1.213938 -0.46859,1.4057818 -3.43373,1.4057818 -1.88856,0 -5.05813,-0.52462 -7.0435,-1.165822 l 0,0 z m 3.44833,-6.5443607 c -8.58134,-2.7551848 -8.72795,-4.2254011 -0.24925,-2.4994851 7.38289,1.5028542 7.98105,1.7140611 7.98105,2.81810762 0,1.0349714 -1.34342,1.7993574 -2.46012,1.3997753 -0.38659,-0.1383314 -2.75885,-0.9116102 -5.27168,-1.71839782 z"
       id="path3076"
       inkscape:connector-curvature="0" />
    <path
       style="fill:#1a1a1a;fill-opacity:1"
       d="m -399.64287,27.101547 c -2.88005,-3.284736 -3.61738,-6.061304 -3.8731,-14.584982 -0.23349,-7.7823913 -0.12818,-8.6473567 1.36173,-11.1846617 1.85104,-3.1523293 7.93909,-7.6040159 12.12059,-8.8627851 3.39706,-1.0226314 12.29822,-1.0177683 16.88086,0.00925 5.05695,1.1332875 6.00797,-0.3155799 2.74921,-4.1883942 -3.95498,-4.70023 -12.75534,-7.15025 -20.11969,-5.601319 -4.18576,0.880384 -5.06094,1.633242 -2.63584,2.267421 1.62419,0.424733 1.86436,1.77316 0.41489,2.329372 -1.50769,0.578554 -5.00391,-1.514421 -9.62245,-5.760378 -3.68479,-3.387537 -11.14439,-8.721798 -12.19684,-8.721798 -1.79311,0 2.30474,12.139436 5.93179,17.5722667 2.26224,3.388541 2.77452,6.3260165 1.10321,6.3260165 -0.55796,0 -1.51103,-0.7089252 -2.11792,-1.5753893 l -1.10345,-1.5753883 -2.97803,1.5858979 c -2.54067,1.3529878 -13.02707,12.2230918 -14.78006,15.3208695 -0.30568,0.540175 -0.46383,3.596697 -0.35145,6.792273 l 0.20434,5.810137 4.02149,-3.773101 c 2.23328,-2.095342 4.44365,-3.611106 4.97087,-3.408793 0.53934,0.206968 1.33153,2.502781 1.83424,5.315756 0.74753,4.18293 2.32138,7.376215 3.13429,6.359367 0.1213,-0.151737 1.23591,-1.778314 2.4769,-3.614616 1.24099,-1.836302 2.59425,-3.338731 3.00724,-3.338731 0.413,0 2.62994,1.739655 4.92653,3.865899 3.89973,3.610459 7.07803,5.415702 4.64065,2.63584 z m -4.68157,-33.130664 c -1.23428,-1.2342792 -7.14628,-11.558378 -8.19704,-14.314456 -0.38625,-1.013086 -0.0718,-1.230059 1.78261,-1.230059 1.7058,0 3.30001,0.902547 6.57693,3.723468 2.37896,2.047908 5.1952,4.097083 6.25832,4.553721 2.20941,0.949 2.60517,2.969062 0.58168,2.969062 -0.91623,0 -1.60784,0.7774229 -2.1482,2.4147185 -0.72181,2.1871063 -1.48988,2.9937167 -3.00227,3.1529159 -0.28994,0.030515 -1.12335,-0.5406974 -1.85203,-1.2693704 z"
       id="path3078"
       inkscape:connector-curvature="0" />
    <path
       style="fill:#1a1a1a;fill-opacity:1"
       d="m -377.97412,-19.248783 c 0.14011,-0.365102 -0.98283,-3.716518 -2.69433,-8.041284 -2.05125,-5.183263 -2.71469,-6.435867 -3.40875,-6.435867 -0.38668,0 -1.57953,1.435071 -2.18229,2.625438 -0.66659,1.316411 -0.97177,2.599438 -1.23577,5.195457 -0.2464,2.422834 -0.60966,4.507662 -0.93434,5.362399 l -0.16533,0.435213 3.62505,0.0066 c 3.71874,0.0068 4.50708,0.115333 6.22094,0.856833 0.61529,0.266209 0.67097,0.265867 0.77482,-0.0047 l 0,-1e-6 z"
       id="path3085"
       inkscape:connector-curvature="0" />
    <path
       style="fill:#ececec;fill-opacity:1"
       d="m -725.08836,73.710783 c 2.7066,-3.605036 15.0875,-22.045791 16.023,-23.865512 0.889,-1.729312 1.0959,-4.125086 0.3563,-4.125086 -0.2538,0 -1.807,0.801584 -3.4517,1.781297 -1.6446,0.979713 -3.3845,1.705366 -3.8664,1.612559 -0.5527,-0.106423 -1.1133,-0.993675 -1.5182,-2.40257 -1.0709,-3.726606 -1.0399,-3.680834 -1.9681,-2.911083 -0.4492,0.372487 -1.1205,1.404139 -1.4918,2.29256 -0.3714,0.888422 -0.982,1.615312 -1.3569,1.615312 -0.3749,0 -1.5851,-0.930814 -2.6893,-2.068476 l -2.0077,-2.068475 -0.3358,1.789621 c -0.5252,2.799862 -0.5057,20.973713 0.028,26.113262 l 0.4809,4.630718 1.7975,-2.394127 z"
       id="path3087"
       inkscape:connector-curvature="0" />
    <path
       style="fill:#ececec;fill-opacity:1"
       d="m -472.54193,95.876962 c 10.80557,-1.143118 19.34158,-3.361101 19.67904,-5.113394 0.27326,-1.418916 -0.97272,-5.336702 -1.79796,-5.653369 -0.40276,-0.154554 -3.66695,0.417758 -7.25377,1.271792 -20.32007,4.838274 -27.42958,5.732566 -45.91803,5.775952 -6.63327,0.01555 -11.88924,0.07872 -11.67994,0.140316 9.9258,2.921664 35.07142,4.837505 46.97066,3.578703 l 0,0 z"
       id="path3089"
       inkscape:connector-curvature="0" />
    <path
       style="fill:#ececec;fill-opacity:1"
       d="m -413.60284,59.000894 c 1.69745,-2.904094 3.30613,-5.416053 3.57486,-5.582131 0.72849,-0.450231 0.59064,-1.382847 -0.16173,-1.094139 -0.35767,0.137251 -1.81121,1.111728 -3.23008,2.165506 -2.10638,1.564368 -2.58039,2.189575 -2.58309,3.407013 -0.002,0.820081 -0.23991,2.343109 -0.5291,3.384508 -1.01126,3.641721 -0.13272,2.957651 2.92914,-2.280757 l 0,0 z"
       id="path3091"
       inkscape:connector-curvature="0" />
    <path
       style="fill:#ececec;fill-opacity:1"
       d="m -338.34146,27.341741 c 2.05511,-1.620026 1.79394,-2.845319 -0.74553,-3.497685 -1.16178,-0.298451 -4.79623,-1.297921 -8.07656,-2.221045 -3.28032,-0.923125 -8.3079,-2.270039 -11.17239,-2.993144 -5.21662,-1.31687 -11.18505,-3.760443 -13.89083,-5.687128 -1.89048,-1.346136 -8.13533,-3.9791551 -10.98574,-4.6319141 -1.23842,-0.283606 -3.06764,-0.3625719 -4.06493,-0.175479 -2.78281,0.522058 -3.74011,1.645897 -4.07303,4.7816011 l -0.29023,2.733603 3.70011,3.230622 c 4.84427,4.229597 7.49056,5.452542 11.81648,5.460811 1.84011,0.0035 4.86777,-0.254619 6.72814,-0.573638 3.05502,-0.523878 3.78971,-0.470361 7.58876,0.552781 2.31345,0.623047 5.39591,1.576881 6.84991,2.11963 3.09888,1.156745 3.76257,0.99062 1.31289,-0.32862 -1.8842,-1.014708 -2.28994,-2.260776 -0.73615,-2.260776 0.54109,0 3.27078,0.922056 6.06597,2.049016 6.47917,2.612253 8.17657,2.857569 9.97313,1.441365 z"
       id="path3093"
       inkscape:connector-curvature="0" />
    <path
       style="fill:#ffccaa;fill-opacity:1"
       d="m -336.12765,29.842033 c 1.91428,-0.997277 3.46785,-3.19732 2.75863,-3.906541 -0.41278,-0.41278 -0.9943,-0.0476 -1.37496,0.863433 -0.19162,0.458626 -0.97796,1.37171 -1.74742,2.029075 -1.9933,1.702934 -1.83038,2.15711 0.36375,1.014033 l 0,0 z"
       id="path3095"
       inkscape:connector-curvature="0" />
    <path
       style="fill:#1a1a1a;fill-opacity:1"
       d="m -403.24837,-10.157338 c 0,-0.837705 0.12513,-1.191844 0.51846,-1.467341 0.70595,-0.49447 0.47969,-0.855003 -2.0769,-3.309432 -2.1901,-2.102587 -3.33106,-2.980379 -3.5671,-2.744337 -0.0769,0.07691 0.67014,1.629712 1.66013,3.450665 2.20264,4.051497 2.90154,5.1746455 3.22002,5.1746455 0.13497,0 0.24539,-0.4968905 0.24539,-1.1042005 z"
       id="path3097"
       inkscape:connector-curvature="0" />
    <path
       style="fill:#000080;fill-opacity:1"
       d="m -375.46502,3.5711385 c 0.34006,-0.340063 0.40637,-1.4413542 0.0868,-1.4413542 -1.05713,0 -2.23738,0.9466138 -1.88704,1.5134819 0.20243,0.327538 1.4506,0.2775297 1.80026,-0.072131 z"
       id="path3101"
       inkscape:connector-curvature="0" />
    <path
       style="fill:#1a1a1a;fill-opacity:1"
       d="m -333.67913,23.475817 c 1.12402,-0.448917 1.31873,-0.735487 0.85092,-1.252406 -0.8375,-0.925434 -2.82561,-0.382026 -2.82561,0.772324 0,0.720834 0.85277,0.928157 1.97469,0.480082 z"
       id="path3103"
       inkscape:connector-curvature="0" />
    <path
       style="fill:#333333;fill-opacity:1"
       d="m -400.25288,27.207057 c 0,-0.144617 -0.54602,-1.241658 -1.21339,-2.437872 -1.58122,-2.834216 -2.25991,-7.236199 -2.25107,-14.600399 0.006,-4.7159648 0.19826,-6.3849281 0.92023,-7.9743616 1.19928,-2.64023238 5.79567,-6.6876016 9.92588,-8.7402733 3.24009,-1.6102885 3.43455,-1.6424973 10.01401,-1.6586179 3.69036,-0.00905 8.33128,0.1802026 10.31314,0.4205432 3.51122,0.425807 3.60339,0.409087 3.60339,-0.6536866 0,-1.7843328 -4.78776,-6.1586218 -8.21622,-7.5066628 -2.46227,-0.968145 -3.89631,-1.169201 -8.43391,-1.182448 -3.5135,-0.01025 -6.00004,0.22096 -6.95827,0.647034 l -1.49105,0.662995 1.14155,0.529345 c 1.49182,0.691769 1.29876,2.52912 -0.28942,2.754408 -1.54321,0.218907 -4.57114,-1.640146 -9.57901,-5.881219 -5.45819,-4.622438 -11.559,-8.720612 -11.81935,-7.939559 -0.10923,0.327667 0.20649,2.081352 0.7016,3.897078 0.73795,2.706343 0.9541,3.077853 1.19935,2.061383 0.32012,-1.326753 1.38059,-1.755673 3.20726,-1.297207 0.62342,0.156468 3.32367,1.965543 6.00054,4.020165 2.67688,2.054621 5.01451,3.735675 5.19473,3.735675 0.64243,0 2.50318,2.039389 2.50318,2.743495 0,0.394184 -0.54007,0.852248 -1.20016,1.017919 -0.69909,0.1754617 -1.45405,0.9141759 -1.80829,1.7693766 -0.89769,2.1672177 -2.41255,3.9125657 -3.39588,3.9125657 -1.39184,0 -3.31746,-2.4045069 -6.76696,-8.4498403 -4.06719,-7.127854 -4.20829,-6.027166 -0.22392,1.746751 1.65353,3.2261956 2.93957,6.3314866 2.85786,6.9006455 -0.23006,1.6026582 -1.63919,1.5059441 -3.25543,-0.2234337 l -1.46774,-1.5704808 -2.18586,1.3620173 c -2.47037,1.5392994 -10.1137,9.0734056 -13.26679,13.0772056 l -2.09006,2.6539791 0,5.710786 0,5.710787 3.07473,-2.738891 c 3.53524,-3.149087 5.01302,-4.046853 6.02327,-3.659184 0.40191,0.154226 1.10089,1.872141 1.59413,3.917937 1.05259,4.365792 2.2161,7.466255 2.72722,7.267338 0.20481,-0.07971 1.46284,-1.584262 2.79562,-3.34345 1.33278,-1.75919 2.68487,-3.281544 3.00465,-3.38301 0.48556,-0.15407 2.96889,1.726201 8.24066,6.239471 0.47838,0.409549 0.86978,0.626314 0.86978,0.481696 z"
       id="path3105"
       inkscape:connector-curvature="0" />
    <path
       style="fill:#333333;fill-opacity:1"
       d="m -378.58917,-20.650453 c -0.62261,-2.480663 -4.29317,-11.403329 -4.97397,-12.091067 -1.19937,-1.21161 -2.75417,1.859044 -3.71366,7.334337 l -0.86131,4.914965 4.00725,0.210731 c 2.20398,0.115903 4.43212,0.397566 4.95142,0.625918 0.8402,0.369465 0.9052,0.259907 0.59027,-0.994884 z"
       id="path3107"
       inkscape:connector-curvature="0" />
  </g>
</svg>
