<?xml version="1.0" encoding="UTF-8" standalone="no"?>
<!-- Created with Inkscape (http://www.inkscape.org/) -->

<svg
   xmlns:dc="http://purl.org/dc/elements/1.1/"
   xmlns:cc="http://creativecommons.org/ns#"
   xmlns:rdf="http://www.w3.org/1999/02/22-rdf-syntax-ns#"
   xmlns:svg="http://www.w3.org/2000/svg"
   xmlns="http://www.w3.org/2000/svg"
   xmlns:sodipodi="http://sodipodi.sourceforge.net/DTD/sodipodi-0.dtd"
   xmlns:inkscape="http://www.inkscape.org/namespaces/inkscape"
   version="1.1"
   id="svg5539"
   width="32"
   height="32"
   viewBox="0 0 32 32"
   sodipodi:docname="right2.gif.svg"
   inkscape:version="0.92.3 (2405546, 2018-03-11)">
  <metadata
     id="metadata5545">
    <rdf:RDF>
      <cc:Work
         rdf:about="">
        <dc:format>image/svg+xml</dc:format>
        <dc:type
           rdf:resource="http://purl.org/dc/dcmitype/StillImage" />
        <dc:title></dc:title>
      </cc:Work>
    </rdf:RDF>
  </metadata>
  <defs
     id="defs5543" />
  <sodipodi:namedview
     pagecolor="#ffffff"
     bordercolor="#666666"
     borderopacity="1"
     objecttolerance="10"
     gridtolerance="10"
     guidetolerance="10"
     inkscape:pageopacity="0"
     inkscape:pageshadow="2"
     inkscape:window-width="1920"
     inkscape:window-height="1053"
     id="namedview5541"
     showgrid="false"
     inkscape:zoom="10.429825"
     inkscape:cx="45.906736"
     inkscape:cy="3.2142653"
     inkscape:window-x="1920"
     inkscape:window-y="0"
     inkscape:window-maximized="1"
     inkscape:current-layer="svg5539" />
  <rect
     style="opacity:1;fill:#ffffff;stroke:none;stroke-width:3.02362204;stroke-miterlimit:4;stroke-dasharray:none;stroke-opacity:1"
     id="rect8239"
     width="32.760902"
     height="32.712036"
     x="0.02967681"
     y="0.054995488"
     inkscape:export-xdpi="348"
     inkscape:export-ydpi="348" />
  <g
     transform="translate(0.02967681,0.05499549)"
     id="g8180"
     inkscape:export-xdpi="348"
     inkscape:export-ydpi="348">
    <g
       id="g8193">
      <path
         inkscape:connector-curvature="0"
         id="path8162"
         d="M 0,0.5 V 0 H 0.5 1 1.5 2 2.5 3 3.5 4 4.5 5 5.5 6 6.5 7 7.5 8 8.5 9 9.5 10 10.5 11 11.5 12 12.5 13 13.5 14 14.5 15 15.5 16 16.5 17 17.5 18 18.5 19 19.5 20 20.5 21 21.5 22 22.5 23 23.5 24 24.5 25 25.5 26 26.5 27 27.5 28 28.5 29 29.5 30 30.5 31 31.5 32 V 0.5 1 1.5 2 2.5 3 3.5 4 4.5 5 5.5 6 6.5 7 7.5 8 8.5 9 9.5 10 10.5 11 11.5 12 12.5 13 13.5 14 14.5 15 15.5 16 16.5 17 17.5 18 18.5 19 H 31.5 Q 31,19 31,18.5 31,18 30.625,17.875 30.25,17.75 30.125,17.375 30,17 29.625,16.875 29.25,16.75 29.125,16.375 29,16 29,15.5 29,15 29,14.5 29,14 28.625,13.875 28.25,13.75 28.125,13.375 28,13 27.625,12.875 27.25,12.75 27.125,12.375 27,12 26.5,12 26,12 26,11.5 26,11 26,10.5 26,10 26,9.5 26,9 26,8.5 26,8 26,7.5 26,7 25.5,7 25,7 24.5,7 24,7 23.875,7.375 23.75,7.75 23.375,7.875 23,8 22.875,8.375 22.75,8.75 22.375,8.875 22,9 21.875,9.375 q -0.125,0.375 -0.5,0.5 -0.375,0.125 -0.5,0.5 -0.125,0.375 -0.5,0.5 -0.375,0.125 -0.5,0.5 -0.125,0.375 -0.5,0.5 -0.375,0.125 -0.5,0.5 -0.125,0.375 -0.5,0.5 -0.375,0.125 -0.5,0.5 -0.125,0.375 -0.5,0.5 Q 17,14 17,14.5 q 0,0.5 -0.125,0.875 -0.125,0.375 -0.5,0.5 Q 16,16 15.875,16.375 15.75,16.75 15.5,16.75 15.25,16.75 15.125,16.375 15,16 14.625,15.875 14.25,15.75 14.125,15.375 14,15 13.5,15 13,15 12.625,14.875 12.25,14.75 12.125,14.375 12,14 11.5,14 11,14 10.5,14 10,14 9.625,13.875 9.25,13.75 9.125,13.375 9,13 8.5,13 8,13 7.625,12.875 7.25,12.75 7.25,12.5 7.25,12.25 7.625,12.125 8,12 8,11.5 8,11 8,10.5 8,10 8,9.5 8,9 7.625,8.875 7.25,8.75 7.125,8.375 7,8 7,7.5 7,7 7,6.5 7,6 6.625,5.875 6.25,5.75 6.125,5.375 6,5 6,4.5 6,4 5.625,3.875 5.25,3.75 5.125,3.375 5,3 4.625,2.875 4.25,2.75 4.125,2.375 4,2 3.5,2 3,2 2.5,2 2,2 2,2.5 q 0,0.5 0,1 0,0.5 0,1 0,0.5 0,1 0,0.5 0,1 0,0.5 0,1 0,0.5 0,1 0,0.5 0,1 0,0.5 0,1 0,0.5 0,1 0,0.5 0.375,0.625 0.375,0.125 0.5,0.5 Q 3,13 3,13.5 3,14 3,14.5 3,15 2.875,15.375 2.75,15.75 2.375,15.875 2,16 2,16.5 q 0,0.5 0,1 0,0.5 0,1 0,0.5 0,1 0,0.5 -0.125,0.875 -0.125,0.375 -0.5,0.5 Q 1,21 1,21.5 1,22 1,22.5 1,23 0.5,23 H 0 V 22.5 22 21.5 21 20.5 20 19.5 19 18.5 18 17.5 17 16.5 16 15.5 15 14.5 14 13.5 13 12.5 12 11.5 11 10.5 10 9.5 9 8.5 8 7.5 7 6.5 6 5.5 5 4.5 4 3.5 3 2.5 2 1.5 1 0.5"
         style="fill:#000000;fill-opacity:0" />
      <path
         inkscape:connector-curvature="0"
         id="path8164"
         d="m 2,2.5 c 1.2578584,-1.54495392 2.761186,0.5372115 3.7106476,1.4505627 0.3564595,1.4432614 1.64475,2.5228759 1.2845998,4.0924716 1.0710346,1.0372204 1.3242956,2.6098367 0.7938151,3.9960277 -1.456076,0.997512 1.5386247,0.759536 1.7120899,1.760499 1.1160936,0.405286 2.4068066,-0.1249 3.1483366,1.020644 1.413461,-0.02848 2.009488,1.472511 3.089851,1.818223 1.179978,-0.75935 1.070304,-2.420552 2.13566,-3.263428 0.963571,-0.916616 1.847202,-1.92898 2.832589,-2.80269 0.818312,-1.0045042 1.903342,-1.7199239 2.674711,-2.7502802 0.650155,-1.1855739 3.169592,-1.2239299 2.620461,0.5793934 0.262245,1.2229438 -0.672875,3.1638418 0.759379,3.7134258 1.129161,1.002495 2.706495,2.034797 2.238082,3.77617 0.450439,1.183132 1.884605,2.058713 2.390864,3.002599 1.11328,0.18112 0.915321,2.768835 -0.478878,2.124815 -0.980478,1.031831 -2.240663,1.170191 -3.61729,0.978943 -1.160444,-0.0015 -3.658121,-0.348433 -3.235548,1.528773 0.690569,0.949794 1.728968,1.642192 2.402237,2.387991 0.886482,1.015874 1.639895,1.633385 2.540052,2.609082 -0.768528,0.962212 -1.755847,1.831701 -3.143655,1.494273 -1.052553,0.135963 -0.907261,-1.571291 -2.167089,-1.010345 -0.800249,0.09999 -0.914939,1.483527 -2.113443,0.986954 -1.150657,-0.735639 -1.729573,-2.595033 -3.552126,-1.955536 -1.181803,-0.03848 -1.327572,-1.558031 -2.694287,-1.043411 -1.586252,0.05755 -3.081966,0.208027 -4.271822,-0.915981 C 9.8745687,25.991863 8.1137119,25.560254 7.6938276,26.936971 6.1768399,27.221201 4.273791,26.420421 3.5,28 2.8891584,28.6821 2.244149,29.474624 1.1532998,28.825861 0.71007213,28.006983 -0.40316965,27.796194 0,26.562493 0,25.374995 0,24.187498 0,23 1.5979114,23.152145 0.6245312,20.882186 1.8728261,20.253043 2.2866711,19.133832 1.8244979,17.852073 2.0155847,16.659195 2.2960959,15.727649 3.3680233,14.974017 3,13.734629 3.441607,12.545588 1.6459272,12.024701 2,10.818496 2,8.0456643 2,5.2728322 2,2.5 Z m 19.625,24.375 c 1.593074,0.359289 2.908101,-1.862103 1.091956,-2.663434 -0.431858,-1.124842 -2.212996,-0.862827 -2.373206,-1.930316 1.463,-0.514602 3.16397,-0.01686 4.407546,-1.165095 1.503577,-0.332419 3.078678,0.104152 4.580706,-0.230115 1.16187,-0.67904 0.724307,-2.520219 -0.183417,-3.264643 -1.066986,-0.633937 -1.179069,-1.915135 -1.291041,-3.003039 -0.327717,-1.579829 -2.567286,-1.231929 -2.843906,-2.697634 -0.259596,-1.137503 0.606633,-3.1697551 -0.732388,-3.576974 -0.756859,1.1156831 -2.199042,1.787663 -3.072001,2.94838 -0.992792,0.979615 -1.989483,1.95672 -2.927999,2.98912 -0.435351,1.361273 -1.652637,3.395413 -3.124387,3.296557 C 14.28087,16.651522 13.278554,15.984294 12.084473,15.554094 10.655212,14.766137 9.034716,14.823398 7.6489058,13.882969 6.3726444,13.473049 6.0050002,12.162264 6.9329077,11.209573 7.3810836,9.662524 5.8936483,8.5679019 5.9499028,7.076356 5.2832119,5.8284701 4.8576626,3.3093013 3.2671584,3.4378717 2.7062849,4.7300635 3.1418717,6.2435766 2.9988915,7.6318023 c 0.031464,1.2332091 -0.1126599,2.5185067 0.1548909,3.7168317 0.6974519,1.016704 1.0556747,2.211578 0.8511553,3.435653 -0.401365,1.282389 -1.3694983,2.393666 -0.9969829,3.841089 0.5187979,1.516236 -1.2342569,2.473905 -0.8158259,3.876522 0.6611026,0.982483 1.5681494,1.985178 2.6842741,2.457845 1.282994,0.430099 2.1893304,-0.716175 3.313337,-1.02299 1.0408041,-0.352539 2.719303,-1.906901 3.492503,-1.311432 -0.512614,0.812874 -0.631731,1.880602 -1.595089,1.339156 -1.4049137,0.227262 -0.2931091,1.462164 0.648388,1.000695 1.343944,0.507222 2.557764,1.387536 4.095971,1.033116 1.380147,0.147957 2.655075,-0.0022 3.590001,-1.031861 1.475063,-0.224775 2.042895,1.422575 3.203486,1.908573 z M 23.96875,9.09375 23.97315,9.080677 Z M 18.375,25 c 0.214563,0 0.337061,0 0,0 z"
         style="fill:#000000;fill-opacity:1" />
      <path
         inkscape:connector-curvature="0"
         id="path8176"
         d="m 30.125,21.625 q 0.125,-0.375 0.5,-0.5 Q 31,21 31.5,21 H 32 V 21.5 22 22.5 23 23.5 24 24.5 25 25.5 26 26.5 27 27.5 28 28.5 29 29.5 30 30.5 31 31.5 32 H 31.5 31 30.5 30 29.5 29 28.5 28 27.5 27 26.5 26 25.5 25 24.5 24 23.5 23 22.5 22 21.5 21 20.5 20 19.5 19 18.5 18 17.5 17 16.5 16 15.5 15 14.5 14 13.5 13 12.5 12 11.5 11 10.5 10 9.5 9 8.5 8 7.5 7 6.5 6 5.5 5 4.5 4 3.5 3 2.5 2 1.5 1 0.5 0 V 31.5 31 30.5 30 29.5 29 28.5 28 H 0.5 Q 1,28 1,28.5 1,29 1.5,29 2,29 2.5,29 3,29 3,28.5 3,28 3.5,28 4,28 4,27.5 4,27 4.5,27 q 0.5,0 1,0 0.5,0 1,0 0.5,0 1,0 Q 8,27 8,26.5 8,26 8.5,26 q 0.5,0 1,0 0.5,0 1,0 0.5,0 0.875,0.125 0.375,0.125 0.5,0.5 Q 12,27 12.5,27 q 0.5,0 1,0 0.5,0 1,0 0.5,0 1,0 0.5,0 1,0 0.5,0 0.5,0.5 0,0.5 0.5,0.5 0.5,0 1,0 0.5,0 1,0 0.5,0 0.5,0.5 0,0.5 0.5,0.5 0.5,0 0.5,0.5 0,0.5 0.5,0.5 0.5,0 1,0 0.5,0 0.5,-0.5 0,-0.5 0.5,-0.5 0.5,0 1,0 0.5,0 0.5,0.5 0,0.5 0.5,0.5 0.5,0 1,0 0.5,0 1,0 Q 28,30 28,29.5 28,29 28.5,29 29,29 29,28.5 29,28 28.5,28 28,28 28,27.5 28,27 27.5,27 27,27 27,26.5 27,26 26.5,26 26,26 26,25.5 26,25 25.5,25 25,25 25,24.5 25,24 24.5,24 24,24 24,23.5 24,23 24.125,22.625 24.25,22.25 24.625,22.125 25,22 25.5,22 q 0.5,0 1,0 0.5,0 1,0 0.5,0 1,0 0.5,0 1,0 0.5,0 0.625,-0.375"
         style="fill:#000000;fill-opacity:0" />
      <g
         id="g8202">
        <path
           style="fill:#ffffff;fill-opacity:1"
           d="M 3.125,3.625 Q 3.25,3.25 3.5,3.25 3.75,3.25 4,3.5 4.25,3.75 4.5,4 4.75,4.25 4.875,4.625 L 5,5 4.625,5.125 Q 4.25,5.25 4,5.5 3.75,5.75 3.375,5.875 L 3,6 V 5.5 Q 3,5 3,4.5 3,4 3.125,3.625 M 3,5.625 V 6 6.125 6.25 6 Q 3,5.75 3,5.5 V 5.25 5.625 M 5.03125,5.09375 5,5 4.90625,4.71875 4.8125,4.4375 4.875,4.625 Q 4.9375,4.8125 5,5 L 5.0625,5.1875 5.03125,5.09375"
           id="path8166"
           inkscape:connector-curvature="0" />
        <path
           inkscape:connector-curvature="0"
           id="path8168"
           d="M 4,5.5 C 4.6687415,4.8053642 5.2043043,4.9801613 5.3828125,5.8671875 6.4129513,6.7659342 5.6000985,8.416551 6.71875,9.28125 7.5372204,10.478875 6.5116506,11.694833 6.3125,12.75 c 0.4697677,0.688096 1.1745294,1.167228 1.9886709,1.35039 0.9447286,0.774345 2.0855721,0.910412 3.2535171,1.094922 0.542223,0.431117 1.141247,0.760429 1.820312,0.929688 0.886478,0.286044 1.249044,1.356958 2.125,1.625 0.698363,-0.225558 1.098978,-0.940059 1.651196,-1.401196 0.685855,-0.495249 0.79784,-1.351417 1.130054,-2.067554 1.258722,-1.399923 2.656566,-2.680793 3.970744,-4.033244 C 22.762342,9.7366152 23.249571,9.1398022 24,9 c -0.15024,0.9092501 -1.35446,1.548229 -0.796875,2.546875 0.279597,0.44767 1.741541,0.7271 1.796875,0.203125 0.09385,0.628261 0.270064,1.041399 0,0.25 0.0776,0.650852 0.651409,0.951537 1.233554,1.077851 0.768896,0.276425 1.460987,0.953473 1.696134,1.742461 0.02941,0.949762 0.138483,1.985291 0.973502,2.582878 0.656326,0.565599 1.232363,1.309077 1.09681,2.239359 0,0.858914 0,-0.395773 0,-0.321274 -0.136332,0.650742 0.196878,0.938127 -0.31619,0.65667 -1.883243,0.06453 -3.771035,-0.02723 -5.65256,0.05331 -0.878286,0.126413 -1.59367,0.879304 -1.928789,1.661367 -0.175427,0.704264 -1.319551,-6e-6 -1.758711,0.588633 -0.309741,0.683894 0.797241,0.668514 1.210938,0.914062 0.784085,0.51548 1.380291,1.279005 2.054687,1.929688 0.397073,0.778573 -0.647446,1.431063 -1.234375,1.75 -1.138914,0.317439 -1.753147,-0.886647 -2.507812,-1.492188 C 18.886612,24.76121 17.672277,25.078692 16.573429,25 15.323014,24.96891 14.062968,25.07111 12.820312,24.92969 12.351417,24.820285 11.167379,23.922782 11.135234,24.04508 12.128916,24.340419 10.69494,23.95686 10.859375,24.01563 11.052941,23.651816 12.098506,22.595122 11.5,22.25 c -0.615707,0.285317 -1.172769,0.734819 -1.875,0.875 -0.6507679,0.363194 -1.2362046,0.843976 -1.993788,0.997929 -0.9352971,0.71039 -2.2097014,1.255726 -3.349962,0.595821 -0.7115363,-0.611841 -1.3885101,-1.288118 -2,-2 C 1.4450814,21.486535 3.2967863,20.690199 3,19.428725 3.0784791,18.328819 2.7620213,17.115233 3.3828125,16.132812 4.2301122,15.331886 3.977938,14.075991 3.96875,13.03125 3.7475105,12.021028 2.7328356,11.296049 3,10.143627 3,8.7624178 3,7.3812089 3,6 3.3545357,5.8812607 3.7340325,5.7826987 4,5.5 Z M 3,5.875 C 3,6.1093805 3,7.1398717 3,6.4287253 3,6.349114 3,5.536415 3,5.875 Z M 21.625,22 c 0.626779,0 0.675618,0 0.01863,0 -0.316501,0 -0.630905,0 -0.01863,0 z m 3.5,-5.625 c 0.901708,1.174305 1.243445,-1.672272 0.492188,-2.101562 C 24.753271,14.288798 25.000039,15.820829 25.125,16.375 Z M 23.90625,9.28125 C 24.129254,8.6122384 24.00501,8.9849584 23.85246,9.4426171 23.7399,9.7802964 23.8914,9.3257933 23.90625,9.28125 Z m -18.8125,-4 C 4.8707461,4.6122384 4.9949861,4.9849584 5.147539,5.4426171 5.2600988,5.7802964 5.1085978,5.3257933 5.09375,5.28125 Z"
           style="fill:#ff0000;fill-opacity:1" />
        <path
           style="fill:#ffffff;fill-opacity:1"
           d="M 24.125,8.625 Q 24.25,8.25 24.5,8.25 q 0.25,0 0.375,0.375 Q 25,9 25,9.5 q 0,0.5 0,1 0,0.5 0,1 V 12 11.625 11.25 11.5 q 0,0.25 0.03125,0.46875 L 25.0625,12.1875 25.04687,12.078125 25.03124,11.96875 24.515615,11.98438 Q 24,12 23.625,11.875 23.25,11.75 23.125,11.375 23,11 23.125,10.625 23.25,10.25 23.5,10 23.75,9.75 23.875,9.375 24,9 24.125,8.625"
           id="path8170"
           inkscape:connector-curvature="0" />
        <path
           style="fill:#000000;fill-opacity:1"
           d="M 25.125,14.625 Q 25.25,14.25 25.5,14.25 q 0.25,0 0.375,0.375 Q 26,15 26,15.5 26,16 25.875,16.375 25.75,16.75 25.5,16.75 25.25,16.75 25.125,16.375 25,16 25,15.5 25,15 25.125,14.625"
           id="path8172"
           inkscape:connector-curvature="0" />
        <path
           style="fill:#ffffff;fill-opacity:1"
           d="M 23,20.5 Q 23.25,20.25 23.625,20.125 24,20 24.5,20 q 0.5,0 1,0 0.5,0 1,0 0.5,0 1,0 0.5,0 1,0 0.5,0 0.984375,-0.01563 L 29.96875,19.96875 29.984375,19.859375 30,19.75 29.96875,19.96875 Q 29.9375,20.1875 29.875,20.375 L 29.8125,20.5625 29.90625,20.28125 30,20 29.875,20.375 q -0.125,0.375 -0.5,0.5 Q 29,21 28.5,21 q -0.5,0 -1,0 -0.5,0 -1,0 -0.5,0 -1,0 Q 25,21 24.625,21.125 24.25,21.25 24,21.5 23.75,21.75 23.375,21.875 23,22 22.5,22 H 22 l 0.125,-0.375 Q 22.25,21.25 22.5,21 22.75,20.75 23,20.5 M 21.875,22 H 22 22.375 22.75 22.5 q -0.25,0 -0.5,0 h -0.25 0.125"
           id="path8174"
           inkscape:connector-curvature="0" />
        <path
           style="fill:#ffffff;fill-opacity:1"
           d="m 9.25,24.5 q 0,-0.25 0.375,-0.375 Q 10,24 10.5,24 11,24 11.375,24.125 11.75,24.25 12,24.5 12.25,24.75 12.625,24.875 13,25 13.5,25 q 0.5,0 1,0 0.5,0 1,0 0.5,0 1,0 0.5,0 1,0 H 18 l -0.125,0.375 q -0.125,0.375 -0.5,0.5 Q 17,26 16.5,26 q -0.5,0 -1,0 -0.5,0 -1,0 -0.5,0 -1,0 Q 13,26 12.625,25.875 12.25,25.75 12,25.5 11.75,25.25 11.375,25.125 11,25 10.5,25 10,25 9.625,24.875 9.25,24.75 9.25,24.5 M 18.125,25 H 18 17.625 17.25 17.5 q 0.25,0 0.5,0 h 0.25 -0.125"
           id="path8178"
           inkscape:connector-curvature="0" />
      </g>
    </g>
  </g>
</svg>
